M48
; DRILL file {KiCad 7.0.5-0} date 2023 July 29, Saturday 12:44:29
; FORMAT={-:-/ absolute / metric / decimal}
; #@! TF.CreationDate,2023-07-29T12:44:29-07:00
; #@! TF.GenerationSoftware,Kicad,Pcbnew,7.0.5-0
; #@! TF.FileFunction,Plated,1,2,PTH
FMAT,2
METRIC
; #@! TA.AperFunction,Plated,PTH,ComponentDrill
T1C0.400
; #@! TA.AperFunction,Plated,PTH,ComponentDrill
T2C1.000
; #@! TA.AperFunction,Plated,PTH,ComponentDrill
T3C2.200
%
G90
G05
T1
X130.112Y-87.647
X130.551Y-86.586
X130.551Y-88.708
X131.611Y-86.148
X131.611Y-89.146
X132.672Y-86.586
X132.672Y-88.708
X133.11Y-87.647
X143.561Y-68.371
X144.0Y-67.311
X144.0Y-69.432
X145.061Y-66.872
X145.061Y-69.87
X146.121Y-67.311
X146.121Y-69.432
X146.56Y-68.371
X170.552Y-122.034
X170.99Y-120.973
X170.99Y-123.094
X172.051Y-120.534
X172.051Y-123.533
X173.111Y-120.973
X173.111Y-123.094
X173.55Y-122.034
T2
X158.6Y-123.89
X161.1Y-123.89
X163.6Y-123.89
T3
X131.611Y-87.647
X145.061Y-68.371
X172.051Y-122.034
T0
M30
