<?xml version="1.0" encoding="UTF-8" standalone="no"?>
<svg
   version="1.1"
   width="22.684740cm"
   height="16.222980cm"
   viewBox="0 0 226847400 162229800"
   id="svg5526"
   sodipodi:docname="ergodonk_pcb-brd_pre_merge.svg"
   inkscape:version="1.2.1 (9c6d41e, 2022-07-14)"
   xmlns:inkscape="http://www.inkscape.org/namespaces/inkscape"
   xmlns:sodipodi="http://sodipodi.sourceforge.net/DTD/sodipodi-0.dtd"
   xmlns="http://www.w3.org/2000/svg"
   xmlns:svg="http://www.w3.org/2000/svg"
   xmlns:rdf="http://www.w3.org/1999/02/22-rdf-syntax-ns#"
   xmlns:cc="http://creativecommons.org/ns#"
   xmlns:dc="http://purl.org/dc/elements/1.1/">
  <defs
     id="defs5530">
    <inkscape:path-effect
       effect="fillet_chamfer"
       id="path-effect16777"
       is_visible="true"
       lpeversion="1"
       nodesatellites_param="F,0,0,1,0,451484.92,0,1 @ F,0,0,1,0,0,0,1 @ F,0,0,1,0,0,0,1 @ F,0,0,1,0,207255.07,0,1 @ F,0,0,1,0,308617.09,0,1 @ F,0,0,1,0,0,0,1 @ F,0,0,1,0,0,0,1 @ F,0,0,1,0,0,0,1 @ F,0,0,1,0,0,0,1 @ F,0,0,1,0,0,0,1 @ F,0,0,1,0,0,0,1 @ F,0,0,1,0,0,0,1 @ F,0,0,1,0,0,0,1 @ F,0,0,1,0,0,0,1 @ F,0,0,1,0,0,0,1 @ F,0,0,1,0,0,0,1 @ F,0,0,1,0,0,0,1 @ F,0,0,1,0,0,0,1 @ F,0,0,1,0,0,0,1 @ F,0,0,1,0,0,0,1 @ F,0,0,1,0,0,0,1 @ F,0,0,1,0,0,0,1 @ F,0,0,1,0,0,0,1 @ F,0,0,1,0,0,0,1 @ F,0,0,1,0,0,0,1 @ F,0,0,1,0,0,0,1 @ F,0,0,1,0,0,0,1 @ F,0,0,1,0,0,0,1 @ F,0,0,1,0,0,0,1 @ F,0,0,1,0,0,0,1 @ F,0,0,1,0,0,0,1"
       unit="px"
       method="auto"
       mode="F"
       radius="0"
       chamfer_steps="1"
       flexible="false"
       use_knot_distance="true"
       apply_no_radius="true"
       apply_with_radius="true"
       only_selected="false"
       hide_knots="false" />
    <inkscape:path-effect
       effect="fillet_chamfer"
       id="path-effect16775"
       is_visible="true"
       lpeversion="1"
       nodesatellites_param="F,0,0,1,0,6123636,0,1 @ F,0,0,1,0,0,0,1 @ F,0,0,1,0,3816740.3,0,1 @ F,0,0,1,0,0,0,1 @ F,0,0,1,0,0,0,1 @ F,0,0,1,0,0,0,1 @ F,0,0,1,0,0,0,1 @ F,0,0,1,0,0,0,1 @ F,0,0,1,0,0,0,1 @ F,0,0,1,0,0,0,1 | F,0,0,1,0,0,0,1 @ F,0,0,1,0,0,0,1 @ F,0,0,1,0,0,0,1 @ F,0,0,1,0,0,0,1 @ F,0,0,1,0,0,0,1 @ F,0,0,1,0,0,0,1 @ F,0,0,1,0,0,0,1"
       unit="mm"
       method="auto"
       mode="F"
       radius="3"
       chamfer_steps="1"
       flexible="false"
       use_knot_distance="false"
       apply_no_radius="true"
       apply_with_radius="true"
       only_selected="true"
       hide_knots="false" />
    <inkscape:path-effect
       effect="fillet_chamfer"
       id="path-effect16773"
       is_visible="true"
       lpeversion="1"
       nodesatellites_param="F,0,0,1,0,0.18520833,0,3 @ F,0,0,1,0,0.18520833,0,3 @ F,0,0,1,0,0.18520833,0,3 @ F,0,0,1,0,0.18520833,0,3 @ F,0,0,1,0,0.18520833,0,3 @ F,0,0,1,0,0.18520833,0,3 @ F,0,0,1,0,0.18520833,0,3 @ F,0,0,1,0,0.18520833,0,3 @ F,0,0,1,0,0.18520833,0,3 @ F,0,0,1,0,0.18520833,0,3 | F,0,0,1,0,0.18520833,0,3 @ F,0,0,1,0,0.18520833,0,3 @ F,0,0,1,0,0.18520833,0,3 @ F,0,0,1,0,0.18520833,0,3 @ F,0,0,1,0,0.18520833,0,3 @ F,0,0,1,0,0.18520833,0,3 @ F,0,0,1,0,0.18520833,0,3"
       unit="px"
       method="auto"
       mode="F"
       radius="7"
       chamfer_steps="4"
       flexible="false"
       use_knot_distance="true"
       apply_no_radius="true"
       apply_with_radius="true"
       only_selected="false"
       hide_knots="false" />
    <inkscape:path-effect
       effect="offset"
       id="path-effect9787"
       is_visible="true"
       lpeversion="1.2"
       linejoin_type="round"
       unit="mm"
       offset="2"
       miter_limit="3"
       attempt_force_join="false"
       update_on_knot_move="true" />
    <inkscape:path-effect
       effect="offset"
       id="path-effect9781"
       is_visible="true"
       lpeversion="1.2"
       linejoin_type="miter"
       unit="mm"
       offset="0"
       miter_limit="4"
       attempt_force_join="false"
       update_on_knot_move="true" />
    <inkscape:path-effect
       effect="offset"
       id="path-effect9779"
       is_visible="true"
       lpeversion="1.2"
       linejoin_type="round"
       unit="mm"
       offset="2"
       miter_limit="3"
       attempt_force_join="false"
       update_on_knot_move="true" />
    <inkscape:path-effect
       effect="offset"
       id="path-effect9393"
       is_visible="true"
       lpeversion="1.2"
       linejoin_type="miter"
       unit="mm"
       offset="0"
       miter_limit="4"
       attempt_force_join="false"
       update_on_knot_move="true" />
    <inkscape:path-effect
       effect="offset"
       id="path-effect5943"
       is_visible="true"
       lpeversion="1.2"
       linejoin_type="miter"
       unit="mm"
       offset="3"
       miter_limit="3"
       attempt_force_join="false"
       update_on_knot_move="true" />
    <inkscape:path-effect
       effect="offset"
       id="path-effect5534"
       is_visible="true"
       lpeversion="1.2"
       linejoin_type="miter"
       unit="mm"
       offset="-2"
       miter_limit="3"
       attempt_force_join="false"
       update_on_knot_move="true" />
  </defs>
  <sodipodi:namedview
     id="namedview5528"
     pagecolor="#ffffff"
     bordercolor="#000000"
     borderopacity="0.25"
     inkscape:showpageshadow="2"
     inkscape:pageopacity="0.0"
     inkscape:pagecheckerboard="0"
     inkscape:deskcolor="#d1d1d1"
     inkscape:document-units="cm"
     showgrid="false"
     inkscape:zoom="1.4142136"
     inkscape:cx="271.529"
     inkscape:cy="358.85669"
     inkscape:window-width="2560"
     inkscape:window-height="1301"
     inkscape:window-x="1728"
     inkscape:window-y="332"
     inkscape:window-maximized="0"
     inkscape:current-layer="svg5526" />
  <title
     id="title4764">SVG Picture created as ergodonk_pcb-brd.svg date 2023/02/02 10:39:58 </title>
  <desc
     id="desc4766">Picture generated by PCBNEW </desc>
  <g
     style="display:none;fill:#000000;fill-opacity:1;stroke:#000000;stroke-linecap:round;stroke-linejoin:round;stroke-opacity:1"
     id="g4768" />
  <g
     style="display:none;fill:#000000;fill-opacity:0;stroke:#000000;stroke-width:0;stroke-linecap:round;stroke-linejoin:round;stroke-opacity:1"
     id="g4770" />
  <g
     style="display:none;fill:#000000;fill-opacity:0;stroke:#000000;stroke-width:150000;stroke-linecap:round;stroke-linejoin:round;stroke-opacity:1"
     id="g4794"
     sodipodi:insensitive="true" />
  <g
     style="fill:#000000; fill-opacity:0.0;  stroke:#000000; stroke-width:100000.000000; stroke-opacity:1;  stroke-linecap:round; stroke-linejoin:round;"
     id="g4806"
     inkscape:label="Alignment marker">
    <g
       id="g9320"
       style="display:inline">
      <circle
         cx="28650000"
         cy="142818512"
         r="1666666"
         id="circle4800" />
      <path
         d="m 26150000,142818510 h 5000000"
         id="path4802" />
      <path
         d="m 28650000,140318510 v 5000000"
         id="path4804" />
    </g>
  </g>
  <g
     style="display:none;fill:#000000;fill-opacity:0;stroke:#000000;stroke-width:120000;stroke-linecap:round;stroke-linejoin:round;stroke-opacity:1"
     id="g5524">
    <path
       d="M 125700000,38945313 V 35845313"
       id="path4808" />
    <path
       d="m 125700000,35845313 h -3600000"
       id="path4810" />
    <path
       d="m 122100000,38945313 h 3600000"
       id="path4812" />
    <path
       d="m 122100000,35845313 v 3100000"
       id="path4814" />
    <path
       d="m 106650000,77945313 h -3600000"
       id="path4816" />
    <path
       d="m 103050000,81045313 h 3600000"
       id="path4818" />
    <path
       d="m 103050000,77945313 v 3100000"
       id="path4820" />
    <path
       d="M 106650000,81045313 V 77945313"
       id="path4822" />
    <path
       d="M 49500000,50845313 H 45900000"
       id="path4824" />
    <path
       d="m 45900000,53945313 h 3600000"
       id="path4826" />
    <path
       d="m 45900000,50845313 v 3100000"
       id="path4828" />
    <path
       d="M 49500000,53945313 V 50845313"
       id="path4830" />
    <path
       d="m 177681370,135947180 3564960,501030"
       id="path4832" />
    <path
       d="m 178112810,132877350 -431440,3069830"
       id="path4834" />
    <path
       d="m 181677770,133378380 -3564960,-501030"
       id="path4836" />
    <path
       d="m 181246330,136448210 431440,-3069830"
       id="path4838" />
    <path
       d="m 141150000,78945313 v 3100000"
       id="path4840" />
    <path
       d="m 141150000,82045313 h 3600000"
       id="path4842" />
    <path
       d="M 144750000,82045313 V 78945313"
       id="path4844" />
    <path
       d="m 144750000,78945313 h -3600000"
       id="path4846" />
    <path
       d="m 22087500,69895313 v 3100000"
       id="path4848" />
    <path
       d="m 22087500,72995313 h 3600000"
       id="path4850" />
    <path
       d="M 25687500,72995313 V 69895313"
       id="path4852" />
    <path
       d="M 25687500,69895313 H 22087500"
       id="path4854" />
    <path
       d="M 87600000,48445313 V 45345313"
       id="path4856" />
    <path
       d="M 87600000,45345313 H 84000000"
       id="path4858" />
    <path
       d="m 84000000,48445313 h 3600000"
       id="path4860" />
    <path
       d="m 84000000,45345313 v 3100000"
       id="path4862" />
    <path
       d="m 103050000,100095310 h 3600000"
       id="path4864" />
    <path
       d="M 106650000,100095310 V 96995313"
       id="path4866" />
    <path
       d="m 103050000,96995313 v 3099997"
       id="path4868" />
    <path
       d="m 106650000,96995313 h -3600000"
       id="path4870" />
    <path
       d="m 80000000,15895313 h 3600000"
       id="path4872" />
    <path
       d="M 83600000,12795313 H 80000000"
       id="path4874" />
    <path
       d="m 80000000,12795313 v 3100000"
       id="path4876" />
    <path
       d="M 83600000,15895313 V 12795313"
       id="path4878" />
    <path
       d="m 106650000,119145310 v -3100000"
       id="path4880" />
    <path
       d="m 103050000,119145310 h 3600000"
       id="path4882" />
    <path
       d="m 106650000,116045310 h -3600000"
       id="path4884" />
    <path
       d="m 103050000,116045310 v 3100000"
       id="path4886" />
    <path
       d="m 94601000,20844313 h 3100000"
       id="path4888" />
    <path
       d="m 94601000,17244313 v 3600000"
       id="path4890" />
    <path
       d="M 97701000,20844313 V 17244313"
       id="path4892" />
    <path
       d="M 97701000,17244313 H 94601000"
       id="path4894" />
    <path
       d="m 144750000,97995313 h -3600000"
       id="path4896" />
    <path
       d="M 144750000,101095310 V 97995313"
       id="path4898" />
    <path
       d="m 141150000,101095310 h 3600000"
       id="path4900" />
    <path
       d="m 141150000,97995313 v 3099997"
       id="path4902" />
    <path
       d="m 199216750,145461930 -3564960,-501030"
       id="path4904" />
    <path
       d="m 195651790,144960900 -431440,3069840"
       id="path4906" />
    <path
       d="m 195220350,148030740 3564970,501020"
       id="path4908" />
    <path
       d="m 198785320,148531760 431430,-3069830"
       id="path4910" />
    <path
       d="m 179250000,64895313 v 3100000"
       id="path4912" />
    <path
       d="M 182850000,67995313 V 64895313"
       id="path4914" />
    <path
       d="m 182850000,64895313 h -3600000"
       id="path4916" />
    <path
       d="m 179250000,67995313 h 3600000"
       id="path4918" />
    <path
       d="m 118100000,15895313 h 3600000"
       id="path4920" />
    <path
       d="M 121700000,15895313 V 12795313"
       id="path4922" />
    <path
       d="m 118100000,12795313 v 3100000"
       id="path4924" />
    <path
       d="m 121700000,12795313 h -3600000"
       id="path4926" />
    <path
       d="m 142954340,135150110 -3564970,-501020"
       id="path4928" />
    <path
       d="m 138957940,137718920 3564960,501020"
       id="path4930" />
    <path
       d="m 139389370,134649090 -431430,3069830"
       id="path4932" />
    <path
       d="m 142522900,138219940 431440,-3069830"
       id="path4934" />
    <path
       d="M 87600000,64395313 H 84000000"
       id="path4936" />
    <path
       d="m 84000000,67495313 h 3600000"
       id="path4938" />
    <path
       d="m 84000000,64395313 v 3100000"
       id="path4940" />
    <path
       d="M 87600000,67495313 V 64395313"
       id="path4942" />
    <path
       d="M 163800000,46445313 V 43345313"
       id="path4944" />
    <path
       d="m 160200000,46445313 h 3600000"
       id="path4946" />
    <path
       d="m 160200000,43345313 v 3100000"
       id="path4948" />
    <path
       d="m 163800000,43345313 h -3600000"
       id="path4950" />
    <path
       d="m 201436560,129667150 431440,-3069830"
       id="path4952" />
    <path
       d="m 201868000,126597320 -3564960,-501020"
       id="path4954" />
    <path
       d="m 197871600,129166130 3564960,501020"
       id="path4956" />
    <path
       d="m 198303040,126096300 -431440,3069830"
       id="path4958" />
    <path
       d="m 122100000,96095313 h 3600000"
       id="path4960" />
    <path
       d="m 125700000,92995313 h -3600000"
       id="path4962" />
    <path
       d="m 122100000,92995313 v 3100000"
       id="path4964" />
    <path
       d="M 125700000,96095313 V 92995313"
       id="path4966" />
    <path
       d="m 87600000,124645310 v -3100000"
       id="path4968" />
    <path
       d="m 84000000,124645310 h 3600000"
       id="path4970" />
    <path
       d="M 87600000,121545310 H 84000000"
       id="path4972" />
    <path
       d="m 84000000,121545310 v 3100000"
       id="path4974" />
    <path
       d="m 158817410,133296880 3564970,501030"
       id="path4976" />
    <path
       d="m 162382380,133797910 431430,-3069840"
       id="path4978" />
    <path
       d="m 162813810,130728070 -3564960,-501020"
       id="path4980" />
    <path
       d="m 159248850,130227050 -431440,3069830"
       id="path4982" />
    <path
       d="m 201300000,67995313 h 3600000"
       id="path4984" />
    <path
       d="m 201300000,64895313 v 3100000"
       id="path4986" />
    <path
       d="M 204900000,67995313 V 64895313"
       id="path4988" />
    <path
       d="m 204900000,64895313 h -3600000"
       id="path4990" />
    <path
       d="m 163800000,62395313 h -3600000"
       id="path4992" />
    <path
       d="M 163800000,65495313 V 62395313"
       id="path4994" />
    <path
       d="m 160200000,62395313 v 3100000"
       id="path4996" />
    <path
       d="m 160200000,65495313 h 3600000"
       id="path4998" />
    <path
       d="M 125700000,57995313 V 54895313"
       id="path5000" />
    <path
       d="m 125700000,54895313 h -3600000"
       id="path5002" />
    <path
       d="m 122100000,54895313 v 3100000"
       id="path5004" />
    <path
       d="m 122100000,57995313 h 3600000"
       id="path5006" />
    <path
       d="m 179250000,12795313 v 3100000"
       id="path5008" />
    <path
       d="M 182850000,15895313 V 12795313"
       id="path5010" />
    <path
       d="m 179250000,15895313 h 3600000"
       id="path5012" />
    <path
       d="m 182850000,12795313 h -3600000"
       id="path5014" />
    <path
       d="M 61406250,92045313 V 88945313"
       id="path5016" />
    <path
       d="m 64950000,88945313 v 3100000"
       id="path5018" />
    <path
       d="m 57806250,88945313 v 3100000"
       id="path5020" />
    <path
       d="M 68550000,88945313 H 64950000"
       id="path5022" />
    <path
       d="M 61406250,88945313 H 57806250"
       id="path5024" />
    <path
       d="m 57806250,92045313 h 3600000"
       id="path5026" />
    <path
       d="M 68550000,92045313 V 88945313"
       id="path5028" />
    <path
       d="m 64950000,92045313 h 3600000"
       id="path5030" />
    <path
       d="m 53393750,111095310 h 3600000"
       id="path5032" />
    <path
       d="m 47931250,111095310 h 3600000"
       id="path5034" />
    <path
       d="m 51531250,111095310 v -3100000"
       id="path5036" />
    <path
       d="m 47931250,107995310 v 3100000"
       id="path5038" />
    <path
       d="M 56993750,107995310 H 53393750"
       id="path5040" />
    <path
       d="m 56993750,111095310 v -3100000"
       id="path5042" />
    <path
       d="M 51531250,107995310 H 47931250"
       id="path5044" />
    <path
       d="m 53393750,107995310 v 3100000"
       id="path5046" />
    <path
       d="M 204900000,87045313 V 83945313"
       id="path5048" />
    <path
       d="m 204900000,83945313 h -3600000"
       id="path5050" />
    <path
       d="m 201300000,87045313 h 3600000"
       id="path5052" />
    <path
       d="m 201300000,83945313 v 3100000"
       id="path5054" />
    <path
       d="m 160200000,15895313 h 3600000"
       id="path5056" />
    <path
       d="m 163800000,12795313 h -3600000"
       id="path5058" />
    <path
       d="m 160200000,12795313 v 3100000"
       id="path5060" />
    <path
       d="M 163800000,15895313 V 12795313"
       id="path5062" />
    <path
       d="m 163800000,103595310 v -3100000"
       id="path5064" />
    <path
       d="m 160200000,103595310 h 3600000"
       id="path5066" />
    <path
       d="m 163800000,100495310 h -3600000"
       id="path5068" />
    <path
       d="m 160200000,100495310 v 3100000"
       id="path5070" />
    <path
       d="M 63437500,72995313 V 69895313"
       id="path5072" />
    <path
       d="M 68900000,72995313 V 69895313"
       id="path5074" />
    <path
       d="M 63437500,69895313 H 59837500"
       id="path5076" />
    <path
       d="m 65300000,69895313 v 3100000"
       id="path5078" />
    <path
       d="m 59837500,69895313 v 3100000"
       id="path5080" />
    <path
       d="M 68900000,69895313 H 65300000"
       id="path5082" />
    <path
       d="m 59837500,72995313 h 3600000"
       id="path5084" />
    <path
       d="m 65300000,72995313 h 3600000"
       id="path5086" />
    <path
       d="m 62568750,127045310 v 3100000"
       id="path5088" />
    <path
       d="m 66168750,130145310 v -3100000"
       id="path5090" />
    <path
       d="M 66168750,127045310 H 62568750"
       id="path5092" />
    <path
       d="m 62568750,130145310 h 3600000"
       id="path5094" />
    <path
       d="m 125700000,73945313 h -3600000"
       id="path5096" />
    <path
       d="m 122100000,77045313 h 3600000"
       id="path5098" />
    <path
       d="M 125700000,77045313 V 73945313"
       id="path5100" />
    <path
       d="m 122100000,73945313 v 3100000"
       id="path5102" />
    <path
       d="M 42356250,127045310 H 38756250"
       id="path5104" />
    <path
       d="m 38756250,127045310 v 3100000"
       id="path5106" />
    <path
       d="m 42356250,130145310 v -3100000"
       id="path5108" />
    <path
       d="m 38756250,130145310 h 3600000"
       id="path5110" />
    <path
       d="M 182850000,87045313 V 83945313"
       id="path5112" />
    <path
       d="m 182850000,83945313 h -3600000"
       id="path5114" />
    <path
       d="m 179250000,87045313 h 3600000"
       id="path5116" />
    <path
       d="m 179250000,83945313 v 3100000"
       id="path5118" />
    <path
       d="m 137150000,15895313 h 3600000"
       id="path5120" />
    <path
       d="m 137150000,12795313 v 3100000"
       id="path5122" />
    <path
       d="M 140750000,15895313 V 12795313"
       id="path5124" />
    <path
       d="m 140750000,12795313 h -3600000"
       id="path5126" />
    <path
       d="M 87600000,102495310 H 84000000"
       id="path5128" />
    <path
       d="m 84000000,105595310 h 3600000"
       id="path5130" />
    <path
       d="m 87600000,105595310 v -3100000"
       id="path5132" />
    <path
       d="m 84000000,102495310 v 3100000"
       id="path5134" />
    <path
       d="m 200522850,110301520 3564960,501030"
       id="path5136" />
    <path
       d="m 204087810,110802550 431440,-3069840"
       id="path5138" />
    <path
       d="m 200954280,107231690 -431430,3069830"
       id="path5140" />
    <path
       d="m 204519250,107732710 -3564970,-501020"
       id="path5142" />
    <path
       d="M 87600000,83445313 H 84000000"
       id="path5144" />
    <path
       d="m 84000000,86545313 h 3600000"
       id="path5146" />
    <path
       d="M 87600000,86545313 V 83445313"
       id="path5148" />
    <path
       d="m 84000000,83445313 v 3100000"
       id="path5150" />
    <path
       d="m 106650000,58895313 h -3600000"
       id="path5152" />
    <path
       d="m 103050000,61995313 h 3600000"
       id="path5154" />
    <path
       d="m 103050000,58895313 v 3100000"
       id="path5156" />
    <path
       d="M 106650000,61995313 V 58895313"
       id="path5158" />
    <path
       d="M 163800000,84545313 V 81445313"
       id="path5160" />
    <path
       d="m 160200000,81445313 v 3100000"
       id="path5162" />
    <path
       d="m 163800000,81445313 h -3600000"
       id="path5164" />
    <path
       d="m 160200000,84545313 h 3600000"
       id="path5166" />
    <path
       d="M 68550000,50845313 H 64950000"
       id="path5168" />
    <path
       d="m 64950000,50845313 v 3100000"
       id="path5170" />
    <path
       d="M 68550000,53945313 V 50845313"
       id="path5172" />
    <path
       d="m 64950000,53945313 h 3600000"
       id="path5174" />
    <path
       d="m 182850000,45845313 h -3600000"
       id="path5176" />
    <path
       d="m 179250000,45845313 v 3100000"
       id="path5178" />
    <path
       d="M 182850000,48945313 V 45845313"
       id="path5180" />
    <path
       d="m 179250000,48945313 h 3600000"
       id="path5182" />
    <path
       d="m 125700000,115145310 v -3100000"
       id="path5184" />
    <path
       d="m 125700000,112045310 h -3600000"
       id="path5186" />
    <path
       d="m 122100000,112045310 v 3100000"
       id="path5188" />
    <path
       d="m 122100000,115145310 h 3600000"
       id="path5190" />
    <path
       d="m 201300000,45845313 v 3100000"
       id="path5192" />
    <path
       d="m 204900000,45845313 h -3600000"
       id="path5194" />
    <path
       d="M 204900000,48945313 V 45845313"
       id="path5196" />
    <path
       d="m 201300000,48945313 h 3600000"
       id="path5198" />
    <path
       d="m 17325000,53945313 h 3600000"
       id="path5200" />
    <path
       d="m 17325000,50845313 v 3100000"
       id="path5202" />
    <path
       d="M 20925000,50845313 H 17325000"
       id="path5204" />
    <path
       d="M 20925000,53945313 V 50845313"
       id="path5206" />
    <path
       d="M 144750000,62995313 V 59895313"
       id="path5208" />
    <path
       d="m 141150000,59895313 v 3100000"
       id="path5210" />
    <path
       d="m 144750000,59895313 h -3600000"
       id="path5212" />
    <path
       d="m 141150000,62995313 h 3600000"
       id="path5214" />
    <path
       d="M 60550000,12795313 H 56950000"
       id="path5216" />
    <path
       d="M 60550000,15895313 V 12795313"
       id="path5218" />
    <path
       d="m 56950000,15895313 h 3600000"
       id="path5220" />
    <path
       d="m 56950000,12795313 v 3100000"
       id="path5222" />
    <path
       d="m 107999000,47894313 h 3100000"
       id="path5224" />
    <path
       d="M 111099000,47894313 V 44294313"
       id="path5226" />
    <path
       d="m 107999000,44294313 v 3600000"
       id="path5228" />
    <path
       d="m 111099000,44294313 h -3100000"
       id="path5230" />
    <path
       d="m 45900000,72995313 h 3600000"
       id="path5232" />
    <path
       d="m 45900000,69895313 v 3100000"
       id="path5234" />
    <path
       d="M 49500000,72995313 V 69895313"
       id="path5236" />
    <path
       d="M 49500000,69895313 H 45900000"
       id="path5238" />
    <path
       d="m 141150000,40845313 v 3100000"
       id="path5240" />
    <path
       d="m 144750000,40845313 h -3600000"
       id="path5242" />
    <path
       d="m 141150000,43945313 h 3600000"
       id="path5244" />
    <path
       d="M 144750000,43945313 V 40845313"
       id="path5246" />
    <path
       d="m 33993750,88945313 h 3600000"
       id="path5248" />
    <path
       d="M 37593750,92045313 H 33993750"
       id="path5250" />
    <path
       d="M 33993750,92045313 V 88945313"
       id="path5252" />
    <path
       d="m 37593750,88945313 v 3100000"
       id="path5254" />
    <g
       id="g5256" />
    <g
       id="g5258" />
    <g
       id="g5260" />
    <g
       id="g5262" />
    <g
       id="g5264" />
    <g
       id="g5266" />
    <g
       id="g5268" />
    <g
       id="g5270" />
    <g
       id="g5272" />
    <g
       id="g5274" />
    <g
       id="g5276" />
    <g
       id="g5278" />
    <g
       id="g5280" />
    <g
       id="g5282" />
    <g
       id="g5284" />
    <g
       id="g5286" />
    <g
       id="g5288" />
    <g
       id="g5290" />
    <g
       id="g5292" />
    <g
       id="g5294" />
    <g
       id="g5296" />
    <g
       id="g5298" />
    <g
       id="g5300" />
    <g
       id="g5302" />
    <g
       id="g5304" />
    <g
       id="g5306" />
    <g
       id="g5308" />
    <g
       id="g5310" />
    <g
       id="g5312" />
    <g
       id="g5314" />
    <g
       id="g5316" />
    <g
       id="g5318" />
    <g
       id="g5320" />
    <g
       id="g5322" />
    <g
       id="g5324" />
    <g
       id="g5326" />
    <g
       id="g5328" />
    <g
       id="g5330" />
    <g
       id="g5332" />
    <g
       id="g5334" />
    <g
       id="g5336" />
    <g
       id="g5338" />
    <g
       id="g5340" />
    <g
       id="g5342" />
    <g
       id="g5344" />
    <g
       id="g5346" />
    <g
       id="g5348" />
    <g
       id="g5350" />
    <g
       id="g5352" />
    <g
       id="g5354" />
    <g
       id="g5356" />
    <g
       id="g5358" />
    <g
       id="g5360" />
    <g
       id="g5362" />
    <g
       id="g5364" />
    <g
       id="g5366" />
    <g
       id="g5368" />
    <g
       id="g5370" />
    <g
       id="g5372" />
    <g
       id="g5374" />
    <g
       id="g5376" />
    <g
       id="g5378" />
    <g
       id="g5380" />
    <g
       id="g5382" />
    <g
       id="g5384" />
    <g
       id="g5386" />
    <g
       id="g5388" />
    <g
       id="g5390" />
    <g
       id="g5392" />
    <g
       id="g5394" />
    <g
       id="g5396" />
    <g
       id="g5398" />
    <g
       id="g5400" />
    <g
       id="g5402" />
    <g
       id="g5404" />
    <g
       id="g5406" />
    <g
       id="g5408" />
    <g
       id="g5410" />
    <g
       id="g5412" />
    <g
       id="g5414" />
    <g
       id="g5416" />
    <g
       id="g5418" />
    <g
       id="g5420" />
    <g
       id="g5422" />
    <g
       id="g5424" />
    <g
       id="g5426" />
    <g
       id="g5428" />
    <g
       id="g5430" />
    <g
       id="g5432" />
    <g
       id="g5434" />
    <g
       id="g5436" />
    <g
       id="g5438" />
    <g
       id="g5440" />
    <g
       id="g5442" />
    <g
       id="g5444" />
    <g
       id="g5446" />
    <g
       id="g5448" />
    <g
       id="g5450" />
    <g
       id="g5452" />
    <g
       id="g5454" />
    <g
       id="g5456" />
    <g
       id="g5458" />
    <g
       id="g5460" />
    <g
       id="g5462" />
    <g
       id="g5464" />
    <g
       id="g5466" />
    <g
       id="g5468" />
    <g
       id="g5470" />
    <g
       id="g5472" />
    <g
       id="g5474" />
    <g
       id="g5476" />
    <g
       id="g5478" />
    <g
       id="g5480" />
    <g
       id="g5482" />
    <g
       id="g5484" />
    <g
       id="g5486" />
    <g
       id="g5488" />
    <g
       id="g5490" />
    <g
       id="g5492" />
    <g
       id="g5494" />
    <g
       id="g5496" />
    <g
       id="g5498" />
    <g
       id="g5500" />
    <g
       id="g5502" />
    <g
       id="g5504" />
    <g
       id="g5506" />
    <g
       id="g5508" />
    <g
       id="g5510" />
    <g
       id="g5512" />
    <g
       id="g5514" />
    <g
       id="g5516" />
    <g
       id="g5518" />
    <g
       id="g5520" />
    <g
       id="g5522" />
  </g>
  <g
     style="display:inline;fill:#000000;fill-opacity:0;stroke:#000000;stroke-width:100000;stroke-linecap:round;stroke-linejoin:round;stroke-opacity:1"
     id="g5939">
    <path
       id="path16378"
       style="color:#000000;opacity:0.636364;fill-opacity:1;stroke:none;stroke-linecap:butt;stroke-linejoin:miter;-inkscape-stroke:none"
       d="M 25650113,134533410 V 123501500 L 45544135,13004876 A 1466766.4,1466766.4 31.227976 0 0 43202591,11585223 L -1175122,45946549 c -123314.6,95480 -235286,204681 -333829.8,325561 -98543.8,120880 -182991,252716 -251664.2,392741 -68673.2,140024 -121330.8,287328 -156579.6,439250 -35248.8,151923 -52710,307063 -52710,463021 v 19049999 c 0,245773 43943.2,489723 130224.6,719853 l 25340001,67586206 a 1110229,1110229 169.72377 0 0 2149793,-389770 z M -1210262,46119665 c -185125,169023 -336824.5,371342 -447194.9,596416 -55063.8,112290 -99473.8,229497 -132646.4,350081 -33172.6,120584 -54961.5,244014 -65080.6,368668 7095,-103400 12199.9,-206893 35656.8,-307992 33529.2,-144512 83504.6,-284868 148828.1,-418062 65323.4,-133194 145524.9,-258637 239261.9,-373621 65245,-80032 144210.1,-146865 221175.1,-215490 z"
       inkscape:original-d="M 25650113,140657050 V 123501500 L 46220434,9248530.9 -1175122,45946549 c -123314.6,95480 -235286,204681 -333829.8,325561 -98543.8,120880 -182991,252716 -251664.2,392741 -68673.2,140024 -121330.8,287328 -156579.6,439250 -35248.8,151923 -52710,307063 -52710,463021 v 19049999 c 0,245773 43943.2,489723 130224.6,719853 z M -1210262,46119665 a 2000000,2000000 0 0 0 -644921.9,1315165 c 7095,-103400 12199.9,-206893 35656.8,-307992 33529.2,-144512 83504.6,-284868 148828.1,-418062 65323.4,-133194 145524.9,-258637 239261.9,-373621 65245,-80032 144210.1,-146865 221175.1,-215490 z"
       inkscape:path-effect="#path-effect16775" />
    <path
       id="path16373"
       style="color:#000000;display:inline;opacity:0.636364;fill-opacity:1;stroke:none;stroke-linecap:butt;stroke-linejoin:miter;-inkscape-stroke:none"
       d="M 47378256,8888844.3 26681575,123414690 c -21057,116960 -31523,235660 -31523,354500 v 19347630 a 1142913,1142913 79.721715 0 0 72774,401310 c 4331,11550 54418,151990 137268,300760 43452,78030 92013,153210 145492,225030 115028,154460 251230,291780 404627,408240 153397,116450 322593,210810 502295,280090 179700,69280 368301,112540 560172,129190 l 100525650,8725560 75386090,10602460 c 132980,18710 267450,24140 401530,16530 134080,-7600 267370,-28390 397390,-62010 130020,-33610 256280,-79630 377240,-137970 120960,-58340 235880,-128470 343130,-209290 107260,-80820 206170,-172150 295590,-272340 89430,-100190 169030,-208820 237190,-324530 68150,-115720 124700,-238040 168980,-364830 44270,-126790 75890,-257690 94570,-390670 l 7949900,-56589830 c 13280,-94490 20160,-189850 20160,-285260 V 42569494 c 0,-201347 -30000,-401579 -88370,-594279 -58370,-192701 -144590,-376133 -256310,-543636 L 192280250,8381917.2 c -93260,-139814.2 -203170,-267916.1 -327630,-380855.3 -124460,-112939.2 -262120,-210104.3 -410310,-289388 -148190,-79283.9 -305690,-139998.9 -468710,-180867.6 -163010,-40868.6 -330610,-61494.9 -498670,-61494.9 H 49220251 c -225620,0.1 -450038,37082.2 -663526,110070.8 -341121,111889.1 -567760,301754.9 -791554,533799.5 -173091,179473.4 -342572,530289 -386915,775662.6 z"
       sodipodi:nodetypes="ccscsssscccsssssssccsssccssssccc"
       inkscape:original-d="M 47458546,8444556 26681575,123414690 c -21057,116960 -31523,235660 -31523,354500 v 19554880 l 80616,214970 c 67612,180340 159890,350410 274918,504880 115028,154460 251230,291780 404627,408240 153397,116450 322593,210810 502295,280090 179700,69280 368301,112540 560172,129190 l 100525650,8725560 75386090,10602460 c 132980,18710 267450,24140 401530,16530 134080,-7600 267370,-28390 397390,-62010 130020,-33610 256280,-79630 377240,-137970 120960,-58340 235880,-128470 343130,-209290 107260,-80820 206170,-172150 295590,-272340 89430,-100190 169030,-208820 237190,-324530 68150,-115720 124700,-238040 168980,-364830 44270,-126790 75890,-257690 94570,-390670 l 7949900,-56589830 c 13280,-94490 20160,-189850 20160,-285260 V 42569494 c 0,-201347 -30000,-401579 -88370,-594279 -58370,-192701 -144590,-376133 -256310,-543636 L 192280250,8381917.2 c -93260,-139814.2 -203170,-267916.1 -327630,-380855.3 -124460,-112939.2 -262120,-210104.3 -410310,-289388 -148190,-79283.9 -305690,-139998.9 -468710,-180867.6 -163010,-40868.6 -330610,-61494.9 -498670,-61494.9 H 49220251 c -225620,0.1 -450038,37082.2 -663526,110070.8 -492787,161635.9 -746661,486001.1 -1098179,865173.8 z"
       inkscape:path-effect="#path-effect16777" />
    <path
       d="m 28650000,142819310 100580000,8730000 75440000,10610000 7950000,-56590000 V 42569313 L 190575000,9519313 H 49220000 L 80000,47567313 v 19050000 l 28570000,76201997"
       id="path5927"
       sodipodi:nodetypes="cccccccccc"
       style="display:none"
       inkscape:original-d="m 28650000,142819310 100580000,8730000 75440000,10610000 7950000,-56590000 V 42569313 L 190575000,9519313 H 49220000 L 80000,47567313 v 19050000 l 28570000,76201997"
       inkscape:path-effect="#path-effect9781" />
    <path
       d="M 28650000,142742310 V 123769310 L 49220000,9519313"
       id="path5931"
       sodipodi:nodetypes="ccc"
       style="display:none"
       inkscape:original-d="M 28650000,142742310 V 123769310 L 49220000,9519313"
       inkscape:path-effect="#path-effect9393" />
    <rect
       style="opacity:0.678322;fill:#000000;fill-opacity:0;stroke:#000000;stroke-width:2.64583e+10;stroke-dasharray:264583, 793750"
       id="rect16785"
       width="inf"
       height="10000000"
       x="24628468"
       y="12277693" />
    <rect
       style="opacity:0.678322;fill:#000000;fill-opacity:0;stroke:#000000;stroke-width:2.64583e+10;stroke-dasharray:264583, 793750"
       id="rect16787"
       width="0"
       height="0"
       x="2630934.5"
       y="-2338608.2" />
    <rect
       style="display:inline;fill:#000000;fill-opacity:0;stroke:#000000;stroke-width:0;stroke-linecap:round;stroke-linejoin:round;stroke-dasharray:none;stroke-dashoffset:0;stroke-opacity:1"
       id="rect1118-7"
       width="2000000"
       height="1000000"
       x="25600444"
       y="133716608" />
    <rect
       style="display:inline;fill:#000000;fill-opacity:0;stroke:#000000;stroke-width:0;stroke-linecap:round;stroke-linejoin:round;stroke-dasharray:none;stroke-dashoffset:0;stroke-opacity:1"
       id="rect1118-7-0"
       width="2000000"
       height="1000000"
       x="24993244"
       y="123633248" />
    <rect
       style="display:inline;fill:#000000;fill-opacity:0;stroke:#000000;stroke-width:0;stroke-linecap:round;stroke-linejoin:round;stroke-dasharray:none;stroke-dashoffset:0;stroke-opacity:1"
       id="rect1118-7-3"
       width="2000000"
       height="1000000"
       x="46101748"
       y="107779992"
       transform="rotate(10)" />
    <rect
       style="display:inline;fill:#000000;fill-opacity:0;stroke:#000000;stroke-width:0;stroke-linecap:round;stroke-linejoin:round;stroke-dasharray:none;stroke-dashoffset:0;stroke-opacity:1"
       id="rect1118-7-3-6"
       width="2000000"
       height="1000000"
       x="46774932"
       y="98599696"
       transform="rotate(10)" />
    <rect
       style="display:inline;fill:#000000;fill-opacity:0;stroke:#000000;stroke-width:0;stroke-linecap:round;stroke-linejoin:round;stroke-dasharray:none;stroke-dashoffset:0;stroke-opacity:1"
       id="rect1118-7-3-2"
       width="2000000"
       height="1000000"
       x="46880852"
       y="89234464"
       transform="rotate(10)" />
    <rect
       style="display:inline;fill:#000000;fill-opacity:0;stroke:#000000;stroke-width:0;stroke-linecap:round;stroke-linejoin:round;stroke-dasharray:none;stroke-dashoffset:0;stroke-opacity:1"
       id="rect1118-7-3-7"
       width="2000000"
       height="1000000"
       x="47263152"
       y="79820496"
       transform="rotate(10)" />
    <rect
       style="display:inline;fill:#000000;fill-opacity:0;stroke:#000000;stroke-width:0;stroke-linecap:round;stroke-linejoin:round;stroke-dasharray:none;stroke-dashoffset:0;stroke-opacity:1"
       id="rect1118-7-3-0"
       width="2000000"
       height="1000000"
       x="47046644"
       y="70512112"
       transform="rotate(10)" />
    <rect
       style="display:inline;fill:#000000;fill-opacity:0;stroke:#000000;stroke-width:0;stroke-linecap:round;stroke-linejoin:round;stroke-dasharray:none;stroke-dashoffset:0;stroke-opacity:1"
       id="rect1118-7-3-3"
       width="2000000"
       height="1000000"
       x="47014380"
       y="61171244"
       transform="rotate(10)" />
    <rect
       style="display:inline;fill:#000000;fill-opacity:0;stroke:#000000;stroke-width:0;stroke-linecap:round;stroke-linejoin:round;stroke-dasharray:none;stroke-dashoffset:0;stroke-opacity:1"
       id="rect1118-7-3-9"
       width="2000000"
       height="1000000"
       x="47074240"
       y="51814132"
       transform="rotate(10)" />
    <rect
       style="display:inline;fill:#000000;fill-opacity:0;stroke:#000000;stroke-width:0;stroke-linecap:round;stroke-linejoin:round;stroke-dasharray:none;stroke-dashoffset:0;stroke-opacity:1"
       id="rect1118-7-3-99"
       width="2000000"
       height="1000000"
       x="47041980"
       y="42473264"
       transform="rotate(10)" />
    <rect
       style="display:inline;fill:#000000;fill-opacity:0;stroke:#000000;stroke-width:0;stroke-linecap:round;stroke-linejoin:round;stroke-dasharray:none;stroke-dashoffset:0;stroke-opacity:1"
       id="rect1118-7-3-1"
       width="2000000"
       height="1000000"
       x="47193968"
       y="33099910"
       transform="rotate(10)" />
    <rect
       style="display:inline;fill:#000000;fill-opacity:0;stroke:#000000;stroke-width:0;stroke-linecap:round;stroke-linejoin:round;stroke-dasharray:none;stroke-dashoffset:0;stroke-opacity:1"
       id="rect1118-7-3-72"
       width="2000000"
       height="1000000"
       x="47161704"
       y="23759042"
       transform="rotate(10)" />
    <rect
       style="display:inline;fill:#000000;fill-opacity:0;stroke:#000000;stroke-width:0;stroke-linecap:round;stroke-linejoin:round;stroke-dasharray:none;stroke-dashoffset:0;stroke-opacity:1"
       id="rect1118-7-3-36"
       width="2000000"
       height="1000000"
       x="46899136"
       y="14458782"
       transform="rotate(10)" />
    <rect
       style="display:inline;fill:#000000;fill-opacity:0;stroke:#000000;stroke-width:0;stroke-linecap:round;stroke-linejoin:round;stroke-dasharray:none;stroke-dashoffset:0;stroke-opacity:1"
       id="rect1118-7-3-5"
       width="2000000"
       height="1000000"
       x="46452320"
       y="5191011"
       transform="rotate(10)" />
  </g>
  <metadata
     id="metadata7199">
    <rdf:RDF>
      <cc:Work
         rdf:about="">
        <dc:title>SVG Picture created as ergodonk_pcb-brd.svg date 2023/02/02 10:39:58 </dc:title>
      </cc:Work>
    </rdf:RDF>
  </metadata>
</svg>
