<?xml version="1.0" encoding="UTF-8" standalone="no"?>
<svg
   viewBox="0 0 319.99991 307.095"
   height="307.095"
   width="319.99991"
   xml:space="preserve"
   version="1.1"
   id="svg3991"
   sodipodi:docname="gold_star_outline_only.svg"
   inkscape:version="1.2.1 (9c6d41e, 2022-07-14)"
   xmlns:inkscape="http://www.inkscape.org/namespaces/inkscape"
   xmlns:sodipodi="http://sodipodi.sourceforge.net/DTD/sodipodi-0.dtd"
   xmlns="http://www.w3.org/2000/svg"
   xmlns:svg="http://www.w3.org/2000/svg"
   xmlns:rdf="http://www.w3.org/1999/02/22-rdf-syntax-ns#"
   xmlns:cc="http://creativecommons.org/ns#"
   xmlns:dc="http://purl.org/dc/elements/1.1/"><sodipodi:namedview
     id="namedview26"
     pagecolor="#ffffff"
     bordercolor="#000000"
     borderopacity="0.25"
     inkscape:showpageshadow="2"
     inkscape:pageopacity="0.0"
     inkscape:pagecheckerboard="0"
     inkscape:deskcolor="#d1d1d1"
     showgrid="false"
     inkscape:zoom="3.209375"
     inkscape:cx="121.36319"
     inkscape:cy="153.76826"
     inkscape:window-width="2560"
     inkscape:window-height="1387"
     inkscape:window-x="1728"
     inkscape:window-y="332"
     inkscape:window-maximized="0"
     inkscape:current-layer="svg3991" /><metadata
     id="metadata3997"><rdf:RDF><cc:Work
         rdf:about=""><dc:format>image/svg+xml</dc:format><dc:type
           rdf:resource="http://purl.org/dc/dcmitype/StillImage" /></cc:Work></rdf:RDF></metadata><defs
     id="defs3995"><clipPath
       id="clipPath4005"
       clipPathUnits="userSpaceOnUse"><path
         id="path4007"
         d="M 0,256 H 256 V 0 H 0 Z" /></clipPath></defs><path
     id="path4011"
     style="fill:#ffff00;fill-opacity:1;fill-rule:nonzero;stroke:none;stroke-width:1.25"
     d="m 241.37243,307.095 c -6.1225,10e-4 -12.5125,-1.7475 -18.99,-5.2 L 159.99993,268.66125 97.619933,301.895 c -6.48,3.45 -12.86875,5.2 -18.99,5.2 -8.59125,0 -16.2475,-3.455 -21.55625,-9.7325 -4.3375,-5.1275 -8.98,-14.375 -6.46875,-29.31375 l 11.82125,-70.28 -50.145,-48.47875 C 1.6986833,139.05875 -2.3075667,126.685 1.2911833,115.34 4.8886833,103.9975 15.293683,96.1925 29.836183,93.9325 L 99.697433,83.06375 130.91618,20.68125 C 137.49493,7.53875 148.09493,0 159.99993,0 c 11.905,0 22.50625,7.53625 29.08375,20.67875 l 31.22125,62.385 69.86,10.86875 c 14.5425,2.26 24.94625,10.065 28.54375,21.4075 3.59875,11.345 -0.4075,23.71875 -10.9875,33.94875 l -50.1475,48.48 11.82125,70.28 c 2.51125,14.93875 -2.13125,24.185 -6.4675,29.3125 -5.30875,6.27625 -12.96375,9.73375 -21.555,9.73375"
     inkscape:label="path4011" /></svg>
