<?xml version="1.0" encoding="UTF-8" standalone="no"?>
<svg
   xmlns:dc="http://purl.org/dc/elements/1.1/"
   xmlns:cc="http://creativecommons.org/ns#"
   xmlns:rdf="http://www.w3.org/1999/02/22-rdf-syntax-ns#"
   xmlns:svg="http://www.w3.org/2000/svg"
   xmlns="http://www.w3.org/2000/svg"
   viewBox="0 0 320 320"
   height="320"
   width="320"
   xml:space="preserve"
   version="1.1"
   id="svg3991"><metadata
     id="metadata3997"><rdf:RDF><cc:Work
         rdf:about=""><dc:format>image/svg+xml</dc:format><dc:type
           rdf:resource="http://purl.org/dc/dcmitype/StillImage" /><dc:title></dc:title></cc:Work></rdf:RDF></metadata><defs
     id="defs3995"><clipPath
       id="clipPath4005"
       clipPathUnits="userSpaceOnUse"><path
         id="path4007"
         d="M 0,256 256,256 256,0 0,0 0,256 Z" /></clipPath></defs><g
     transform="matrix(1.25,0,0,-1.25,0,320)"
     id="g3999"><g
       id="g4001"><g
         clip-path="url(#clipPath4005)"
         id="g4003"><g
           transform="translate(193.2931,4.4984)"
           id="g4009"><path
             id="path4011"
             style="fill:#543224;fill-opacity:1;fill-rule:nonzero;stroke:none"
             d="M 0,0 C -4.898,-0.001 -10.01,1.398 -15.192,4.16 L -65.098,30.747 -115.002,4.16 C -120.186,1.4 -125.297,0 -130.194,0 c -6.873,0 -12.998,2.764 -17.245,7.786 -3.47,4.102 -7.184,11.5 -5.175,23.451 l 9.457,56.224 -40.116,38.783 c -8.466,8.185 -11.671,18.084 -8.792,27.16 2.878,9.074 11.202,15.318 22.836,17.126 l 55.889,8.695 24.975,49.906 c 5.263,10.514 13.743,16.545 23.267,16.545 9.524,0 18.005,-6.029 23.267,-16.543 l 24.977,-49.908 55.888,-8.695 c 11.634,-1.808 19.957,-8.052 22.835,-17.126 2.879,-9.076 -0.326,-18.975 -8.79,-27.159 L 12.961,87.461 22.418,31.237 C 24.427,19.286 20.713,11.889 17.244,7.787 12.997,2.766 6.873,0 0,0" /></g><g
           transform="translate(138.5421,227.1638)"
           id="g4013"><path
             id="path4015"
             style="fill:#ffce00;fill-opacity:1;fill-rule:nonzero;stroke:none"
             d="m 0,0 28.312,-56.571 63.252,-9.84 c 12.616,-1.963 15.401,-10.748 6.223,-19.623 l -45.584,-44.068 10.718,-63.722 c 2.116,-12.591 -5.301,-17.932 -16.57,-11.929 l -56.698,30.205 -56.698,-30.205 c -11.268,-6.003 -18.686,-0.662 -16.569,11.929 l 10.718,63.722 -45.584,44.068 c -9.179,8.875 -6.393,17.66 6.222,19.623 l 63.254,9.84 28.31,56.57 C -14.979,11.416 -5.714,11.416 0,0" /></g><g
           transform="translate(190.7448,97.0613)"
           id="g4017"><path
             id="path4019"
             style="fill:#ffdd15;fill-opacity:1;fill-rule:nonzero;stroke:none"
             d="M 0,0 10.718,-63.722" /></g><g
           transform="translate(181.4393,100.1232)"
           id="g4021"><path
             id="path4023"
             style="fill:#cc8a1f;fill-opacity:1;fill-rule:nonzero;stroke:none"
             d="M 0,0 39.932,38.605 C -23.277,44.039 -77.836,31.612 -120.967,13.997 L -106.488,0 -117.962,-68.222 c -0.385,-2.291 1.871,-3.944 3.943,-2.839 l 60.775,32.376 60.775,-32.376 c 2.072,-1.105 4.328,0.546 3.943,2.839 L 0,0 Z" /></g><g
           transform="translate(60.4723,114.1207)"
           id="g4025"><path
             id="path4027"
             style="fill:#f4ad21;fill-opacity:1;fill-rule:nonzero;stroke:none"
             d="m 0,0 14.479,-13.997 -3.986,-23.697 c 26.379,11.589 69.288,24.079 115.758,28.804 l 34.648,33.497 C 97.69,30.041 43.131,17.615 0,0" /></g><g
           transform="translate(60.4716,114.1204)"
           id="g4029"><path
             id="path4031"
             style="fill:#fff100;fill-opacity:1;fill-rule:nonzero;stroke:none"
             d="m 0,0 c 43.131,17.615 97.69,30.041 160.9,24.608 l 8.931,8.634 c 1.755,1.697 0.883,4.449 -1.529,4.824 l -67.671,10.527 -3.503,7 C 55.219,51.745 18.996,39.746 -21.334,20.625 L 0,0 Z" /></g><g
           transform="translate(70.2625,28.7111)"
           id="g4033"><path
             id="path4035"
             style="fill:#fff100;fill-opacity:1;fill-rule:nonzero;stroke:none"
             d="m 0,0 c 0,-3.392 -2.952,-6.141 -6.592,-6.141 -3.641,0 -6.592,2.749 -6.592,6.141 0,3.392 2.951,6.141 6.592,6.141 C -2.952,6.141 0,3.392 0,0" /></g><g
           transform="translate(126.3963,228.8204)"
           id="g4037"><path
             id="path4039"
             style="fill:#ffffff;fill-opacity:1;fill-rule:nonzero;stroke:none"
             d="m 0,0 c -3.077,0 -21.635,-42.157 -31.547,-56.979 -0.392,0.055 -0.79,0.092 -1.198,0.092 -4.228,0 -7.702,-3.002 -8.103,-6.844 -13.891,-3.875 -47.008,-7.593 -62.574,-10.799 0.237,-5.002 47.003,-0.273 65.736,4.038 1.371,-0.979 3.08,-1.566 4.941,-1.566 4.497,0 8.143,3.395 8.143,7.585 0,1.027 -0.222,2.006 -0.619,2.899 C -13.845,-43.942 4.792,0.397 0,0" /></g></g></g></g></svg>