<?xml version="1.0" encoding="UTF-8" standalone="no"?>
<svg
   version="1.1"
   width="21.664001cm"
   height="15.674001cm"
   viewBox="0 0 2.1664001e+08 1.5674e+08"
   id="svg5526"
   sodipodi:docname="ergodonk_pcb-brd_post_merge.svg"
   inkscape:version="1.2.1 (9c6d41e, 2022-07-14)"
   inkscape:export-filename="ergodonk_pcb-brd_post_merge_exported.svg"
   inkscape:export-xdpi="96"
   inkscape:export-ydpi="96"
   xmlns:inkscape="http://www.inkscape.org/namespaces/inkscape"
   xmlns:sodipodi="http://sodipodi.sourceforge.net/DTD/sodipodi-0.dtd"
   xmlns="http://www.w3.org/2000/svg"
   xmlns:svg="http://www.w3.org/2000/svg"
   xmlns:rdf="http://www.w3.org/1999/02/22-rdf-syntax-ns#"
   xmlns:cc="http://creativecommons.org/ns#"
   xmlns:dc="http://purl.org/dc/elements/1.1/">
  <defs
     id="defs5530" />
  <sodipodi:namedview
     id="namedview5528"
     pagecolor="#ffffff"
     bordercolor="#000000"
     borderopacity="0.25"
     inkscape:showpageshadow="2"
     inkscape:pageopacity="0.0"
     inkscape:pagecheckerboard="0"
     inkscape:deskcolor="#d1d1d1"
     inkscape:document-units="cm"
     showgrid="false"
     inkscape:zoom="0.7071068"
     inkscape:cx="-136.47161"
     inkscape:cy="259.50818"
     inkscape:window-width="2560"
     inkscape:window-height="1301"
     inkscape:window-x="1728"
     inkscape:window-y="332"
     inkscape:window-maximized="0"
     inkscape:current-layer="svg5526" />
  <title
     id="title4764">SVG Picture created as ergodonk_pcb-brd.svg date 2023/02/02 10:39:58 </title>
  <desc
     id="desc4766">Picture generated by PCBNEW </desc>
  <path
     id="path16378"
     style="color:#000000;opacity:0.636364;fill:#000000;fill-opacity:1;stroke:none;stroke-width:100000;stroke-linecap:butt;stroke-linejoin:miter;stroke-opacity:1"
     d="m 51190157,0 c -225620,0.1 -450038,37082.3 -663526,110070.8 -341120,111889 -567889,301773.2 -791683,533817.5 -173091,179473.2 -342196,530289.9 -386539,775663.3 l -829407,4589901 -1056783,-186036 51676,-287837 a 1466766.4,1466766.4 0 0 0 -1233516,-1711524 1466766.4,1466766.4 0 0 0 -1107943,291972 L 794783.6,38477238 c -123313.8,95480 -235286.8,204681 -333829.8,325561 -98543,120880 -182991.8,252716 -251664.2,392741 C 140617.2,39335564 87958.8,39482868 52710,39634790 17461.2,39786713 0,39941853 0,40097811 v 19049999 c 0,245773 43944,489723 130224.6,719853 L 25470280,127453720 a 1110229,1110229 0 0 0 1996260,-206190 h 1153418 v 8400000 a 1142913,1142913 0 0 0 72864,401530 c 4331,11550 54093,151990 136943,300760 43452,78030 92248,152970 145727,224790 115028,154460 251230,291780 404627,408240 153397,116450 322593,210810 502295,280090 179699,69280 368301,112540 560172,129190 l 100525654,8725560 75386090,10602460 c 132980,18710 267450,24140 401530,16530 134080,-7600 267370,-28390 397390,-62010 130020,-33610 256280,-79630 377240,-137970 120960,-58340 235880,-128470 343130,-209290 107260,-80820 206170,-172150 295590,-272340 89430,-100190 169030,-208820 237190,-324530 68150,-115720 124700,-238040 168980,-364830 44270,-126790 75890,-257690 94570,-390670 l 7949900,-56589831 c 13280,-94490 20160,-189850 20160,-285260 V 35100183 c 0,-201347 -30000,-401579 -88370,-594279 -58370,-192701 -144590,-376133 -256310,-543636 L 194250160,912605.8 c -93260,-139814.1 -203170,-267916.2 -327630,-380855.3 -124460,-112939.1 -262120,-210104.4 -410310,-289388 -148190,-79283.9 -305690,-139998.9 -468710,-180867.6 C 192880510,20626.4 192712900,0 192544840,0 Z m -3905188,6807852.6 1056266,186036 -1470711,8135937.4 -1050582,-185518 z m -1642277,9120891.4 1050065,185001 -1471228,8141622 -1044898,-184485 z m -1643311,9126574 1044381,183968 -1501200,8306470 -1038697,-182935 z m -1672766,9291423 1038180,182934 -1469678,8133870 -1033012,-182417 z M 759643.6,38650354 c -185123.4,169023 -336631.6,371272 -447001.2,596346 -55063,112290 -99635.8,229782 -132808.4,350366 -33171.8,120584 -54993.2,243799 -65112.3,368453 7095,-103400 12199.9,-206893 35656.8,-307992 33528.4,-144512 83504.6,-284868 148828.1,-418062 65322.6,-133194 145524.9,-258637 239261.9,-373621 65244.2,-80024 144210.9,-146865 221175.1,-215490 z m 39925211.4,4814693 1032495,181901 -1506368,8333341 -1026811,-180867 z m -1677934,9318294 1026294,180867 -1486214,8224304 -1020610,-180350 z m -1657780,9209257 1020093,179834 -1483114,8207767 -1014925,-178800 z m -1655196,9193237 1013892,178800 -1477429,8175729 -1008724,-177767 z m -1649512,9161198 1008208,177767 -1496550,8279597 -1002523,-176733 z m -1668115,9265067 1002006,176733 -1487247,8231536 -996839,-175700 z m -1659330,9217009 995805,175700 -1438155,7959201 -990637,-174660 z m -1610238,8944671 990121,174670 -1445390,7996930 c -12985,72120 -14678,145510 -19637,218590 h -1011825 v -131780 z m -1486731,9390130 h 999939 v 9083160 h -999939 z" />
  <metadata
     id="metadata7199">
    <rdf:RDF>
      <cc:Work
         rdf:about="">
        <dc:title>SVG Picture created as ergodonk_pcb-brd.svg date 2023/02/02 10:39:58 </dc:title>
      </cc:Work>
    </rdf:RDF>
  </metadata>
</svg>
