M48
; DRILL file {KiCad (6.0.5-0)} date Sunday, February 12, 2023 at 05:03:48 PM
; FORMAT={-:-/ absolute / inch / decimal}
; #@! TF.CreationDate,2023-02-12T17:03:48-08:00
; #@! TF.GenerationSoftware,Kicad,Pcbnew,(6.0.5-0)
; #@! TF.FileFunction,Plated,1,2,PTH
FMAT,2
INCH
; #@! TA.AperFunction,Plated,PTH,ComponentDrill
T1C0.0197
; #@! TA.AperFunction,Plated,PTH,ComponentDrill
T2C0.0236
; #@! TA.AperFunction,Plated,PTH,ComponentDrill
T3C0.0394
; #@! TA.AperFunction,Plated,PTH,ComponentDrill
T4C0.1260
; #@! TA.AperFunction,Plated,PTH,ComponentDrill
T5C0.1693
%
G90
G05
T1
X3.5622Y-3.996
X3.5899Y-3.9292
X3.5899Y-4.0628
X3.6567Y-3.9015
X3.6567Y-4.0905
X3.7235Y-3.9292
X3.7235Y-4.0628
X3.7512Y-3.996
X5.0622Y-2.496
X5.0622Y-5.496
X5.0899Y-2.4292
X5.0899Y-2.5628
X5.0899Y-5.4292
X5.0899Y-5.5628
X5.1567Y-2.4015
X5.1567Y-2.5905
X5.1567Y-5.4015
X5.1567Y-5.5905
X5.2235Y-2.4292
X5.2235Y-2.5628
X5.2235Y-5.4292
X5.2235Y-5.5628
X5.2512Y-2.496
X5.2512Y-5.496
X6.5622Y-3.996
X6.5899Y-3.9292
X6.5899Y-4.0628
X6.6567Y-3.9015
X6.6567Y-4.0905
X6.7235Y-3.9292
X6.7235Y-4.0628
X6.7512Y-3.996
T2
X4.0298Y-2.996
X4.0298Y-4.996
X4.067Y-2.9062
X4.067Y-3.0858
X4.067Y-4.9062
X4.067Y-5.0858
X4.1567Y-2.869
X4.1567Y-3.123
X4.1567Y-4.869
X4.1567Y-5.123
X4.2465Y-2.9062
X4.2465Y-3.0858
X4.2465Y-4.9062
X4.2465Y-5.0858
X4.2837Y-2.996
X4.2837Y-4.996
X6.0298Y-2.996
X6.0298Y-4.996
X6.067Y-2.9062
X6.067Y-3.0858
X6.067Y-4.9062
X6.067Y-5.0858
X6.1567Y-2.869
X6.1567Y-3.123
X6.1567Y-4.869
X6.1567Y-5.123
X6.2465Y-2.9062
X6.2465Y-3.0858
X6.2465Y-4.9062
X6.2465Y-5.0858
X6.2837Y-2.996
X6.2837Y-4.996
T3
X3.576Y-4.2637
X3.676Y-4.2637
X3.776Y-4.2637
X5.0583Y-5.1771
X5.1567Y-5.1771
X5.2552Y-5.1771
X5.4067Y-2.3739
X5.4067Y-2.4739
X5.4067Y-2.5739
X5.4756Y-5.4645
X5.5756Y-5.4645
X5.6756Y-5.4645
X6.5485Y-4.2999
X6.5485Y-4.3999
X6.5485Y-4.4999
T4
X3.6567Y-3.996
X5.1567Y-2.496
X5.1567Y-5.496
X6.6567Y-3.996
T5
X4.1567Y-2.996
X4.1567Y-4.996
X6.1567Y-2.996
X6.1567Y-4.996
T0
M30
