%TF.GenerationSoftware,KiCad,Pcbnew,(6.0.5-0)*%
%TF.CreationDate,2023-02-12T17:03:44-08:00*%
%TF.ProjectId,scratch,73637261-7463-4682-9e6b-696361645f70,rev?*%
%TF.SameCoordinates,Original*%
%TF.FileFunction,Copper,L2,Bot*%
%TF.FilePolarity,Positive*%
%FSLAX46Y46*%
G04 Gerber Fmt 4.6, Leading zero omitted, Abs format (unit mm)*
G04 Created by KiCad (PCBNEW (6.0.5-0)) date 2023-02-12 17:03:44*
%MOMM*%
%LPD*%
G01*
G04 APERTURE LIST*
G04 Aperture macros list*
%AMHorizOval*
0 Thick line with rounded ends*
0 $1 width*
0 $2 $3 position (X,Y) of the first rounded end (center of the circle)*
0 $4 $5 position (X,Y) of the second rounded end (center of the circle)*
0 Add line between two ends*
20,1,$1,$2,$3,$4,$5,0*
0 Add two circle primitives to create the rounded ends*
1,1,$1,$2,$3*
1,1,$1,$4,$5*%
G04 Aperture macros list end*
%TA.AperFunction,ComponentPad*%
%ADD10R,1.700000X1.700000*%
%TD*%
%TA.AperFunction,ComponentPad*%
%ADD11O,1.700000X1.700000*%
%TD*%
%TA.AperFunction,ComponentPad*%
%ADD12C,8.600000*%
%TD*%
%TA.AperFunction,ComponentPad*%
%ADD13C,0.900000*%
%TD*%
%TA.AperFunction,ComponentPad*%
%ADD14C,0.800000*%
%TD*%
%TA.AperFunction,ComponentPad*%
%ADD15C,6.400000*%
%TD*%
%TA.AperFunction,WasherPad*%
%ADD16HorizOval,2.800000X-0.062717X0.596713X0.062717X-0.596713X0*%
%TD*%
%TA.AperFunction,WasherPad*%
%ADD17HorizOval,1.600000X0.657785X0.239414X-0.657785X-0.239414X0*%
%TD*%
%TA.AperFunction,WasherPad*%
%ADD18HorizOval,1.600000X0.657785X-0.239414X-0.657785X0.239414X0*%
%TD*%
%TA.AperFunction,WasherPad*%
%ADD19HorizOval,2.800000X0.062717X0.596713X-0.062717X-0.596713X0*%
%TD*%
%TA.AperFunction,ComponentPad*%
%ADD20R,1.800000X1.800000*%
%TD*%
%TA.AperFunction,ComponentPad*%
%ADD21C,1.800000*%
%TD*%
%TA.AperFunction,Conductor*%
%ADD22C,0.200000*%
%TD*%
G04 APERTURE END LIST*
D10*
%TO.P,REF\u002A\u002A,1*%
%TO.N,N/C*%
X90831000Y-108298000D03*
D11*
%TO.P,REF\u002A\u002A,2*%
X93371000Y-108298000D03*
%TO.P,REF\u002A\u002A,3*%
X95911000Y-108298000D03*
%TD*%
D10*
%TO.P,REF\u002A\u002A,1*%
%TO.N,N/C*%
X137331000Y-60298000D03*
D11*
%TO.P,REF\u002A\u002A,2*%
X137331000Y-62838000D03*
%TO.P,REF\u002A\u002A,3*%
X137331000Y-65378000D03*
%TD*%
D10*
%TO.P,REF\u002A\u002A,1*%
%TO.N,N/C*%
X166331000Y-114298000D03*
D11*
%TO.P,REF\u002A\u002A,2*%
X166331000Y-111758000D03*
%TO.P,REF\u002A\u002A,3*%
X166331000Y-109218000D03*
%TD*%
D10*
%TO.P,REF\u002A\u002A,1*%
%TO.N,N/C*%
X139081000Y-138798000D03*
D11*
%TO.P,REF\u002A\u002A,2*%
X141621000Y-138798000D03*
%TO.P,REF\u002A\u002A,3*%
X144161000Y-138798000D03*
%TD*%
D12*
%TO.P,REF\u002A\u002A,1*%
%TO.N,N/C*%
X105581000Y-126898000D03*
D13*
X105581000Y-130123000D03*
X103300581Y-129178419D03*
X107861419Y-124617581D03*
X107861419Y-129178419D03*
X102356000Y-126898000D03*
X103300581Y-124617581D03*
X105581000Y-123673000D03*
X108806000Y-126898000D03*
%TD*%
D12*
%TO.P,REF\u002A\u002A,1*%
%TO.N,N/C*%
X156381000Y-126898000D03*
D13*
X156381000Y-130123000D03*
X154100581Y-129178419D03*
X158661419Y-124617581D03*
X158661419Y-129178419D03*
X153156000Y-126898000D03*
X154100581Y-124617581D03*
X156381000Y-123673000D03*
X159606000Y-126898000D03*
%TD*%
D12*
%TO.P,REF\u002A\u002A,1*%
%TO.N,N/C*%
X156381000Y-76098000D03*
D13*
X156381000Y-79323000D03*
X154100581Y-78378419D03*
X158661419Y-73817581D03*
X158661419Y-78378419D03*
X153156000Y-76098000D03*
X154100581Y-73817581D03*
X156381000Y-72873000D03*
X159606000Y-76098000D03*
%TD*%
D12*
%TO.P,REF\u002A\u002A,1*%
%TO.N,N/C*%
X105581000Y-76098000D03*
D13*
X105581000Y-79323000D03*
X103300581Y-78378419D03*
X107861419Y-73817581D03*
X107861419Y-78378419D03*
X102356000Y-76098000D03*
X103300581Y-73817581D03*
X105581000Y-72873000D03*
X108806000Y-76098000D03*
%TD*%
D14*
%TO.P,REF\u002A\u002A,1*%
%TO.N,N/C*%
X92881000Y-99098000D03*
X94578056Y-103195056D03*
X94578056Y-99800944D03*
X95281000Y-101498000D03*
D15*
X92881000Y-101498000D03*
D14*
X92881000Y-103898000D03*
X91183944Y-99800944D03*
X91183944Y-103195056D03*
X90481000Y-101498000D03*
%TD*%
%TO.P,REF\u002A\u002A,1*%
%TO.N,N/C*%
X169081000Y-99098000D03*
X170778056Y-103195056D03*
X170778056Y-99800944D03*
X171481000Y-101498000D03*
D15*
X169081000Y-101498000D03*
D14*
X169081000Y-103898000D03*
X167383944Y-99800944D03*
X167383944Y-103195056D03*
X166681000Y-101498000D03*
%TD*%
%TO.P,REF\u002A\u002A,1*%
%TO.N,N/C*%
X130981000Y-137198000D03*
X132678056Y-141295056D03*
X132678056Y-137900944D03*
X133381000Y-139598000D03*
D15*
X130981000Y-139598000D03*
D14*
X130981000Y-141998000D03*
X129283944Y-137900944D03*
X129283944Y-141295056D03*
X128581000Y-139598000D03*
%TD*%
%TO.P,REF\u002A\u002A,1*%
%TO.N,N/C*%
X130981000Y-60998000D03*
X132678056Y-65095056D03*
X132678056Y-61700944D03*
X133381000Y-63398000D03*
D15*
X130981000Y-63398000D03*
D14*
X130981000Y-65798000D03*
X129283944Y-61700944D03*
X129283944Y-65095056D03*
X128581000Y-63398000D03*
%TD*%
D16*
%TO.P,REF\u002A\u002A,*%
%TO.N,*%
X102139865Y-104529325D03*
D17*
X120720396Y-73307221D03*
D18*
X141241604Y-73307221D03*
D19*
X159822135Y-104529325D03*
D20*
%TO.P,REF\u002A\u002A,A*%
%TO.N,N/C*%
X128481000Y-131498000D03*
D21*
%TO.P,REF\u002A\u002A,B*%
X133481000Y-131498000D03*
%TO.P,REF\u002A\u002A,C*%
X130981000Y-131498000D03*
%TD*%
D22*
%TO.N,*%
X133481000Y-131498000D02*
X140031000Y-131498000D01*
X144161000Y-135968000D02*
X144161000Y-138798000D01*
X140031000Y-131498000D02*
X144331000Y-135798000D01*
X144331000Y-135798000D02*
X144161000Y-135968000D01*
X130981000Y-131498000D02*
X128481000Y-131498000D01*
X137331000Y-65378000D02*
X149501000Y-77548000D01*
X150581000Y-77548000D02*
X159581000Y-86548000D01*
X164331000Y-107218000D02*
X166331000Y-109218000D01*
X149501000Y-77548000D02*
X150581000Y-77548000D01*
X159581000Y-92548000D02*
X164331000Y-97298000D01*
X159581000Y-86548000D02*
X159581000Y-92548000D01*
X164331000Y-97298000D02*
X164331000Y-107218000D01*
X95911000Y-108298000D02*
X95911000Y-105218000D01*
X95911000Y-105218000D02*
X98081000Y-103048000D01*
X98081000Y-103048000D02*
X98081000Y-84548000D01*
X98081000Y-84548000D02*
X99831000Y-82798000D01*
X99831000Y-82798000D02*
X110081000Y-82798000D01*
X110081000Y-82798000D02*
X118081000Y-74798000D01*
X128331000Y-69548000D02*
X135831000Y-69548000D01*
X135831000Y-69548000D02*
X137331000Y-68048000D01*
X118081000Y-74798000D02*
X118081000Y-67298000D01*
X126081000Y-67298000D02*
X128331000Y-69548000D01*
X118081000Y-67298000D02*
X126081000Y-67298000D01*
X137331000Y-68048000D02*
X137331000Y-65378000D01*
X133481000Y-131498000D02*
X133481000Y-131648000D01*
X133481000Y-131648000D02*
X131331000Y-133798000D01*
X131331000Y-133798000D02*
X121581000Y-133798000D01*
X109581000Y-121798000D02*
X109411000Y-121798000D01*
X109411000Y-121798000D02*
X95911000Y-108298000D01*
X121581000Y-133798000D02*
X109581000Y-121798000D01*
%TD*%
M02*
