%TF.GenerationSoftware,KiCad,Pcbnew,(6.0.5-0)*%
%TF.CreationDate,2023-01-19T18:27:40-08:00*%
%TF.ProjectId,ergodonk_pcb,6572676f-646f-46e6-9b5f-7063622e6b69,rev?*%
%TF.SameCoordinates,Original*%
%TF.FileFunction,Soldermask,Top*%
%TF.FilePolarity,Negative*%
%FSLAX46Y46*%
G04 Gerber Fmt 4.6, Leading zero omitted, Abs format (unit mm)*
G04 Created by KiCad (PCBNEW (6.0.5-0)) date 2023-01-19 18:27:40*
%MOMM*%
%LPD*%
G01*
G04 APERTURE LIST*
G04 Aperture macros list*
%AMHorizOval*
0 Thick line with rounded ends*
0 $1 width*
0 $2 $3 position (X,Y) of the first rounded end (center of the circle)*
0 $4 $5 position (X,Y) of the second rounded end (center of the circle)*
0 Add line between two ends*
20,1,$1,$2,$3,$4,$5,0*
0 Add two circle primitives to create the rounded ends*
1,1,$1,$2,$3*
1,1,$1,$4,$5*%
%AMRotRect*
0 Rectangle, with rotation*
0 The origin of the aperture is its center*
0 $1 length*
0 $2 width*
0 $3 Rotation angle, in degrees counterclockwise*
0 Add horizontal line*
21,1,$1,$2,0,0,$3*%
%AMOutline5P*
0 Free polygon, 5 corners , with rotation*
0 The origin of the aperture is its center*
0 number of corners: always 5*
0 $1 to $10 corner X, Y*
0 $11 Rotation angle, in degrees counterclockwise*
0 create outline with 5 corners*
4,1,5,$1,$2,$3,$4,$5,$6,$7,$8,$9,$10,$1,$2,$11*%
%AMOutline6P*
0 Free polygon, 6 corners , with rotation*
0 The origin of the aperture is its center*
0 number of corners: always 6*
0 $1 to $12 corner X, Y*
0 $13 Rotation angle, in degrees counterclockwise*
0 create outline with 6 corners*
4,1,6,$1,$2,$3,$4,$5,$6,$7,$8,$9,$10,$11,$12,$1,$2,$13*%
%AMOutline7P*
0 Free polygon, 7 corners , with rotation*
0 The origin of the aperture is its center*
0 number of corners: always 7*
0 $1 to $14 corner X, Y*
0 $15 Rotation angle, in degrees counterclockwise*
0 create outline with 7 corners*
4,1,7,$1,$2,$3,$4,$5,$6,$7,$8,$9,$10,$11,$12,$13,$14,$1,$2,$15*%
%AMOutline8P*
0 Free polygon, 8 corners , with rotation*
0 The origin of the aperture is its center*
0 number of corners: always 8*
0 $1 to $16 corner X, Y*
0 $17 Rotation angle, in degrees counterclockwise*
0 create outline with 8 corners*
4,1,8,$1,$2,$3,$4,$5,$6,$7,$8,$9,$10,$11,$12,$13,$14,$15,$16,$1,$2,$17*%
G04 Aperture macros list end*
%ADD10C,3.000000*%
%ADD11C,1.900000*%
%ADD12C,4.100000*%
%ADD13C,0.700000*%
%ADD14C,4.400000*%
%ADD15O,1.500000X2.800000*%
%ADD16C,1.700000*%
%ADD17R,2.000000X2.000000*%
%ADD18C,2.000000*%
%ADD19R,2.300000X2.000000*%
%ADD20Outline5P,-1.150000X1.000000X0.150000X1.000000X1.150000X0.000000X1.150000X-1.000000X-1.150000X-1.000000X0.000000*%
%ADD21R,1.524000X1.524000*%
%ADD22C,1.200000*%
%ADD23HorizOval,1.700000X-0.332394X-0.222518X0.332394X0.222518X0*%
%ADD24C,1.397000*%
%ADD25R,1.300000X1.400000*%
%ADD26R,1.300000X1.778000*%
%ADD27O,1.300000X1.778000*%
%ADD28RotRect,1.400000X1.300000X82.000000*%
%ADD29RotRect,1.778000X1.300000X262.000000*%
%ADD30HorizOval,1.300000X-0.033262X-0.236674X0.033262X0.236674X0*%
%ADD31R,2.000000X1.905000*%
%ADD32O,2.000000X1.905000*%
%ADD33C,1.524000*%
%ADD34R,1.700000X1.700000*%
%ADD35O,1.700000X1.700000*%
%ADD36C,1.600000*%
%ADD37O,1.600000X1.600000*%
G04 APERTURE END LIST*
D10*
%TO.C,SWLH14*%
X118110000Y-60515000D03*
D11*
X109220000Y-57975000D03*
X119380000Y-57975000D03*
D12*
X114300000Y-57975000D03*
D10*
X111760000Y-63055000D03*
%TD*%
D11*
%TO.C,SWLH33*%
X100330000Y-100075000D03*
D12*
X95250000Y-100075000D03*
D10*
X99060000Y-102615000D03*
X92710000Y-105155000D03*
D11*
X90170000Y-100075000D03*
%TD*%
D10*
%TO.C,SWLH57*%
X172471125Y-151777315D03*
D11*
X170132594Y-150166175D03*
X168718596Y-160227299D03*
D10*
X174102657Y-158419017D03*
D12*
X169425595Y-155196737D03*
%TD*%
D13*
%TO.C,H7*%
X41149000Y-139827000D03*
X41632274Y-140993726D03*
X42799000Y-141477000D03*
X44449000Y-139827000D03*
X43965726Y-138660274D03*
D14*
X42799000Y-139827000D03*
D13*
X41632274Y-138660274D03*
X42799000Y-138177000D03*
X43965726Y-140993726D03*
%TD*%
D11*
%TO.C,SWLH35*%
X138430000Y-101075000D03*
D10*
X137160000Y-103615000D03*
D12*
X133350000Y-101075000D03*
D10*
X130810000Y-106155000D03*
D11*
X128270000Y-101075000D03*
%TD*%
D13*
%TO.C,H5*%
X132183274Y-138485476D03*
X134516726Y-138485476D03*
X132183274Y-136152024D03*
X134516726Y-136152024D03*
X131700000Y-137318750D03*
X133350000Y-138968750D03*
X135000000Y-137318750D03*
X133350000Y-135668750D03*
D14*
X133350000Y-137318750D03*
%TD*%
D11*
%TO.C,SWLH12*%
X81280000Y-67475000D03*
X71120000Y-67475000D03*
D10*
X80010000Y-70015000D03*
X73660000Y-72555000D03*
D12*
X76200000Y-67475000D03*
%TD*%
%TO.C,SWLH43*%
X95250000Y-119125000D03*
D10*
X99060000Y-121665000D03*
D11*
X100330000Y-119125000D03*
D10*
X92710000Y-124205000D03*
D11*
X90170000Y-119125000D03*
%TD*%
D10*
%TO.C,SWLH2*%
X69660000Y-40005000D03*
D11*
X67120000Y-34925000D03*
D12*
X72200000Y-34925000D03*
D11*
X77280000Y-34925000D03*
D10*
X76010000Y-37465000D03*
%TD*%
D11*
%TO.C,SWLH53*%
X100330000Y-138175000D03*
X90170000Y-138175000D03*
D10*
X92710000Y-143255000D03*
D12*
X95250000Y-138175000D03*
D10*
X99060000Y-140715000D03*
%TD*%
D12*
%TO.C,SWLH3*%
X91250000Y-34925000D03*
D11*
X91250000Y-29845000D03*
D10*
X93790000Y-31115000D03*
D11*
X91250000Y-40005000D03*
D10*
X96330000Y-37465000D03*
%TD*%
%TO.C,SWLH_ROT1*%
X167612000Y-127665001D03*
D15*
X165850000Y-125125000D03*
D10*
X168882000Y-130205000D03*
D12*
X171422000Y-125125000D03*
D11*
X166342000Y-125125000D03*
D10*
X173962000Y-130205000D03*
D16*
X175922000Y-125125000D03*
X166922000Y-125125000D03*
D10*
X175232000Y-127665000D03*
D15*
X177050000Y-125125000D03*
D11*
X176502000Y-125125000D03*
D17*
X173950000Y-117625000D03*
D18*
X168950000Y-117625000D03*
X171450000Y-117625000D03*
X173950000Y-132125000D03*
D19*
X177122000Y-130245000D03*
D20*
X164422000Y-127705000D03*
D18*
X168950000Y-132125000D03*
%TD*%
D12*
%TO.C,SWLH45*%
X133350000Y-120125000D03*
D11*
X138430000Y-120125000D03*
D10*
X130810000Y-125205000D03*
X137160000Y-122665000D03*
D11*
X128270000Y-120125000D03*
%TD*%
D14*
%TO.C,H4*%
X179248274Y-156539726D03*
D13*
X178081548Y-157706452D03*
X179248274Y-158189726D03*
X180415000Y-155373000D03*
X177598274Y-156539726D03*
X179248274Y-154889726D03*
X180898274Y-156539726D03*
X178081548Y-155373000D03*
X180415000Y-157706452D03*
%TD*%
D10*
%TO.C,SWLH68*%
X183742298Y-171957350D03*
X190384000Y-170325818D03*
D12*
X186964578Y-167280288D03*
D11*
X181934016Y-166573289D03*
X191995140Y-167987287D03*
%TD*%
D10*
%TO.C,SWLH27*%
X175260000Y-89565000D03*
D11*
X166370000Y-87025000D03*
X176530000Y-87025000D03*
D10*
X168910000Y-92105000D03*
D12*
X171450000Y-87025000D03*
%TD*%
D10*
%TO.C,SWLH4*%
X107760000Y-40005000D03*
D11*
X115380000Y-34925000D03*
D10*
X114110000Y-37465000D03*
D11*
X105220000Y-34925000D03*
D12*
X110300000Y-34925000D03*
%TD*%
D11*
%TO.C,SWLH65*%
X135732726Y-157675468D03*
D10*
X134121586Y-160013999D03*
D11*
X125671602Y-156261470D03*
D12*
X130702164Y-156968469D03*
D10*
X127479884Y-161645531D03*
%TD*%
D12*
%TO.C,SWLH22*%
X76200000Y-86525000D03*
D10*
X80010000Y-89065000D03*
D11*
X81280000Y-86525000D03*
D10*
X73660000Y-91605000D03*
D11*
X71120000Y-86525000D03*
%TD*%
D13*
%TO.C,H10*%
X90376548Y-94361000D03*
X90376548Y-96694452D03*
D14*
X91543274Y-95527726D03*
D13*
X92710000Y-94361000D03*
X93193274Y-95527726D03*
X92710000Y-96694452D03*
X91543274Y-97177726D03*
X89893274Y-95527726D03*
X91543274Y-93877726D03*
%TD*%
D12*
%TO.C,SWLH16*%
X152400000Y-65475000D03*
D11*
X147320000Y-65475000D03*
D10*
X149860000Y-70555000D03*
X156210000Y-68015000D03*
D11*
X157480000Y-65475000D03*
%TD*%
D10*
%TO.C,SWLH58*%
X186393545Y-153092743D03*
D11*
X194646387Y-149122680D03*
D10*
X193035247Y-151461211D03*
D11*
X184585263Y-147708682D03*
D12*
X189615825Y-148415681D03*
%TD*%
D11*
%TO.C,SWLH44*%
X119380000Y-115125000D03*
D10*
X118110000Y-117665000D03*
D11*
X109220000Y-115125000D03*
D12*
X114300000Y-115125000D03*
D10*
X111760000Y-120205000D03*
%TD*%
D13*
%TO.C,H3*%
X180722000Y-93599000D03*
X184022000Y-93599000D03*
X183538726Y-92432274D03*
D14*
X182372000Y-93599000D03*
D13*
X183538726Y-94765726D03*
X182372000Y-91949000D03*
X181205274Y-94765726D03*
X181205274Y-92432274D03*
X182372000Y-95249000D03*
%TD*%
%TO.C,H6*%
X104712500Y-155575000D03*
D14*
X106362500Y-155575000D03*
D13*
X105195774Y-156741726D03*
X105195774Y-154408274D03*
X107529226Y-154408274D03*
X106362500Y-153925000D03*
X108012500Y-155575000D03*
X107529226Y-156741726D03*
X106362500Y-157225000D03*
%TD*%
D12*
%TO.C,SWLH52*%
X76200000Y-143675000D03*
D11*
X81280000Y-143675000D03*
D10*
X73660000Y-148755000D03*
D11*
X71120000Y-143675000D03*
D10*
X80010000Y-146215000D03*
%TD*%
%TO.C,SWLH56*%
X153607169Y-149127013D03*
D11*
X151268638Y-147515873D03*
X149854640Y-157576997D03*
D12*
X150561639Y-152546435D03*
D10*
X155238701Y-155768715D03*
%TD*%
D13*
%TO.C,H1*%
X119379000Y-48387000D03*
X117729000Y-46737000D03*
X116562274Y-49553726D03*
X118895726Y-49553726D03*
X118895726Y-47220274D03*
X116562274Y-47220274D03*
X117729000Y-50037000D03*
D14*
X117729000Y-48387000D03*
D13*
X116079000Y-48387000D03*
%TD*%
D10*
%TO.C,SWLH28*%
X190960000Y-92105000D03*
D11*
X188420000Y-87025000D03*
X198580000Y-87025000D03*
D10*
X197310000Y-89565000D03*
D12*
X193500000Y-87025000D03*
%TD*%
%TO.C,SWLH26*%
X152400000Y-84525000D03*
D10*
X149860000Y-89605000D03*
D11*
X157480000Y-84525000D03*
X147320000Y-84525000D03*
D10*
X156210000Y-87065000D03*
%TD*%
%TO.C,SWLH24*%
X118110000Y-79565000D03*
X111760000Y-82105000D03*
D11*
X109220000Y-77025000D03*
D12*
X114300000Y-77025000D03*
D11*
X119380000Y-77025000D03*
%TD*%
%TO.C,SWLH7*%
X166370000Y-34925000D03*
X176530000Y-34925000D03*
D10*
X168910000Y-40005000D03*
D12*
X171450000Y-34925000D03*
D10*
X175260000Y-37465000D03*
%TD*%
D11*
%TO.C,SWLH31*%
X55245000Y-111075000D03*
D10*
X53975000Y-113615000D03*
D12*
X50165000Y-111075000D03*
D11*
X45085000Y-111075000D03*
D10*
X47625000Y-116155000D03*
%TD*%
D11*
%TO.C,SWLH41*%
X42545000Y-130125000D03*
D10*
X45085000Y-135205000D03*
D12*
X47625000Y-130125000D03*
D10*
X51435000Y-132665000D03*
D11*
X52705000Y-130125000D03*
%TD*%
D10*
%TO.C,SWLH38*%
X190960000Y-111155000D03*
D11*
X188420000Y-106075000D03*
X198580000Y-106075000D03*
D10*
X197310000Y-108615000D03*
D12*
X193500000Y-106075000D03*
%TD*%
%TO.C,SWLH6*%
X152400000Y-34925000D03*
D10*
X156210000Y-37465000D03*
D11*
X147320000Y-34925000D03*
X157480000Y-34925000D03*
D10*
X149860000Y-40005000D03*
%TD*%
D12*
%TO.C,SWLH46*%
X152400000Y-122625000D03*
D10*
X156210000Y-125165000D03*
X149860000Y-127705000D03*
D11*
X147320000Y-122625000D03*
X157480000Y-122625000D03*
%TD*%
D21*
%TO.C,JP1*%
X56928000Y-58928000D03*
X58928000Y-58928000D03*
X58928000Y-61928000D03*
X56928000Y-61928000D03*
%TD*%
D11*
%TO.C,SWLH21*%
X57626250Y-92025000D03*
D12*
X52546250Y-92025000D03*
D11*
X47466250Y-92025000D03*
D10*
X50006250Y-97105000D03*
X56356250Y-94565000D03*
%TD*%
D12*
%TO.C,SWLH51*%
X54768750Y-149175000D03*
D11*
X49688750Y-149175000D03*
X59848750Y-149175000D03*
D10*
X58578750Y-151715000D03*
X52228750Y-154255000D03*
%TD*%
D11*
%TO.C,SWLH34*%
X109220000Y-96075000D03*
D10*
X118110000Y-98615000D03*
D12*
X114300000Y-96075000D03*
D10*
X111760000Y-101155000D03*
D11*
X119380000Y-96075000D03*
%TD*%
D10*
%TO.C,SWLH50*%
X28416250Y-154255000D03*
X34766250Y-151715000D03*
D11*
X36036250Y-149175000D03*
D12*
X30956250Y-149175000D03*
D11*
X25876250Y-149175000D03*
%TD*%
%TO.C,SWLH37*%
X166370000Y-106075000D03*
X176530000Y-106075000D03*
D10*
X168910000Y-111155000D03*
X175260000Y-108615000D03*
D12*
X171450000Y-106075000D03*
%TD*%
D10*
%TO.C,SWLH5*%
X133160000Y-37465000D03*
D12*
X129350000Y-34925000D03*
D10*
X126810000Y-40005000D03*
D11*
X124270000Y-34925000D03*
X134430000Y-34925000D03*
%TD*%
%TO.C,SWLH42*%
X71120000Y-124625000D03*
X81280000Y-124625000D03*
D12*
X76200000Y-124625000D03*
D10*
X73660000Y-129705000D03*
X80010000Y-127165000D03*
%TD*%
D12*
%TO.C,SWLH48*%
X192267073Y-129551075D03*
D11*
X197297635Y-130258074D03*
X187236511Y-128844076D03*
D10*
X195686495Y-132596605D03*
X189044793Y-134228137D03*
%TD*%
D13*
%TO.C,H2*%
X176657000Y-50166000D03*
X175007000Y-51816000D03*
X177823726Y-52982726D03*
X175490274Y-50649274D03*
X177823726Y-50649274D03*
X178307000Y-51816000D03*
X176657000Y-53466000D03*
D14*
X176657000Y-51816000D03*
D13*
X175490274Y-52982726D03*
%TD*%
D11*
%TO.C,SWLH32*%
X71120000Y-105575000D03*
X81280000Y-105575000D03*
D12*
X76200000Y-105575000D03*
D10*
X80010000Y-108115000D03*
X73660000Y-110655000D03*
%TD*%
%TO.C,SWLH23*%
X92710000Y-86105000D03*
D11*
X90170000Y-81025000D03*
X100330000Y-81025000D03*
D10*
X99060000Y-83565000D03*
D12*
X95250000Y-81025000D03*
%TD*%
%TO.C,SWLH36*%
X152400000Y-103575000D03*
D11*
X157480000Y-103575000D03*
D10*
X156210000Y-106115000D03*
X149860000Y-108655000D03*
D11*
X147320000Y-103575000D03*
%TD*%
D12*
%TO.C,SWLH11*%
X57150000Y-72975000D03*
D10*
X60960000Y-75515000D03*
D11*
X62230000Y-72975000D03*
D10*
X54610000Y-78055000D03*
D11*
X52070000Y-72975000D03*
%TD*%
D22*
%TO.C,J1*%
X184495115Y-46073290D03*
X185468632Y-47527513D03*
X191285523Y-43633443D03*
X190312006Y-42179221D03*
D23*
X181558162Y-47618221D03*
X182921087Y-49654133D03*
X190957972Y-46379843D03*
X187648013Y-41435485D03*
X188465019Y-48048730D03*
X185155060Y-43104372D03*
X185141081Y-50273912D03*
X181831122Y-45329555D03*
%TD*%
D11*
%TO.C,SWLH17*%
X166370000Y-67975000D03*
X176530000Y-67975000D03*
D10*
X175260000Y-70515000D03*
X168910000Y-73055000D03*
D12*
X171450000Y-67975000D03*
%TD*%
D11*
%TO.C,SWLH54*%
X109220000Y-134175000D03*
D10*
X111760000Y-139255000D03*
D11*
X119380000Y-134175000D03*
D12*
X114300000Y-134175000D03*
D10*
X118110000Y-136715000D03*
%TD*%
D11*
%TO.C,SWLH18*%
X188420000Y-67975000D03*
X198580000Y-67975000D03*
D10*
X190960000Y-73055000D03*
D12*
X193500000Y-67975000D03*
D10*
X197310000Y-70515000D03*
%TD*%
D13*
%TO.C,H10*%
X138251726Y-90348274D03*
X136068274Y-90348274D03*
X137160000Y-89865000D03*
X135585000Y-91440000D03*
D12*
X137160000Y-91440000D03*
D13*
X138735000Y-91440000D03*
X137160000Y-93015000D03*
X136068274Y-92531726D03*
X138251726Y-92531726D03*
%TD*%
%TO.C,H8*%
X49149000Y-99950000D03*
X47982274Y-102766726D03*
X50315726Y-102766726D03*
X47982274Y-100433274D03*
D14*
X49149000Y-101600000D03*
D13*
X47499000Y-101600000D03*
X50315726Y-100433274D03*
X49149000Y-103250000D03*
X50799000Y-101600000D03*
%TD*%
D11*
%TO.C,SWLH25*%
X138430000Y-82025000D03*
D10*
X130810000Y-87105000D03*
X137160000Y-84565000D03*
D11*
X128270000Y-82025000D03*
D12*
X133350000Y-82025000D03*
%TD*%
D11*
%TO.C,SWLH1*%
X44070000Y-34925000D03*
X54230000Y-34925000D03*
D10*
X46610000Y-40005000D03*
X52960000Y-37465000D03*
D12*
X49150000Y-34925000D03*
%TD*%
D10*
%TO.C,SWLH13*%
X90170000Y-59435000D03*
D11*
X95250000Y-56895000D03*
D12*
X95250000Y-61975000D03*
D10*
X92710000Y-65785000D03*
D11*
X95250000Y-67055000D03*
%TD*%
D13*
%TO.C,H9*%
X57507274Y-45541000D03*
X59840726Y-43207548D03*
X58674000Y-46024274D03*
X60324000Y-44374274D03*
D14*
X58674000Y-44374274D03*
D13*
X58674000Y-42724274D03*
X57024000Y-44374274D03*
X57507274Y-43207548D03*
X59840726Y-45541000D03*
%TD*%
D24*
%TO.C,R1*%
X187547000Y-56801000D03*
X192627000Y-56801000D03*
%TD*%
D10*
%TO.C,SWLH15*%
X137160000Y-65515000D03*
D12*
X133350000Y-62975000D03*
D11*
X128270000Y-62975000D03*
D10*
X130810000Y-68055000D03*
D11*
X138430000Y-62975000D03*
%TD*%
D25*
%TO.C,D50*%
X23006250Y-142689000D03*
D26*
X23006250Y-141464000D03*
D25*
X23006250Y-146239000D03*
D27*
X23006250Y-147464000D03*
%TD*%
D25*
%TO.C,D11*%
X49200000Y-66489000D03*
D26*
X49200000Y-65264000D03*
D27*
X49200000Y-71264000D03*
D25*
X49200000Y-70039000D03*
%TD*%
%TO.C,D53*%
X87300000Y-131689000D03*
D26*
X87300000Y-130464000D03*
D25*
X87300000Y-135239000D03*
D27*
X87300000Y-136464000D03*
%TD*%
D25*
%TO.C,D42*%
X68250000Y-118139000D03*
D26*
X68250000Y-116914000D03*
D27*
X68250000Y-122914000D03*
D25*
X68250000Y-121689000D03*
%TD*%
D28*
%TO.C,D58*%
X182612064Y-141010548D03*
D29*
X182782551Y-139797470D03*
D28*
X182118000Y-144526000D03*
D30*
X181947513Y-145739078D03*
%TD*%
D26*
%TO.C,D13*%
X95123000Y-47340000D03*
D25*
X95123000Y-48565000D03*
X95123000Y-52115000D03*
D27*
X95123000Y-53340000D03*
%TD*%
D25*
%TO.C,D54*%
X106350000Y-127689000D03*
D26*
X106350000Y-126464000D03*
D25*
X106350000Y-131239000D03*
D27*
X106350000Y-132464000D03*
%TD*%
D25*
%TO.C,D52*%
X68250000Y-137189000D03*
D26*
X68250000Y-135964000D03*
D25*
X68250000Y-140739000D03*
D27*
X68250000Y-141964000D03*
%TD*%
D26*
%TO.C,D3*%
X89535000Y-43101000D03*
D25*
X89535000Y-44326000D03*
D27*
X89535000Y-49101000D03*
D25*
X89535000Y-47876000D03*
%TD*%
D26*
%TO.C,D15*%
X125400000Y-55264000D03*
D25*
X125400000Y-56489000D03*
D27*
X125400000Y-61264000D03*
D25*
X125400000Y-60039000D03*
%TD*%
%TO.C,D36*%
X144450000Y-97089000D03*
D26*
X144450000Y-95864000D03*
D27*
X144450000Y-101864000D03*
D25*
X144450000Y-100639000D03*
%TD*%
D26*
%TO.C,D22*%
X68250000Y-78814000D03*
D25*
X68250000Y-80039000D03*
X68250000Y-83589000D03*
D27*
X68250000Y-84814000D03*
%TD*%
D25*
%TO.C,D1*%
X41200000Y-28439000D03*
D26*
X41200000Y-27214000D03*
D25*
X41200000Y-31989000D03*
D27*
X41200000Y-33214000D03*
%TD*%
D26*
%TO.C,D6*%
X144450000Y-27214000D03*
D25*
X144450000Y-28439000D03*
D27*
X144450000Y-33214000D03*
D25*
X144450000Y-31989000D03*
%TD*%
D31*
%TO.C,Q1*%
X68227000Y-54101000D03*
D32*
X68227000Y-51561000D03*
X68227000Y-49021000D03*
%TD*%
D26*
%TO.C,D18*%
X185550000Y-60264000D03*
D25*
X185550000Y-61489000D03*
D27*
X185550000Y-66264000D03*
D25*
X185550000Y-65039000D03*
%TD*%
%TO.C,D27*%
X163500000Y-80539000D03*
D26*
X163500000Y-79314000D03*
D27*
X163500000Y-85314000D03*
D25*
X163500000Y-84089000D03*
%TD*%
%TO.C,D31*%
X42215000Y-104589000D03*
D26*
X42215000Y-103364000D03*
D27*
X42215000Y-109364000D03*
D25*
X42215000Y-108139000D03*
%TD*%
%TO.C,D46*%
X144450000Y-116139000D03*
D26*
X144450000Y-114914000D03*
D27*
X144450000Y-120914000D03*
D25*
X144450000Y-119689000D03*
%TD*%
D26*
%TO.C,D35*%
X125400000Y-93364000D03*
D25*
X125400000Y-94589000D03*
D27*
X125400000Y-99364000D03*
D25*
X125400000Y-98139000D03*
%TD*%
%TO.C,D17*%
X163500000Y-61489000D03*
D26*
X163500000Y-60264000D03*
D25*
X163500000Y-65039000D03*
D27*
X163500000Y-66264000D03*
%TD*%
D26*
%TO.C,D21*%
X44596250Y-84314000D03*
D25*
X44596250Y-85539000D03*
X44596250Y-89089000D03*
D27*
X44596250Y-90314000D03*
%TD*%
D25*
%TO.C,D16*%
X144450000Y-58989000D03*
D26*
X144450000Y-57764000D03*
D27*
X144450000Y-63764000D03*
D25*
X144450000Y-62539000D03*
%TD*%
%TO.C,D23*%
X86300000Y-83961000D03*
D26*
X86300000Y-82736000D03*
D27*
X86300000Y-88736000D03*
D25*
X86300000Y-87511000D03*
%TD*%
D26*
%TO.C,D34*%
X106350000Y-88364000D03*
D25*
X106350000Y-89589000D03*
D27*
X106350000Y-94364000D03*
D25*
X106350000Y-93139000D03*
%TD*%
%TO.C,D4*%
X118250000Y-28439000D03*
D26*
X118250000Y-27214000D03*
D27*
X118250000Y-33214000D03*
D25*
X118250000Y-31989000D03*
%TD*%
D29*
%TO.C,D68*%
X178344519Y-165431196D03*
D28*
X178174032Y-166644274D03*
D30*
X177509481Y-171372804D03*
D28*
X177679968Y-170159726D03*
%TD*%
%TO.C,D57*%
X162389513Y-147771078D03*
D29*
X162560000Y-146558000D03*
D30*
X161724962Y-152499608D03*
D28*
X161895449Y-151286530D03*
%TD*%
D26*
%TO.C,D7*%
X163500000Y-27214000D03*
D25*
X163500000Y-28439000D03*
D27*
X163500000Y-33214000D03*
D25*
X163500000Y-31989000D03*
%TD*%
D26*
%TO.C,D41*%
X39675000Y-122414000D03*
D25*
X39675000Y-123639000D03*
D27*
X39675000Y-128414000D03*
D25*
X39675000Y-127189000D03*
%TD*%
%TO.C,D2*%
X64250000Y-28439000D03*
D26*
X64250000Y-27214000D03*
D25*
X64250000Y-31989000D03*
D27*
X64250000Y-33214000D03*
%TD*%
D26*
%TO.C,D24*%
X106350000Y-69314000D03*
D25*
X106350000Y-70539000D03*
X106350000Y-74089000D03*
D27*
X106350000Y-75314000D03*
%TD*%
D26*
%TO.C,D5*%
X121400000Y-27214000D03*
D25*
X121400000Y-28439000D03*
X121400000Y-31989000D03*
D27*
X121400000Y-33214000D03*
%TD*%
D26*
%TO.C,D12*%
X68250000Y-59764000D03*
D25*
X68250000Y-60989000D03*
X68250000Y-64539000D03*
D27*
X68250000Y-65764000D03*
%TD*%
D25*
%TO.C,D33*%
X87300000Y-93589000D03*
D26*
X87300000Y-92364000D03*
D27*
X87300000Y-98364000D03*
D25*
X87300000Y-97139000D03*
%TD*%
D26*
%TO.C,D45*%
X125400000Y-112414000D03*
D25*
X125400000Y-113639000D03*
X125400000Y-117189000D03*
D27*
X125400000Y-118414000D03*
%TD*%
D33*
%TO.C,D_SOL_1*%
X79121000Y-56642000D03*
X79121000Y-45466000D03*
%TD*%
D26*
%TO.C,D43*%
X87300000Y-111414000D03*
D25*
X87300000Y-112639000D03*
X87300000Y-116189000D03*
D27*
X87300000Y-117414000D03*
%TD*%
D26*
%TO.C,D26*%
X144450000Y-76814000D03*
D25*
X144450000Y-78039000D03*
X144450000Y-81589000D03*
D27*
X144450000Y-82814000D03*
%TD*%
D34*
%TO.C,ULH1*%
X101550000Y-27845000D03*
D16*
X101550000Y-30385000D03*
X101550000Y-32925000D03*
X101550000Y-35465000D03*
X101550000Y-38005000D03*
X101550000Y-40545000D03*
X101550000Y-43085000D03*
X101550000Y-45625000D03*
X101550000Y-48165000D03*
X101550000Y-50705000D03*
X101550000Y-53245000D03*
X101550000Y-55785000D03*
X101550000Y-58325000D03*
X101550000Y-60865000D03*
X101550000Y-63405000D03*
X101550000Y-65945000D03*
X101550000Y-68485000D03*
X101550000Y-71025000D03*
X101550000Y-73565000D03*
X101550000Y-76105000D03*
X86310000Y-76105000D03*
X86310000Y-73565000D03*
X86310000Y-71025000D03*
X86310000Y-68485000D03*
X86310000Y-65945000D03*
X86310000Y-63405000D03*
X86310000Y-60865000D03*
X86310000Y-58325000D03*
X86310000Y-55785000D03*
X86310000Y-53245000D03*
X86310000Y-50705000D03*
X86310000Y-48165000D03*
X86310000Y-45625000D03*
X86310000Y-43085000D03*
X86310000Y-40545000D03*
X86310000Y-38005000D03*
X86310000Y-35465000D03*
X86310000Y-32925000D03*
X86310000Y-30385000D03*
X86310000Y-27845000D03*
X90118000Y-72294000D03*
X92658000Y-72294000D03*
X95198000Y-72294000D03*
X97738000Y-72294000D03*
%TD*%
D25*
%TO.C,D38*%
X185550000Y-99589000D03*
D26*
X185550000Y-98364000D03*
D27*
X185550000Y-104364000D03*
D25*
X185550000Y-103139000D03*
%TD*%
D34*
%TO.C,J_SOL_1*%
X73787000Y-51562000D03*
D35*
X73787000Y-49022000D03*
%TD*%
D26*
%TO.C,D14*%
X106350000Y-50264000D03*
D25*
X106350000Y-51489000D03*
X106350000Y-55039000D03*
D27*
X106350000Y-56264000D03*
%TD*%
D25*
%TO.C,D37*%
X163500000Y-99589000D03*
D26*
X163500000Y-98364000D03*
D27*
X163500000Y-104364000D03*
D25*
X163500000Y-103139000D03*
%TD*%
D26*
%TO.C,D44*%
X106350000Y-107414000D03*
D25*
X106350000Y-108639000D03*
D27*
X106350000Y-113414000D03*
D25*
X106350000Y-112189000D03*
%TD*%
D29*
%TO.C,D56*%
X143673519Y-143841196D03*
D28*
X143503032Y-145054274D03*
X143008968Y-148569726D03*
D30*
X142838481Y-149782804D03*
%TD*%
D26*
%TO.C,D32*%
X68250000Y-97864000D03*
D25*
X68250000Y-99089000D03*
D27*
X68250000Y-103864000D03*
D25*
X68250000Y-102639000D03*
%TD*%
D26*
%TO.C,D47*%
X181991000Y-116507000D03*
D25*
X181991000Y-117732000D03*
X181991000Y-121282000D03*
D27*
X181991000Y-122507000D03*
%TD*%
D36*
%TO.C,R2*%
X67447000Y-44081000D03*
D37*
X77607000Y-44081000D03*
%TD*%
D25*
%TO.C,D25*%
X125400000Y-75539000D03*
D26*
X125400000Y-74314000D03*
D25*
X125400000Y-79089000D03*
D27*
X125400000Y-80314000D03*
%TD*%
D28*
%TO.C,D48*%
X185322551Y-122017470D03*
D29*
X185493038Y-120804392D03*
D30*
X184658000Y-126746000D03*
D28*
X184828487Y-125532922D03*
%TD*%
D25*
%TO.C,D28*%
X185550000Y-80539000D03*
D26*
X185550000Y-79314000D03*
D25*
X185550000Y-84089000D03*
D27*
X185550000Y-85314000D03*
%TD*%
D25*
%TO.C,D51*%
X46818750Y-142689000D03*
D26*
X46818750Y-141464000D03*
D27*
X46818750Y-147464000D03*
D25*
X46818750Y-146239000D03*
%TD*%
D29*
%TO.C,D65*%
X123861519Y-148179470D03*
D28*
X123691032Y-149392548D03*
X123196968Y-152908000D03*
D30*
X123026481Y-154121078D03*
%TD*%
M02*
