%TF.GenerationSoftware,KiCad,Pcbnew,(6.0.5-0)*%
%TF.CreationDate,2023-01-14T19:39:34-08:00*%
%TF.ProjectId,ergodonk_pcb,6572676f-646f-46e6-9b5f-7063622e6b69,rev?*%
%TF.SameCoordinates,Original*%
%TF.FileFunction,Soldermask,Top*%
%TF.FilePolarity,Negative*%
%FSLAX46Y46*%
G04 Gerber Fmt 4.6, Leading zero omitted, Abs format (unit mm)*
G04 Created by KiCad (PCBNEW (6.0.5-0)) date 2023-01-14 19:39:34*
%MOMM*%
%LPD*%
G01*
G04 APERTURE LIST*
G04 Aperture macros list*
%AMRotRect*
0 Rectangle, with rotation*
0 The origin of the aperture is its center*
0 $1 length*
0 $2 width*
0 $3 Rotation angle, in degrees counterclockwise*
0 Add horizontal line*
21,1,$1,$2,0,0,$3*%
G04 Aperture macros list end*
%ADD10C,1.900000*%
%ADD11C,3.000000*%
%ADD12C,1.700000*%
%ADD13C,4.100000*%
%ADD14R,2.300000X2.000000*%
%ADD15R,1.400000X1.300000*%
%ADD16RotRect,2.300000X2.000000X82.000000*%
%ADD17RotRect,1.400000X1.300000X352.000000*%
%ADD18O,2.000000X3.200000*%
%ADD19R,2.000000X2.000000*%
%ADD20C,2.000000*%
%ADD21RotRect,2.300000X2.000000X352.000000*%
%ADD22R,1.905000X2.000000*%
%ADD23O,1.905000X2.000000*%
%ADD24RotRect,1.400000X1.300000X82.000000*%
%ADD25R,1.300000X1.400000*%
%ADD26C,1.600000*%
%ADD27O,1.600000X1.600000*%
%ADD28C,1.397000*%
%ADD29R,1.700000X1.700000*%
G04 APERTURE END LIST*
D10*
%TO.C,SWLH14*%
X109220000Y-57975000D03*
D11*
X110490000Y-60515001D03*
D12*
X118800000Y-57975000D03*
D11*
X118110000Y-60515000D03*
X116840000Y-63055000D03*
D10*
X119380000Y-57975000D03*
D13*
X114300000Y-57975000D03*
D12*
X109800000Y-57975000D03*
D11*
X111760000Y-63055000D03*
D14*
X107300000Y-60555000D03*
X120000000Y-63095000D03*
%TD*%
D15*
%TO.C,D50*%
X29556250Y-142031250D03*
X26006250Y-142031250D03*
%TD*%
D11*
%TO.C,SWLH33*%
X92710000Y-105155000D03*
D10*
X90170000Y-100075000D03*
D13*
X95250000Y-100075000D03*
D10*
X100330000Y-100075000D03*
D11*
X91440000Y-102615001D03*
D12*
X99750000Y-100075000D03*
D11*
X99060000Y-102615000D03*
D12*
X90750000Y-100075000D03*
D11*
X97790000Y-105155000D03*
D14*
X88250000Y-102655000D03*
X100950000Y-105195000D03*
%TD*%
D11*
%TO.C,SWLH57*%
X173923084Y-158249192D03*
X172291552Y-151607490D03*
X171231054Y-159153333D03*
D10*
X169953021Y-149996350D03*
D11*
X174630083Y-153218630D03*
D12*
X168619743Y-159483118D03*
X169872301Y-150570706D03*
D13*
X169246022Y-155026912D03*
D10*
X168539023Y-160057474D03*
D16*
X170826702Y-162317855D03*
X175109481Y-150094950D03*
%TD*%
D15*
%TO.C,D11*%
X58925000Y-65831250D03*
X55375000Y-65831250D03*
%TD*%
%TO.C,D53*%
X95437500Y-131825000D03*
X91887500Y-131825000D03*
%TD*%
D12*
%TO.C,SWLH35*%
X137850000Y-101075000D03*
D11*
X130810000Y-106155000D03*
X129540000Y-103615001D03*
D10*
X138430000Y-101075000D03*
X128270000Y-101075000D03*
D11*
X135890000Y-106155000D03*
D13*
X133350000Y-101075000D03*
D11*
X137160000Y-103615000D03*
D12*
X128850000Y-101075000D03*
D14*
X126350000Y-103655000D03*
X139050000Y-106195000D03*
%TD*%
D15*
%TO.C,D42*%
X78162500Y-117481250D03*
X74612500Y-117481250D03*
%TD*%
D17*
%TO.C,D58*%
X192800924Y-141504774D03*
X189285472Y-141010710D03*
%TD*%
D15*
%TO.C,D13*%
X97025000Y-55625000D03*
X93475000Y-55625000D03*
%TD*%
%TO.C,D54*%
X115900000Y-127031250D03*
X112350000Y-127031250D03*
%TD*%
D11*
%TO.C,SWLH12*%
X80010000Y-70015000D03*
D12*
X71700000Y-67475000D03*
D13*
X76200000Y-67475000D03*
D11*
X73660000Y-72555000D03*
D10*
X71120000Y-67475000D03*
D11*
X78740000Y-72555000D03*
X72390000Y-70015001D03*
D10*
X81280000Y-67475000D03*
D12*
X80700000Y-67475000D03*
D14*
X69200000Y-70055000D03*
X81900000Y-72595000D03*
%TD*%
D10*
%TO.C,SWLH43*%
X90170000Y-119125000D03*
D12*
X99750000Y-119125000D03*
X90750000Y-119125000D03*
D11*
X91440000Y-121665001D03*
X92710000Y-124205000D03*
D13*
X95250000Y-119125000D03*
D11*
X97790000Y-124205000D03*
D10*
X100330000Y-119125000D03*
D11*
X99060000Y-121665000D03*
D14*
X88250000Y-121705000D03*
X100950000Y-124245000D03*
%TD*%
D11*
%TO.C,SWLH2*%
X69660000Y-40005000D03*
X68390000Y-37465001D03*
X76010000Y-37465000D03*
D13*
X72200000Y-34925000D03*
D11*
X74740000Y-40005000D03*
D12*
X76700000Y-34925000D03*
X67700000Y-34925000D03*
D10*
X67120000Y-34925000D03*
X77280000Y-34925000D03*
D14*
X65200000Y-37505000D03*
X77900000Y-40045000D03*
%TD*%
D15*
%TO.C,D52*%
X77975000Y-136531250D03*
X74425000Y-136531250D03*
%TD*%
%TO.C,D3*%
X93818750Y-28575000D03*
X90268750Y-28575000D03*
%TD*%
%TO.C,D15*%
X135312500Y-55831250D03*
X131762500Y-55831250D03*
%TD*%
%TO.C,D36*%
X154175000Y-96431250D03*
X150625000Y-96431250D03*
%TD*%
%TO.C,D22*%
X78162500Y-79381250D03*
X74612500Y-79381250D03*
%TD*%
D10*
%TO.C,SWLH53*%
X90170000Y-138175000D03*
D11*
X92710000Y-143255000D03*
X99060000Y-140715000D03*
X97790000Y-143255000D03*
D13*
X95250000Y-138175000D03*
D12*
X90750000Y-138175000D03*
D11*
X91440000Y-140715001D03*
D10*
X100330000Y-138175000D03*
D12*
X99750000Y-138175000D03*
D14*
X88250000Y-140755000D03*
X100950000Y-143295000D03*
%TD*%
D12*
%TO.C,SWLH3*%
X86750000Y-34925000D03*
D13*
X91250000Y-34925000D03*
D11*
X88710000Y-40005000D03*
X93790000Y-40005000D03*
D10*
X86170000Y-34925000D03*
D11*
X95060000Y-37465000D03*
D10*
X96330000Y-34925000D03*
D11*
X87440000Y-37465001D03*
D12*
X95750000Y-34925000D03*
D14*
X84250000Y-37505000D03*
X96950000Y-40045000D03*
%TD*%
D15*
%TO.C,D_sol_1*%
X59343750Y-54768750D03*
X62893750Y-54768750D03*
%TD*%
D18*
%TO.C,SWLH_ROT1*%
X177843750Y-124618750D03*
X166643750Y-124618750D03*
D19*
X169743750Y-132118750D03*
D20*
X174743750Y-132118750D03*
X172243750Y-132118750D03*
X174743750Y-117618750D03*
X169743750Y-117618750D03*
%TD*%
D10*
%TO.C,SWLH45*%
X138430000Y-120125000D03*
D11*
X129540000Y-122665001D03*
X137160000Y-122665000D03*
D12*
X137850000Y-120125000D03*
D10*
X128270000Y-120125000D03*
D11*
X135890000Y-125205000D03*
X130810000Y-125205000D03*
D12*
X128850000Y-120125000D03*
D13*
X133350000Y-120125000D03*
D14*
X126350000Y-122705000D03*
X139050000Y-125245000D03*
%TD*%
D15*
%TO.C,D1*%
X50925000Y-26987500D03*
X47375000Y-26987500D03*
%TD*%
%TO.C,D6*%
X154175000Y-27781250D03*
X150625000Y-27781250D03*
%TD*%
D11*
%TO.C,SWLH68*%
X183562725Y-171787525D03*
X188593287Y-172494524D03*
D12*
X191241211Y-167736742D03*
D11*
X190204427Y-170155993D03*
X182658584Y-169095495D03*
D10*
X181754443Y-166403464D03*
D12*
X182328799Y-166484184D03*
D13*
X186785005Y-167110463D03*
D10*
X191815567Y-167817462D03*
D21*
X179494062Y-168691143D03*
X191716967Y-172973922D03*
%TD*%
D10*
%TO.C,SWLH27*%
X176530000Y-87025000D03*
D11*
X173990000Y-92105000D03*
X167640000Y-89565001D03*
D13*
X171450000Y-87025000D03*
D12*
X175950000Y-87025000D03*
D11*
X175260000Y-89565000D03*
D12*
X166950000Y-87025000D03*
D10*
X166370000Y-87025000D03*
D11*
X168910000Y-92105000D03*
D14*
X164450000Y-89605000D03*
X177150000Y-92145000D03*
%TD*%
D12*
%TO.C,SWLH4*%
X105800000Y-34925000D03*
D10*
X115380000Y-34925000D03*
D11*
X107760000Y-40005000D03*
D13*
X110300000Y-34925000D03*
D11*
X106490000Y-37465001D03*
D12*
X114800000Y-34925000D03*
D11*
X112840000Y-40005000D03*
D10*
X105220000Y-34925000D03*
D11*
X114110000Y-37465000D03*
D14*
X103300000Y-37505000D03*
X116000000Y-40045000D03*
%TD*%
D10*
%TO.C,SWLH65*%
X125492029Y-156091645D03*
D12*
X126066385Y-156172365D03*
D11*
X132330873Y-162182705D03*
X127300311Y-161475706D03*
D12*
X134978797Y-157424923D03*
D13*
X130522591Y-156798644D03*
D10*
X135553153Y-157505643D03*
D11*
X133942013Y-159844174D03*
X126396170Y-158783676D03*
D21*
X123231648Y-158379324D03*
X135454553Y-162662103D03*
%TD*%
D22*
%TO.C,Q1*%
X50958750Y-52236250D03*
D23*
X48418750Y-52236250D03*
X45878750Y-52236250D03*
%TD*%
D11*
%TO.C,SWLH22*%
X73660000Y-91605000D03*
D10*
X71120000Y-86525000D03*
D13*
X76200000Y-86525000D03*
D11*
X78740000Y-91605000D03*
X80010000Y-89065000D03*
D10*
X81280000Y-86525000D03*
D11*
X72390000Y-89065001D03*
D12*
X71700000Y-86525000D03*
X80700000Y-86525000D03*
D14*
X69200000Y-89105000D03*
X81900000Y-91645000D03*
%TD*%
D15*
%TO.C,D18*%
X195275000Y-61625000D03*
X191725000Y-61625000D03*
%TD*%
%TO.C,D27*%
X172606250Y-79881250D03*
X169056250Y-79881250D03*
%TD*%
D11*
%TO.C,SWLH16*%
X148590000Y-68015001D03*
D10*
X157480000Y-65475000D03*
D12*
X156900000Y-65475000D03*
D11*
X149860000Y-70555000D03*
D10*
X147320000Y-65475000D03*
D11*
X154940000Y-70555000D03*
D13*
X152400000Y-65475000D03*
D11*
X156210000Y-68015000D03*
D12*
X147900000Y-65475000D03*
D14*
X145400000Y-68055000D03*
X158100000Y-70595000D03*
%TD*%
D15*
%TO.C,D31*%
X53368750Y-103931250D03*
X49818750Y-103931250D03*
%TD*%
D11*
%TO.C,SWLH58*%
X191244534Y-153629917D03*
D12*
X193892458Y-148872135D03*
D13*
X189436252Y-148245856D03*
D10*
X184405690Y-147538857D03*
D11*
X192855674Y-151291386D03*
D12*
X184980046Y-147619577D03*
D11*
X185309831Y-150230888D03*
D10*
X194466814Y-148952855D03*
D11*
X186213972Y-152922918D03*
D21*
X182145309Y-149826536D03*
X194368214Y-154109315D03*
%TD*%
D12*
%TO.C,SWLH44*%
X109800000Y-115125000D03*
D10*
X119380000Y-115125000D03*
D11*
X116840000Y-120205000D03*
X110490000Y-117665001D03*
X118110000Y-117665000D03*
D13*
X114300000Y-115125000D03*
D10*
X109220000Y-115125000D03*
D11*
X111760000Y-120205000D03*
D12*
X118800000Y-115125000D03*
D14*
X107300000Y-117705000D03*
X120000000Y-120245000D03*
%TD*%
D15*
%TO.C,D46*%
X154000000Y-115481250D03*
X150450000Y-115481250D03*
%TD*%
%TO.C,D35*%
X136106250Y-93931250D03*
X132556250Y-93931250D03*
%TD*%
%TO.C,D17*%
X172618750Y-60831250D03*
X169068750Y-60831250D03*
%TD*%
%TO.C,D21*%
X56368750Y-84881250D03*
X52818750Y-84881250D03*
%TD*%
%TO.C,D16*%
X154362500Y-58331250D03*
X150812500Y-58331250D03*
%TD*%
D10*
%TO.C,SWLH52*%
X71120000Y-143675000D03*
D11*
X73660000Y-148755000D03*
X72390000Y-146215001D03*
D13*
X76200000Y-143675000D03*
D12*
X80700000Y-143675000D03*
D11*
X80010000Y-146215000D03*
X78740000Y-148755000D03*
D12*
X71700000Y-143675000D03*
D10*
X81280000Y-143675000D03*
D14*
X69200000Y-146255000D03*
X81900000Y-148795000D03*
%TD*%
D15*
%TO.C,D23*%
X96837500Y-74675000D03*
X93287500Y-74675000D03*
%TD*%
%TO.C,D34*%
X117056250Y-88931250D03*
X113506250Y-88931250D03*
%TD*%
D13*
%TO.C,SWLH56*%
X150377066Y-152406610D03*
D11*
X153422596Y-148987188D03*
X155054128Y-155628890D03*
D12*
X149750787Y-156862816D03*
D10*
X151084065Y-147376048D03*
X149670067Y-157437172D03*
D12*
X151003345Y-147950404D03*
D11*
X152362098Y-156533031D03*
X155761127Y-150598328D03*
D16*
X151957746Y-159697553D03*
X156240525Y-147474648D03*
%TD*%
D15*
%TO.C,H1*%
X77975000Y-50800000D03*
X74425000Y-50800000D03*
%TD*%
%TO.C,D4*%
X112681250Y-27781250D03*
X109131250Y-27781250D03*
%TD*%
D17*
%TO.C,D68*%
X189426480Y-161069293D03*
X185911028Y-160575229D03*
%TD*%
D10*
%TO.C,SWLH28*%
X198580000Y-87025000D03*
D13*
X193500000Y-87025000D03*
D11*
X196040000Y-92105000D03*
X190960000Y-92105000D03*
D12*
X189000000Y-87025000D03*
D11*
X189690000Y-89565001D03*
X197310000Y-89565000D03*
D10*
X188420000Y-87025000D03*
D12*
X198000000Y-87025000D03*
D14*
X186500000Y-89605000D03*
X199200000Y-92145000D03*
%TD*%
D10*
%TO.C,SWLH26*%
X157480000Y-84525000D03*
D11*
X154940000Y-89605000D03*
X156210000Y-87065000D03*
X148590000Y-87065001D03*
D12*
X156900000Y-84525000D03*
X147900000Y-84525000D03*
D10*
X147320000Y-84525000D03*
D13*
X152400000Y-84525000D03*
D11*
X149860000Y-89605000D03*
D14*
X145400000Y-87105000D03*
X158100000Y-89645000D03*
%TD*%
D11*
%TO.C,SWLH24*%
X110490000Y-79565001D03*
D13*
X114300000Y-77025000D03*
D12*
X109800000Y-77025000D03*
D11*
X116840000Y-82105000D03*
D12*
X118800000Y-77025000D03*
D11*
X118110000Y-79565000D03*
D10*
X109220000Y-77025000D03*
X119380000Y-77025000D03*
D11*
X111760000Y-82105000D03*
D14*
X107300000Y-79605000D03*
X120000000Y-82145000D03*
%TD*%
D11*
%TO.C,SWLH7*%
X167640000Y-37465001D03*
D12*
X175950000Y-34925000D03*
D11*
X175260000Y-37465000D03*
D10*
X176530000Y-34925000D03*
D13*
X171450000Y-34925000D03*
D11*
X168910000Y-40005000D03*
D12*
X166950000Y-34925000D03*
D11*
X173990000Y-40005000D03*
D10*
X166370000Y-34925000D03*
D14*
X164450000Y-37505000D03*
X177150000Y-40045000D03*
%TD*%
D24*
%TO.C,D57*%
X161853738Y-150592449D03*
X161359674Y-154107901D03*
%TD*%
D10*
%TO.C,SWLH31*%
X55245000Y-111075000D03*
X45085000Y-111075000D03*
D11*
X47625000Y-116155000D03*
X53975000Y-113615000D03*
D13*
X50165000Y-111075000D03*
%TD*%
D15*
%TO.C,D7*%
X173225000Y-26987500D03*
X169675000Y-26987500D03*
%TD*%
D13*
%TO.C,SWLH41*%
X47625000Y-130125000D03*
D10*
X42545000Y-130125000D03*
D11*
X51435000Y-132665000D03*
D10*
X52705000Y-130125000D03*
D11*
X45085000Y-135205000D03*
%TD*%
%TO.C,SWLH38*%
X196040000Y-111155000D03*
X197310000Y-108615000D03*
X190960000Y-111155000D03*
D10*
X188420000Y-106075000D03*
D13*
X193500000Y-106075000D03*
D10*
X198580000Y-106075000D03*
D12*
X189000000Y-106075000D03*
X198000000Y-106075000D03*
D11*
X189690000Y-108615001D03*
D14*
X186500000Y-108655000D03*
X199200000Y-111195000D03*
%TD*%
D11*
%TO.C,SWLH6*%
X154940000Y-40005000D03*
D10*
X147320000Y-34925000D03*
X157480000Y-34925000D03*
D12*
X156900000Y-34925000D03*
D13*
X152400000Y-34925000D03*
D12*
X147900000Y-34925000D03*
D11*
X149860000Y-40005000D03*
X156210000Y-37465000D03*
X148590000Y-37465001D03*
D14*
X145400000Y-37505000D03*
X158100000Y-40045000D03*
%TD*%
D15*
%TO.C,D41*%
X49587500Y-123775000D03*
X46037500Y-123775000D03*
%TD*%
D11*
%TO.C,SWLH46*%
X149860000Y-127705000D03*
X154940000Y-127705000D03*
D12*
X147900000Y-122625000D03*
D11*
X148590000Y-125165001D03*
D13*
X152400000Y-122625000D03*
D10*
X157480000Y-122625000D03*
D11*
X156210000Y-125165000D03*
D12*
X156900000Y-122625000D03*
D10*
X147320000Y-122625000D03*
D14*
X145400000Y-125205000D03*
X158100000Y-127745000D03*
%TD*%
D15*
%TO.C,D2*%
X72387500Y-28575000D03*
X68837500Y-28575000D03*
%TD*%
%TO.C,D24*%
X115281250Y-69881250D03*
X111731250Y-69881250D03*
%TD*%
D11*
%TO.C,SWLH21*%
X56356250Y-94565000D03*
D10*
X47466250Y-92025000D03*
D13*
X52546250Y-92025000D03*
D11*
X50006250Y-97105000D03*
D10*
X57626250Y-92025000D03*
%TD*%
%TO.C,SWLH51*%
X59848750Y-149175000D03*
X49688750Y-149175000D03*
D13*
X54768750Y-149175000D03*
D11*
X58578750Y-151715000D03*
X52228750Y-154255000D03*
%TD*%
D15*
%TO.C,D5*%
X131125000Y-27781250D03*
X127575000Y-27781250D03*
%TD*%
D11*
%TO.C,SWLH34*%
X118110000Y-98615000D03*
D13*
X114300000Y-96075000D03*
D11*
X110490000Y-98615001D03*
D12*
X118800000Y-96075000D03*
D11*
X111760000Y-101155000D03*
D10*
X119380000Y-96075000D03*
D12*
X109800000Y-96075000D03*
D10*
X109220000Y-96075000D03*
D11*
X116840000Y-101155000D03*
D14*
X107300000Y-98655000D03*
X120000000Y-101195000D03*
%TD*%
D15*
%TO.C,D12*%
X78956250Y-60331250D03*
X75406250Y-60331250D03*
%TD*%
%TO.C,D33*%
X96406250Y-92931250D03*
X92856250Y-92931250D03*
%TD*%
%TO.C,D45*%
X134331250Y-112981250D03*
X130781250Y-112981250D03*
%TD*%
D11*
%TO.C,SWLH50*%
X34766250Y-151715000D03*
D10*
X36036250Y-149175000D03*
X25876250Y-149175000D03*
D11*
X28416250Y-154255000D03*
D13*
X30956250Y-149175000D03*
%TD*%
D11*
%TO.C,SWLH37*%
X167640000Y-108615001D03*
X175260000Y-108615000D03*
D13*
X171450000Y-106075000D03*
D12*
X166950000Y-106075000D03*
D11*
X173990000Y-111155000D03*
D10*
X166370000Y-106075000D03*
D11*
X168910000Y-111155000D03*
D12*
X175950000Y-106075000D03*
D10*
X176530000Y-106075000D03*
D14*
X164450000Y-108655000D03*
X177150000Y-111195000D03*
%TD*%
D15*
%TO.C,D43*%
X97212500Y-111981250D03*
X93662500Y-111981250D03*
%TD*%
D11*
%TO.C,SWLH5*%
X125540000Y-37465001D03*
X126810000Y-40005000D03*
X131890000Y-40005000D03*
D13*
X129350000Y-34925000D03*
D12*
X133850000Y-34925000D03*
X124850000Y-34925000D03*
D10*
X124270000Y-34925000D03*
X134430000Y-34925000D03*
D11*
X133160000Y-37465000D03*
D14*
X122350000Y-37505000D03*
X135050000Y-40045000D03*
%TD*%
D15*
%TO.C,D26*%
X155575000Y-77381250D03*
X152025000Y-77381250D03*
%TD*%
D11*
%TO.C,SWLH42*%
X72390000Y-127165001D03*
X80010000Y-127165000D03*
D12*
X80700000Y-124625000D03*
D13*
X76200000Y-124625000D03*
D10*
X71120000Y-124625000D03*
D11*
X73660000Y-129705000D03*
X78740000Y-129705000D03*
D10*
X81280000Y-124625000D03*
D12*
X71700000Y-124625000D03*
D14*
X69200000Y-127205000D03*
X81900000Y-129745000D03*
%TD*%
D10*
%TO.C,SWLH48*%
X197118062Y-130088249D03*
D13*
X192087500Y-129381250D03*
D11*
X188865220Y-134058312D03*
X195506922Y-132426780D03*
D10*
X187056938Y-128674251D03*
D12*
X196543706Y-130007529D03*
D11*
X193895782Y-134765311D03*
X187961079Y-131366282D03*
D12*
X187631294Y-128754971D03*
D21*
X184796557Y-130961930D03*
X197019462Y-135244709D03*
%TD*%
D12*
%TO.C,SWLH32*%
X71700000Y-105575000D03*
D11*
X72390000Y-108115001D03*
X78740000Y-110655000D03*
X73660000Y-110655000D03*
D13*
X76200000Y-105575000D03*
D10*
X71120000Y-105575000D03*
D11*
X80010000Y-108115000D03*
D12*
X80700000Y-105575000D03*
D10*
X81280000Y-105575000D03*
D14*
X69200000Y-108155000D03*
X81900000Y-110695000D03*
%TD*%
D15*
%TO.C,D38*%
X195893750Y-98931250D03*
X192343750Y-98931250D03*
%TD*%
D11*
%TO.C,SWLH23*%
X99060000Y-83565000D03*
X91440000Y-83565001D03*
D12*
X99750000Y-81025000D03*
D10*
X100330000Y-81025000D03*
D11*
X97790000Y-86105000D03*
D10*
X90170000Y-81025000D03*
D13*
X95250000Y-81025000D03*
D11*
X92710000Y-86105000D03*
D12*
X90750000Y-81025000D03*
D14*
X88250000Y-83605000D03*
X100950000Y-86145000D03*
%TD*%
D15*
%TO.C,J_SOL_1*%
X50987500Y-46831250D03*
X47437500Y-46831250D03*
%TD*%
%TO.C,D14*%
X116262500Y-50831250D03*
X112712500Y-50831250D03*
%TD*%
D11*
%TO.C,SWLH36*%
X149860000Y-108655000D03*
D12*
X147900000Y-103575000D03*
D10*
X157480000Y-103575000D03*
D11*
X156210000Y-106115000D03*
D12*
X156900000Y-103575000D03*
D11*
X154940000Y-108655000D03*
D13*
X152400000Y-103575000D03*
D11*
X148590000Y-106115001D03*
D10*
X147320000Y-103575000D03*
D14*
X145400000Y-106155000D03*
X158100000Y-108695000D03*
%TD*%
D15*
%TO.C,D37*%
X173843750Y-98931250D03*
X170293750Y-98931250D03*
%TD*%
D13*
%TO.C,SWLH11*%
X57150000Y-72975000D03*
D10*
X52070000Y-72975000D03*
X62230000Y-72975000D03*
D11*
X60960000Y-75515000D03*
X54610000Y-78055000D03*
%TD*%
D15*
%TO.C,J1*%
X97025000Y-47625000D03*
X93475000Y-47625000D03*
%TD*%
D11*
%TO.C,SWLH17*%
X173990000Y-73055000D03*
D10*
X166370000Y-67975000D03*
D12*
X175950000Y-67975000D03*
D11*
X167640000Y-70515001D03*
X175260000Y-70515000D03*
D10*
X176530000Y-67975000D03*
D13*
X171450000Y-67975000D03*
D11*
X168910000Y-73055000D03*
D12*
X166950000Y-67975000D03*
D14*
X164450000Y-70555000D03*
X177150000Y-73095000D03*
%TD*%
D10*
%TO.C,SWLH54*%
X119380000Y-134175000D03*
D11*
X116840000Y-139255000D03*
D12*
X118800000Y-134175000D03*
D11*
X111760000Y-139255000D03*
X118110000Y-136715000D03*
X110490000Y-136715001D03*
D10*
X109220000Y-134175000D03*
D13*
X114300000Y-134175000D03*
D12*
X109800000Y-134175000D03*
D14*
X107300000Y-136755000D03*
X120000000Y-139295000D03*
%TD*%
D15*
%TO.C,D44*%
X115093750Y-107981250D03*
X111543750Y-107981250D03*
%TD*%
D24*
%TO.C,D56*%
X142900409Y-148572497D03*
X142406345Y-152087949D03*
%TD*%
D11*
%TO.C,SWLH18*%
X197310000Y-70515000D03*
D12*
X198000000Y-67975000D03*
D13*
X193500000Y-67975000D03*
D10*
X188420000Y-67975000D03*
D11*
X190960000Y-73055000D03*
D10*
X198580000Y-67975000D03*
D11*
X189690000Y-70515001D03*
X196040000Y-73055000D03*
D12*
X189000000Y-67975000D03*
D14*
X186500000Y-70555000D03*
X199200000Y-73095000D03*
%TD*%
D15*
%TO.C,D32*%
X76575000Y-98431250D03*
X73025000Y-98431250D03*
%TD*%
D25*
%TO.C,D47*%
X169568750Y-126387500D03*
X169568750Y-122837500D03*
%TD*%
D26*
%TO.C,R2*%
X53498750Y-59531250D03*
D27*
X43338750Y-59531250D03*
%TD*%
D15*
%TO.C,D25*%
X134950000Y-75675000D03*
X131400000Y-75675000D03*
%TD*%
D11*
%TO.C,SWLH25*%
X137160000Y-84565000D03*
D10*
X128270000Y-82025000D03*
X138430000Y-82025000D03*
D11*
X129540000Y-84565001D03*
X130810000Y-87105000D03*
D12*
X137850000Y-82025000D03*
X128850000Y-82025000D03*
D13*
X133350000Y-82025000D03*
D11*
X135890000Y-87105000D03*
D14*
X126350000Y-84605000D03*
X139050000Y-87145000D03*
%TD*%
D10*
%TO.C,SWLH1*%
X54230000Y-34925000D03*
D13*
X49150000Y-34925000D03*
D11*
X52960000Y-37465000D03*
X46610000Y-40005000D03*
D10*
X44070000Y-34925000D03*
%TD*%
D11*
%TO.C,SWLH13*%
X91440000Y-64515001D03*
D10*
X100330000Y-61975000D03*
X90170000Y-61975000D03*
D11*
X97790000Y-67055000D03*
D13*
X95250000Y-61975000D03*
D12*
X99750000Y-61975000D03*
X90750000Y-61975000D03*
D11*
X99060000Y-64515000D03*
X92710000Y-67055000D03*
D14*
X88250000Y-64555000D03*
X100950000Y-67095000D03*
%TD*%
D17*
%TO.C,D48*%
X194053418Y-122443585D03*
X190537966Y-121949521D03*
%TD*%
D15*
%TO.C,D28*%
X195087500Y-79881250D03*
X191537500Y-79881250D03*
%TD*%
%TO.C,D51*%
X58131250Y-142825000D03*
X54581250Y-142825000D03*
%TD*%
D28*
%TO.C,R1*%
X64452500Y-50006250D03*
X59372500Y-50006250D03*
%TD*%
D17*
%TO.C,D65*%
X133385003Y-149185424D03*
X129869551Y-148691360D03*
%TD*%
D13*
%TO.C,SWLH15*%
X133350000Y-62975000D03*
D12*
X128850000Y-62975000D03*
D11*
X130810000Y-68055000D03*
X135890000Y-68055000D03*
X129540000Y-65515001D03*
D10*
X128270000Y-62975000D03*
D12*
X137850000Y-62975000D03*
D11*
X137160000Y-65515000D03*
D10*
X138430000Y-62975000D03*
D14*
X126350000Y-65555000D03*
X139050000Y-68095000D03*
%TD*%
D29*
%TO.C,ULH1*%
X177006250Y-28098750D03*
D12*
X177006250Y-30638750D03*
X177006250Y-33178750D03*
X177006250Y-35718750D03*
X177006250Y-38258750D03*
X177006250Y-40798750D03*
X177006250Y-43338750D03*
X177006250Y-45878750D03*
X177006250Y-48418750D03*
X177006250Y-50958750D03*
X177006250Y-53498750D03*
X177006250Y-56038750D03*
X177006250Y-58578750D03*
X177006250Y-61118750D03*
X177006250Y-63658750D03*
X177006250Y-66198750D03*
X177006250Y-68738750D03*
X177006250Y-71278750D03*
X177006250Y-73818750D03*
X177006250Y-76358750D03*
X161766250Y-76358750D03*
X161766250Y-73818750D03*
X161766250Y-71278750D03*
X161766250Y-68738750D03*
X161766250Y-66198750D03*
X161766250Y-63658750D03*
X161766250Y-61118750D03*
X161766250Y-58578750D03*
X161766250Y-56038750D03*
X161766250Y-53498750D03*
X161766250Y-50958750D03*
X161766250Y-48418750D03*
X161766250Y-45878750D03*
X161766250Y-43338750D03*
X161766250Y-40798750D03*
X161766250Y-38258750D03*
X161766250Y-35718750D03*
X161766250Y-33178750D03*
X161766250Y-30638750D03*
X161766250Y-28098750D03*
X165574250Y-72547750D03*
X168114250Y-72547750D03*
X170654250Y-72547750D03*
X173194250Y-72547750D03*
%TD*%
M02*
