M48
; DRILL file {KiCad (6.0.5-0)} date Thursday, January 19, 2023 at 06:28:10 PM
; FORMAT={-:-/ absolute / inch / decimal}
; #@! TF.CreationDate,2023-01-19T18:28:10-08:00
; #@! TF.GenerationSoftware,Kicad,Pcbnew,(6.0.5-0)
; #@! TF.FileFunction,NonPlated,1,2,NPTH
FMAT,2
INCH
; #@! TA.AperFunction,NonPlated,NPTH,ComponentDrill
T1C0.0472
; #@! TA.AperFunction,NonPlated,NPTH,ComponentDrill
T2C0.0591
; #@! TA.AperFunction,NonPlated,NPTH,ComponentDrill
T3C0.0669
; #@! TA.AperFunction,NonPlated,NPTH,ComponentDrill
T4C0.0748
; #@! TA.AperFunction,NonPlated,NPTH,ComponentDrill
T5C0.1181
; #@! TA.AperFunction,NonPlated,NPTH,ComponentDrill
T6C0.1614
%
G90
G05
T1
X7.2636Y-1.8139
X7.3019Y-1.8712
X7.4926Y-1.6606
X7.5309Y-1.7179
T3
X6.5717Y-4.9262
X6.9261Y-4.9262
T4
X1.0188Y-5.873
X1.4187Y-5.873
X1.675Y-5.123
X1.735Y-1.375
X1.775Y-4.373
X1.8687Y-3.623
X1.9563Y-5.873
X2.05Y-2.873
X2.075Y-5.123
X2.135Y-1.375
X2.175Y-4.373
X2.2687Y-3.623
X2.3562Y-5.873
X2.45Y-2.873
X2.6425Y-1.375
X2.8Y-2.6565
X2.8Y-3.4065
X2.8Y-4.1565
X2.8Y-4.9065
X2.8Y-5.6565
X3.0425Y-1.375
X3.2Y-2.6565
X3.2Y-3.4065
X3.2Y-4.1565
X3.2Y-4.9065
X3.2Y-5.6565
X3.55Y-3.19
X3.55Y-3.94
X3.55Y-4.69
X3.55Y-5.44
X3.5925Y-1.175
X3.5925Y-1.575
X3.75Y-2.24
X3.75Y-2.64
X3.95Y-3.19
X3.95Y-3.94
X3.95Y-4.69
X3.95Y-5.44
X4.1425Y-1.375
X4.3Y-2.2825
X4.3Y-3.0325
X4.3Y-3.7825
X4.3Y-4.5325
X4.3Y-5.2825
X4.5425Y-1.375
X4.7Y-2.2825
X4.7Y-3.0325
X4.7Y-3.7825
X4.7Y-4.5325
X4.7Y-5.2825
X4.8925Y-1.375
X4.9477Y-6.152
X5.05Y-2.4793
X5.05Y-3.2293
X5.05Y-3.9793
X5.05Y-4.7293
X5.2925Y-1.375
X5.3438Y-6.2077
X5.45Y-2.4793
X5.45Y-3.2293
X5.45Y-3.9793
X5.45Y-4.7293
X5.8Y-1.375
X5.8Y-2.5778
X5.8Y-3.3278
X5.8Y-4.0778
X5.8Y-4.8278
X5.8998Y-6.2038
X5.9555Y-5.8077
X6.2Y-1.375
X6.2Y-2.5778
X6.2Y-3.3278
X6.2Y-4.0778
X6.2Y-4.8278
X6.5489Y-4.9262
X6.55Y-1.375
X6.55Y-2.6762
X6.55Y-3.4262
X6.55Y-4.1762
X6.6425Y-6.3082
X6.6981Y-5.9121
X6.9489Y-4.9262
X6.95Y-1.375
X6.95Y-2.6762
X6.95Y-3.4262
X6.95Y-4.1762
X7.1628Y-6.558
X7.2671Y-5.8153
X7.3715Y-5.0726
X7.4181Y-2.6762
X7.4181Y-3.4262
X7.4181Y-4.1762
X7.5589Y-6.6137
X7.6632Y-5.871
X7.7676Y-5.1283
X7.8181Y-2.6762
X7.8181Y-3.4262
X7.8181Y-4.1762
T5
X1.1187Y-6.073
X1.3687Y-5.973
X1.775Y-5.323
X1.835Y-1.575
X1.875Y-4.573
X1.9688Y-3.823
X2.025Y-5.223
X2.0562Y-6.073
X2.085Y-1.475
X2.125Y-4.473
X2.15Y-3.073
X2.2188Y-3.723
X2.3062Y-5.973
X2.4Y-2.973
X2.7425Y-1.575
X2.9Y-2.8565
X2.9Y-3.6065
X2.9Y-4.3565
X2.9Y-5.1065
X2.9Y-5.8565
X2.9925Y-1.475
X3.15Y-2.7565
X3.15Y-3.5065
X3.15Y-4.2565
X3.15Y-5.0065
X3.15Y-5.7565
X3.55Y-2.34
X3.65Y-2.59
X3.65Y-3.39
X3.65Y-4.14
X3.65Y-4.89
X3.65Y-5.64
X3.6925Y-1.225
X3.7925Y-1.475
X3.9Y-3.29
X3.9Y-4.04
X3.9Y-4.79
X3.9Y-5.54
X4.2425Y-1.575
X4.4Y-2.4825
X4.4Y-3.2325
X4.4Y-3.9825
X4.4Y-4.7325
X4.4Y-5.4825
X4.4925Y-1.475
X4.65Y-2.3825
X4.65Y-3.1325
X4.65Y-3.8825
X4.65Y-4.6325
X4.65Y-5.3825
X4.9925Y-1.575
X5.0189Y-6.364
X5.15Y-2.6793
X5.15Y-3.4293
X5.15Y-4.1793
X5.15Y-4.9293
X5.2425Y-1.475
X5.2804Y-6.2998
X5.4Y-2.5793
X5.4Y-3.3293
X5.4Y-4.0793
X5.4Y-4.8293
X5.9Y-1.575
X5.9Y-2.7778
X5.9Y-3.5278
X5.9Y-4.2778
X5.9Y-5.0278
X6.0475Y-5.8711
X6.1118Y-6.1326
X6.15Y-1.475
X6.15Y-2.6778
X6.15Y-3.4278
X6.15Y-4.1778
X6.15Y-4.9278
X6.5989Y-5.0262
X6.6489Y-5.1262
X6.65Y-1.575
X6.65Y-2.8762
X6.65Y-3.6262
X6.65Y-4.3762
X6.7902Y-5.9755
X6.8489Y-5.1262
X6.8544Y-6.237
X6.8989Y-5.0262
X6.9Y-1.475
X6.9Y-2.7762
X6.9Y-3.5262
X6.9Y-4.2762
X7.2339Y-6.77
X7.3383Y-6.0273
X7.4427Y-5.2846
X7.4954Y-6.7057
X7.5181Y-2.8762
X7.5181Y-3.6262
X7.5181Y-4.3762
X7.5998Y-5.963
X7.7042Y-5.2203
X7.7681Y-2.7762
X7.7681Y-3.5262
X7.7681Y-4.2762
T6
X1.2188Y-5.873
X1.875Y-5.123
X1.935Y-1.375
X1.975Y-4.373
X2.0688Y-3.623
X2.1562Y-5.873
X2.25Y-2.873
X2.8425Y-1.375
X3.0Y-2.6565
X3.0Y-3.4065
X3.0Y-4.1565
X3.0Y-4.9065
X3.0Y-5.6565
X3.5925Y-1.375
X3.75Y-2.44
X3.75Y-3.19
X3.75Y-3.94
X3.75Y-4.69
X3.75Y-5.44
X4.3425Y-1.375
X4.5Y-2.2825
X4.5Y-3.0325
X4.5Y-3.7825
X4.5Y-4.5325
X4.5Y-5.2825
X5.0925Y-1.375
X5.1458Y-6.1799
X5.25Y-2.4793
X5.25Y-3.2293
X5.25Y-3.9793
X5.25Y-4.7293
X5.9276Y-6.0058
X6.0Y-1.375
X6.0Y-2.5778
X6.0Y-3.3278
X6.0Y-4.0778
X6.0Y-4.8278
X6.6703Y-6.1101
X6.7489Y-4.9262
X6.75Y-1.375
X6.75Y-2.6762
X6.75Y-3.4262
X6.75Y-4.1762
X7.3608Y-6.5858
X7.4652Y-5.8431
X7.5696Y-5.1004
X7.6181Y-2.6762
X7.6181Y-3.4262
X7.6181Y-4.1762
T2
G00X6.5295Y-4.9006
M15
G01X6.5295Y-4.9518
M16
G05
G00X6.9705Y-4.9006
M15
G01X6.9705Y-4.9518
M16
G05
T0
M30
