%TF.GenerationSoftware,KiCad,Pcbnew,(6.0.5-0)*%
%TF.CreationDate,2023-01-14T19:39:34-08:00*%
%TF.ProjectId,ergodonk_pcb,6572676f-646f-46e6-9b5f-7063622e6b69,rev?*%
%TF.SameCoordinates,Original*%
%TF.FileFunction,Soldermask,Bot*%
%TF.FilePolarity,Negative*%
%FSLAX46Y46*%
G04 Gerber Fmt 4.6, Leading zero omitted, Abs format (unit mm)*
G04 Created by KiCad (PCBNEW (6.0.5-0)) date 2023-01-14 19:39:34*
%MOMM*%
%LPD*%
G01*
G04 APERTURE LIST*
G04 Aperture macros list*
%AMHorizOval*
0 Thick line with rounded ends*
0 $1 width*
0 $2 $3 position (X,Y) of the first rounded end (center of the circle)*
0 $4 $5 position (X,Y) of the second rounded end (center of the circle)*
0 Add line between two ends*
20,1,$1,$2,$3,$4,$5,0*
0 Add two circle primitives to create the rounded ends*
1,1,$1,$2,$3*
1,1,$1,$4,$5*%
%AMRotRect*
0 Rectangle, with rotation*
0 The origin of the aperture is its center*
0 $1 length*
0 $2 width*
0 $3 Rotation angle, in degrees counterclockwise*
0 Add horizontal line*
21,1,$1,$2,0,0,$3*%
G04 Aperture macros list end*
%ADD10C,1.900000*%
%ADD11C,3.000000*%
%ADD12C,1.700000*%
%ADD13C,4.100000*%
%ADD14R,2.300000X2.000000*%
%ADD15R,1.778000X1.300000*%
%ADD16O,1.778000X1.300000*%
%ADD17RotRect,2.300000X2.000000X82.000000*%
%ADD18RotRect,1.778000X1.300000X172.000000*%
%ADD19HorizOval,1.300000X-0.236674X0.033262X0.236674X-0.033262X0*%
%ADD20O,2.000000X3.200000*%
%ADD21R,2.000000X2.000000*%
%ADD22C,2.000000*%
%ADD23RotRect,2.300000X2.000000X352.000000*%
%ADD24R,1.905000X2.000000*%
%ADD25O,1.905000X2.000000*%
%ADD26RotRect,1.778000X1.300000X262.000000*%
%ADD27HorizOval,1.300000X-0.033262X-0.236674X0.033262X0.236674X0*%
%ADD28R,2.550000X2.500000*%
%ADD29R,1.300000X1.778000*%
%ADD30O,1.300000X1.778000*%
%ADD31C,1.600000*%
%ADD32O,1.600000X1.600000*%
%ADD33C,1.397000*%
%ADD34R,1.700000X1.700000*%
G04 APERTURE END LIST*
D10*
%TO.C,SWLH14*%
X109220000Y-57975000D03*
D11*
X110490000Y-60515001D03*
D12*
X118800000Y-57975000D03*
D11*
X118110000Y-60515000D03*
X116840000Y-63055000D03*
D10*
X119380000Y-57975000D03*
D13*
X114300000Y-57975000D03*
D12*
X109800000Y-57975000D03*
D11*
X111760000Y-63055000D03*
D14*
X121300000Y-60555000D03*
X108600000Y-63095000D03*
%TD*%
D15*
%TO.C,D50*%
X30781250Y-142031250D03*
D16*
X24781250Y-142031250D03*
%TD*%
D11*
%TO.C,SWLH33*%
X92710000Y-105155000D03*
D10*
X90170000Y-100075000D03*
D13*
X95250000Y-100075000D03*
D10*
X100330000Y-100075000D03*
D11*
X91440000Y-102615001D03*
D12*
X99750000Y-100075000D03*
D11*
X99060000Y-102615000D03*
D12*
X90750000Y-100075000D03*
D11*
X97790000Y-105155000D03*
D14*
X102250000Y-102655000D03*
X89550000Y-105195000D03*
%TD*%
D11*
%TO.C,SWLH57*%
X173923084Y-158249192D03*
X172291552Y-151607490D03*
X171231054Y-159153333D03*
D10*
X169953021Y-149996350D03*
D11*
X174630083Y-153218630D03*
D12*
X168619743Y-159483118D03*
X169872301Y-150570706D03*
D13*
X169246022Y-155026912D03*
D10*
X168539023Y-160057474D03*
D17*
X172775125Y-148454102D03*
X173522908Y-161384006D03*
%TD*%
D15*
%TO.C,D11*%
X60150000Y-65831250D03*
D16*
X54150000Y-65831250D03*
%TD*%
D15*
%TO.C,D53*%
X96662500Y-131825000D03*
D16*
X90662500Y-131825000D03*
%TD*%
D12*
%TO.C,SWLH35*%
X137850000Y-101075000D03*
D11*
X130810000Y-106155000D03*
X129540000Y-103615001D03*
D10*
X138430000Y-101075000D03*
X128270000Y-101075000D03*
D11*
X135890000Y-106155000D03*
D13*
X133350000Y-101075000D03*
D11*
X137160000Y-103615000D03*
D12*
X128850000Y-101075000D03*
D14*
X140350000Y-103655000D03*
X127650000Y-106195000D03*
%TD*%
D15*
%TO.C,D42*%
X79387500Y-117481250D03*
D16*
X73387500Y-117481250D03*
%TD*%
D18*
%TO.C,D58*%
X194014002Y-141675261D03*
D19*
X188072394Y-140840223D03*
%TD*%
D15*
%TO.C,D13*%
X98250000Y-55625000D03*
D16*
X92250000Y-55625000D03*
%TD*%
D15*
%TO.C,D54*%
X117125000Y-127031250D03*
D16*
X111125000Y-127031250D03*
%TD*%
D11*
%TO.C,SWLH12*%
X80010000Y-70015000D03*
D12*
X71700000Y-67475000D03*
D13*
X76200000Y-67475000D03*
D11*
X73660000Y-72555000D03*
D10*
X71120000Y-67475000D03*
D11*
X78740000Y-72555000D03*
X72390000Y-70015001D03*
D10*
X81280000Y-67475000D03*
D12*
X80700000Y-67475000D03*
D14*
X83200000Y-70055000D03*
X70500000Y-72595000D03*
%TD*%
D10*
%TO.C,SWLH43*%
X90170000Y-119125000D03*
D12*
X99750000Y-119125000D03*
X90750000Y-119125000D03*
D11*
X91440000Y-121665001D03*
X92710000Y-124205000D03*
D13*
X95250000Y-119125000D03*
D11*
X97790000Y-124205000D03*
D10*
X100330000Y-119125000D03*
D11*
X99060000Y-121665000D03*
D14*
X102250000Y-121705000D03*
X89550000Y-124245000D03*
%TD*%
D11*
%TO.C,SWLH2*%
X69660000Y-40005000D03*
X68390000Y-37465001D03*
X76010000Y-37465000D03*
D13*
X72200000Y-34925000D03*
D11*
X74740000Y-40005000D03*
D12*
X76700000Y-34925000D03*
X67700000Y-34925000D03*
D10*
X67120000Y-34925000D03*
X77280000Y-34925000D03*
D14*
X79200000Y-37505000D03*
X66500000Y-40045000D03*
%TD*%
D15*
%TO.C,D52*%
X79200000Y-136531250D03*
D16*
X73200000Y-136531250D03*
%TD*%
D15*
%TO.C,D3*%
X95043750Y-28575000D03*
D16*
X89043750Y-28575000D03*
%TD*%
D15*
%TO.C,D15*%
X136537500Y-55831250D03*
D16*
X130537500Y-55831250D03*
%TD*%
D15*
%TO.C,D36*%
X155400000Y-96431250D03*
D16*
X149400000Y-96431250D03*
%TD*%
D15*
%TO.C,D22*%
X79387500Y-79381250D03*
D16*
X73387500Y-79381250D03*
%TD*%
D10*
%TO.C,SWLH53*%
X90170000Y-138175000D03*
D11*
X92710000Y-143255000D03*
X99060000Y-140715000D03*
X97790000Y-143255000D03*
D13*
X95250000Y-138175000D03*
D12*
X90750000Y-138175000D03*
D11*
X91440000Y-140715001D03*
D10*
X100330000Y-138175000D03*
D12*
X99750000Y-138175000D03*
D14*
X102250000Y-140755000D03*
X89550000Y-143295000D03*
%TD*%
D12*
%TO.C,SWLH3*%
X86750000Y-34925000D03*
D13*
X91250000Y-34925000D03*
D11*
X88710000Y-40005000D03*
X93790000Y-40005000D03*
D10*
X86170000Y-34925000D03*
D11*
X95060000Y-37465000D03*
D10*
X96330000Y-34925000D03*
D11*
X87440000Y-37465001D03*
D12*
X95750000Y-34925000D03*
D14*
X98250000Y-37505000D03*
X85550000Y-40045000D03*
%TD*%
D15*
%TO.C,D_sol_1*%
X58118750Y-54768750D03*
D16*
X64118750Y-54768750D03*
%TD*%
D20*
%TO.C,SWLH_ROT1*%
X177843750Y-124618750D03*
X166643750Y-124618750D03*
D21*
X169743750Y-132118750D03*
D22*
X174743750Y-132118750D03*
X172243750Y-132118750D03*
X174743750Y-117618750D03*
X169743750Y-117618750D03*
%TD*%
D10*
%TO.C,SWLH45*%
X138430000Y-120125000D03*
D11*
X129540000Y-122665001D03*
X137160000Y-122665000D03*
D12*
X137850000Y-120125000D03*
D10*
X128270000Y-120125000D03*
D11*
X135890000Y-125205000D03*
X130810000Y-125205000D03*
D12*
X128850000Y-120125000D03*
D13*
X133350000Y-120125000D03*
D14*
X140350000Y-122705000D03*
X127650000Y-125245000D03*
%TD*%
D15*
%TO.C,D1*%
X52150000Y-26987500D03*
D16*
X46150000Y-26987500D03*
%TD*%
D15*
%TO.C,D6*%
X155400000Y-27781250D03*
D16*
X149400000Y-27781250D03*
%TD*%
D11*
%TO.C,SWLH68*%
X183562725Y-171787525D03*
X188593287Y-172494524D03*
D12*
X191241211Y-167736742D03*
D11*
X190204427Y-170155993D03*
X182658584Y-169095495D03*
D10*
X181754443Y-166403464D03*
D12*
X182328799Y-166484184D03*
D13*
X186785005Y-167110463D03*
D10*
X191815567Y-167817462D03*
D23*
X193357815Y-170639566D03*
X180427911Y-171387349D03*
%TD*%
D10*
%TO.C,SWLH27*%
X176530000Y-87025000D03*
D11*
X173990000Y-92105000D03*
X167640000Y-89565001D03*
D13*
X171450000Y-87025000D03*
D12*
X175950000Y-87025000D03*
D11*
X175260000Y-89565000D03*
D12*
X166950000Y-87025000D03*
D10*
X166370000Y-87025000D03*
D11*
X168910000Y-92105000D03*
D14*
X178450000Y-89605000D03*
X165750000Y-92145000D03*
%TD*%
D12*
%TO.C,SWLH4*%
X105800000Y-34925000D03*
D10*
X115380000Y-34925000D03*
D11*
X107760000Y-40005000D03*
D13*
X110300000Y-34925000D03*
D11*
X106490000Y-37465001D03*
D12*
X114800000Y-34925000D03*
D11*
X112840000Y-40005000D03*
D10*
X105220000Y-34925000D03*
D11*
X114110000Y-37465000D03*
D14*
X117300000Y-37505000D03*
X104600000Y-40045000D03*
%TD*%
D10*
%TO.C,SWLH65*%
X125492029Y-156091645D03*
D12*
X126066385Y-156172365D03*
D11*
X132330873Y-162182705D03*
X127300311Y-161475706D03*
D12*
X134978797Y-157424923D03*
D13*
X130522591Y-156798644D03*
D10*
X135553153Y-157505643D03*
D11*
X133942013Y-159844174D03*
X126396170Y-158783676D03*
D23*
X137095401Y-160327747D03*
X124165497Y-161075530D03*
%TD*%
D24*
%TO.C,Q1*%
X50958750Y-52236250D03*
D25*
X48418750Y-52236250D03*
X45878750Y-52236250D03*
%TD*%
D11*
%TO.C,SWLH22*%
X73660000Y-91605000D03*
D10*
X71120000Y-86525000D03*
D13*
X76200000Y-86525000D03*
D11*
X78740000Y-91605000D03*
X80010000Y-89065000D03*
D10*
X81280000Y-86525000D03*
D11*
X72390000Y-89065001D03*
D12*
X71700000Y-86525000D03*
X80700000Y-86525000D03*
D14*
X83200000Y-89105000D03*
X70500000Y-91645000D03*
%TD*%
D15*
%TO.C,D18*%
X196500000Y-61625000D03*
D16*
X190500000Y-61625000D03*
%TD*%
D15*
%TO.C,D27*%
X173831250Y-79881250D03*
D16*
X167831250Y-79881250D03*
%TD*%
D11*
%TO.C,SWLH16*%
X148590000Y-68015001D03*
D10*
X157480000Y-65475000D03*
D12*
X156900000Y-65475000D03*
D11*
X149860000Y-70555000D03*
D10*
X147320000Y-65475000D03*
D11*
X154940000Y-70555000D03*
D13*
X152400000Y-65475000D03*
D11*
X156210000Y-68015000D03*
D12*
X147900000Y-65475000D03*
D14*
X159400000Y-68055000D03*
X146700000Y-70595000D03*
%TD*%
D15*
%TO.C,D31*%
X54593750Y-103931250D03*
D16*
X48593750Y-103931250D03*
%TD*%
D11*
%TO.C,SWLH58*%
X191244534Y-153629917D03*
D12*
X193892458Y-148872135D03*
D13*
X189436252Y-148245856D03*
D10*
X184405690Y-147538857D03*
D11*
X192855674Y-151291386D03*
D12*
X184980046Y-147619577D03*
D11*
X185309831Y-150230888D03*
D10*
X194466814Y-148952855D03*
D11*
X186213972Y-152922918D03*
D23*
X196009062Y-151774959D03*
X183079158Y-152522742D03*
%TD*%
D12*
%TO.C,SWLH44*%
X109800000Y-115125000D03*
D10*
X119380000Y-115125000D03*
D11*
X116840000Y-120205000D03*
X110490000Y-117665001D03*
X118110000Y-117665000D03*
D13*
X114300000Y-115125000D03*
D10*
X109220000Y-115125000D03*
D11*
X111760000Y-120205000D03*
D12*
X118800000Y-115125000D03*
D14*
X121300000Y-117705000D03*
X108600000Y-120245000D03*
%TD*%
D15*
%TO.C,D46*%
X155225000Y-115481250D03*
D16*
X149225000Y-115481250D03*
%TD*%
D15*
%TO.C,D35*%
X137331250Y-93931250D03*
D16*
X131331250Y-93931250D03*
%TD*%
D15*
%TO.C,D17*%
X173843750Y-60831250D03*
D16*
X167843750Y-60831250D03*
%TD*%
D15*
%TO.C,D21*%
X57593750Y-84881250D03*
D16*
X51593750Y-84881250D03*
%TD*%
D15*
%TO.C,D16*%
X155587500Y-58331250D03*
D16*
X149587500Y-58331250D03*
%TD*%
D10*
%TO.C,SWLH52*%
X71120000Y-143675000D03*
D11*
X73660000Y-148755000D03*
X72390000Y-146215001D03*
D13*
X76200000Y-143675000D03*
D12*
X80700000Y-143675000D03*
D11*
X80010000Y-146215000D03*
X78740000Y-148755000D03*
D12*
X71700000Y-143675000D03*
D10*
X81280000Y-143675000D03*
D14*
X83200000Y-146255000D03*
X70500000Y-148795000D03*
%TD*%
D15*
%TO.C,D23*%
X98062500Y-74675000D03*
D16*
X92062500Y-74675000D03*
%TD*%
D15*
%TO.C,D34*%
X118281250Y-88931250D03*
D16*
X112281250Y-88931250D03*
%TD*%
D13*
%TO.C,SWLH56*%
X150377066Y-152406610D03*
D11*
X153422596Y-148987188D03*
X155054128Y-155628890D03*
D12*
X149750787Y-156862816D03*
D10*
X151084065Y-147376048D03*
X149670067Y-157437172D03*
D12*
X151003345Y-147950404D03*
D11*
X152362098Y-156533031D03*
X155761127Y-150598328D03*
D17*
X153906169Y-145833800D03*
X154653952Y-158763704D03*
%TD*%
D15*
%TO.C,H1*%
X79200000Y-50800000D03*
D16*
X73200000Y-50800000D03*
%TD*%
D15*
%TO.C,D4*%
X113906250Y-27781250D03*
D16*
X107906250Y-27781250D03*
%TD*%
D18*
%TO.C,D68*%
X190639558Y-161239780D03*
D19*
X184697950Y-160404742D03*
%TD*%
D10*
%TO.C,SWLH28*%
X198580000Y-87025000D03*
D13*
X193500000Y-87025000D03*
D11*
X196040000Y-92105000D03*
X190960000Y-92105000D03*
D12*
X189000000Y-87025000D03*
D11*
X189690000Y-89565001D03*
X197310000Y-89565000D03*
D10*
X188420000Y-87025000D03*
D12*
X198000000Y-87025000D03*
D14*
X200500000Y-89605000D03*
X187800000Y-92145000D03*
%TD*%
D10*
%TO.C,SWLH26*%
X157480000Y-84525000D03*
D11*
X154940000Y-89605000D03*
X156210000Y-87065000D03*
X148590000Y-87065001D03*
D12*
X156900000Y-84525000D03*
X147900000Y-84525000D03*
D10*
X147320000Y-84525000D03*
D13*
X152400000Y-84525000D03*
D11*
X149860000Y-89605000D03*
D14*
X159400000Y-87105000D03*
X146700000Y-89645000D03*
%TD*%
D11*
%TO.C,SWLH24*%
X110490000Y-79565001D03*
D13*
X114300000Y-77025000D03*
D12*
X109800000Y-77025000D03*
D11*
X116840000Y-82105000D03*
D12*
X118800000Y-77025000D03*
D11*
X118110000Y-79565000D03*
D10*
X109220000Y-77025000D03*
X119380000Y-77025000D03*
D11*
X111760000Y-82105000D03*
D14*
X121300000Y-79605000D03*
X108600000Y-82145000D03*
%TD*%
D11*
%TO.C,SWLH7*%
X167640000Y-37465001D03*
D12*
X175950000Y-34925000D03*
D11*
X175260000Y-37465000D03*
D10*
X176530000Y-34925000D03*
D13*
X171450000Y-34925000D03*
D11*
X168910000Y-40005000D03*
D12*
X166950000Y-34925000D03*
D11*
X173990000Y-40005000D03*
D10*
X166370000Y-34925000D03*
D14*
X178450000Y-37505000D03*
X165750000Y-40045000D03*
%TD*%
D26*
%TO.C,D57*%
X162024225Y-149379371D03*
D27*
X161189187Y-155320979D03*
%TD*%
D10*
%TO.C,SWLH31*%
X55245000Y-111075000D03*
X45085000Y-111075000D03*
D11*
X47625000Y-116155000D03*
X53975000Y-113615000D03*
D13*
X50165000Y-111075000D03*
D28*
X57250000Y-113615000D03*
X44323000Y-116155000D03*
%TD*%
D15*
%TO.C,D7*%
X174450000Y-26987500D03*
D16*
X168450000Y-26987500D03*
%TD*%
D13*
%TO.C,SWLH41*%
X47625000Y-130125000D03*
D10*
X42545000Y-130125000D03*
D11*
X51435000Y-132665000D03*
D10*
X52705000Y-130125000D03*
D11*
X45085000Y-135205000D03*
D28*
X54710000Y-132665000D03*
X41783000Y-135205000D03*
%TD*%
D11*
%TO.C,SWLH38*%
X196040000Y-111155000D03*
X197310000Y-108615000D03*
X190960000Y-111155000D03*
D10*
X188420000Y-106075000D03*
D13*
X193500000Y-106075000D03*
D10*
X198580000Y-106075000D03*
D12*
X189000000Y-106075000D03*
X198000000Y-106075000D03*
D11*
X189690000Y-108615001D03*
D14*
X200500000Y-108655000D03*
X187800000Y-111195000D03*
%TD*%
D11*
%TO.C,SWLH6*%
X154940000Y-40005000D03*
D10*
X147320000Y-34925000D03*
X157480000Y-34925000D03*
D12*
X156900000Y-34925000D03*
D13*
X152400000Y-34925000D03*
D12*
X147900000Y-34925000D03*
D11*
X149860000Y-40005000D03*
X156210000Y-37465000D03*
X148590000Y-37465001D03*
D14*
X159400000Y-37505000D03*
X146700000Y-40045000D03*
%TD*%
D15*
%TO.C,D41*%
X50812500Y-123775000D03*
D16*
X44812500Y-123775000D03*
%TD*%
D11*
%TO.C,SWLH46*%
X149860000Y-127705000D03*
X154940000Y-127705000D03*
D12*
X147900000Y-122625000D03*
D11*
X148590000Y-125165001D03*
D13*
X152400000Y-122625000D03*
D10*
X157480000Y-122625000D03*
D11*
X156210000Y-125165000D03*
D12*
X156900000Y-122625000D03*
D10*
X147320000Y-122625000D03*
D14*
X159400000Y-125205000D03*
X146700000Y-127745000D03*
%TD*%
D15*
%TO.C,D2*%
X73612500Y-28575000D03*
D16*
X67612500Y-28575000D03*
%TD*%
D15*
%TO.C,D24*%
X116506250Y-69881250D03*
D16*
X110506250Y-69881250D03*
%TD*%
D11*
%TO.C,SWLH21*%
X56356250Y-94565000D03*
D10*
X47466250Y-92025000D03*
D13*
X52546250Y-92025000D03*
D11*
X50006250Y-97105000D03*
D10*
X57626250Y-92025000D03*
D28*
X59631250Y-94565000D03*
X46704250Y-97105000D03*
%TD*%
D10*
%TO.C,SWLH51*%
X59848750Y-149175000D03*
X49688750Y-149175000D03*
D13*
X54768750Y-149175000D03*
D11*
X58578750Y-151715000D03*
X52228750Y-154255000D03*
D28*
X61853750Y-151715000D03*
X48926750Y-154255000D03*
%TD*%
D15*
%TO.C,D5*%
X132350000Y-27781250D03*
D16*
X126350000Y-27781250D03*
%TD*%
D11*
%TO.C,SWLH34*%
X118110000Y-98615000D03*
D13*
X114300000Y-96075000D03*
D11*
X110490000Y-98615001D03*
D12*
X118800000Y-96075000D03*
D11*
X111760000Y-101155000D03*
D10*
X119380000Y-96075000D03*
D12*
X109800000Y-96075000D03*
D10*
X109220000Y-96075000D03*
D11*
X116840000Y-101155000D03*
D14*
X121300000Y-98655000D03*
X108600000Y-101195000D03*
%TD*%
D15*
%TO.C,D12*%
X80181250Y-60331250D03*
D16*
X74181250Y-60331250D03*
%TD*%
D15*
%TO.C,D33*%
X97631250Y-92931250D03*
D16*
X91631250Y-92931250D03*
%TD*%
D15*
%TO.C,D45*%
X135556250Y-112981250D03*
D16*
X129556250Y-112981250D03*
%TD*%
D11*
%TO.C,SWLH50*%
X34766250Y-151715000D03*
D10*
X36036250Y-149175000D03*
X25876250Y-149175000D03*
D11*
X28416250Y-154255000D03*
D13*
X30956250Y-149175000D03*
D28*
X38041250Y-151715000D03*
X25114250Y-154255000D03*
%TD*%
D11*
%TO.C,SWLH37*%
X167640000Y-108615001D03*
X175260000Y-108615000D03*
D13*
X171450000Y-106075000D03*
D12*
X166950000Y-106075000D03*
D11*
X173990000Y-111155000D03*
D10*
X166370000Y-106075000D03*
D11*
X168910000Y-111155000D03*
D12*
X175950000Y-106075000D03*
D10*
X176530000Y-106075000D03*
D14*
X178450000Y-108655000D03*
X165750000Y-111195000D03*
%TD*%
D15*
%TO.C,D43*%
X98437500Y-111981250D03*
D16*
X92437500Y-111981250D03*
%TD*%
D11*
%TO.C,SWLH5*%
X125540000Y-37465001D03*
X126810000Y-40005000D03*
X131890000Y-40005000D03*
D13*
X129350000Y-34925000D03*
D12*
X133850000Y-34925000D03*
X124850000Y-34925000D03*
D10*
X124270000Y-34925000D03*
X134430000Y-34925000D03*
D11*
X133160000Y-37465000D03*
D14*
X136350000Y-37505000D03*
X123650000Y-40045000D03*
%TD*%
D15*
%TO.C,D26*%
X156800000Y-77381250D03*
D16*
X150800000Y-77381250D03*
%TD*%
D11*
%TO.C,SWLH42*%
X72390000Y-127165001D03*
X80010000Y-127165000D03*
D12*
X80700000Y-124625000D03*
D13*
X76200000Y-124625000D03*
D10*
X71120000Y-124625000D03*
D11*
X73660000Y-129705000D03*
X78740000Y-129705000D03*
D10*
X81280000Y-124625000D03*
D12*
X71700000Y-124625000D03*
D14*
X83200000Y-127205000D03*
X70500000Y-129745000D03*
%TD*%
D10*
%TO.C,SWLH48*%
X197118062Y-130088249D03*
D13*
X192087500Y-129381250D03*
D11*
X188865220Y-134058312D03*
X195506922Y-132426780D03*
D10*
X187056938Y-128674251D03*
D12*
X196543706Y-130007529D03*
D11*
X193895782Y-134765311D03*
X187961079Y-131366282D03*
D12*
X187631294Y-128754971D03*
D23*
X198660310Y-132910353D03*
X185730406Y-133658136D03*
%TD*%
D12*
%TO.C,SWLH32*%
X71700000Y-105575000D03*
D11*
X72390000Y-108115001D03*
X78740000Y-110655000D03*
X73660000Y-110655000D03*
D13*
X76200000Y-105575000D03*
D10*
X71120000Y-105575000D03*
D11*
X80010000Y-108115000D03*
D12*
X80700000Y-105575000D03*
D10*
X81280000Y-105575000D03*
D14*
X83200000Y-108155000D03*
X70500000Y-110695000D03*
%TD*%
D15*
%TO.C,D38*%
X197118750Y-98931250D03*
D16*
X191118750Y-98931250D03*
%TD*%
D11*
%TO.C,SWLH23*%
X99060000Y-83565000D03*
X91440000Y-83565001D03*
D12*
X99750000Y-81025000D03*
D10*
X100330000Y-81025000D03*
D11*
X97790000Y-86105000D03*
D10*
X90170000Y-81025000D03*
D13*
X95250000Y-81025000D03*
D11*
X92710000Y-86105000D03*
D12*
X90750000Y-81025000D03*
D14*
X102250000Y-83605000D03*
X89550000Y-86145000D03*
%TD*%
D15*
%TO.C,J_SOL_1*%
X52212500Y-46831250D03*
D16*
X46212500Y-46831250D03*
%TD*%
D15*
%TO.C,D14*%
X117487500Y-50831250D03*
D16*
X111487500Y-50831250D03*
%TD*%
D11*
%TO.C,SWLH36*%
X149860000Y-108655000D03*
D12*
X147900000Y-103575000D03*
D10*
X157480000Y-103575000D03*
D11*
X156210000Y-106115000D03*
D12*
X156900000Y-103575000D03*
D11*
X154940000Y-108655000D03*
D13*
X152400000Y-103575000D03*
D11*
X148590000Y-106115001D03*
D10*
X147320000Y-103575000D03*
D14*
X159400000Y-106155000D03*
X146700000Y-108695000D03*
%TD*%
D15*
%TO.C,D37*%
X175068750Y-98931250D03*
D16*
X169068750Y-98931250D03*
%TD*%
D13*
%TO.C,SWLH11*%
X57150000Y-72975000D03*
D10*
X52070000Y-72975000D03*
X62230000Y-72975000D03*
D11*
X60960000Y-75515000D03*
X54610000Y-78055000D03*
D28*
X64235000Y-75515000D03*
X51308000Y-78055000D03*
%TD*%
D15*
%TO.C,J1*%
X98250000Y-47625000D03*
D16*
X92250000Y-47625000D03*
%TD*%
D11*
%TO.C,SWLH17*%
X173990000Y-73055000D03*
D10*
X166370000Y-67975000D03*
D12*
X175950000Y-67975000D03*
D11*
X167640000Y-70515001D03*
X175260000Y-70515000D03*
D10*
X176530000Y-67975000D03*
D13*
X171450000Y-67975000D03*
D11*
X168910000Y-73055000D03*
D12*
X166950000Y-67975000D03*
D14*
X178450000Y-70555000D03*
X165750000Y-73095000D03*
%TD*%
D10*
%TO.C,SWLH54*%
X119380000Y-134175000D03*
D11*
X116840000Y-139255000D03*
D12*
X118800000Y-134175000D03*
D11*
X111760000Y-139255000D03*
X118110000Y-136715000D03*
X110490000Y-136715001D03*
D10*
X109220000Y-134175000D03*
D13*
X114300000Y-134175000D03*
D12*
X109800000Y-134175000D03*
D14*
X121300000Y-136755000D03*
X108600000Y-139295000D03*
%TD*%
D15*
%TO.C,D44*%
X116318750Y-107981250D03*
D16*
X110318750Y-107981250D03*
%TD*%
D26*
%TO.C,D56*%
X143070896Y-147359419D03*
D27*
X142235858Y-153301027D03*
%TD*%
D11*
%TO.C,SWLH18*%
X197310000Y-70515000D03*
D12*
X198000000Y-67975000D03*
D13*
X193500000Y-67975000D03*
D10*
X188420000Y-67975000D03*
D11*
X190960000Y-73055000D03*
D10*
X198580000Y-67975000D03*
D11*
X189690000Y-70515001D03*
X196040000Y-73055000D03*
D12*
X189000000Y-67975000D03*
D14*
X200500000Y-70555000D03*
X187800000Y-73095000D03*
%TD*%
D15*
%TO.C,D32*%
X77800000Y-98431250D03*
D16*
X71800000Y-98431250D03*
%TD*%
D29*
%TO.C,D47*%
X169568750Y-127612500D03*
D30*
X169568750Y-121612500D03*
%TD*%
D31*
%TO.C,R2*%
X53498750Y-59531250D03*
D32*
X43338750Y-59531250D03*
%TD*%
D15*
%TO.C,D25*%
X136175000Y-75675000D03*
D16*
X130175000Y-75675000D03*
%TD*%
D11*
%TO.C,SWLH25*%
X137160000Y-84565000D03*
D10*
X128270000Y-82025000D03*
X138430000Y-82025000D03*
D11*
X129540000Y-84565001D03*
X130810000Y-87105000D03*
D12*
X137850000Y-82025000D03*
X128850000Y-82025000D03*
D13*
X133350000Y-82025000D03*
D11*
X135890000Y-87105000D03*
D14*
X140350000Y-84605000D03*
X127650000Y-87145000D03*
%TD*%
D10*
%TO.C,SWLH1*%
X54230000Y-34925000D03*
D13*
X49150000Y-34925000D03*
D11*
X52960000Y-37465000D03*
X46610000Y-40005000D03*
D10*
X44070000Y-34925000D03*
D28*
X56235000Y-37465000D03*
X43308000Y-40005000D03*
%TD*%
D11*
%TO.C,SWLH13*%
X91440000Y-64515001D03*
D10*
X100330000Y-61975000D03*
X90170000Y-61975000D03*
D11*
X97790000Y-67055000D03*
D13*
X95250000Y-61975000D03*
D12*
X99750000Y-61975000D03*
X90750000Y-61975000D03*
D11*
X99060000Y-64515000D03*
X92710000Y-67055000D03*
D14*
X102250000Y-64555000D03*
X89550000Y-67095000D03*
%TD*%
D18*
%TO.C,D48*%
X195266496Y-122614072D03*
D19*
X189324888Y-121779034D03*
%TD*%
D15*
%TO.C,D28*%
X196312500Y-79881250D03*
D16*
X190312500Y-79881250D03*
%TD*%
D15*
%TO.C,D51*%
X59356250Y-142825000D03*
D16*
X53356250Y-142825000D03*
%TD*%
D33*
%TO.C,R1*%
X64452500Y-50006250D03*
X59372500Y-50006250D03*
%TD*%
D18*
%TO.C,D65*%
X134598081Y-149355911D03*
D19*
X128656473Y-148520873D03*
%TD*%
D13*
%TO.C,SWLH15*%
X133350000Y-62975000D03*
D12*
X128850000Y-62975000D03*
D11*
X130810000Y-68055000D03*
X135890000Y-68055000D03*
X129540000Y-65515001D03*
D10*
X128270000Y-62975000D03*
D12*
X137850000Y-62975000D03*
D11*
X137160000Y-65515000D03*
D10*
X138430000Y-62975000D03*
D14*
X140350000Y-65555000D03*
X127650000Y-68095000D03*
%TD*%
D34*
%TO.C,ULH1*%
X177006250Y-28098750D03*
D12*
X177006250Y-30638750D03*
X177006250Y-33178750D03*
X177006250Y-35718750D03*
X177006250Y-38258750D03*
X177006250Y-40798750D03*
X177006250Y-43338750D03*
X177006250Y-45878750D03*
X177006250Y-48418750D03*
X177006250Y-50958750D03*
X177006250Y-53498750D03*
X177006250Y-56038750D03*
X177006250Y-58578750D03*
X177006250Y-61118750D03*
X177006250Y-63658750D03*
X177006250Y-66198750D03*
X177006250Y-68738750D03*
X177006250Y-71278750D03*
X177006250Y-73818750D03*
X177006250Y-76358750D03*
X161766250Y-76358750D03*
X161766250Y-73818750D03*
X161766250Y-71278750D03*
X161766250Y-68738750D03*
X161766250Y-66198750D03*
X161766250Y-63658750D03*
X161766250Y-61118750D03*
X161766250Y-58578750D03*
X161766250Y-56038750D03*
X161766250Y-53498750D03*
X161766250Y-50958750D03*
X161766250Y-48418750D03*
X161766250Y-45878750D03*
X161766250Y-43338750D03*
X161766250Y-40798750D03*
X161766250Y-38258750D03*
X161766250Y-35718750D03*
X161766250Y-33178750D03*
X161766250Y-30638750D03*
X161766250Y-28098750D03*
X165574250Y-72547750D03*
X168114250Y-72547750D03*
X170654250Y-72547750D03*
X173194250Y-72547750D03*
%TD*%
M02*
