%TF.GenerationSoftware,KiCad,Pcbnew,(6.0.5-0)*%
%TF.CreationDate,2023-01-14T19:39:34-08:00*%
%TF.ProjectId,ergodonk_pcb,6572676f-646f-46e6-9b5f-7063622e6b69,rev?*%
%TF.SameCoordinates,Original*%
%TF.FileFunction,Legend,Bot*%
%TF.FilePolarity,Positive*%
%FSLAX46Y46*%
G04 Gerber Fmt 4.6, Leading zero omitted, Abs format (unit mm)*
G04 Created by KiCad (PCBNEW (6.0.5-0)) date 2023-01-14 19:39:34*
%MOMM*%
%LPD*%
G01*
G04 APERTURE LIST*
%ADD10C,0.150000*%
%ADD11C,1.000000*%
%ADD12C,0.500000*%
%ADD13C,3.500000*%
%ADD14C,0.400000*%
%ADD15C,0.300000*%
%ADD16C,0.800000*%
%ADD17C,3.000000*%
%ADD18C,0.120000*%
G04 APERTURE END LIST*
D10*
%TO.C,R1*%
X62222138Y-49624645D02*
X62222138Y-49818169D01*
X62415661Y-49740759D02*
X62222138Y-49818169D01*
X62028614Y-49740759D01*
X62338252Y-49972988D02*
X62222138Y-49818169D01*
X62106023Y-49972988D01*
X61602861Y-49624645D02*
X61602861Y-49818169D01*
X61796385Y-49740759D02*
X61602861Y-49818169D01*
X61409338Y-49740759D01*
X61718976Y-49972988D02*
X61602861Y-49818169D01*
X61486747Y-49972988D01*
%TO.C,ULH1*%
X171076726Y-23741130D02*
X171076726Y-24550654D01*
X171029107Y-24645892D01*
X170981488Y-24693511D01*
X170886250Y-24741130D01*
X170695773Y-24741130D01*
X170600535Y-24693511D01*
X170552916Y-24645892D01*
X170505297Y-24550654D01*
X170505297Y-23741130D01*
X169552916Y-24741130D02*
X170029107Y-24741130D01*
X170029107Y-23741130D01*
X169219583Y-24741130D02*
X169219583Y-23741130D01*
X169219583Y-24217321D02*
X168648154Y-24217321D01*
X168648154Y-24741130D02*
X168648154Y-23741130D01*
X167648154Y-24741130D02*
X168219583Y-24741130D01*
X167933869Y-24741130D02*
X167933869Y-23741130D01*
X168029107Y-23883988D01*
X168124345Y-23979226D01*
X168219583Y-24026845D01*
%TO.C,SWLH14*%
X114700000Y-60975000D02*
X109700000Y-60975000D01*
X109700000Y-60975000D02*
X109700000Y-61975000D01*
D11*
X110400000Y-63975000D02*
X110400000Y-61475000D01*
D10*
X120200000Y-59075000D02*
X116920000Y-59075000D01*
X109700000Y-61975000D02*
X109900000Y-61975000D01*
X109920000Y-61975000D02*
X109920000Y-64225000D01*
X120200000Y-62675000D02*
X120200000Y-61675000D01*
X120000000Y-59435000D02*
X120200000Y-59435000D01*
D12*
X120000000Y-59275000D02*
X117300000Y-59275000D01*
D13*
X111700000Y-62775000D02*
X118400000Y-62775000D01*
D12*
X110000000Y-61275000D02*
X111400000Y-61275000D01*
D10*
X109700000Y-64225000D02*
X109700000Y-64575000D01*
D14*
X109900000Y-61875000D02*
X109900000Y-61175000D01*
D10*
X109700000Y-64575000D02*
X118100001Y-64575000D01*
X119970000Y-61675000D02*
X119970000Y-59435000D01*
X120200000Y-59075000D02*
X120200000Y-59435000D01*
X109900000Y-64225000D02*
X109700000Y-64225000D01*
D15*
X120100000Y-61775001D02*
X120100000Y-62675000D01*
D14*
X109900000Y-64375000D02*
X111300000Y-64375000D01*
D16*
X119600000Y-59575000D02*
X119600000Y-61374999D01*
D17*
X118470000Y-63075000D02*
X118470000Y-60835000D01*
D10*
X120200000Y-61675000D02*
X120000000Y-61675000D01*
D11*
X115100000Y-61375000D02*
G75*
G03*
X117316318Y-59496471I65001J2169999D01*
G01*
D10*
X118100001Y-64575001D02*
G75*
G03*
X120200000Y-62674999I100000J1999999D01*
G01*
X114700000Y-60975000D02*
G75*
G03*
X116916318Y-59096471I65001J2169999D01*
G01*
%TO.C,SWLH33*%
X101150000Y-104775000D02*
X101150000Y-103775000D01*
D17*
X99420000Y-105175000D02*
X99420000Y-102935000D01*
D10*
X90650000Y-106325000D02*
X90650000Y-106675000D01*
X101150000Y-101175000D02*
X97870000Y-101175000D01*
D14*
X90850000Y-103975000D02*
X90850000Y-103275000D01*
D10*
X100950000Y-101535000D02*
X101150000Y-101535000D01*
D16*
X100550000Y-101675000D02*
X100550000Y-103474999D01*
D14*
X90850000Y-106475000D02*
X92250000Y-106475000D01*
D10*
X90850000Y-106325000D02*
X90650000Y-106325000D01*
X90650000Y-103075000D02*
X90650000Y-104075000D01*
X95650000Y-103075000D02*
X90650000Y-103075000D01*
X90650000Y-104075000D02*
X90850000Y-104075000D01*
X90650000Y-106675000D02*
X99050001Y-106675000D01*
X90870000Y-104075000D02*
X90870000Y-106325000D01*
D13*
X92650000Y-104875000D02*
X99350000Y-104875000D01*
D10*
X101150000Y-103775000D02*
X100950000Y-103775000D01*
D11*
X91350000Y-106075000D02*
X91350000Y-103575000D01*
D10*
X101150000Y-101175000D02*
X101150000Y-101535000D01*
D12*
X90950000Y-103375000D02*
X92350000Y-103375000D01*
D10*
X100920000Y-103775000D02*
X100920000Y-101535000D01*
D15*
X101050000Y-103875001D02*
X101050000Y-104775000D01*
D12*
X100950000Y-101375000D02*
X98250000Y-101375000D01*
D11*
X96050000Y-103475000D02*
G75*
G03*
X98266318Y-101596471I65001J2169999D01*
G01*
D10*
X99050001Y-106675001D02*
G75*
G03*
X101150000Y-104774999I100000J1999999D01*
G01*
X95650000Y-103075000D02*
G75*
G03*
X97866318Y-101196471I65001J2169999D01*
G01*
D15*
%TO.C,SWLH57*%
X173816246Y-149812215D02*
X174707486Y-149937471D01*
D10*
X173699125Y-149927033D02*
X171480925Y-149615285D01*
X173731135Y-149699271D02*
X173703301Y-149897324D01*
D14*
X174971376Y-160274799D02*
X175166218Y-158888424D01*
D12*
X171326657Y-149563309D02*
X170950890Y-152237033D01*
D17*
X174876741Y-151607277D02*
X172658541Y-151295529D01*
D10*
X171485100Y-149585577D02*
X171512935Y-149387523D01*
X172272495Y-155048324D02*
X171576630Y-159999664D01*
X174822836Y-160253923D02*
X174795001Y-160451977D01*
X171156438Y-149337421D02*
X171512935Y-149387523D01*
X174795001Y-160451977D02*
X175141595Y-160500688D01*
X175141595Y-160500688D02*
X176310649Y-152182435D01*
D12*
X171915462Y-159744336D02*
X172110305Y-158357961D01*
D13*
X173637459Y-158269640D02*
X174569918Y-151634844D01*
D10*
X171156438Y-149337421D02*
X170699950Y-152585500D01*
X171576630Y-159999664D02*
X172566898Y-160138838D01*
D16*
X171568068Y-150001168D02*
X173350550Y-150251680D01*
D10*
X172597516Y-159920979D02*
X174825619Y-160234118D01*
X174721403Y-149838444D02*
X173731135Y-149699271D01*
D11*
X174644855Y-159723996D02*
X172169185Y-159376063D01*
D10*
X172566898Y-160138838D02*
X172594733Y-159940784D01*
D14*
X172495706Y-159926867D02*
X171802518Y-159829445D01*
D11*
X172724272Y-154707886D02*
G75*
G03*
X171172476Y-152251696I-2139834J366374D01*
G01*
D10*
X176310649Y-152182435D02*
G75*
G03*
X174721402Y-149838444I-1966617J377373D01*
G01*
X172272495Y-155048324D02*
G75*
G03*
X170720700Y-152592134I-2139834J366374D01*
G01*
%TO.C,SWLH35*%
X128750000Y-107325000D02*
X128750000Y-107675000D01*
X139250000Y-102175000D02*
X135970000Y-102175000D01*
X139250000Y-102175000D02*
X139250000Y-102535000D01*
X128750000Y-104075000D02*
X128750000Y-105075000D01*
D14*
X128950000Y-104975000D02*
X128950000Y-104275000D01*
D16*
X138650000Y-102675000D02*
X138650000Y-104474999D01*
D14*
X128950000Y-107475000D02*
X130350000Y-107475000D01*
D17*
X137520000Y-106175000D02*
X137520000Y-103935000D01*
D10*
X128950000Y-107325000D02*
X128750000Y-107325000D01*
X139020000Y-104775000D02*
X139020000Y-102535000D01*
D15*
X139150000Y-104875001D02*
X139150000Y-105775000D01*
D10*
X128750000Y-105075000D02*
X128950000Y-105075000D01*
D12*
X139050000Y-102375000D02*
X136350000Y-102375000D01*
D10*
X139250000Y-104775000D02*
X139050000Y-104775000D01*
X133750000Y-104075000D02*
X128750000Y-104075000D01*
D11*
X129450000Y-107075000D02*
X129450000Y-104575000D01*
D10*
X139250000Y-105775000D02*
X139250000Y-104775000D01*
D13*
X130750000Y-105875000D02*
X137450000Y-105875000D01*
D12*
X129050000Y-104375000D02*
X130450000Y-104375000D01*
D10*
X128970000Y-105075000D02*
X128970000Y-107325000D01*
X139050000Y-102535000D02*
X139250000Y-102535000D01*
X128750000Y-107675000D02*
X137150001Y-107675000D01*
D11*
X134150000Y-104475000D02*
G75*
G03*
X136366318Y-102596471I65001J2169999D01*
G01*
D10*
X137150001Y-107675001D02*
G75*
G03*
X139250000Y-105774999I100000J1999999D01*
G01*
X133750000Y-104075000D02*
G75*
G03*
X135966318Y-102196471I65001J2169999D01*
G01*
%TO.C,SWLH12*%
X71600000Y-73725000D02*
X71600000Y-74075000D01*
X76600000Y-70475000D02*
X71600000Y-70475000D01*
D16*
X81500000Y-69075000D02*
X81500000Y-70874999D01*
D10*
X81870000Y-71175000D02*
X81870000Y-68935000D01*
X82100000Y-68575000D02*
X78820000Y-68575000D01*
D14*
X71800000Y-73875000D02*
X73200000Y-73875000D01*
D12*
X81900000Y-68775000D02*
X79200000Y-68775000D01*
D10*
X82100000Y-68575000D02*
X82100000Y-68935000D01*
X82100000Y-71175000D02*
X81900000Y-71175000D01*
X71600000Y-74075000D02*
X80000001Y-74075000D01*
D13*
X73600000Y-72275000D02*
X80300000Y-72275000D01*
D10*
X81900000Y-68935000D02*
X82100000Y-68935000D01*
D14*
X71800000Y-71375000D02*
X71800000Y-70675000D01*
D10*
X71820000Y-71475000D02*
X71820000Y-73725000D01*
X82100000Y-72175000D02*
X82100000Y-71175000D01*
D15*
X82000000Y-71275001D02*
X82000000Y-72175000D01*
D10*
X71600000Y-70475000D02*
X71600000Y-71475000D01*
X71800000Y-73725000D02*
X71600000Y-73725000D01*
D17*
X80370000Y-72575000D02*
X80370000Y-70335000D01*
D10*
X71600000Y-71475000D02*
X71800000Y-71475000D01*
D12*
X71900000Y-70775000D02*
X73300000Y-70775000D01*
D11*
X72300000Y-73475000D02*
X72300000Y-70975000D01*
D10*
X76600000Y-70475000D02*
G75*
G03*
X78816318Y-68596471I65001J2169999D01*
G01*
D11*
X77000000Y-70875000D02*
G75*
G03*
X79216318Y-68996471I65001J2169999D01*
G01*
D10*
X80000001Y-74075001D02*
G75*
G03*
X82100000Y-72174999I100000J1999999D01*
G01*
D17*
%TO.C,SWLH43*%
X99420000Y-124225000D02*
X99420000Y-121985000D01*
D10*
X90650000Y-125375000D02*
X90650000Y-125725000D01*
X90870000Y-123125000D02*
X90870000Y-125375000D01*
D14*
X90850000Y-123025000D02*
X90850000Y-122325000D01*
D12*
X100950000Y-120425000D02*
X98250000Y-120425000D01*
D10*
X100950000Y-120585000D02*
X101150000Y-120585000D01*
D16*
X100550000Y-120725000D02*
X100550000Y-122524999D01*
D10*
X95650000Y-122125000D02*
X90650000Y-122125000D01*
X90650000Y-122125000D02*
X90650000Y-123125000D01*
D12*
X90950000Y-122425000D02*
X92350000Y-122425000D01*
D10*
X90650000Y-125725000D02*
X99050001Y-125725000D01*
X90850000Y-125375000D02*
X90650000Y-125375000D01*
D14*
X90850000Y-125525000D02*
X92250000Y-125525000D01*
D10*
X101150000Y-120225000D02*
X97870000Y-120225000D01*
D13*
X92650000Y-123925000D02*
X99350000Y-123925000D01*
D15*
X101050000Y-122925001D02*
X101050000Y-123825000D01*
D10*
X90650000Y-123125000D02*
X90850000Y-123125000D01*
X101150000Y-120225000D02*
X101150000Y-120585000D01*
D11*
X91350000Y-125125000D02*
X91350000Y-122625000D01*
D10*
X101150000Y-123825000D02*
X101150000Y-122825000D01*
X101150000Y-122825000D02*
X100950000Y-122825000D01*
X100920000Y-122825000D02*
X100920000Y-120585000D01*
X95650000Y-122125000D02*
G75*
G03*
X97866318Y-120246471I65001J2169999D01*
G01*
D11*
X96050000Y-122525000D02*
G75*
G03*
X98266318Y-120646471I65001J2169999D01*
G01*
D10*
X99050001Y-125725001D02*
G75*
G03*
X101150000Y-123824999I100000J1999999D01*
G01*
%TO.C,SWLH2*%
X67600000Y-41525000D02*
X76000001Y-41525000D01*
D13*
X69600000Y-39725000D02*
X76300000Y-39725000D01*
D15*
X78000000Y-38725001D02*
X78000000Y-39625000D01*
D10*
X67600000Y-37925000D02*
X67600000Y-38925000D01*
X77870000Y-38625000D02*
X77870000Y-36385000D01*
X77900000Y-36385000D02*
X78100000Y-36385000D01*
D16*
X77500000Y-36525000D02*
X77500000Y-38324999D01*
D10*
X78100000Y-39625000D02*
X78100000Y-38625000D01*
D14*
X67800000Y-38825000D02*
X67800000Y-38125000D01*
D10*
X67600000Y-38925000D02*
X67800000Y-38925000D01*
X78100000Y-36025000D02*
X78100000Y-36385000D01*
X67820000Y-38925000D02*
X67820000Y-41175000D01*
X78100000Y-36025000D02*
X74820000Y-36025000D01*
X67600000Y-41175000D02*
X67600000Y-41525000D01*
D14*
X67800000Y-41325000D02*
X69200000Y-41325000D01*
D12*
X77900000Y-36225000D02*
X75200000Y-36225000D01*
X67900000Y-38225000D02*
X69300000Y-38225000D01*
D10*
X78100000Y-38625000D02*
X77900000Y-38625000D01*
D11*
X68300000Y-40925000D02*
X68300000Y-38425000D01*
D17*
X76370000Y-40025000D02*
X76370000Y-37785000D01*
D10*
X67800000Y-41175000D02*
X67600000Y-41175000D01*
X72600000Y-37925000D02*
X67600000Y-37925000D01*
X72600000Y-37925000D02*
G75*
G03*
X74816318Y-36046471I65001J2169999D01*
G01*
X76000001Y-41525001D02*
G75*
G03*
X78100000Y-39624999I100000J1999999D01*
G01*
D11*
X73000000Y-38325000D02*
G75*
G03*
X75216318Y-36446471I65001J2169999D01*
G01*
D10*
%TO.C,SWLH53*%
X101150000Y-139275000D02*
X101150000Y-139635000D01*
X101150000Y-141875000D02*
X100950000Y-141875000D01*
D16*
X100550000Y-139775000D02*
X100550000Y-141574999D01*
D10*
X100950000Y-139635000D02*
X101150000Y-139635000D01*
D13*
X92650000Y-142975000D02*
X99350000Y-142975000D01*
D17*
X99420000Y-143275000D02*
X99420000Y-141035000D01*
D10*
X101150000Y-139275000D02*
X97870000Y-139275000D01*
D12*
X90950000Y-141475000D02*
X92350000Y-141475000D01*
D10*
X90650000Y-141175000D02*
X90650000Y-142175000D01*
X90870000Y-142175000D02*
X90870000Y-144425000D01*
D15*
X101050000Y-141975001D02*
X101050000Y-142875000D01*
D10*
X90850000Y-144425000D02*
X90650000Y-144425000D01*
D14*
X90850000Y-142075000D02*
X90850000Y-141375000D01*
D11*
X91350000Y-144175000D02*
X91350000Y-141675000D01*
D10*
X95650000Y-141175000D02*
X90650000Y-141175000D01*
D12*
X100950000Y-139475000D02*
X98250000Y-139475000D01*
D10*
X90650000Y-144425000D02*
X90650000Y-144775000D01*
D14*
X90850000Y-144575000D02*
X92250000Y-144575000D01*
D10*
X100920000Y-141875000D02*
X100920000Y-139635000D01*
X101150000Y-142875000D02*
X101150000Y-141875000D01*
X90650000Y-144775000D02*
X99050001Y-144775000D01*
X90650000Y-142175000D02*
X90850000Y-142175000D01*
X95650000Y-141175000D02*
G75*
G03*
X97866318Y-139296471I65001J2169999D01*
G01*
D11*
X96050000Y-141575000D02*
G75*
G03*
X98266318Y-139696471I65001J2169999D01*
G01*
D10*
X99050001Y-144775001D02*
G75*
G03*
X101150000Y-142874999I100000J1999999D01*
G01*
%TO.C,SWLH3*%
X97150000Y-36025000D02*
X93870000Y-36025000D01*
D14*
X86850000Y-41325000D02*
X88250000Y-41325000D01*
D10*
X97150000Y-38625000D02*
X96950000Y-38625000D01*
X86650000Y-41525000D02*
X95050001Y-41525000D01*
X97150000Y-36025000D02*
X97150000Y-36385000D01*
D15*
X97050000Y-38725001D02*
X97050000Y-39625000D01*
D10*
X91650000Y-37925000D02*
X86650000Y-37925000D01*
X86850000Y-41175000D02*
X86650000Y-41175000D01*
X86870000Y-38925000D02*
X86870000Y-41175000D01*
D11*
X87350000Y-40925000D02*
X87350000Y-38425000D01*
D14*
X86850000Y-38825000D02*
X86850000Y-38125000D01*
D17*
X95420000Y-40025000D02*
X95420000Y-37785000D01*
D10*
X97150000Y-39625000D02*
X97150000Y-38625000D01*
X86650000Y-37925000D02*
X86650000Y-38925000D01*
X96920000Y-38625000D02*
X96920000Y-36385000D01*
D13*
X88650000Y-39725000D02*
X95350000Y-39725000D01*
D10*
X86650000Y-38925000D02*
X86850000Y-38925000D01*
D12*
X86950000Y-38225000D02*
X88350000Y-38225000D01*
D10*
X86650000Y-41175000D02*
X86650000Y-41525000D01*
D16*
X96550000Y-36525000D02*
X96550000Y-38324999D01*
D10*
X96950000Y-36385000D02*
X97150000Y-36385000D01*
D12*
X96950000Y-36225000D02*
X94250000Y-36225000D01*
D10*
X91650000Y-37925000D02*
G75*
G03*
X93866318Y-36046471I65001J2169999D01*
G01*
X95050001Y-41525001D02*
G75*
G03*
X97150000Y-39624999I100000J1999999D01*
G01*
D11*
X92050000Y-38325000D02*
G75*
G03*
X94266318Y-36446471I65001J2169999D01*
G01*
D10*
%TO.C,SWLH45*%
X128950000Y-126375000D02*
X128750000Y-126375000D01*
X139250000Y-123825000D02*
X139050000Y-123825000D01*
D14*
X128950000Y-124025000D02*
X128950000Y-123325000D01*
D10*
X133750000Y-123125000D02*
X128750000Y-123125000D01*
D14*
X128950000Y-126525000D02*
X130350000Y-126525000D01*
D11*
X129450000Y-126125000D02*
X129450000Y-123625000D01*
D12*
X139050000Y-121425000D02*
X136350000Y-121425000D01*
D10*
X139250000Y-121225000D02*
X135970000Y-121225000D01*
D15*
X139150000Y-123925001D02*
X139150000Y-124825000D01*
D10*
X128750000Y-124125000D02*
X128950000Y-124125000D01*
X139050000Y-121585000D02*
X139250000Y-121585000D01*
X139250000Y-124825000D02*
X139250000Y-123825000D01*
X128970000Y-124125000D02*
X128970000Y-126375000D01*
D16*
X138650000Y-121725000D02*
X138650000Y-123524999D01*
D17*
X137520000Y-125225000D02*
X137520000Y-122985000D01*
D10*
X128750000Y-126375000D02*
X128750000Y-126725000D01*
D12*
X129050000Y-123425000D02*
X130450000Y-123425000D01*
D13*
X130750000Y-124925000D02*
X137450000Y-124925000D01*
D10*
X139020000Y-123825000D02*
X139020000Y-121585000D01*
X139250000Y-121225000D02*
X139250000Y-121585000D01*
X128750000Y-126725000D02*
X137150001Y-126725000D01*
X128750000Y-123125000D02*
X128750000Y-124125000D01*
X137150001Y-126725001D02*
G75*
G03*
X139250000Y-124824999I100000J1999999D01*
G01*
X133750000Y-123125000D02*
G75*
G03*
X135966318Y-121246471I65001J2169999D01*
G01*
D11*
X134150000Y-123525000D02*
G75*
G03*
X136366318Y-121646471I65001J2169999D01*
G01*
D10*
%TO.C,SWLH68*%
X192474496Y-169020879D02*
X189226417Y-168564391D01*
X191884884Y-171563566D02*
X192196632Y-169345366D01*
D12*
X182067581Y-169779903D02*
X183453956Y-169974746D01*
D10*
X192474496Y-169020879D02*
X192424394Y-169377376D01*
D17*
X190204640Y-172741182D02*
X190516388Y-170522982D01*
D10*
X181557994Y-172687277D02*
X181359940Y-172659442D01*
X192226340Y-169349541D02*
X192424394Y-169377376D01*
X181673079Y-170431339D02*
X181871133Y-170459174D01*
D13*
X183542277Y-171501900D02*
X190177073Y-172434359D01*
D10*
X181890938Y-170461957D02*
X181577799Y-172690060D01*
X181311229Y-173006036D02*
X189629482Y-174175090D01*
X181812253Y-169441071D02*
X181673079Y-170431339D01*
D14*
X181537118Y-172835817D02*
X182923493Y-173030659D01*
D11*
X182087921Y-172509296D02*
X182435854Y-170033626D01*
D15*
X191999702Y-171680687D02*
X191874446Y-172571927D01*
D10*
X191973473Y-172585844D02*
X192112646Y-171595576D01*
X192112646Y-171595576D02*
X191914593Y-171567742D01*
D12*
X192248608Y-169191098D02*
X189574884Y-168815331D01*
D10*
X181359940Y-172659442D02*
X181311229Y-173006036D01*
X186763593Y-170136936D02*
X181812253Y-169441071D01*
D14*
X181885050Y-170360147D02*
X181982472Y-169666959D01*
D16*
X191810749Y-169432509D02*
X191560237Y-171214991D01*
D10*
X189629482Y-174175090D02*
G75*
G03*
X191973473Y-172585843I377373J1966617D01*
G01*
X186763593Y-170136936D02*
G75*
G03*
X189219783Y-168585141I366374J2139834D01*
G01*
D11*
X187104031Y-170588713D02*
G75*
G03*
X189560221Y-169036917I366374J2139834D01*
G01*
D10*
%TO.C,SWLH27*%
X177350000Y-91725000D02*
X177350000Y-90725000D01*
X166850000Y-90025000D02*
X166850000Y-91025000D01*
D13*
X168850000Y-91825000D02*
X175550000Y-91825000D01*
D10*
X177350000Y-90725000D02*
X177150000Y-90725000D01*
X166850000Y-93625000D02*
X175250001Y-93625000D01*
D17*
X175620000Y-92125000D02*
X175620000Y-89885000D01*
D10*
X171850000Y-90025000D02*
X166850000Y-90025000D01*
D12*
X167150000Y-90325000D02*
X168550000Y-90325000D01*
D15*
X177250000Y-90825001D02*
X177250000Y-91725000D01*
D14*
X167050000Y-93425000D02*
X168450000Y-93425000D01*
D10*
X167050000Y-93275000D02*
X166850000Y-93275000D01*
D14*
X167050000Y-90925000D02*
X167050000Y-90225000D01*
D16*
X176750000Y-88625000D02*
X176750000Y-90424999D01*
D10*
X166850000Y-93275000D02*
X166850000Y-93625000D01*
X166850000Y-91025000D02*
X167050000Y-91025000D01*
X177150000Y-88485000D02*
X177350000Y-88485000D01*
X177350000Y-88125000D02*
X177350000Y-88485000D01*
D11*
X167550000Y-93025000D02*
X167550000Y-90525000D01*
D10*
X167070000Y-91025000D02*
X167070000Y-93275000D01*
D12*
X177150000Y-88325000D02*
X174450000Y-88325000D01*
D10*
X177350000Y-88125000D02*
X174070000Y-88125000D01*
X177120000Y-90725000D02*
X177120000Y-88485000D01*
X171850000Y-90025000D02*
G75*
G03*
X174066318Y-88146471I65001J2169999D01*
G01*
D11*
X172250000Y-90425000D02*
G75*
G03*
X174466318Y-88546471I65001J2169999D01*
G01*
D10*
X175250001Y-93625001D02*
G75*
G03*
X177350000Y-91724999I100000J1999999D01*
G01*
D15*
%TO.C,SWLH4*%
X116100000Y-38725001D02*
X116100000Y-39625000D01*
D16*
X115600000Y-36525000D02*
X115600000Y-38324999D01*
D12*
X116000000Y-36225000D02*
X113300000Y-36225000D01*
D10*
X105920000Y-38925000D02*
X105920000Y-41175000D01*
X116200000Y-36025000D02*
X116200000Y-36385000D01*
D14*
X105900000Y-38825000D02*
X105900000Y-38125000D01*
D10*
X116200000Y-38625000D02*
X116000000Y-38625000D01*
X105700000Y-37925000D02*
X105700000Y-38925000D01*
X105900000Y-41175000D02*
X105700000Y-41175000D01*
X110700000Y-37925000D02*
X105700000Y-37925000D01*
X116000000Y-36385000D02*
X116200000Y-36385000D01*
X105700000Y-38925000D02*
X105900000Y-38925000D01*
D11*
X106400000Y-40925000D02*
X106400000Y-38425000D01*
D10*
X116200000Y-36025000D02*
X112920000Y-36025000D01*
D14*
X105900000Y-41325000D02*
X107300000Y-41325000D01*
D17*
X114470000Y-40025000D02*
X114470000Y-37785000D01*
D13*
X107700000Y-39725000D02*
X114400000Y-39725000D01*
D12*
X106000000Y-38225000D02*
X107400000Y-38225000D01*
D10*
X105700000Y-41525000D02*
X114100001Y-41525000D01*
X105700000Y-41175000D02*
X105700000Y-41525000D01*
X116200000Y-39625000D02*
X116200000Y-38625000D01*
X115970000Y-38625000D02*
X115970000Y-36385000D01*
X114100001Y-41525001D02*
G75*
G03*
X116200000Y-39624999I100000J1999999D01*
G01*
D11*
X111100000Y-38325000D02*
G75*
G03*
X113316318Y-36446471I65001J2169999D01*
G01*
D10*
X110700000Y-37925000D02*
G75*
G03*
X112916318Y-36046471I65001J2169999D01*
G01*
%TO.C,SWLH65*%
X135850232Y-161283757D02*
X135652179Y-161255923D01*
D12*
X125805167Y-159468084D02*
X127191542Y-159662927D01*
D10*
X125097526Y-162347623D02*
X125048815Y-162694217D01*
D14*
X125274704Y-162523998D02*
X126661079Y-162718840D01*
D10*
X136212082Y-158709060D02*
X132964003Y-158252572D01*
X125628524Y-160150138D02*
X125315385Y-162378241D01*
D14*
X125622636Y-160048328D02*
X125720058Y-159355140D01*
D10*
X130501179Y-159825117D02*
X125549839Y-159129252D01*
D16*
X135548335Y-159120690D02*
X135297823Y-160903172D01*
D10*
X135711059Y-162274025D02*
X135850232Y-161283757D01*
X125549839Y-159129252D02*
X125410665Y-160119520D01*
D13*
X127279863Y-161190081D02*
X133914659Y-162122540D01*
D10*
X135622470Y-161251747D02*
X135934218Y-159033547D01*
D15*
X135737288Y-161368868D02*
X135612032Y-162260108D01*
D10*
X135963926Y-159037722D02*
X136161980Y-159065557D01*
X125048815Y-162694217D02*
X133367068Y-163863271D01*
X125295580Y-162375458D02*
X125097526Y-162347623D01*
D12*
X135986194Y-158879279D02*
X133312470Y-158503512D01*
D11*
X125825507Y-162197477D02*
X126173440Y-159721807D01*
D17*
X133942226Y-162429363D02*
X134253974Y-160211163D01*
D10*
X125410665Y-160119520D02*
X125608719Y-160147355D01*
X136212082Y-158709060D02*
X136161980Y-159065557D01*
D11*
X130841617Y-160276894D02*
G75*
G03*
X133297807Y-158725098I366374J2139834D01*
G01*
D10*
X130501179Y-159825117D02*
G75*
G03*
X132957369Y-158273322I366374J2139834D01*
G01*
X133367068Y-163863271D02*
G75*
G03*
X135711059Y-162274024I377373J1966617D01*
G01*
%TO.C,SWLH22*%
X82100000Y-90225000D02*
X81900000Y-90225000D01*
D12*
X81900000Y-87825000D02*
X79200000Y-87825000D01*
D13*
X73600000Y-91325000D02*
X80300000Y-91325000D01*
D14*
X71800000Y-90425000D02*
X71800000Y-89725000D01*
D10*
X81900000Y-87985000D02*
X82100000Y-87985000D01*
D15*
X82000000Y-90325001D02*
X82000000Y-91225000D01*
D10*
X71820000Y-90525000D02*
X71820000Y-92775000D01*
X81870000Y-90225000D02*
X81870000Y-87985000D01*
D14*
X71800000Y-92925000D02*
X73200000Y-92925000D01*
D11*
X72300000Y-92525000D02*
X72300000Y-90025000D01*
D10*
X71800000Y-92775000D02*
X71600000Y-92775000D01*
X76600000Y-89525000D02*
X71600000Y-89525000D01*
X71600000Y-92775000D02*
X71600000Y-93125000D01*
X82100000Y-91225000D02*
X82100000Y-90225000D01*
D17*
X80370000Y-91625000D02*
X80370000Y-89385000D01*
D16*
X81500000Y-88125000D02*
X81500000Y-89924999D01*
D10*
X82100000Y-87625000D02*
X78820000Y-87625000D01*
X71600000Y-89525000D02*
X71600000Y-90525000D01*
X71600000Y-93125000D02*
X80000001Y-93125000D01*
X82100000Y-87625000D02*
X82100000Y-87985000D01*
X71600000Y-90525000D02*
X71800000Y-90525000D01*
D12*
X71900000Y-89825000D02*
X73300000Y-89825000D01*
D11*
X77000000Y-89925000D02*
G75*
G03*
X79216318Y-88046471I65001J2169999D01*
G01*
D10*
X80000001Y-93125001D02*
G75*
G03*
X82100000Y-91224999I100000J1999999D01*
G01*
X76600000Y-89525000D02*
G75*
G03*
X78816318Y-87646471I65001J2169999D01*
G01*
%TO.C,SWLH16*%
X147800000Y-72075000D02*
X156200001Y-72075000D01*
X158300000Y-69175000D02*
X158100000Y-69175000D01*
D15*
X158200000Y-69275001D02*
X158200000Y-70175000D01*
D10*
X148000000Y-71725000D02*
X147800000Y-71725000D01*
X148020000Y-69475000D02*
X148020000Y-71725000D01*
D17*
X156570000Y-70575000D02*
X156570000Y-68335000D01*
D10*
X158300000Y-66575000D02*
X155020000Y-66575000D01*
X158300000Y-70175000D02*
X158300000Y-69175000D01*
X158300000Y-66575000D02*
X158300000Y-66935000D01*
X147800000Y-68475000D02*
X147800000Y-69475000D01*
X147800000Y-71725000D02*
X147800000Y-72075000D01*
X158070000Y-69175000D02*
X158070000Y-66935000D01*
D13*
X149800000Y-70275000D02*
X156500000Y-70275000D01*
D10*
X147800000Y-69475000D02*
X148000000Y-69475000D01*
D14*
X148000000Y-69375000D02*
X148000000Y-68675000D01*
D12*
X158100000Y-66775000D02*
X155400000Y-66775000D01*
D11*
X148500000Y-71475000D02*
X148500000Y-68975000D01*
D12*
X148100000Y-68775000D02*
X149500000Y-68775000D01*
D10*
X152800000Y-68475000D02*
X147800000Y-68475000D01*
D14*
X148000000Y-71875000D02*
X149400000Y-71875000D01*
D10*
X158100000Y-66935000D02*
X158300000Y-66935000D01*
D16*
X157700000Y-67075000D02*
X157700000Y-68874999D01*
D10*
X156200001Y-72075001D02*
G75*
G03*
X158300000Y-70174999I100000J1999999D01*
G01*
X152800000Y-68475000D02*
G75*
G03*
X155016318Y-66596471I65001J2169999D01*
G01*
D11*
X153200000Y-68875000D02*
G75*
G03*
X155416318Y-66996471I65001J2169999D01*
G01*
D10*
%TO.C,SWLH58*%
X184542185Y-151597350D02*
X184229046Y-153825453D01*
X183962476Y-154141429D02*
X192280729Y-155310483D01*
D11*
X184739168Y-153644689D02*
X185087101Y-151169019D01*
D17*
X192855887Y-153876575D02*
X193167635Y-151658375D01*
D10*
X184209241Y-153822670D02*
X184011187Y-153794835D01*
D14*
X184188365Y-153971210D02*
X185574740Y-154166052D01*
D10*
X194536131Y-152698959D02*
X194847879Y-150480759D01*
D12*
X184718828Y-150915296D02*
X186105203Y-151110139D01*
D10*
X184011187Y-153794835D02*
X183962476Y-154141429D01*
X195125743Y-150156272D02*
X195075641Y-150512769D01*
D15*
X194650949Y-152816080D02*
X194525693Y-153707320D01*
D12*
X194899855Y-150326491D02*
X192226131Y-149950724D01*
D16*
X194461996Y-150567902D02*
X194211484Y-152350384D01*
D10*
X189414840Y-151272329D02*
X184463500Y-150576464D01*
X194877587Y-150484934D02*
X195075641Y-150512769D01*
X184463500Y-150576464D02*
X184324326Y-151566732D01*
D14*
X184536297Y-151495540D02*
X184633719Y-150802352D01*
D13*
X186193524Y-152637293D02*
X192828320Y-153569752D01*
D10*
X195125743Y-150156272D02*
X191877664Y-149699784D01*
X184324326Y-151566732D02*
X184522380Y-151594567D01*
X194624720Y-153721237D02*
X194763893Y-152730969D01*
X194763893Y-152730969D02*
X194565840Y-152703135D01*
X192280729Y-155310483D02*
G75*
G03*
X194624720Y-153721236I377373J1966617D01*
G01*
X189414840Y-151272329D02*
G75*
G03*
X191871030Y-149720534I366374J2139834D01*
G01*
D11*
X189755278Y-151724106D02*
G75*
G03*
X192211468Y-150172310I366374J2139834D01*
G01*
D10*
%TO.C,SWLH44*%
X114700000Y-118125000D02*
X109700000Y-118125000D01*
D14*
X109900000Y-121525000D02*
X111300000Y-121525000D01*
D10*
X109920000Y-119125000D02*
X109920000Y-121375000D01*
X109700000Y-121375000D02*
X109700000Y-121725000D01*
X109700000Y-118125000D02*
X109700000Y-119125000D01*
D17*
X118470000Y-120225000D02*
X118470000Y-117985000D01*
D11*
X110400000Y-121125000D02*
X110400000Y-118625000D01*
D13*
X111700000Y-119925000D02*
X118400000Y-119925000D01*
D10*
X120200000Y-119825000D02*
X120200000Y-118825000D01*
X120200000Y-116225000D02*
X116920000Y-116225000D01*
D12*
X120000000Y-116425000D02*
X117300000Y-116425000D01*
D10*
X109700000Y-119125000D02*
X109900000Y-119125000D01*
X120000000Y-116585000D02*
X120200000Y-116585000D01*
X120200000Y-116225000D02*
X120200000Y-116585000D01*
X109900000Y-121375000D02*
X109700000Y-121375000D01*
D12*
X110000000Y-118425000D02*
X111400000Y-118425000D01*
D14*
X109900000Y-119025000D02*
X109900000Y-118325000D01*
D15*
X120100000Y-118925001D02*
X120100000Y-119825000D01*
D10*
X109700000Y-121725000D02*
X118100001Y-121725000D01*
X119970000Y-118825000D02*
X119970000Y-116585000D01*
D16*
X119600000Y-116725000D02*
X119600000Y-118524999D01*
D10*
X120200000Y-118825000D02*
X120000000Y-118825000D01*
X114700000Y-118125000D02*
G75*
G03*
X116916318Y-116246471I65001J2169999D01*
G01*
D11*
X115100000Y-118525000D02*
G75*
G03*
X117316318Y-116646471I65001J2169999D01*
G01*
D10*
X118100001Y-121725001D02*
G75*
G03*
X120200000Y-119824999I100000J1999999D01*
G01*
D15*
%TO.C,SWLH52*%
X82000000Y-147475001D02*
X82000000Y-148375000D01*
D16*
X81500000Y-145275000D02*
X81500000Y-147074999D01*
D10*
X81870000Y-147375000D02*
X81870000Y-145135000D01*
X81900000Y-145135000D02*
X82100000Y-145135000D01*
X71600000Y-146675000D02*
X71600000Y-147675000D01*
X82100000Y-144775000D02*
X82100000Y-145135000D01*
X71800000Y-149925000D02*
X71600000Y-149925000D01*
D14*
X71800000Y-147575000D02*
X71800000Y-146875000D01*
D10*
X82100000Y-148375000D02*
X82100000Y-147375000D01*
D17*
X80370000Y-148775000D02*
X80370000Y-146535000D01*
D10*
X82100000Y-147375000D02*
X81900000Y-147375000D01*
X82100000Y-144775000D02*
X78820000Y-144775000D01*
D11*
X72300000Y-149675000D02*
X72300000Y-147175000D01*
D12*
X71900000Y-146975000D02*
X73300000Y-146975000D01*
X81900000Y-144975000D02*
X79200000Y-144975000D01*
D10*
X71600000Y-147675000D02*
X71800000Y-147675000D01*
X76600000Y-146675000D02*
X71600000Y-146675000D01*
X71600000Y-149925000D02*
X71600000Y-150275000D01*
X71600000Y-150275000D02*
X80000001Y-150275000D01*
D13*
X73600000Y-148475000D02*
X80300000Y-148475000D01*
D14*
X71800000Y-150075000D02*
X73200000Y-150075000D01*
D10*
X71820000Y-147675000D02*
X71820000Y-149925000D01*
X80000001Y-150275001D02*
G75*
G03*
X82100000Y-148374999I100000J1999999D01*
G01*
X76600000Y-146675000D02*
G75*
G03*
X78816318Y-144796471I65001J2169999D01*
G01*
D11*
X77000000Y-147075000D02*
G75*
G03*
X79216318Y-145196471I65001J2169999D01*
G01*
D14*
%TO.C,SWLH56*%
X156102420Y-157654497D02*
X156297262Y-156268122D01*
D10*
X153697942Y-157518536D02*
X153725777Y-157320482D01*
X155852447Y-147218142D02*
X154862179Y-147078969D01*
D12*
X153046506Y-157124034D02*
X153241349Y-155737659D01*
D10*
X153403539Y-152428022D02*
X152707674Y-157379362D01*
X155953880Y-157633621D02*
X155926045Y-157831675D01*
X153728560Y-157300677D02*
X155956663Y-157613816D01*
X152287482Y-146717119D02*
X152643979Y-146767221D01*
X152287482Y-146717119D02*
X151830994Y-149965198D01*
D14*
X153626750Y-157306565D02*
X152933562Y-157209143D01*
D11*
X155775899Y-157103694D02*
X153300229Y-156755761D01*
D10*
X154862179Y-147078969D02*
X154834345Y-147277022D01*
X152707674Y-157379362D02*
X153697942Y-157518536D01*
D15*
X154947290Y-147191913D02*
X155838530Y-147317169D01*
D10*
X156272639Y-157880386D02*
X157441693Y-149562133D01*
X154830169Y-147306731D02*
X152611969Y-146994983D01*
X152616144Y-146965275D02*
X152643979Y-146767221D01*
D17*
X156007785Y-148986975D02*
X153789585Y-148675227D01*
D10*
X155926045Y-157831675D02*
X156272639Y-157880386D01*
D12*
X152457701Y-146943007D02*
X152081934Y-149616731D01*
D16*
X152699112Y-147380866D02*
X154481594Y-147631378D01*
D13*
X154768503Y-155649338D02*
X155700962Y-149014542D01*
D10*
X153403539Y-152428022D02*
G75*
G03*
X151851744Y-149971832I-2139834J366374D01*
G01*
D11*
X153855316Y-152087584D02*
G75*
G03*
X152303520Y-149631394I-2139834J366374D01*
G01*
D10*
X157441693Y-149562133D02*
G75*
G03*
X155852446Y-147218142I-1966617J377373D01*
G01*
D17*
%TO.C,SWLH28*%
X197670000Y-92125000D02*
X197670000Y-89885000D01*
D10*
X188900000Y-93275000D02*
X188900000Y-93625000D01*
D12*
X189200000Y-90325000D02*
X190600000Y-90325000D01*
D10*
X193900000Y-90025000D02*
X188900000Y-90025000D01*
X188900000Y-90025000D02*
X188900000Y-91025000D01*
D14*
X189100000Y-90925000D02*
X189100000Y-90225000D01*
D10*
X199170000Y-90725000D02*
X199170000Y-88485000D01*
X189100000Y-93275000D02*
X188900000Y-93275000D01*
X199400000Y-90725000D02*
X199200000Y-90725000D01*
X189120000Y-91025000D02*
X189120000Y-93275000D01*
X188900000Y-91025000D02*
X189100000Y-91025000D01*
D14*
X189100000Y-93425000D02*
X190500000Y-93425000D01*
D10*
X199400000Y-91725000D02*
X199400000Y-90725000D01*
D13*
X190900000Y-91825000D02*
X197600000Y-91825000D01*
D15*
X199300000Y-90825001D02*
X199300000Y-91725000D01*
D10*
X188900000Y-93625000D02*
X197300001Y-93625000D01*
X199400000Y-88125000D02*
X199400000Y-88485000D01*
D16*
X198800000Y-88625000D02*
X198800000Y-90424999D01*
D12*
X199200000Y-88325000D02*
X196500000Y-88325000D01*
D10*
X199200000Y-88485000D02*
X199400000Y-88485000D01*
D11*
X189600000Y-93025000D02*
X189600000Y-90525000D01*
D10*
X199400000Y-88125000D02*
X196120000Y-88125000D01*
X193900000Y-90025000D02*
G75*
G03*
X196116318Y-88146471I65001J2169999D01*
G01*
X197300001Y-93625001D02*
G75*
G03*
X199400000Y-91724999I100000J1999999D01*
G01*
D11*
X194300000Y-90425000D02*
G75*
G03*
X196516318Y-88546471I65001J2169999D01*
G01*
D10*
%TO.C,SWLH26*%
X158300000Y-85625000D02*
X158300000Y-85985000D01*
X148000000Y-90775000D02*
X147800000Y-90775000D01*
D17*
X156570000Y-89625000D02*
X156570000Y-87385000D01*
D10*
X147800000Y-87525000D02*
X147800000Y-88525000D01*
X148020000Y-88525000D02*
X148020000Y-90775000D01*
D12*
X148100000Y-87825000D02*
X149500000Y-87825000D01*
D11*
X148500000Y-90525000D02*
X148500000Y-88025000D01*
D10*
X158100000Y-85985000D02*
X158300000Y-85985000D01*
X158300000Y-85625000D02*
X155020000Y-85625000D01*
D13*
X149800000Y-89325000D02*
X156500000Y-89325000D01*
D10*
X158300000Y-89225000D02*
X158300000Y-88225000D01*
X158300000Y-88225000D02*
X158100000Y-88225000D01*
D12*
X158100000Y-85825000D02*
X155400000Y-85825000D01*
D10*
X152800000Y-87525000D02*
X147800000Y-87525000D01*
X158070000Y-88225000D02*
X158070000Y-85985000D01*
D16*
X157700000Y-86125000D02*
X157700000Y-87924999D01*
D10*
X147800000Y-88525000D02*
X148000000Y-88525000D01*
D14*
X148000000Y-90925000D02*
X149400000Y-90925000D01*
D10*
X147800000Y-91125000D02*
X156200001Y-91125000D01*
X147800000Y-90775000D02*
X147800000Y-91125000D01*
D15*
X158200000Y-88325001D02*
X158200000Y-89225000D01*
D14*
X148000000Y-88425000D02*
X148000000Y-87725000D01*
D10*
X152800000Y-87525000D02*
G75*
G03*
X155016318Y-85646471I65001J2169999D01*
G01*
D11*
X153200000Y-87925000D02*
G75*
G03*
X155416318Y-86046471I65001J2169999D01*
G01*
D10*
X156200001Y-91125001D02*
G75*
G03*
X158300000Y-89224999I100000J1999999D01*
G01*
D16*
%TO.C,SWLH24*%
X119600000Y-78625000D02*
X119600000Y-80424999D01*
D10*
X120200000Y-78125000D02*
X116920000Y-78125000D01*
X109700000Y-83625000D02*
X118100001Y-83625000D01*
D15*
X120100000Y-80825001D02*
X120100000Y-81725000D01*
D10*
X109700000Y-83275000D02*
X109700000Y-83625000D01*
X120200000Y-81725000D02*
X120200000Y-80725000D01*
X109700000Y-80025000D02*
X109700000Y-81025000D01*
X109920000Y-81025000D02*
X109920000Y-83275000D01*
D14*
X109900000Y-83425000D02*
X111300000Y-83425000D01*
D12*
X120000000Y-78325000D02*
X117300000Y-78325000D01*
D17*
X118470000Y-82125000D02*
X118470000Y-79885000D01*
D10*
X120200000Y-78125000D02*
X120200000Y-78485000D01*
D11*
X110400000Y-83025000D02*
X110400000Y-80525000D01*
D10*
X109900000Y-83275000D02*
X109700000Y-83275000D01*
X114700000Y-80025000D02*
X109700000Y-80025000D01*
D12*
X110000000Y-80325000D02*
X111400000Y-80325000D01*
D10*
X120200000Y-80725000D02*
X120000000Y-80725000D01*
D13*
X111700000Y-81825000D02*
X118400000Y-81825000D01*
D10*
X119970000Y-80725000D02*
X119970000Y-78485000D01*
X120000000Y-78485000D02*
X120200000Y-78485000D01*
X109700000Y-81025000D02*
X109900000Y-81025000D01*
D14*
X109900000Y-80925000D02*
X109900000Y-80225000D01*
D11*
X115100000Y-80425000D02*
G75*
G03*
X117316318Y-78546471I65001J2169999D01*
G01*
D10*
X114700000Y-80025000D02*
G75*
G03*
X116916318Y-78146471I65001J2169999D01*
G01*
X118100001Y-83625001D02*
G75*
G03*
X120200000Y-81724999I100000J1999999D01*
G01*
%TO.C,SWLH7*%
X171850000Y-37925000D02*
X166850000Y-37925000D01*
X177350000Y-36025000D02*
X177350000Y-36385000D01*
D12*
X177150000Y-36225000D02*
X174450000Y-36225000D01*
D10*
X177120000Y-38625000D02*
X177120000Y-36385000D01*
D12*
X167150000Y-38225000D02*
X168550000Y-38225000D01*
D10*
X166850000Y-37925000D02*
X166850000Y-38925000D01*
D15*
X177250000Y-38725001D02*
X177250000Y-39625000D01*
D10*
X177150000Y-36385000D02*
X177350000Y-36385000D01*
X166850000Y-38925000D02*
X167050000Y-38925000D01*
D16*
X176750000Y-36525000D02*
X176750000Y-38324999D01*
D10*
X167070000Y-38925000D02*
X167070000Y-41175000D01*
X166850000Y-41175000D02*
X166850000Y-41525000D01*
D14*
X167050000Y-41325000D02*
X168450000Y-41325000D01*
X167050000Y-38825000D02*
X167050000Y-38125000D01*
D11*
X167550000Y-40925000D02*
X167550000Y-38425000D01*
D10*
X166850000Y-41525000D02*
X175250001Y-41525000D01*
X167050000Y-41175000D02*
X166850000Y-41175000D01*
X177350000Y-36025000D02*
X174070000Y-36025000D01*
D13*
X168850000Y-39725000D02*
X175550000Y-39725000D01*
D10*
X177350000Y-38625000D02*
X177150000Y-38625000D01*
X177350000Y-39625000D02*
X177350000Y-38625000D01*
D17*
X175620000Y-40025000D02*
X175620000Y-37785000D01*
D10*
X171850000Y-37925000D02*
G75*
G03*
X174066318Y-36046471I65001J2169999D01*
G01*
D11*
X172250000Y-38325000D02*
G75*
G03*
X174466318Y-36446471I65001J2169999D01*
G01*
D10*
X175250001Y-41525001D02*
G75*
G03*
X177350000Y-39624999I100000J1999999D01*
G01*
%TO.C,SWLH31*%
X55815000Y-116625000D02*
X55815000Y-112175000D01*
X45765000Y-117675000D02*
X53965001Y-117675000D01*
X55815000Y-112175000D02*
X52785000Y-112175000D01*
X45785000Y-115075000D02*
X45785000Y-117325000D01*
D12*
X45965000Y-114325000D02*
X47265000Y-114375000D01*
D10*
X50565000Y-114075000D02*
X45765000Y-114075000D01*
D11*
X46265000Y-117075000D02*
X46265000Y-114575000D01*
D17*
X54335000Y-116175000D02*
X54335000Y-113935000D01*
D10*
X56065000Y-115025000D02*
X55865000Y-115025000D01*
X56065000Y-115775000D02*
X56065000Y-115025000D01*
D16*
X55465000Y-112675000D02*
X55465000Y-114474999D01*
D10*
X45765000Y-114075000D02*
X45765000Y-117675000D01*
D13*
X47565000Y-115875000D02*
X54265000Y-115875000D01*
D12*
X55615000Y-112375000D02*
X53165000Y-112375000D01*
D14*
X45915000Y-117475000D02*
X47165000Y-117475000D01*
D15*
X55965000Y-115125000D02*
X55965000Y-115775000D01*
D10*
X53965001Y-117675001D02*
G75*
G03*
X56065000Y-115774999I100000J1999999D01*
G01*
X50565000Y-114075000D02*
G75*
G03*
X52781318Y-112196471I65001J2169999D01*
G01*
D11*
X50965000Y-114475000D02*
G75*
G03*
X53181318Y-112596471I65001J2169999D01*
G01*
D10*
%TO.C,SWLH41*%
X53525000Y-134075000D02*
X53325000Y-134075000D01*
X53275000Y-131225000D02*
X50245000Y-131225000D01*
X48025000Y-133125000D02*
X43225000Y-133125000D01*
D14*
X43375000Y-136525000D02*
X44625000Y-136525000D01*
D10*
X43245000Y-134125000D02*
X43245000Y-136375000D01*
X53525000Y-134825000D02*
X53525000Y-134075000D01*
D12*
X53075000Y-131425000D02*
X50625000Y-131425000D01*
D13*
X45025000Y-134925000D02*
X51725000Y-134925000D01*
D17*
X51795000Y-135225000D02*
X51795000Y-132985000D01*
D10*
X53275000Y-135675000D02*
X53275000Y-131225000D01*
D11*
X43725000Y-136125000D02*
X43725000Y-133625000D01*
D16*
X52925000Y-131725000D02*
X52925000Y-133524999D01*
D15*
X53425000Y-134175000D02*
X53425000Y-134825000D01*
D10*
X43225000Y-133125000D02*
X43225000Y-136725000D01*
D12*
X43425000Y-133375000D02*
X44725000Y-133425000D01*
D10*
X43225000Y-136725000D02*
X51425001Y-136725000D01*
D11*
X48425000Y-133525000D02*
G75*
G03*
X50641318Y-131646471I65001J2169999D01*
G01*
D10*
X51425001Y-136725001D02*
G75*
G03*
X53525000Y-134824999I100000J1999999D01*
G01*
X48025000Y-133125000D02*
G75*
G03*
X50241318Y-131246471I65001J2169999D01*
G01*
%TO.C,SWLH38*%
X188900000Y-112325000D02*
X188900000Y-112675000D01*
X199400000Y-110775000D02*
X199400000Y-109775000D01*
X188900000Y-112675000D02*
X197300001Y-112675000D01*
X193900000Y-109075000D02*
X188900000Y-109075000D01*
X199400000Y-107175000D02*
X199400000Y-107535000D01*
D14*
X189100000Y-112475000D02*
X190500000Y-112475000D01*
D15*
X199300000Y-109875001D02*
X199300000Y-110775000D01*
D11*
X189600000Y-112075000D02*
X189600000Y-109575000D01*
D10*
X188900000Y-109075000D02*
X188900000Y-110075000D01*
X199400000Y-107175000D02*
X196120000Y-107175000D01*
X189100000Y-112325000D02*
X188900000Y-112325000D01*
X199400000Y-109775000D02*
X199200000Y-109775000D01*
D16*
X198800000Y-107675000D02*
X198800000Y-109474999D01*
D10*
X199170000Y-109775000D02*
X199170000Y-107535000D01*
X189120000Y-110075000D02*
X189120000Y-112325000D01*
D17*
X197670000Y-111175000D02*
X197670000Y-108935000D01*
D10*
X199200000Y-107535000D02*
X199400000Y-107535000D01*
D12*
X199200000Y-107375000D02*
X196500000Y-107375000D01*
D10*
X188900000Y-110075000D02*
X189100000Y-110075000D01*
D13*
X190900000Y-110875000D02*
X197600000Y-110875000D01*
D12*
X189200000Y-109375000D02*
X190600000Y-109375000D01*
D14*
X189100000Y-109975000D02*
X189100000Y-109275000D01*
D11*
X194300000Y-109475000D02*
G75*
G03*
X196516318Y-107596471I65001J2169999D01*
G01*
D10*
X193900000Y-109075000D02*
G75*
G03*
X196116318Y-107196471I65001J2169999D01*
G01*
X197300001Y-112675001D02*
G75*
G03*
X199400000Y-110774999I100000J1999999D01*
G01*
%TO.C,SWLH6*%
X147800000Y-41525000D02*
X156200001Y-41525000D01*
X158300000Y-36025000D02*
X158300000Y-36385000D01*
X158100000Y-36385000D02*
X158300000Y-36385000D01*
X158300000Y-36025000D02*
X155020000Y-36025000D01*
D14*
X148000000Y-41325000D02*
X149400000Y-41325000D01*
D10*
X158300000Y-38625000D02*
X158100000Y-38625000D01*
D16*
X157700000Y-36525000D02*
X157700000Y-38324999D01*
D10*
X158070000Y-38625000D02*
X158070000Y-36385000D01*
D13*
X149800000Y-39725000D02*
X156500000Y-39725000D01*
D17*
X156570000Y-40025000D02*
X156570000Y-37785000D01*
D10*
X147800000Y-41175000D02*
X147800000Y-41525000D01*
X148000000Y-41175000D02*
X147800000Y-41175000D01*
D12*
X158100000Y-36225000D02*
X155400000Y-36225000D01*
D10*
X147800000Y-38925000D02*
X148000000Y-38925000D01*
D15*
X158200000Y-38725001D02*
X158200000Y-39625000D01*
D12*
X148100000Y-38225000D02*
X149500000Y-38225000D01*
D10*
X148020000Y-38925000D02*
X148020000Y-41175000D01*
X152800000Y-37925000D02*
X147800000Y-37925000D01*
X147800000Y-37925000D02*
X147800000Y-38925000D01*
D11*
X148500000Y-40925000D02*
X148500000Y-38425000D01*
D14*
X148000000Y-38825000D02*
X148000000Y-38125000D01*
D10*
X158300000Y-39625000D02*
X158300000Y-38625000D01*
D11*
X153200000Y-38325000D02*
G75*
G03*
X155416318Y-36446471I65001J2169999D01*
G01*
D10*
X152800000Y-37925000D02*
G75*
G03*
X155016318Y-36046471I65001J2169999D01*
G01*
X156200001Y-41525001D02*
G75*
G03*
X158300000Y-39624999I100000J1999999D01*
G01*
%TO.C,SWLH46*%
X158300000Y-127325000D02*
X158300000Y-126325000D01*
D11*
X148500000Y-128625000D02*
X148500000Y-126125000D01*
D10*
X158300000Y-123725000D02*
X158300000Y-124085000D01*
X147800000Y-128875000D02*
X147800000Y-129225000D01*
X158100000Y-124085000D02*
X158300000Y-124085000D01*
D14*
X148000000Y-129025000D02*
X149400000Y-129025000D01*
D10*
X147800000Y-125625000D02*
X147800000Y-126625000D01*
D17*
X156570000Y-127725000D02*
X156570000Y-125485000D01*
D16*
X157700000Y-124225000D02*
X157700000Y-126024999D01*
D14*
X148000000Y-126525000D02*
X148000000Y-125825000D01*
D10*
X148020000Y-126625000D02*
X148020000Y-128875000D01*
X158300000Y-126325000D02*
X158100000Y-126325000D01*
D13*
X149800000Y-127425000D02*
X156500000Y-127425000D01*
D10*
X147800000Y-129225000D02*
X156200001Y-129225000D01*
X152800000Y-125625000D02*
X147800000Y-125625000D01*
X158300000Y-123725000D02*
X155020000Y-123725000D01*
X148000000Y-128875000D02*
X147800000Y-128875000D01*
D12*
X158100000Y-123925000D02*
X155400000Y-123925000D01*
X148100000Y-125925000D02*
X149500000Y-125925000D01*
D15*
X158200000Y-126425001D02*
X158200000Y-127325000D01*
D10*
X158070000Y-126325000D02*
X158070000Y-124085000D01*
X147800000Y-126625000D02*
X148000000Y-126625000D01*
D11*
X153200000Y-126025000D02*
G75*
G03*
X155416318Y-124146471I65001J2169999D01*
G01*
D10*
X152800000Y-125625000D02*
G75*
G03*
X155016318Y-123746471I65001J2169999D01*
G01*
X156200001Y-129225001D02*
G75*
G03*
X158300000Y-127324999I100000J1999999D01*
G01*
D16*
%TO.C,SWLH21*%
X57846250Y-93625000D02*
X57846250Y-95424999D01*
D12*
X57996250Y-93325000D02*
X55546250Y-93325000D01*
D10*
X58196250Y-93125000D02*
X55166250Y-93125000D01*
X52946250Y-95025000D02*
X48146250Y-95025000D01*
D14*
X48296250Y-98425000D02*
X49546250Y-98425000D01*
D10*
X48146250Y-98625000D02*
X56346251Y-98625000D01*
X58446250Y-96725000D02*
X58446250Y-95975000D01*
D13*
X49946250Y-96825000D02*
X56646250Y-96825000D01*
D10*
X48166250Y-96025000D02*
X48166250Y-98275000D01*
X58196250Y-97575000D02*
X58196250Y-93125000D01*
D17*
X56716250Y-97125000D02*
X56716250Y-94885000D01*
D10*
X48146250Y-95025000D02*
X48146250Y-98625000D01*
D12*
X48346250Y-95275000D02*
X49646250Y-95325000D01*
D15*
X58346250Y-96075000D02*
X58346250Y-96725000D01*
D10*
X58446250Y-95975000D02*
X58246250Y-95975000D01*
D11*
X48646250Y-98025000D02*
X48646250Y-95525000D01*
D10*
X52946250Y-95025000D02*
G75*
G03*
X55162568Y-93146471I65001J2169999D01*
G01*
X56346251Y-98625001D02*
G75*
G03*
X58446250Y-96724999I100000J1999999D01*
G01*
D11*
X53346250Y-95425000D02*
G75*
G03*
X55562568Y-93546471I65001J2169999D01*
G01*
D10*
%TO.C,SWLH51*%
X60668750Y-153125000D02*
X60468750Y-153125000D01*
D15*
X60568750Y-153225000D02*
X60568750Y-153875000D01*
D10*
X50368750Y-155775000D02*
X58568751Y-155775000D01*
X55168750Y-152175000D02*
X50368750Y-152175000D01*
X60668750Y-153875000D02*
X60668750Y-153125000D01*
X60418750Y-150275000D02*
X57388750Y-150275000D01*
D13*
X52168750Y-153975000D02*
X58868750Y-153975000D01*
D12*
X50568750Y-152425000D02*
X51868750Y-152475000D01*
X60218750Y-150475000D02*
X57768750Y-150475000D01*
D11*
X50868750Y-155175000D02*
X50868750Y-152675000D01*
D10*
X50368750Y-152175000D02*
X50368750Y-155775000D01*
D16*
X60068750Y-150775000D02*
X60068750Y-152574999D01*
D17*
X58938750Y-154275000D02*
X58938750Y-152035000D01*
D10*
X60418750Y-154725000D02*
X60418750Y-150275000D01*
X50388750Y-153175000D02*
X50388750Y-155425000D01*
D14*
X50518750Y-155575000D02*
X51768750Y-155575000D01*
D10*
X55168750Y-152175000D02*
G75*
G03*
X57385068Y-150296471I65001J2169999D01*
G01*
D11*
X55568750Y-152575000D02*
G75*
G03*
X57785068Y-150696471I65001J2169999D01*
G01*
D10*
X58568751Y-155775001D02*
G75*
G03*
X60668750Y-153874999I100000J1999999D01*
G01*
%TO.C,SWLH34*%
X120200000Y-100775000D02*
X120200000Y-99775000D01*
X109920000Y-100075000D02*
X109920000Y-102325000D01*
X119970000Y-99775000D02*
X119970000Y-97535000D01*
X120200000Y-97175000D02*
X120200000Y-97535000D01*
X109700000Y-102325000D02*
X109700000Y-102675000D01*
X120200000Y-97175000D02*
X116920000Y-97175000D01*
D13*
X111700000Y-100875000D02*
X118400000Y-100875000D01*
D16*
X119600000Y-97675000D02*
X119600000Y-99474999D01*
D11*
X110400000Y-102075000D02*
X110400000Y-99575000D01*
D10*
X120200000Y-99775000D02*
X120000000Y-99775000D01*
X109900000Y-102325000D02*
X109700000Y-102325000D01*
D12*
X120000000Y-97375000D02*
X117300000Y-97375000D01*
D10*
X120000000Y-97535000D02*
X120200000Y-97535000D01*
D14*
X109900000Y-102475000D02*
X111300000Y-102475000D01*
D10*
X114700000Y-99075000D02*
X109700000Y-99075000D01*
D12*
X110000000Y-99375000D02*
X111400000Y-99375000D01*
D10*
X109700000Y-102675000D02*
X118100001Y-102675000D01*
D17*
X118470000Y-101175000D02*
X118470000Y-98935000D01*
D14*
X109900000Y-99975000D02*
X109900000Y-99275000D01*
D10*
X109700000Y-99075000D02*
X109700000Y-100075000D01*
X109700000Y-100075000D02*
X109900000Y-100075000D01*
D15*
X120100000Y-99875001D02*
X120100000Y-100775000D01*
D10*
X118100001Y-102675001D02*
G75*
G03*
X120200000Y-100774999I100000J1999999D01*
G01*
D11*
X115100000Y-99475000D02*
G75*
G03*
X117316318Y-97596471I65001J2169999D01*
G01*
D10*
X114700000Y-99075000D02*
G75*
G03*
X116916318Y-97196471I65001J2169999D01*
G01*
%TO.C,SWLH50*%
X36856250Y-153875000D02*
X36856250Y-153125000D01*
D12*
X36406250Y-150475000D02*
X33956250Y-150475000D01*
D10*
X36606250Y-154725000D02*
X36606250Y-150275000D01*
D14*
X26706250Y-155575000D02*
X27956250Y-155575000D01*
D17*
X35126250Y-154275000D02*
X35126250Y-152035000D01*
D12*
X26756250Y-152425000D02*
X28056250Y-152475000D01*
D10*
X26556250Y-152175000D02*
X26556250Y-155775000D01*
D13*
X28356250Y-153975000D02*
X35056250Y-153975000D01*
D15*
X36756250Y-153225000D02*
X36756250Y-153875000D01*
D10*
X36856250Y-153125000D02*
X36656250Y-153125000D01*
X26556250Y-155775000D02*
X34756251Y-155775000D01*
D11*
X27056250Y-155175000D02*
X27056250Y-152675000D01*
D16*
X36256250Y-150775000D02*
X36256250Y-152574999D01*
D10*
X31356250Y-152175000D02*
X26556250Y-152175000D01*
X36606250Y-150275000D02*
X33576250Y-150275000D01*
X26576250Y-153175000D02*
X26576250Y-155425000D01*
X31356250Y-152175000D02*
G75*
G03*
X33572568Y-150296471I65001J2169999D01*
G01*
D11*
X31756250Y-152575000D02*
G75*
G03*
X33972568Y-150696471I65001J2169999D01*
G01*
D10*
X34756251Y-155775001D02*
G75*
G03*
X36856250Y-153874999I100000J1999999D01*
G01*
%TO.C,SWLH37*%
X171850000Y-109075000D02*
X166850000Y-109075000D01*
D13*
X168850000Y-110875000D02*
X175550000Y-110875000D01*
D10*
X167070000Y-110075000D02*
X167070000Y-112325000D01*
X177350000Y-110775000D02*
X177350000Y-109775000D01*
X166850000Y-109075000D02*
X166850000Y-110075000D01*
X177350000Y-107175000D02*
X177350000Y-107535000D01*
X177120000Y-109775000D02*
X177120000Y-107535000D01*
X166850000Y-112675000D02*
X175250001Y-112675000D01*
X177350000Y-107175000D02*
X174070000Y-107175000D01*
D16*
X176750000Y-107675000D02*
X176750000Y-109474999D01*
D10*
X166850000Y-112325000D02*
X166850000Y-112675000D01*
X166850000Y-110075000D02*
X167050000Y-110075000D01*
X167050000Y-112325000D02*
X166850000Y-112325000D01*
D12*
X167150000Y-109375000D02*
X168550000Y-109375000D01*
D15*
X177250000Y-109875001D02*
X177250000Y-110775000D01*
D14*
X167050000Y-109975000D02*
X167050000Y-109275000D01*
D12*
X177150000Y-107375000D02*
X174450000Y-107375000D01*
D10*
X177150000Y-107535000D02*
X177350000Y-107535000D01*
D11*
X167550000Y-112075000D02*
X167550000Y-109575000D01*
D14*
X167050000Y-112475000D02*
X168450000Y-112475000D01*
D17*
X175620000Y-111175000D02*
X175620000Y-108935000D01*
D10*
X177350000Y-109775000D02*
X177150000Y-109775000D01*
D11*
X172250000Y-109475000D02*
G75*
G03*
X174466318Y-107596471I65001J2169999D01*
G01*
D10*
X171850000Y-109075000D02*
G75*
G03*
X174066318Y-107196471I65001J2169999D01*
G01*
X175250001Y-112675001D02*
G75*
G03*
X177350000Y-110774999I100000J1999999D01*
G01*
D14*
%TO.C,SWLH5*%
X124950000Y-41325000D02*
X126350000Y-41325000D01*
D10*
X124970000Y-38925000D02*
X124970000Y-41175000D01*
X135050000Y-36385000D02*
X135250000Y-36385000D01*
D12*
X135050000Y-36225000D02*
X132350000Y-36225000D01*
D10*
X135250000Y-36025000D02*
X131970000Y-36025000D01*
D17*
X133520000Y-40025000D02*
X133520000Y-37785000D01*
D10*
X135020000Y-38625000D02*
X135020000Y-36385000D01*
X124750000Y-41525000D02*
X133150001Y-41525000D01*
D15*
X135150000Y-38725001D02*
X135150000Y-39625000D01*
D10*
X135250000Y-39625000D02*
X135250000Y-38625000D01*
X135250000Y-38625000D02*
X135050000Y-38625000D01*
D16*
X134650000Y-36525000D02*
X134650000Y-38324999D01*
D13*
X126750000Y-39725000D02*
X133450000Y-39725000D01*
D10*
X124750000Y-38925000D02*
X124950000Y-38925000D01*
D12*
X125050000Y-38225000D02*
X126450000Y-38225000D01*
D14*
X124950000Y-38825000D02*
X124950000Y-38125000D01*
D10*
X124750000Y-37925000D02*
X124750000Y-38925000D01*
X124950000Y-41175000D02*
X124750000Y-41175000D01*
X129750000Y-37925000D02*
X124750000Y-37925000D01*
X124750000Y-41175000D02*
X124750000Y-41525000D01*
D11*
X125450000Y-40925000D02*
X125450000Y-38425000D01*
D10*
X135250000Y-36025000D02*
X135250000Y-36385000D01*
X133150001Y-41525001D02*
G75*
G03*
X135250000Y-39624999I100000J1999999D01*
G01*
X129750000Y-37925000D02*
G75*
G03*
X131966318Y-36046471I65001J2169999D01*
G01*
D11*
X130150000Y-38325000D02*
G75*
G03*
X132366318Y-36446471I65001J2169999D01*
G01*
D10*
%TO.C,SWLH42*%
X71600000Y-130875000D02*
X71600000Y-131225000D01*
X82100000Y-128325000D02*
X81900000Y-128325000D01*
X82100000Y-125725000D02*
X78820000Y-125725000D01*
X82100000Y-125725000D02*
X82100000Y-126085000D01*
D12*
X81900000Y-125925000D02*
X79200000Y-125925000D01*
D10*
X81900000Y-126085000D02*
X82100000Y-126085000D01*
D11*
X72300000Y-130625000D02*
X72300000Y-128125000D01*
D10*
X71600000Y-131225000D02*
X80000001Y-131225000D01*
D15*
X82000000Y-128425001D02*
X82000000Y-129325000D01*
D14*
X71800000Y-131025000D02*
X73200000Y-131025000D01*
D10*
X71600000Y-127625000D02*
X71600000Y-128625000D01*
X71820000Y-128625000D02*
X71820000Y-130875000D01*
D14*
X71800000Y-128525000D02*
X71800000Y-127825000D01*
D10*
X71800000Y-130875000D02*
X71600000Y-130875000D01*
D17*
X80370000Y-129725000D02*
X80370000Y-127485000D01*
D16*
X81500000Y-126225000D02*
X81500000Y-128024999D01*
D10*
X81870000Y-128325000D02*
X81870000Y-126085000D01*
D12*
X71900000Y-127925000D02*
X73300000Y-127925000D01*
D10*
X82100000Y-129325000D02*
X82100000Y-128325000D01*
X71600000Y-128625000D02*
X71800000Y-128625000D01*
X76600000Y-127625000D02*
X71600000Y-127625000D01*
D13*
X73600000Y-129425000D02*
X80300000Y-129425000D01*
D10*
X80000001Y-131225001D02*
G75*
G03*
X82100000Y-129324999I100000J1999999D01*
G01*
X76600000Y-127625000D02*
G75*
G03*
X78816318Y-125746471I65001J2169999D01*
G01*
D11*
X77000000Y-128025000D02*
G75*
G03*
X79216318Y-126146471I65001J2169999D01*
G01*
D16*
%TO.C,SWLH48*%
X197113244Y-131703296D02*
X196862732Y-133485778D01*
D14*
X186839613Y-135106604D02*
X188225988Y-135301446D01*
D10*
X197187379Y-133834353D02*
X197499127Y-131616153D01*
D12*
X187370076Y-132050690D02*
X188756451Y-132245533D01*
D10*
X197776991Y-131291666D02*
X194528912Y-130835178D01*
D13*
X188844772Y-133772687D02*
X195479568Y-134705146D01*
D10*
X192066088Y-132407723D02*
X187114748Y-131711858D01*
D14*
X187187545Y-132630934D02*
X187284967Y-131937746D01*
D10*
X187114748Y-131711858D02*
X186975574Y-132702126D01*
D17*
X195507135Y-135011969D02*
X195818883Y-132793769D01*
D10*
X186613724Y-135276823D02*
X194931977Y-136445877D01*
X187193433Y-132732744D02*
X186880294Y-134960847D01*
X197275968Y-134856631D02*
X197415141Y-133866363D01*
X197528835Y-131620328D02*
X197726889Y-131648163D01*
X186975574Y-132702126D02*
X187173628Y-132729961D01*
D11*
X187390416Y-134780083D02*
X187738349Y-132304413D01*
D15*
X197302197Y-133951474D02*
X197176941Y-134842714D01*
D10*
X197776991Y-131291666D02*
X197726889Y-131648163D01*
X197415141Y-133866363D02*
X197217088Y-133838529D01*
X186860489Y-134958064D02*
X186662435Y-134930229D01*
D12*
X197551103Y-131461885D02*
X194877379Y-131086118D01*
D10*
X186662435Y-134930229D02*
X186613724Y-135276823D01*
D11*
X192406526Y-132859500D02*
G75*
G03*
X194862716Y-131307704I366374J2139834D01*
G01*
D10*
X194931977Y-136445877D02*
G75*
G03*
X197275968Y-134856630I377373J1966617D01*
G01*
X192066088Y-132407723D02*
G75*
G03*
X194522278Y-130855928I366374J2139834D01*
G01*
%TO.C,SWLH32*%
X71600000Y-112175000D02*
X80000001Y-112175000D01*
X82100000Y-106675000D02*
X78820000Y-106675000D01*
X71820000Y-109575000D02*
X71820000Y-111825000D01*
D16*
X81500000Y-107175000D02*
X81500000Y-108974999D01*
D10*
X82100000Y-106675000D02*
X82100000Y-107035000D01*
D11*
X72300000Y-111575000D02*
X72300000Y-109075000D01*
D10*
X76600000Y-108575000D02*
X71600000Y-108575000D01*
X82100000Y-109275000D02*
X81900000Y-109275000D01*
X81900000Y-107035000D02*
X82100000Y-107035000D01*
X71800000Y-111825000D02*
X71600000Y-111825000D01*
D17*
X80370000Y-110675000D02*
X80370000Y-108435000D01*
D10*
X71600000Y-108575000D02*
X71600000Y-109575000D01*
D13*
X73600000Y-110375000D02*
X80300000Y-110375000D01*
D14*
X71800000Y-109475000D02*
X71800000Y-108775000D01*
D10*
X71600000Y-111825000D02*
X71600000Y-112175000D01*
D12*
X81900000Y-106875000D02*
X79200000Y-106875000D01*
D10*
X82100000Y-110275000D02*
X82100000Y-109275000D01*
X81870000Y-109275000D02*
X81870000Y-107035000D01*
X71600000Y-109575000D02*
X71800000Y-109575000D01*
D15*
X82000000Y-109375001D02*
X82000000Y-110275000D01*
D14*
X71800000Y-111975000D02*
X73200000Y-111975000D01*
D12*
X71900000Y-108875000D02*
X73300000Y-108875000D01*
D10*
X76600000Y-108575000D02*
G75*
G03*
X78816318Y-106696471I65001J2169999D01*
G01*
D11*
X77000000Y-108975000D02*
G75*
G03*
X79216318Y-107096471I65001J2169999D01*
G01*
D10*
X80000001Y-112175001D02*
G75*
G03*
X82100000Y-110274999I100000J1999999D01*
G01*
D17*
%TO.C,SWLH23*%
X99420000Y-86125000D02*
X99420000Y-83885000D01*
D10*
X90650000Y-85025000D02*
X90850000Y-85025000D01*
D12*
X100950000Y-82325000D02*
X98250000Y-82325000D01*
D10*
X90650000Y-84025000D02*
X90650000Y-85025000D01*
X101150000Y-84725000D02*
X100950000Y-84725000D01*
X90650000Y-87625000D02*
X99050001Y-87625000D01*
X101150000Y-82125000D02*
X97870000Y-82125000D01*
X90650000Y-87275000D02*
X90650000Y-87625000D01*
X90870000Y-85025000D02*
X90870000Y-87275000D01*
X101150000Y-85725000D02*
X101150000Y-84725000D01*
X90850000Y-87275000D02*
X90650000Y-87275000D01*
X101150000Y-82125000D02*
X101150000Y-82485000D01*
D16*
X100550000Y-82625000D02*
X100550000Y-84424999D01*
D15*
X101050000Y-84825001D02*
X101050000Y-85725000D01*
D13*
X92650000Y-85825000D02*
X99350000Y-85825000D01*
D10*
X95650000Y-84025000D02*
X90650000Y-84025000D01*
X100920000Y-84725000D02*
X100920000Y-82485000D01*
X100950000Y-82485000D02*
X101150000Y-82485000D01*
D11*
X91350000Y-87025000D02*
X91350000Y-84525000D01*
D14*
X90850000Y-87425000D02*
X92250000Y-87425000D01*
X90850000Y-84925000D02*
X90850000Y-84225000D01*
D12*
X90950000Y-84325000D02*
X92350000Y-84325000D01*
D10*
X99050001Y-87625001D02*
G75*
G03*
X101150000Y-85724999I100000J1999999D01*
G01*
D11*
X96050000Y-84425000D02*
G75*
G03*
X98266318Y-82546471I65001J2169999D01*
G01*
D10*
X95650000Y-84025000D02*
G75*
G03*
X97866318Y-82146471I65001J2169999D01*
G01*
D16*
%TO.C,SWLH36*%
X157700000Y-105175000D02*
X157700000Y-106974999D01*
D10*
X148020000Y-107575000D02*
X148020000Y-109825000D01*
X158300000Y-104675000D02*
X158300000Y-105035000D01*
D11*
X148500000Y-109575000D02*
X148500000Y-107075000D01*
D14*
X148000000Y-109975000D02*
X149400000Y-109975000D01*
D17*
X156570000Y-108675000D02*
X156570000Y-106435000D01*
D12*
X158100000Y-104875000D02*
X155400000Y-104875000D01*
D10*
X158300000Y-107275000D02*
X158100000Y-107275000D01*
X158070000Y-107275000D02*
X158070000Y-105035000D01*
X147800000Y-110175000D02*
X156200001Y-110175000D01*
X152800000Y-106575000D02*
X147800000Y-106575000D01*
X158300000Y-104675000D02*
X155020000Y-104675000D01*
X158300000Y-108275000D02*
X158300000Y-107275000D01*
D13*
X149800000Y-108375000D02*
X156500000Y-108375000D01*
D14*
X148000000Y-107475000D02*
X148000000Y-106775000D01*
D10*
X147800000Y-107575000D02*
X148000000Y-107575000D01*
X147800000Y-109825000D02*
X147800000Y-110175000D01*
D15*
X158200000Y-107375001D02*
X158200000Y-108275000D01*
D10*
X158100000Y-105035000D02*
X158300000Y-105035000D01*
X147800000Y-106575000D02*
X147800000Y-107575000D01*
D12*
X148100000Y-106875000D02*
X149500000Y-106875000D01*
D10*
X148000000Y-109825000D02*
X147800000Y-109825000D01*
D11*
X153200000Y-106975000D02*
G75*
G03*
X155416318Y-105096471I65001J2169999D01*
G01*
D10*
X152800000Y-106575000D02*
G75*
G03*
X155016318Y-104696471I65001J2169999D01*
G01*
X156200001Y-110175001D02*
G75*
G03*
X158300000Y-108274999I100000J1999999D01*
G01*
%TO.C,SWLH11*%
X52770000Y-76975000D02*
X52770000Y-79225000D01*
X62800000Y-74075000D02*
X59770000Y-74075000D01*
D14*
X52900000Y-79375000D02*
X54150000Y-79375000D01*
D12*
X62600000Y-74275000D02*
X60150000Y-74275000D01*
D10*
X52750000Y-75975000D02*
X52750000Y-79575000D01*
D17*
X61320000Y-78075000D02*
X61320000Y-75835000D01*
D15*
X62950000Y-77025000D02*
X62950000Y-77675000D01*
D13*
X54550000Y-77775000D02*
X61250000Y-77775000D01*
D10*
X63050000Y-77675000D02*
X63050000Y-76925000D01*
D16*
X62450000Y-74575000D02*
X62450000Y-76374999D01*
D12*
X52950000Y-76225000D02*
X54250000Y-76275000D01*
D10*
X63050000Y-76925000D02*
X62850000Y-76925000D01*
D11*
X53250000Y-78975000D02*
X53250000Y-76475000D01*
D10*
X52750000Y-79575000D02*
X60950001Y-79575000D01*
X57550000Y-75975000D02*
X52750000Y-75975000D01*
X62800000Y-78525000D02*
X62800000Y-74075000D01*
X60950001Y-79575001D02*
G75*
G03*
X63050000Y-77674999I100000J1999999D01*
G01*
X57550000Y-75975000D02*
G75*
G03*
X59766318Y-74096471I65001J2169999D01*
G01*
D11*
X57950000Y-76375000D02*
G75*
G03*
X60166318Y-74496471I65001J2169999D01*
G01*
D10*
%TO.C,SWLH17*%
X171850000Y-70975000D02*
X166850000Y-70975000D01*
X166850000Y-71975000D02*
X167050000Y-71975000D01*
X177350000Y-72675000D02*
X177350000Y-71675000D01*
X166850000Y-74575000D02*
X175250001Y-74575000D01*
D15*
X177250000Y-71775001D02*
X177250000Y-72675000D01*
D10*
X177120000Y-71675000D02*
X177120000Y-69435000D01*
D14*
X167050000Y-74375000D02*
X168450000Y-74375000D01*
D11*
X167550000Y-73975000D02*
X167550000Y-71475000D01*
D14*
X167050000Y-71875000D02*
X167050000Y-71175000D01*
D10*
X166850000Y-70975000D02*
X166850000Y-71975000D01*
D16*
X176750000Y-69575000D02*
X176750000Y-71374999D01*
D10*
X166850000Y-74225000D02*
X166850000Y-74575000D01*
X177150000Y-69435000D02*
X177350000Y-69435000D01*
X177350000Y-71675000D02*
X177150000Y-71675000D01*
D17*
X175620000Y-73075000D02*
X175620000Y-70835000D01*
D12*
X177150000Y-69275000D02*
X174450000Y-69275000D01*
D10*
X167050000Y-74225000D02*
X166850000Y-74225000D01*
X177350000Y-69075000D02*
X177350000Y-69435000D01*
X167070000Y-71975000D02*
X167070000Y-74225000D01*
X177350000Y-69075000D02*
X174070000Y-69075000D01*
D13*
X168850000Y-72775000D02*
X175550000Y-72775000D01*
D12*
X167150000Y-71275000D02*
X168550000Y-71275000D01*
D10*
X175250001Y-74575001D02*
G75*
G03*
X177350000Y-72674999I100000J1999999D01*
G01*
X171850000Y-70975000D02*
G75*
G03*
X174066318Y-69096471I65001J2169999D01*
G01*
D11*
X172250000Y-71375000D02*
G75*
G03*
X174466318Y-69496471I65001J2169999D01*
G01*
D16*
%TO.C,SWLH54*%
X119600000Y-135775000D02*
X119600000Y-137574999D01*
D10*
X120200000Y-137875000D02*
X120000000Y-137875000D01*
X109700000Y-140775000D02*
X118100001Y-140775000D01*
D14*
X109900000Y-140575000D02*
X111300000Y-140575000D01*
D17*
X118470000Y-139275000D02*
X118470000Y-137035000D01*
D10*
X120200000Y-135275000D02*
X120200000Y-135635000D01*
D15*
X120100000Y-137975001D02*
X120100000Y-138875000D01*
D10*
X109700000Y-138175000D02*
X109900000Y-138175000D01*
D12*
X120000000Y-135475000D02*
X117300000Y-135475000D01*
D10*
X109700000Y-137175000D02*
X109700000Y-138175000D01*
X109700000Y-140425000D02*
X109700000Y-140775000D01*
D13*
X111700000Y-138975000D02*
X118400000Y-138975000D01*
D11*
X110400000Y-140175000D02*
X110400000Y-137675000D01*
D10*
X109900000Y-140425000D02*
X109700000Y-140425000D01*
X114700000Y-137175000D02*
X109700000Y-137175000D01*
D14*
X109900000Y-138075000D02*
X109900000Y-137375000D01*
D12*
X110000000Y-137475000D02*
X111400000Y-137475000D01*
D10*
X119970000Y-137875000D02*
X119970000Y-135635000D01*
X109920000Y-138175000D02*
X109920000Y-140425000D01*
X120000000Y-135635000D02*
X120200000Y-135635000D01*
X120200000Y-138875000D02*
X120200000Y-137875000D01*
X120200000Y-135275000D02*
X116920000Y-135275000D01*
X118100001Y-140775001D02*
G75*
G03*
X120200000Y-138874999I100000J1999999D01*
G01*
X114700000Y-137175000D02*
G75*
G03*
X116916318Y-135296471I65001J2169999D01*
G01*
D11*
X115100000Y-137575000D02*
G75*
G03*
X117316318Y-135696471I65001J2169999D01*
G01*
D14*
%TO.C,SWLH18*%
X189100000Y-74375000D02*
X190500000Y-74375000D01*
D13*
X190900000Y-72775000D02*
X197600000Y-72775000D01*
D16*
X198800000Y-69575000D02*
X198800000Y-71374999D01*
D15*
X199300000Y-71775001D02*
X199300000Y-72675000D01*
D12*
X189200000Y-71275000D02*
X190600000Y-71275000D01*
D10*
X188900000Y-71975000D02*
X189100000Y-71975000D01*
X199400000Y-71675000D02*
X199200000Y-71675000D01*
X188900000Y-70975000D02*
X188900000Y-71975000D01*
X199400000Y-72675000D02*
X199400000Y-71675000D01*
X199400000Y-69075000D02*
X196120000Y-69075000D01*
X199170000Y-71675000D02*
X199170000Y-69435000D01*
D12*
X199200000Y-69275000D02*
X196500000Y-69275000D01*
D10*
X189120000Y-71975000D02*
X189120000Y-74225000D01*
X188900000Y-74575000D02*
X197300001Y-74575000D01*
D14*
X189100000Y-71875000D02*
X189100000Y-71175000D01*
D10*
X188900000Y-74225000D02*
X188900000Y-74575000D01*
X189100000Y-74225000D02*
X188900000Y-74225000D01*
X193900000Y-70975000D02*
X188900000Y-70975000D01*
X199400000Y-69075000D02*
X199400000Y-69435000D01*
D11*
X189600000Y-73975000D02*
X189600000Y-71475000D01*
D10*
X199200000Y-69435000D02*
X199400000Y-69435000D01*
D17*
X197670000Y-73075000D02*
X197670000Y-70835000D01*
D10*
X197300001Y-74575001D02*
G75*
G03*
X199400000Y-72674999I100000J1999999D01*
G01*
X193900000Y-70975000D02*
G75*
G03*
X196116318Y-69096471I65001J2169999D01*
G01*
D11*
X194300000Y-71375000D02*
G75*
G03*
X196516318Y-69496471I65001J2169999D01*
G01*
D13*
%TO.C,SWLH25*%
X130750000Y-86825000D02*
X137450000Y-86825000D01*
D10*
X128750000Y-86025000D02*
X128950000Y-86025000D01*
X128750000Y-88625000D02*
X137150001Y-88625000D01*
X139020000Y-85725000D02*
X139020000Y-83485000D01*
D14*
X128950000Y-85925000D02*
X128950000Y-85225000D01*
D10*
X128950000Y-88275000D02*
X128750000Y-88275000D01*
D15*
X139150000Y-85825001D02*
X139150000Y-86725000D01*
D10*
X128750000Y-88275000D02*
X128750000Y-88625000D01*
D11*
X129450000Y-88025000D02*
X129450000Y-85525000D01*
D10*
X128970000Y-86025000D02*
X128970000Y-88275000D01*
D17*
X137520000Y-87125000D02*
X137520000Y-84885000D01*
D10*
X139050000Y-83485000D02*
X139250000Y-83485000D01*
X133750000Y-85025000D02*
X128750000Y-85025000D01*
X139250000Y-86725000D02*
X139250000Y-85725000D01*
X139250000Y-85725000D02*
X139050000Y-85725000D01*
D16*
X138650000Y-83625000D02*
X138650000Y-85424999D01*
D10*
X128750000Y-85025000D02*
X128750000Y-86025000D01*
X139250000Y-83125000D02*
X135970000Y-83125000D01*
D14*
X128950000Y-88425000D02*
X130350000Y-88425000D01*
D12*
X139050000Y-83325000D02*
X136350000Y-83325000D01*
D10*
X139250000Y-83125000D02*
X139250000Y-83485000D01*
D12*
X129050000Y-85325000D02*
X130450000Y-85325000D01*
D11*
X134150000Y-85425000D02*
G75*
G03*
X136366318Y-83546471I65001J2169999D01*
G01*
D10*
X133750000Y-85025000D02*
G75*
G03*
X135966318Y-83146471I65001J2169999D01*
G01*
X137150001Y-88625001D02*
G75*
G03*
X139250000Y-86724999I100000J1999999D01*
G01*
D12*
%TO.C,SWLH1*%
X54600000Y-36225000D02*
X52150000Y-36225000D01*
X44950000Y-38175000D02*
X46250000Y-38225000D01*
D17*
X53320000Y-40025000D02*
X53320000Y-37785000D01*
D10*
X49550000Y-37925000D02*
X44750000Y-37925000D01*
X55050000Y-39625000D02*
X55050000Y-38875000D01*
X44770000Y-38925000D02*
X44770000Y-41175000D01*
X54800000Y-40475000D02*
X54800000Y-36025000D01*
X44750000Y-37925000D02*
X44750000Y-41525000D01*
D15*
X54950000Y-38975000D02*
X54950000Y-39625000D01*
D16*
X54450000Y-36525000D02*
X54450000Y-38324999D01*
D11*
X45250000Y-40925000D02*
X45250000Y-38425000D01*
D10*
X54800000Y-36025000D02*
X51770000Y-36025000D01*
D14*
X44900000Y-41325000D02*
X46150000Y-41325000D01*
D10*
X44750000Y-41525000D02*
X52950001Y-41525000D01*
D13*
X46550000Y-39725000D02*
X53250000Y-39725000D01*
D10*
X55050000Y-38875000D02*
X54850000Y-38875000D01*
X52950001Y-41525001D02*
G75*
G03*
X55050000Y-39624999I100000J1999999D01*
G01*
X49550000Y-37925000D02*
G75*
G03*
X51766318Y-36046471I65001J2169999D01*
G01*
D11*
X49950000Y-38325000D02*
G75*
G03*
X52166318Y-36446471I65001J2169999D01*
G01*
D10*
%TO.C,SWLH13*%
X90650000Y-68225000D02*
X90650000Y-68575000D01*
D12*
X100950000Y-63275000D02*
X98250000Y-63275000D01*
D10*
X101150000Y-66675000D02*
X101150000Y-65675000D01*
X100920000Y-65675000D02*
X100920000Y-63435000D01*
X90650000Y-68575000D02*
X99050001Y-68575000D01*
D13*
X92650000Y-66775000D02*
X99350000Y-66775000D01*
D10*
X101150000Y-63075000D02*
X97870000Y-63075000D01*
D14*
X90850000Y-65875000D02*
X90850000Y-65175000D01*
D10*
X100950000Y-63435000D02*
X101150000Y-63435000D01*
D12*
X90950000Y-65275000D02*
X92350000Y-65275000D01*
D15*
X101050000Y-65775001D02*
X101050000Y-66675000D01*
D10*
X90870000Y-65975000D02*
X90870000Y-68225000D01*
D17*
X99420000Y-67075000D02*
X99420000Y-64835000D01*
D10*
X90650000Y-65975000D02*
X90850000Y-65975000D01*
X101150000Y-63075000D02*
X101150000Y-63435000D01*
X90850000Y-68225000D02*
X90650000Y-68225000D01*
X90650000Y-64975000D02*
X90650000Y-65975000D01*
X95650000Y-64975000D02*
X90650000Y-64975000D01*
X101150000Y-65675000D02*
X100950000Y-65675000D01*
D14*
X90850000Y-68375000D02*
X92250000Y-68375000D01*
D11*
X91350000Y-67975000D02*
X91350000Y-65475000D01*
D16*
X100550000Y-63575000D02*
X100550000Y-65374999D01*
D10*
X95650000Y-64975000D02*
G75*
G03*
X97866318Y-63096471I65001J2169999D01*
G01*
X99050001Y-68575001D02*
G75*
G03*
X101150000Y-66674999I100000J1999999D01*
G01*
D11*
X96050000Y-65375000D02*
G75*
G03*
X98266318Y-63496471I65001J2169999D01*
G01*
D10*
%TO.C,R1*%
X63412500Y-49006250D02*
X63412500Y-51006250D01*
X60412500Y-49006250D02*
X63412500Y-49006250D01*
X63412500Y-51006250D02*
X60412500Y-51006250D01*
X60412500Y-51006250D02*
X60412500Y-49006250D01*
D16*
%TO.C,SWLH15*%
X138650000Y-64575000D02*
X138650000Y-66374999D01*
D10*
X139250000Y-64075000D02*
X135970000Y-64075000D01*
D14*
X128950000Y-66875000D02*
X128950000Y-66175000D01*
D10*
X128750000Y-69575000D02*
X137150001Y-69575000D01*
X128950000Y-69225000D02*
X128750000Y-69225000D01*
X139020000Y-66675000D02*
X139020000Y-64435000D01*
D12*
X129050000Y-66275000D02*
X130450000Y-66275000D01*
D17*
X137520000Y-68075000D02*
X137520000Y-65835000D01*
D13*
X130750000Y-67775000D02*
X137450000Y-67775000D01*
D10*
X128750000Y-69225000D02*
X128750000Y-69575000D01*
X133750000Y-65975000D02*
X128750000Y-65975000D01*
X139250000Y-66675000D02*
X139050000Y-66675000D01*
X128750000Y-65975000D02*
X128750000Y-66975000D01*
D12*
X139050000Y-64275000D02*
X136350000Y-64275000D01*
D10*
X139050000Y-64435000D02*
X139250000Y-64435000D01*
D15*
X139150000Y-66775001D02*
X139150000Y-67675000D01*
D10*
X128970000Y-66975000D02*
X128970000Y-69225000D01*
X128750000Y-66975000D02*
X128950000Y-66975000D01*
X139250000Y-67675000D02*
X139250000Y-66675000D01*
D11*
X129450000Y-68975000D02*
X129450000Y-66475000D01*
D10*
X139250000Y-64075000D02*
X139250000Y-64435000D01*
D14*
X128950000Y-69375000D02*
X130350000Y-69375000D01*
D11*
X134150000Y-66375000D02*
G75*
G03*
X136366318Y-64496471I65001J2169999D01*
G01*
D10*
X133750000Y-65975000D02*
G75*
G03*
X135966318Y-64096471I65001J2169999D01*
G01*
X137150001Y-69575001D02*
G75*
G03*
X139250000Y-67674999I100000J1999999D01*
G01*
D18*
%TO.C,ULH1*%
X160496250Y-26828750D02*
X160496250Y-77628750D01*
X178336250Y-77688750D02*
X178336250Y-29368750D01*
X160496250Y-77628750D02*
X163036250Y-77628750D01*
X180761250Y-78803750D02*
X180761250Y-25653750D01*
X158011250Y-25653750D02*
X158011250Y-78803750D01*
X178336250Y-29368750D02*
X175676250Y-29368750D01*
X164244250Y-73877750D02*
X164244250Y-71217750D01*
X178336250Y-26768750D02*
X177006250Y-26768750D01*
X174524250Y-73877750D02*
X164244250Y-73877750D01*
X163036250Y-77628750D02*
X163036250Y-26828750D01*
X175676250Y-29368750D02*
X175676250Y-77688750D01*
X175676250Y-77688750D02*
X178336250Y-77688750D01*
X178336250Y-28098750D02*
X178336250Y-26768750D01*
X174524250Y-71217750D02*
X174524250Y-73877750D01*
X180761250Y-25653750D02*
X158011250Y-25653750D01*
X158011250Y-78803750D02*
X180761250Y-78803750D01*
X163036250Y-26828750D02*
X160496250Y-26828750D01*
X164244250Y-71217750D02*
X174524250Y-71217750D01*
%TD*%
M02*
