M48
; DRILL file {KiCad (6.0.5-0)} date Thursday, January 19, 2023 at 06:28:10 PM
; FORMAT={-:-/ absolute / inch / decimal}
; #@! TF.CreationDate,2023-01-19T18:28:10-08:00
; #@! TF.GenerationSoftware,Kicad,Pcbnew,(6.0.5-0)
; #@! TF.FileFunction,Plated,1,2,PTH
FMAT,2
INCH
; #@! TA.AperFunction,Plated,PTH,ComponentDrill
T1C0.0118
; #@! TA.AperFunction,Plated,PTH,ViaDrill
T2C0.0157
; #@! TA.AperFunction,Plated,PTH,ComponentDrill
T3C0.0157
; #@! TA.AperFunction,Plated,PTH,ComponentDrill
T4C0.0300
; #@! TA.AperFunction,Plated,PTH,ComponentDrill
T5C0.0315
; #@! TA.AperFunction,Plated,PTH,ComponentDrill
T6C0.0320
; #@! TA.AperFunction,Plated,PTH,ComponentDrill
T7C0.0394
; #@! TA.AperFunction,Plated,PTH,ComponentDrill
T8C0.0433
; #@! TA.AperFunction,Plated,PTH,ComponentDrill
T9C0.0807
; #@! TA.AperFunction,Plated,PTH,ComponentDrill
T10C0.0866
%
G90
G05
T1
X2.2413Y-2.32
X2.2413Y-2.4381
X2.32Y-2.32
X2.32Y-2.4381
T2
X2.47Y-3.195
X2.605Y-2.975
X3.1869Y-1.6894
X3.33Y-1.715
X3.74Y-4.18
X3.79Y-4.1526
X3.8452Y-1.7452
X4.779Y-2.5729
X4.8075Y-1.68
X4.87Y-2.29
X5.365Y-1.24
X5.4058Y-1.2386
X5.4735Y-2.7792
X6.195Y-1.195
X6.245Y-1.695
X6.97Y-5.205
X7.045Y-5.095
X7.1648Y-3.0087
X7.2063Y-3.0507
X7.868Y-2.9981
T3
X1.62Y-5.505
X1.6391Y-5.4591
X1.6391Y-5.5509
X1.685Y-5.44
X1.685Y-5.57
X1.7309Y-5.4591
X1.7309Y-5.5509
X1.75Y-5.505
X1.87Y-4.0
X1.8891Y-3.9541
X1.8891Y-4.0459
X1.935Y-3.935
X1.935Y-4.065
X1.9809Y-3.9541
X1.9809Y-4.0459
X2.0Y-4.0
X2.245Y-1.747
X2.2641Y-1.7011
X2.2641Y-1.793
X2.31Y-1.6821
X2.31Y-1.812
X2.3559Y-1.7011
X2.3559Y-1.793
X2.375Y-1.747
X3.5391Y-3.7609
X3.5581Y-3.715
X3.5581Y-3.8069
X3.6041Y-3.696
X3.6041Y-3.8259
X3.65Y-3.715
X3.65Y-3.8069
X3.669Y-3.7609
X4.1225Y-6.125
X4.1416Y-6.0791
X4.1416Y-6.1709
X4.1875Y-6.06
X4.1875Y-6.19
X4.2334Y-6.0791
X4.2334Y-6.1709
X4.2525Y-6.125
X4.57Y-1.905
X4.5891Y-1.8591
X4.5891Y-1.9509
X4.635Y-1.84
X4.635Y-1.97
X4.6809Y-1.8591
X4.6809Y-1.9509
X4.7Y-1.905
X5.185Y-5.4062
X5.2041Y-5.3603
X5.2041Y-5.4522
X5.25Y-5.3413
X5.25Y-5.4712
X5.2959Y-5.3603
X5.2959Y-5.4522
X5.315Y-5.4062
X5.338Y-3.6
X5.357Y-3.557
X5.357Y-3.643
X5.4Y-3.538
X5.4Y-3.662
X5.443Y-3.557
X5.443Y-3.643
X5.462Y-3.6
X6.89Y-2.04
X6.9091Y-1.9941
X6.9091Y-2.0859
X6.955Y-1.975
X6.955Y-2.105
X6.9921Y-6.163
X7.0009Y-1.9941
X7.0009Y-2.0859
X7.0111Y-6.117
X7.0111Y-6.2089
X7.02Y-2.04
X7.057Y-6.098
X7.057Y-6.2279
X7.103Y-6.117
X7.103Y-6.2089
X7.115Y-3.685
X7.122Y-6.163
X7.1341Y-3.6391
X7.1341Y-3.7309
X7.18Y-3.62
X7.18Y-3.75
X7.2259Y-3.6391
X7.2259Y-3.7309
X7.245Y-3.685
T4
X3.115Y-1.79
X3.115Y-2.23
T5
X2.6554Y-1.7355
X3.0554Y-1.7355
T6
X0.9058Y-5.5694
X0.9058Y-5.8057
X1.562Y-4.8194
X1.562Y-5.0557
X1.622Y-1.0714
X1.622Y-1.3076
X1.662Y-4.0694
X1.662Y-4.3057
X1.7558Y-3.3194
X1.7558Y-3.5557
X1.8433Y-5.5694
X1.8433Y-5.8057
X1.937Y-2.5694
X1.937Y-2.8057
X2.5295Y-1.0714
X2.5295Y-1.3076
X2.687Y-2.3529
X2.687Y-2.5891
X2.687Y-3.1029
X2.687Y-3.3391
X2.687Y-3.8529
X2.687Y-4.0891
X2.687Y-4.6029
X2.687Y-4.8391
X2.687Y-5.3529
X2.687Y-5.5891
X3.3976Y-3.2573
X3.3976Y-3.4935
X3.437Y-3.6364
X3.437Y-3.8726
X3.437Y-4.3864
X3.437Y-4.6226
X3.437Y-5.1364
X3.437Y-5.3726
X3.525Y-1.6969
X3.525Y-1.9331
X3.745Y-1.8638
X3.745Y-2.1
X4.187Y-1.9789
X4.187Y-2.2151
X4.187Y-2.7289
X4.187Y-2.9651
X4.187Y-3.4789
X4.187Y-3.7151
X4.187Y-4.2289
X4.187Y-4.4651
X4.187Y-4.9789
X4.187Y-5.2151
X4.6555Y-1.0714
X4.6555Y-1.3076
X4.7795Y-1.0714
X4.7795Y-1.3076
X4.8436Y-6.0678
X4.8764Y-5.8338
X4.937Y-2.1757
X4.937Y-2.412
X4.937Y-2.9257
X4.937Y-3.162
X4.937Y-3.6757
X4.937Y-3.912
X4.937Y-4.4257
X4.937Y-4.662
X5.6236Y-5.897
X5.6564Y-5.663
X5.687Y-1.0714
X5.687Y-1.3076
X5.687Y-2.2742
X5.687Y-2.5104
X5.687Y-3.0242
X5.687Y-3.2604
X5.687Y-3.7742
X5.687Y-4.0104
X5.687Y-4.5242
X5.687Y-4.7604
X6.3671Y-6.0039
X6.4Y-5.77
X6.437Y-1.0714
X6.437Y-1.3076
X6.437Y-2.3726
X6.437Y-2.6088
X6.437Y-3.1226
X6.437Y-3.3588
X6.437Y-3.8726
X6.437Y-4.1088
X6.9886Y-6.747
X7.0214Y-6.513
X7.1633Y-5.7378
X7.165Y-4.5869
X7.165Y-4.8231
X7.1962Y-5.5038
X7.27Y-4.99
X7.3029Y-4.7561
X7.3051Y-2.3726
X7.3051Y-2.6088
X7.3051Y-3.1226
X7.3051Y-3.3588
X7.3051Y-3.8726
X7.3051Y-4.1088
X7.3837Y-2.2363
X7.5837Y-2.2363
T7
X2.905Y-1.93
X2.905Y-2.03
X3.398Y-1.0963
X3.398Y-1.1963
X3.398Y-1.2963
X3.398Y-1.3963
X3.398Y-1.4963
X3.398Y-1.5963
X3.398Y-1.6963
X3.398Y-1.7963
X3.398Y-1.8963
X3.398Y-1.9963
X3.398Y-2.0963
X3.398Y-2.1963
X3.398Y-2.2963
X3.398Y-2.3963
X3.398Y-2.4963
X3.398Y-2.5963
X3.398Y-2.6963
X3.398Y-2.7963
X3.398Y-2.8963
X3.398Y-2.9963
X3.548Y-2.8462
X3.648Y-2.8462
X3.748Y-2.8462
X3.848Y-2.8462
X3.998Y-1.0963
X3.998Y-1.1963
X3.998Y-1.2963
X3.998Y-1.3963
X3.998Y-1.4963
X3.998Y-1.5963
X3.998Y-1.6963
X3.998Y-1.7963
X3.998Y-1.8963
X3.998Y-1.9963
X3.998Y-2.0963
X3.998Y-2.1963
X3.998Y-2.2963
X3.998Y-2.3963
X3.998Y-2.4963
X3.998Y-2.5963
X3.998Y-2.6963
X3.998Y-2.7963
X3.998Y-2.8963
X3.998Y-2.9963
X6.6516Y-4.6309
X6.6516Y-5.2018
X6.75Y-4.6309
X6.8484Y-4.6309
X6.8484Y-5.2018
T8
X2.6861Y-1.93
X2.6861Y-2.03
X2.6861Y-2.13
T9
X5.4Y-3.6
T10
X1.685Y-5.505
X1.935Y-4.0
X2.31Y-1.747
X3.6041Y-3.7609
X4.1875Y-6.125
X4.635Y-1.905
X5.25Y-5.4062
X6.955Y-2.04
X7.057Y-6.163
X7.18Y-3.685
T7
G00X7.1561Y-1.8693
M15
G01X7.1398Y-1.8802
M16
G05
G00X7.1669Y-1.7792
M15
G01X7.1505Y-1.7901
M16
G05
G00X7.2098Y-1.9494
M15
G01X7.1934Y-1.9604
M16
G05
G00X7.2972Y-1.9738
M15
G01X7.2808Y-1.9848
M16
G05
G00X7.2977Y-1.6915
M15
G01X7.2814Y-1.7025
M16
G05
G00X7.3959Y-1.6258
M15
G01X7.3795Y-1.6368
M16
G05
G00X7.4281Y-1.8862
M15
G01X7.4117Y-1.8972
M16
G05
G00X7.5262Y-1.8205
M15
G01X7.5099Y-1.8315
M16
G05
T0
M30
