%TF.GenerationSoftware,KiCad,Pcbnew,(6.0.5-0)*%
%TF.CreationDate,2023-02-03T13:19:04-08:00*%
%TF.ProjectId,ergodonk_pcb,6572676f-646f-46e6-9b5f-7063622e6b69,rev?*%
%TF.SameCoordinates,Original*%
%TF.FileFunction,Soldermask,Bot*%
%TF.FilePolarity,Negative*%
%FSLAX46Y46*%
G04 Gerber Fmt 4.6, Leading zero omitted, Abs format (unit mm)*
G04 Created by KiCad (PCBNEW (6.0.5-0)) date 2023-02-03 13:19:04*
%MOMM*%
%LPD*%
G01*
G04 APERTURE LIST*
G04 Aperture macros list*
%AMHorizOval*
0 Thick line with rounded ends*
0 $1 width*
0 $2 $3 position (X,Y) of the first rounded end (center of the circle)*
0 $4 $5 position (X,Y) of the second rounded end (center of the circle)*
0 Add line between two ends*
20,1,$1,$2,$3,$4,$5,0*
0 Add two circle primitives to create the rounded ends*
1,1,$1,$2,$3*
1,1,$1,$4,$5*%
%AMRotRect*
0 Rectangle, with rotation*
0 The origin of the aperture is its center*
0 $1 length*
0 $2 width*
0 $3 Rotation angle, in degrees counterclockwise*
0 Add horizontal line*
21,1,$1,$2,0,0,$3*%
%AMOutline5P*
0 Free polygon, 5 corners , with rotation*
0 The origin of the aperture is its center*
0 number of corners: always 5*
0 $1 to $10 corner X, Y*
0 $11 Rotation angle, in degrees counterclockwise*
0 create outline with 5 corners*
4,1,5,$1,$2,$3,$4,$5,$6,$7,$8,$9,$10,$1,$2,$11*%
%AMOutline6P*
0 Free polygon, 6 corners , with rotation*
0 The origin of the aperture is its center*
0 number of corners: always 6*
0 $1 to $12 corner X, Y*
0 $13 Rotation angle, in degrees counterclockwise*
0 create outline with 6 corners*
4,1,6,$1,$2,$3,$4,$5,$6,$7,$8,$9,$10,$11,$12,$1,$2,$13*%
%AMOutline7P*
0 Free polygon, 7 corners , with rotation*
0 The origin of the aperture is its center*
0 number of corners: always 7*
0 $1 to $14 corner X, Y*
0 $15 Rotation angle, in degrees counterclockwise*
0 create outline with 7 corners*
4,1,7,$1,$2,$3,$4,$5,$6,$7,$8,$9,$10,$11,$12,$13,$14,$1,$2,$15*%
%AMOutline8P*
0 Free polygon, 8 corners , with rotation*
0 The origin of the aperture is its center*
0 number of corners: always 8*
0 $1 to $16 corner X, Y*
0 $17 Rotation angle, in degrees counterclockwise*
0 create outline with 8 corners*
4,1,8,$1,$2,$3,$4,$5,$6,$7,$8,$9,$10,$11,$12,$13,$14,$15,$16,$1,$2,$17*%
G04 Aperture macros list end*
%ADD10C,3.000000*%
%ADD11C,1.700000*%
%ADD12C,4.100000*%
%ADD13C,1.900000*%
%ADD14R,1.700000X1.000000*%
%ADD15R,2.300000X2.000000*%
%ADD16C,3.987800*%
%ADD17C,3.048000*%
%ADD18RotRect,1.700000X1.000000X172.000000*%
%ADD19RotRect,2.300000X2.000000X352.000000*%
%ADD20C,0.700000*%
%ADD21C,4.400000*%
%ADD22C,0.402000*%
%ADD23R,1.000000X1.700000*%
%ADD24R,2.000000X2.300000*%
%ADD25O,1.500000X2.800000*%
%ADD26R,2.000000X2.000000*%
%ADD27C,2.000000*%
%ADD28Outline5P,-1.150000X0.000000X-0.150000X1.000000X1.150000X1.000000X1.150000X-1.000000X-1.150000X-1.000000X0.000000*%
%ADD29R,1.752600X1.752600*%
%ADD30C,1.752600*%
%ADD31R,1.524000X1.524000*%
%ADD32R,1.300000X1.400000*%
%ADD33R,1.300000X1.778000*%
%ADD34O,1.300000X1.778000*%
%ADD35C,1.200000*%
%ADD36HorizOval,1.700000X-0.332394X-0.222518X0.332394X0.222518X0*%
%ADD37C,1.397000*%
%ADD38RotRect,1.400000X1.300000X82.000000*%
%ADD39RotRect,1.778000X1.300000X262.000000*%
%ADD40HorizOval,1.300000X-0.033262X-0.236674X0.033262X0.236674X0*%
%ADD41R,2.000000X1.905000*%
%ADD42O,2.000000X1.905000*%
%ADD43R,3.120000X2.290000*%
%ADD44C,1.524000*%
%ADD45R,1.700000X1.700000*%
%ADD46O,1.700000X1.700000*%
%ADD47C,1.600000*%
%ADD48O,1.600000X1.600000*%
G04 APERTURE END LIST*
D10*
%TO.C,SW14*%
X110490000Y-60515001D03*
X111760000Y-63055000D03*
D11*
X109800000Y-57975000D03*
D12*
X114300000Y-57975000D03*
D13*
X109220000Y-57975000D03*
D11*
X118800000Y-57975000D03*
D10*
X118110000Y-60515000D03*
X116840000Y-63055000D03*
D13*
X119380000Y-57975000D03*
D14*
X111550000Y-52576000D03*
X111550000Y-53976000D03*
X117050000Y-53976000D03*
X117050000Y-52576000D03*
D15*
X108600000Y-63095000D03*
X121300000Y-60555000D03*
%TD*%
D13*
%TO.C,SW35*%
X100330000Y-100075000D03*
D10*
X99060000Y-102615000D03*
X97790000Y-105155000D03*
D11*
X99750000Y-100075000D03*
D13*
X90170000Y-100075000D03*
D12*
X95250000Y-100075000D03*
D10*
X91440000Y-102615001D03*
X92710000Y-105155000D03*
D11*
X90750000Y-100075000D03*
D14*
X92500000Y-94676000D03*
X92500000Y-96076000D03*
X98000000Y-96076000D03*
X98000000Y-94676000D03*
D15*
X89550000Y-105195000D03*
X102250000Y-102655000D03*
%TD*%
D10*
%TO.C,SW18_RH10*%
X34290000Y-75515001D03*
D11*
X33600000Y-72975000D03*
D13*
X43180000Y-72975000D03*
D11*
X42600000Y-72975000D03*
D12*
X38100000Y-72975000D03*
D10*
X40640000Y-78055000D03*
D13*
X33020000Y-72975000D03*
%TD*%
D10*
%TO.C,SW51*%
X165299174Y-157181769D03*
X172845017Y-158242267D03*
D13*
X164395033Y-154489738D03*
D16*
X159589484Y-165869683D03*
D10*
X166203315Y-159873799D03*
D16*
X162912381Y-142226043D03*
D12*
X169425595Y-155196737D03*
D11*
X164969389Y-154570458D03*
D13*
X174456157Y-155903736D03*
D10*
X171233877Y-160580798D03*
D17*
X178004066Y-144347041D03*
D11*
X173881801Y-155823016D03*
D17*
X174681169Y-167990681D03*
D18*
X167453753Y-149467554D03*
X167258911Y-150853929D03*
X172705385Y-151619381D03*
X172900228Y-150233006D03*
D19*
X163068501Y-159473623D03*
X175998405Y-158725840D03*
%TD*%
D20*
%TO.C,H7*%
X42799000Y-138177000D03*
X41632274Y-140993726D03*
X43965726Y-140993726D03*
X42799000Y-141477000D03*
D21*
X42799000Y-139827000D03*
D20*
X43965726Y-138660274D03*
X44449000Y-139827000D03*
X41632274Y-138660274D03*
X41149000Y-139827000D03*
%TD*%
D10*
%TO.C,SW33*%
X135890000Y-106155000D03*
X130810000Y-106155000D03*
X137160000Y-103615000D03*
D13*
X128270000Y-101075000D03*
X138430000Y-101075000D03*
D10*
X129540000Y-103615001D03*
D11*
X128850000Y-101075000D03*
X137850000Y-101075000D03*
D12*
X133350000Y-101075000D03*
D14*
X130600000Y-95676000D03*
X130600000Y-97076000D03*
X136100000Y-97076000D03*
X136100000Y-95676000D03*
D15*
X127650000Y-106195000D03*
X140350000Y-103655000D03*
%TD*%
D22*
%TO.C,JP4*%
X49265000Y-60039250D03*
X50165000Y-60039250D03*
%TD*%
D20*
%TO.C,H5*%
X132183274Y-138485476D03*
X133350000Y-138968750D03*
X131700000Y-137318750D03*
X134516726Y-136152024D03*
X135000000Y-137318750D03*
D21*
X133350000Y-137318750D03*
D20*
X134516726Y-138485476D03*
X132183274Y-136152024D03*
X133350000Y-135668750D03*
%TD*%
D10*
%TO.C,SW28_RH10*%
X16827500Y-97105000D03*
D11*
X9787500Y-92025000D03*
X18787500Y-92025000D03*
D12*
X14287500Y-92025000D03*
D13*
X9207500Y-92025000D03*
X19367500Y-92025000D03*
D10*
X10477500Y-94565001D03*
%TD*%
%TO.C,SW16*%
X78740000Y-72555000D03*
D13*
X81280000Y-67475000D03*
D12*
X76200000Y-67475000D03*
D10*
X72390000Y-70015001D03*
D11*
X80700000Y-67475000D03*
D10*
X73660000Y-72555000D03*
D11*
X71700000Y-67475000D03*
D13*
X71120000Y-67475000D03*
D10*
X80010000Y-70015000D03*
D14*
X73450000Y-62076000D03*
X73450000Y-63476000D03*
X78950000Y-63476000D03*
X78950000Y-62076000D03*
D15*
X70500000Y-72595000D03*
X83200000Y-70055000D03*
%TD*%
D11*
%TO.C,SW45*%
X99750000Y-119125000D03*
D10*
X99060000Y-121665000D03*
D13*
X90170000Y-119125000D03*
D10*
X92710000Y-124205000D03*
D13*
X100330000Y-119125000D03*
D11*
X90750000Y-119125000D03*
D10*
X91440000Y-121665001D03*
X97790000Y-124205000D03*
D12*
X95250000Y-119125000D03*
D14*
X92500000Y-113726000D03*
X92500000Y-115126000D03*
X98000000Y-115126000D03*
X98000000Y-113726000D03*
D15*
X89550000Y-124245000D03*
X102250000Y-121705000D03*
%TD*%
D10*
%TO.C,SW6*%
X69660000Y-40005000D03*
D13*
X77280000Y-34925000D03*
D10*
X68390000Y-37465001D03*
X74740000Y-40005000D03*
D11*
X67700000Y-34925000D03*
D10*
X76010000Y-37465000D03*
D12*
X72200000Y-34925000D03*
D11*
X76700000Y-34925000D03*
D13*
X67120000Y-34925000D03*
D14*
X69450000Y-29526000D03*
X69450000Y-30926000D03*
X74950000Y-30926000D03*
X74950000Y-29526000D03*
D15*
X66500000Y-40045000D03*
X79200000Y-37505000D03*
%TD*%
D12*
%TO.C,SW55*%
X95250000Y-138175000D03*
D10*
X91440000Y-140715001D03*
D13*
X90170000Y-138175000D03*
D10*
X92710000Y-143255000D03*
D11*
X99750000Y-138175000D03*
D13*
X100330000Y-138175000D03*
D10*
X97790000Y-143255000D03*
D11*
X90750000Y-138175000D03*
D10*
X99060000Y-140715000D03*
D14*
X92500000Y-132776000D03*
X92500000Y-134176000D03*
X98000000Y-134176000D03*
X98000000Y-132776000D03*
D15*
X89550000Y-143295000D03*
X102250000Y-140755000D03*
%TD*%
D10*
%TO.C,SW5*%
X96330000Y-32385000D03*
D12*
X91250000Y-34925000D03*
D13*
X91250000Y-40005000D03*
D10*
X93790000Y-31115000D03*
X96330000Y-37465000D03*
D11*
X91250000Y-30425000D03*
D13*
X91250000Y-29845000D03*
D10*
X93790001Y-38735000D03*
D11*
X91250000Y-39425000D03*
D23*
X85851000Y-37675000D03*
X87251000Y-37675000D03*
X87251000Y-32175000D03*
X85851000Y-32175000D03*
D24*
X96370000Y-40625000D03*
X93830000Y-27925000D03*
%TD*%
D10*
%TO.C,SWLH_ROT1*%
X168882000Y-130205000D03*
D12*
X171422000Y-125125000D03*
D13*
X176502000Y-125125000D03*
D25*
X165850000Y-125125000D03*
D11*
X166922000Y-125125000D03*
D13*
X166342000Y-125125000D03*
D10*
X175232000Y-127665000D03*
D11*
X175922000Y-125125000D03*
D10*
X173962000Y-130205000D03*
X167612000Y-127665001D03*
D25*
X177050000Y-125125000D03*
D26*
X173950000Y-117625000D03*
D27*
X168950000Y-117625000D03*
X171450000Y-117625000D03*
D15*
X165722000Y-130245000D03*
D27*
X173950000Y-132125000D03*
D28*
X178422000Y-127705000D03*
D27*
X168950000Y-132125000D03*
%TD*%
D10*
%TO.C,SW43*%
X130810000Y-125205000D03*
X137160000Y-122665000D03*
X135890000Y-125205000D03*
D11*
X128850000Y-120125000D03*
X137850000Y-120125000D03*
D12*
X133350000Y-120125000D03*
D10*
X129540000Y-122665001D03*
D13*
X128270000Y-120125000D03*
X138430000Y-120125000D03*
D14*
X130600000Y-114726000D03*
X130600000Y-116126000D03*
X136100000Y-116126000D03*
X136100000Y-114726000D03*
D15*
X127650000Y-125245000D03*
X140350000Y-122705000D03*
%TD*%
D20*
%TO.C,H4*%
X180898274Y-156539726D03*
X178081548Y-157706452D03*
X179248274Y-158189726D03*
X177598274Y-156539726D03*
X180415000Y-155373000D03*
X179248274Y-154889726D03*
X178081548Y-155373000D03*
D21*
X179248274Y-156539726D03*
D20*
X180415000Y-157706452D03*
%TD*%
D10*
%TO.C,SW50*%
X183742298Y-171957350D03*
X188772860Y-172664349D03*
X182838157Y-169265320D03*
D11*
X191420784Y-167906567D03*
D13*
X191995140Y-167987287D03*
D11*
X182508372Y-166654009D03*
D12*
X186964578Y-167280288D03*
D13*
X181934016Y-166573289D03*
D10*
X190384000Y-170325818D03*
D18*
X184992736Y-161551105D03*
X184797894Y-162937480D03*
X190244368Y-163702932D03*
X190439211Y-162316557D03*
D19*
X180607484Y-171557174D03*
X193537388Y-170809391D03*
%TD*%
D11*
%TO.C,SW21*%
X175950000Y-87025000D03*
D13*
X166370000Y-87025000D03*
D10*
X167640000Y-89565001D03*
X168910000Y-92105000D03*
D11*
X166950000Y-87025000D03*
D12*
X171450000Y-87025000D03*
D10*
X175260000Y-89565000D03*
D13*
X176530000Y-87025000D03*
D10*
X173990000Y-92105000D03*
D14*
X168700000Y-81626000D03*
X168700000Y-83026000D03*
X174200000Y-83026000D03*
X174200000Y-81626000D03*
D15*
X165750000Y-92145000D03*
X178450000Y-89605000D03*
%TD*%
D13*
%TO.C,SW4*%
X115380000Y-34925000D03*
D10*
X106490000Y-37465001D03*
D11*
X105800000Y-34925000D03*
X114800000Y-34925000D03*
D10*
X107760000Y-40005000D03*
X114110000Y-37465000D03*
D13*
X105220000Y-34925000D03*
D10*
X112840000Y-40005000D03*
D12*
X110300000Y-34925000D03*
D14*
X107550000Y-29526000D03*
X107550000Y-30926000D03*
X113050000Y-30926000D03*
X113050000Y-29526000D03*
D15*
X104600000Y-40045000D03*
X117300000Y-37505000D03*
%TD*%
D29*
%TO.C,U1*%
X45331400Y-27448000D03*
D30*
X45788600Y-29988000D03*
X45331400Y-32528000D03*
X45788600Y-35068000D03*
X45331400Y-37608000D03*
X45788600Y-40148000D03*
X45331400Y-42688000D03*
X45788600Y-45228000D03*
X45331400Y-47768000D03*
X45788600Y-50308000D03*
X45331400Y-52848000D03*
X45788600Y-55388000D03*
X60571400Y-55388000D03*
X61028600Y-52848000D03*
X60571400Y-50308000D03*
X61028600Y-47768000D03*
X60571400Y-45228000D03*
X61028600Y-42688000D03*
X60571400Y-40148000D03*
X61028600Y-37608000D03*
X60571400Y-35068000D03*
X61028600Y-32528000D03*
X60571400Y-29988000D03*
X61028600Y-27448000D03*
X48100000Y-55616600D03*
X50640000Y-55159400D03*
X53180000Y-55616600D03*
X55720000Y-55159400D03*
X58260000Y-55616600D03*
%TD*%
D12*
%TO.C,SW53*%
X130702164Y-156968469D03*
D11*
X135158370Y-157594748D03*
D10*
X126575743Y-158953501D03*
X127479884Y-161645531D03*
D11*
X126245958Y-156342190D03*
D10*
X134121586Y-160013999D03*
D13*
X135732726Y-157675468D03*
D10*
X132510446Y-162352530D03*
D13*
X125671602Y-156261470D03*
D18*
X128730322Y-151239286D03*
X128535480Y-152625661D03*
X133981954Y-153391113D03*
X134176797Y-152004738D03*
D19*
X124345070Y-161245355D03*
X137274974Y-160497572D03*
%TD*%
D13*
%TO.C,SW26*%
X71120000Y-86525000D03*
D11*
X80700000Y-86525000D03*
D12*
X76200000Y-86525000D03*
D10*
X72390000Y-89065001D03*
D11*
X71700000Y-86525000D03*
D10*
X78740000Y-91605000D03*
X73660000Y-91605000D03*
X80010000Y-89065000D03*
D13*
X81280000Y-86525000D03*
D14*
X73450000Y-81126000D03*
X73450000Y-82526000D03*
X78950000Y-82526000D03*
X78950000Y-81126000D03*
D15*
X70500000Y-91645000D03*
X83200000Y-89105000D03*
%TD*%
D20*
%TO.C,H10*%
X92710000Y-96694452D03*
X90376548Y-94361000D03*
X89893274Y-95527726D03*
X90376548Y-96694452D03*
X91543274Y-93877726D03*
X92710000Y-94361000D03*
X93193274Y-95527726D03*
D21*
X91543274Y-95527726D03*
D20*
X91543274Y-97177726D03*
%TD*%
D11*
%TO.C,SW12*%
X147900000Y-65475000D03*
D12*
X152400000Y-65475000D03*
D13*
X157480000Y-65475000D03*
D10*
X148590000Y-68015001D03*
X156210000Y-68015000D03*
X154940000Y-70555000D03*
D13*
X147320000Y-65475000D03*
D11*
X156900000Y-65475000D03*
D10*
X149860000Y-70555000D03*
D14*
X149650000Y-60076000D03*
X149650000Y-61476000D03*
X155150000Y-61476000D03*
X155150000Y-60076000D03*
D15*
X146700000Y-70595000D03*
X159400000Y-68055000D03*
%TD*%
D13*
%TO.C,SW40*%
X194646387Y-149122680D03*
D12*
X189615825Y-148415681D03*
D10*
X185489404Y-150400713D03*
D11*
X185159619Y-147789402D03*
D10*
X191424107Y-153799742D03*
D11*
X194072031Y-149041960D03*
D13*
X184585263Y-147708682D03*
D10*
X193035247Y-151461211D03*
X186393545Y-153092743D03*
D18*
X187643983Y-142686498D03*
X187449141Y-144072873D03*
X192895615Y-144838325D03*
X193090458Y-143451950D03*
D19*
X183258731Y-152692567D03*
X196188635Y-151944784D03*
%TD*%
D10*
%TO.C,SW44*%
X110490000Y-117665001D03*
X111760000Y-120205000D03*
X116840000Y-120205000D03*
D11*
X109800000Y-115125000D03*
X118800000Y-115125000D03*
D13*
X109220000Y-115125000D03*
X119380000Y-115125000D03*
D12*
X114300000Y-115125000D03*
D10*
X118110000Y-117665000D03*
D14*
X111550000Y-109726000D03*
X111550000Y-111126000D03*
X117050000Y-111126000D03*
X117050000Y-109726000D03*
D15*
X108600000Y-120245000D03*
X121300000Y-117705000D03*
%TD*%
D20*
%TO.C,H3*%
X183538726Y-92432274D03*
X181205274Y-92432274D03*
X180722000Y-93599000D03*
X181205274Y-94765726D03*
X183538726Y-94765726D03*
X182372000Y-91949000D03*
X184022000Y-93599000D03*
X182372000Y-95249000D03*
D21*
X182372000Y-93599000D03*
%TD*%
D20*
%TO.C,H6*%
X107529226Y-154408274D03*
X108012500Y-155575000D03*
X105195774Y-154408274D03*
X106362500Y-157225000D03*
X107529226Y-156741726D03*
X106362500Y-153925000D03*
X105195774Y-156741726D03*
X104712500Y-155575000D03*
D21*
X106362500Y-155575000D03*
%TD*%
D11*
%TO.C,SW56*%
X80700000Y-143675000D03*
D10*
X72390000Y-146215001D03*
D13*
X81280000Y-143675000D03*
D11*
X71700000Y-143675000D03*
D12*
X76200000Y-143675000D03*
D10*
X73660000Y-148755000D03*
D13*
X71120000Y-143675000D03*
D10*
X78740000Y-148755000D03*
X80010000Y-146215000D03*
D14*
X73450000Y-138276000D03*
X73450000Y-139676000D03*
X78950000Y-139676000D03*
X78950000Y-138276000D03*
D15*
X70500000Y-148795000D03*
X83200000Y-146255000D03*
%TD*%
D22*
%TO.C,JP5*%
X52890000Y-60039250D03*
X53790000Y-60039250D03*
%TD*%
D17*
%TO.C,SW52*%
X155817213Y-165340379D03*
D16*
X140725528Y-163219381D03*
D13*
X155592201Y-153253434D03*
D12*
X150561639Y-152546435D03*
D10*
X152369921Y-157930496D03*
D17*
X159140110Y-141696739D03*
D10*
X147339359Y-157223497D03*
D16*
X144048425Y-139575741D03*
D11*
X155017845Y-153172714D03*
D10*
X146435218Y-154531467D03*
D13*
X145531077Y-151839436D03*
D10*
X153981061Y-155591965D03*
D11*
X146105433Y-151920156D03*
D18*
X148589797Y-146817252D03*
X148394955Y-148203627D03*
X153841429Y-148969079D03*
X154036272Y-147582704D03*
D19*
X144204545Y-156823321D03*
X157134449Y-156075538D03*
%TD*%
D20*
%TO.C,H1*%
X118895726Y-49553726D03*
X118895726Y-47220274D03*
X116562274Y-47220274D03*
X117729000Y-50037000D03*
X119379000Y-48387000D03*
D21*
X117729000Y-48387000D03*
D20*
X117729000Y-46737000D03*
X116079000Y-48387000D03*
X116562274Y-49553726D03*
%TD*%
D12*
%TO.C,SW10*%
X193500000Y-87025000D03*
D10*
X189690000Y-89565001D03*
X197310000Y-89565000D03*
D13*
X188420000Y-87025000D03*
X198580000Y-87025000D03*
D10*
X196040000Y-92105000D03*
D11*
X189000000Y-87025000D03*
D10*
X190960000Y-92105000D03*
D11*
X198000000Y-87025000D03*
D14*
X190750000Y-81626000D03*
X190750000Y-83026000D03*
X196250000Y-83026000D03*
X196250000Y-81626000D03*
D15*
X187800000Y-92145000D03*
X200500000Y-89605000D03*
%TD*%
D10*
%TO.C,SW22*%
X149860000Y-89605000D03*
X154940000Y-89605000D03*
X156210000Y-87065000D03*
D12*
X152400000Y-84525000D03*
D10*
X148590000Y-87065001D03*
D13*
X147320000Y-84525000D03*
D11*
X156900000Y-84525000D03*
X147900000Y-84525000D03*
D13*
X157480000Y-84525000D03*
D14*
X149650000Y-79126000D03*
X149650000Y-80526000D03*
X155150000Y-80526000D03*
X155150000Y-79126000D03*
D15*
X146700000Y-89645000D03*
X159400000Y-87105000D03*
%TD*%
D10*
%TO.C,SW24*%
X118110000Y-79565000D03*
D11*
X118800000Y-77025000D03*
D10*
X116840000Y-82105000D03*
D13*
X119380000Y-77025000D03*
X109220000Y-77025000D03*
D12*
X114300000Y-77025000D03*
D10*
X110490000Y-79565001D03*
X111760000Y-82105000D03*
D11*
X109800000Y-77025000D03*
D14*
X111550000Y-71626000D03*
X111550000Y-73026000D03*
X117050000Y-73026000D03*
X117050000Y-71626000D03*
D15*
X108600000Y-82145000D03*
X121300000Y-79605000D03*
%TD*%
D10*
%TO.C,SW1*%
X173990000Y-40005000D03*
X168910000Y-40005000D03*
D12*
X171450000Y-34925000D03*
D10*
X175260000Y-37465000D03*
D13*
X166370000Y-34925000D03*
X176530000Y-34925000D03*
D11*
X175950000Y-34925000D03*
X166950000Y-34925000D03*
D10*
X167640000Y-37465001D03*
D14*
X168700000Y-29526000D03*
X168700000Y-30926000D03*
X174200000Y-30926000D03*
X174200000Y-29526000D03*
D15*
X165750000Y-40045000D03*
X178450000Y-37505000D03*
%TD*%
D11*
%TO.C,SW37*%
X54506250Y-111075000D03*
D13*
X62230000Y-111075000D03*
X52070000Y-111075000D03*
D11*
X52650000Y-111075000D03*
D13*
X44926250Y-111075000D03*
D12*
X50006250Y-111075000D03*
D11*
X61650000Y-111075000D03*
D10*
X59690000Y-116155000D03*
X53340000Y-113615001D03*
X47466250Y-116155000D03*
X53816250Y-113615000D03*
D11*
X45506250Y-111075000D03*
D13*
X55086250Y-111075000D03*
D12*
X57150000Y-111075000D03*
D14*
X47256250Y-105676000D03*
X47256250Y-107076000D03*
X52756250Y-107076000D03*
X52756250Y-105676000D03*
D15*
X44306250Y-116195000D03*
X57006250Y-113655000D03*
%TD*%
D11*
%TO.C,SW47*%
X44981250Y-130125000D03*
D16*
X57181750Y-121870000D03*
D11*
X49743750Y-130125000D03*
D13*
X40163750Y-130125000D03*
D17*
X52419250Y-137110000D03*
D11*
X35981250Y-130125000D03*
D17*
X28543250Y-137110000D03*
D12*
X40481250Y-130125000D03*
D13*
X35401250Y-130125000D03*
D16*
X52419250Y-121870000D03*
D11*
X40743750Y-130125000D03*
D10*
X43021250Y-135205000D03*
D16*
X28543250Y-121870000D03*
D13*
X50323750Y-130125000D03*
D10*
X36671250Y-132665001D03*
D17*
X57181750Y-137110000D03*
D13*
X45561250Y-130125000D03*
D17*
X33305750Y-137110000D03*
D10*
X49053750Y-132665000D03*
D12*
X45243750Y-130125000D03*
D16*
X33305750Y-121870000D03*
D10*
X42703750Y-135205000D03*
D14*
X42843750Y-124726000D03*
X42843750Y-126126000D03*
X48343750Y-126126000D03*
X48343750Y-124726000D03*
D15*
X39543750Y-135245000D03*
X52243750Y-132705000D03*
%TD*%
D13*
%TO.C,SW20*%
X188420000Y-106075000D03*
D10*
X196040000Y-111155000D03*
D11*
X198000000Y-106075000D03*
D13*
X198580000Y-106075000D03*
D11*
X189000000Y-106075000D03*
D12*
X193500000Y-106075000D03*
D10*
X190960000Y-111155000D03*
X197310000Y-108615000D03*
X189690000Y-108615001D03*
D14*
X190750000Y-100676000D03*
X190750000Y-102076000D03*
X196250000Y-102076000D03*
X196250000Y-100676000D03*
D15*
X187800000Y-111195000D03*
X200500000Y-108655000D03*
%TD*%
D10*
%TO.C,SW2*%
X149860000Y-40005000D03*
X148590000Y-37465001D03*
X156210000Y-37465000D03*
D13*
X147320000Y-34925000D03*
X157480000Y-34925000D03*
D12*
X152400000Y-34925000D03*
D11*
X147900000Y-34925000D03*
X156900000Y-34925000D03*
D10*
X154940000Y-40005000D03*
D14*
X149650000Y-29526000D03*
X149650000Y-30926000D03*
X155150000Y-30926000D03*
X155150000Y-29526000D03*
D15*
X146700000Y-40045000D03*
X159400000Y-37505000D03*
%TD*%
D10*
%TO.C,SW42*%
X156210000Y-125165000D03*
D11*
X156900000Y-122625000D03*
D10*
X149860000Y-127705000D03*
D13*
X147320000Y-122625000D03*
X157480000Y-122625000D03*
D12*
X152400000Y-122625000D03*
D10*
X154940000Y-127705000D03*
X148590000Y-125165001D03*
D11*
X147900000Y-122625000D03*
D14*
X149650000Y-117226000D03*
X149650000Y-118626000D03*
X155150000Y-118626000D03*
X155150000Y-117226000D03*
D15*
X146700000Y-127745000D03*
X159400000Y-125205000D03*
%TD*%
D31*
%TO.C,JP1*%
X56928000Y-58928000D03*
X58928000Y-61928000D03*
X58928000Y-58928000D03*
X56928000Y-61928000D03*
%TD*%
D11*
%TO.C,SW27*%
X61650000Y-92025000D03*
X47887500Y-92025000D03*
D12*
X57150000Y-92025000D03*
D11*
X56887500Y-92025000D03*
D10*
X49847500Y-97105000D03*
D13*
X62230000Y-92025000D03*
D11*
X52650000Y-92025000D03*
D10*
X56197500Y-94565000D03*
D13*
X57467500Y-92025000D03*
D10*
X59690000Y-97105000D03*
D13*
X47307500Y-92025000D03*
D10*
X53340000Y-94565001D03*
D13*
X52070000Y-92025000D03*
D12*
X52387500Y-92025000D03*
D14*
X49287500Y-86626000D03*
X49287500Y-88026000D03*
X54787500Y-88026000D03*
X54787500Y-86626000D03*
D15*
X46687500Y-97145000D03*
X59387500Y-94605000D03*
%TD*%
D10*
%TO.C,SW57*%
X52228750Y-154255000D03*
X58578750Y-151715000D03*
D12*
X54768750Y-149175000D03*
D10*
X50958750Y-151715001D03*
D13*
X59848750Y-149175000D03*
X49688750Y-149175000D03*
D11*
X50268750Y-149175000D03*
X59268750Y-149175000D03*
D10*
X57308750Y-154255000D03*
D14*
X52018750Y-143776000D03*
X52018750Y-145176000D03*
X57518750Y-145176000D03*
X57518750Y-143776000D03*
D15*
X49068750Y-154295000D03*
X61768750Y-151755000D03*
%TD*%
D10*
%TO.C,SW34*%
X118110000Y-98615000D03*
X116840000Y-101155000D03*
D13*
X109220000Y-96075000D03*
D10*
X110490000Y-98615001D03*
D12*
X114300000Y-96075000D03*
D11*
X109800000Y-96075000D03*
D13*
X119380000Y-96075000D03*
D10*
X111760000Y-101155000D03*
D11*
X118800000Y-96075000D03*
D14*
X111550000Y-90676000D03*
X111550000Y-92076000D03*
X117050000Y-92076000D03*
X117050000Y-90676000D03*
D15*
X108600000Y-101195000D03*
X121300000Y-98655000D03*
%TD*%
D10*
%TO.C,SW58*%
X27146250Y-151715001D03*
X33496250Y-154255000D03*
D13*
X25876250Y-149175000D03*
D12*
X30956250Y-149175000D03*
D11*
X26456250Y-149175000D03*
D10*
X28416250Y-154255000D03*
D13*
X36036250Y-149175000D03*
D10*
X34766250Y-151715000D03*
D11*
X35456250Y-149175000D03*
D14*
X28206250Y-143776000D03*
X28206250Y-145176000D03*
X33706250Y-145176000D03*
X33706250Y-143776000D03*
D15*
X25256250Y-154295000D03*
X37956250Y-151755000D03*
%TD*%
D11*
%TO.C,SW31*%
X166950000Y-106075000D03*
D10*
X168910000Y-111155000D03*
X175260000Y-108615000D03*
D13*
X176530000Y-106075000D03*
D11*
X175950000Y-106075000D03*
D13*
X166370000Y-106075000D03*
D10*
X167640000Y-108615001D03*
X173990000Y-111155000D03*
D12*
X171450000Y-106075000D03*
D14*
X168700000Y-100676000D03*
X168700000Y-102076000D03*
X174200000Y-102076000D03*
X174200000Y-100676000D03*
D15*
X165750000Y-111195000D03*
X178450000Y-108655000D03*
%TD*%
D10*
%TO.C,SW3*%
X126810000Y-40005000D03*
D11*
X124850000Y-34925000D03*
D13*
X134430000Y-34925000D03*
D10*
X125540000Y-37465001D03*
X133160000Y-37465000D03*
D13*
X124270000Y-34925000D03*
D12*
X129350000Y-34925000D03*
D10*
X131890000Y-40005000D03*
D11*
X133850000Y-34925000D03*
D14*
X126600000Y-29526000D03*
X126600000Y-30926000D03*
X132100000Y-30926000D03*
X132100000Y-29526000D03*
D15*
X123650000Y-40045000D03*
X136350000Y-37505000D03*
%TD*%
D13*
%TO.C,SW46*%
X81280000Y-124625000D03*
D10*
X78740000Y-129705000D03*
D12*
X76200000Y-124625000D03*
D11*
X71700000Y-124625000D03*
D10*
X73660000Y-129705000D03*
X80010000Y-127165000D03*
D13*
X71120000Y-124625000D03*
D11*
X80700000Y-124625000D03*
D10*
X72390000Y-127165001D03*
D14*
X73450000Y-119226000D03*
X73450000Y-120626000D03*
X78950000Y-120626000D03*
X78950000Y-119226000D03*
D15*
X70500000Y-129745000D03*
X83200000Y-127205000D03*
%TD*%
D13*
%TO.C,SW30*%
X187236511Y-128844076D03*
D12*
X192267073Y-129551075D03*
D10*
X195686495Y-132596605D03*
X194075355Y-134935136D03*
D13*
X197297635Y-130258074D03*
D10*
X189044793Y-134228137D03*
D11*
X196723279Y-130177354D03*
X187810867Y-128924796D03*
D10*
X188140652Y-131536107D03*
D18*
X190295231Y-123821892D03*
X190100389Y-125208267D03*
X195546863Y-125973719D03*
X195741706Y-124587344D03*
D19*
X185909979Y-133827961D03*
X198839883Y-133080178D03*
%TD*%
D32*
%TO.C,D48_RH10*%
X17932750Y-105395000D03*
D33*
X17932750Y-104170000D03*
D32*
X17932750Y-108945000D03*
D34*
X17932750Y-110170000D03*
%TD*%
D20*
%TO.C,H2*%
X175007000Y-51816000D03*
X176657000Y-53466000D03*
X178307000Y-51816000D03*
X175490274Y-52982726D03*
X177823726Y-52982726D03*
X177823726Y-50649274D03*
D21*
X176657000Y-51816000D03*
D20*
X176657000Y-50166000D03*
X175490274Y-50649274D03*
%TD*%
D12*
%TO.C,SW36*%
X76200000Y-105575000D03*
D10*
X73660000Y-110655000D03*
X72390000Y-108115001D03*
X78740000Y-110655000D03*
X80010000Y-108115000D03*
D11*
X80700000Y-105575000D03*
X71700000Y-105575000D03*
D13*
X71120000Y-105575000D03*
X81280000Y-105575000D03*
D14*
X73450000Y-100176000D03*
X73450000Y-101576000D03*
X78950000Y-101576000D03*
X78950000Y-100176000D03*
D15*
X70500000Y-110695000D03*
X83200000Y-108155000D03*
%TD*%
D13*
%TO.C,SW25*%
X100330000Y-81025000D03*
X90170000Y-81025000D03*
D10*
X92710000Y-86105000D03*
X97790000Y-86105000D03*
X91440000Y-83565001D03*
X99060000Y-83565000D03*
D11*
X90750000Y-81025000D03*
X99750000Y-81025000D03*
D12*
X95250000Y-81025000D03*
D14*
X92500000Y-75626000D03*
X92500000Y-77026000D03*
X98000000Y-77026000D03*
X98000000Y-75626000D03*
D15*
X89550000Y-86145000D03*
X102250000Y-83605000D03*
%TD*%
D32*
%TO.C,D38_RH10*%
X29739000Y-86625000D03*
D33*
X29739000Y-85400000D03*
D34*
X29739000Y-91400000D03*
D32*
X29739000Y-90175000D03*
%TD*%
D10*
%TO.C,SW32*%
X156210000Y-106115000D03*
D11*
X147900000Y-103575000D03*
D12*
X152400000Y-103575000D03*
D10*
X148590000Y-106115001D03*
X149860000Y-108655000D03*
D13*
X147320000Y-103575000D03*
D10*
X154940000Y-108655000D03*
D13*
X157480000Y-103575000D03*
D11*
X156900000Y-103575000D03*
D14*
X149650000Y-98176000D03*
X149650000Y-99576000D03*
X155150000Y-99576000D03*
X155150000Y-98176000D03*
D15*
X146700000Y-108695000D03*
X159400000Y-106155000D03*
%TD*%
D10*
%TO.C,SW17*%
X53340000Y-75515001D03*
X54610000Y-78055000D03*
D13*
X52070000Y-72975000D03*
D12*
X57150000Y-72975000D03*
D10*
X59690000Y-78055000D03*
X60960000Y-75515000D03*
D11*
X52650000Y-72975000D03*
D13*
X62230000Y-72975000D03*
D11*
X61650000Y-72975000D03*
D14*
X54400000Y-67576000D03*
X54400000Y-68976000D03*
X59900000Y-68976000D03*
X59900000Y-67576000D03*
D15*
X51450000Y-78095000D03*
X64150000Y-75555000D03*
%TD*%
D35*
%TO.C,J1*%
X191285523Y-43633443D03*
X184495115Y-46073290D03*
X185468632Y-47527513D03*
X190312006Y-42179221D03*
D36*
X181558162Y-47618221D03*
X182921087Y-49654133D03*
X187648013Y-41435485D03*
X190957972Y-46379843D03*
X188465019Y-48048730D03*
X185155060Y-43104372D03*
X181831122Y-45329555D03*
X185141081Y-50273912D03*
%TD*%
D22*
%TO.C,JP2*%
X44952500Y-60039250D03*
X45852500Y-60039250D03*
%TD*%
D10*
%TO.C,SW11*%
X167640000Y-70515001D03*
X168910000Y-73055000D03*
D13*
X176530000Y-67975000D03*
D11*
X175950000Y-67975000D03*
X166950000Y-67975000D03*
D10*
X175260000Y-70515000D03*
D13*
X166370000Y-67975000D03*
D10*
X173990000Y-73055000D03*
D12*
X171450000Y-67975000D03*
D14*
X168700000Y-62576000D03*
X168700000Y-63976000D03*
X174200000Y-63976000D03*
X174200000Y-62576000D03*
D15*
X165750000Y-73095000D03*
X178450000Y-70555000D03*
%TD*%
D13*
%TO.C,SW54*%
X109220000Y-134175000D03*
D10*
X110490000Y-136715001D03*
X118110000Y-136715000D03*
D13*
X119380000Y-134175000D03*
D10*
X116840000Y-139255000D03*
X111760000Y-139255000D03*
D12*
X114300000Y-134175000D03*
D11*
X109800000Y-134175000D03*
X118800000Y-134175000D03*
D14*
X111550000Y-128776000D03*
X111550000Y-130176000D03*
X117050000Y-130176000D03*
X117050000Y-128776000D03*
D15*
X108600000Y-139295000D03*
X121300000Y-136755000D03*
%TD*%
D12*
%TO.C,SW0*%
X193500000Y-67975000D03*
D13*
X188420000Y-67975000D03*
D10*
X189690000Y-70515001D03*
D11*
X198000000Y-67975000D03*
D10*
X197310000Y-70515000D03*
D13*
X198580000Y-67975000D03*
D10*
X196040000Y-73055000D03*
D11*
X189000000Y-67975000D03*
D10*
X190960000Y-73055000D03*
D14*
X190750000Y-62576000D03*
X190750000Y-63976000D03*
X196250000Y-63976000D03*
X196250000Y-62576000D03*
D15*
X187800000Y-73095000D03*
X200500000Y-70555000D03*
%TD*%
D20*
%TO.C,H11*%
X131413274Y-91211274D03*
X132580000Y-90728000D03*
X134230000Y-92378000D03*
X132580000Y-94028000D03*
X131413274Y-93544726D03*
X133746726Y-93544726D03*
D21*
X132580000Y-92378000D03*
D20*
X133746726Y-91211274D03*
X130930000Y-92378000D03*
%TD*%
D10*
%TO.C,SW08_RH10*%
X5715000Y-75515001D03*
D16*
X21463000Y-64720000D03*
D12*
X9525000Y-72975000D03*
D13*
X14605000Y-72975000D03*
D16*
X-2413000Y-64720000D03*
D11*
X5025000Y-72975000D03*
X14025000Y-72975000D03*
D13*
X4445000Y-72975000D03*
D17*
X-2413000Y-79960000D03*
X21463000Y-79960000D03*
D10*
X12065000Y-78055000D03*
%TD*%
D20*
%TO.C,H8*%
X47499000Y-101600000D03*
X47982274Y-102766726D03*
X50315726Y-102766726D03*
X49149000Y-103250000D03*
X50799000Y-101600000D03*
X47982274Y-100433274D03*
D21*
X49149000Y-101600000D03*
D20*
X50315726Y-100433274D03*
X49149000Y-99950000D03*
%TD*%
D33*
%TO.C,D18_RH10*%
X30319000Y-69975000D03*
D32*
X30319000Y-71200000D03*
D34*
X30319000Y-75975000D03*
D32*
X30319000Y-74750000D03*
%TD*%
D12*
%TO.C,SW23*%
X133350000Y-82025000D03*
D10*
X135890000Y-87105000D03*
D13*
X128270000Y-82025000D03*
X138430000Y-82025000D03*
D10*
X130810000Y-87105000D03*
X137160000Y-84565000D03*
D11*
X137850000Y-82025000D03*
D10*
X129540000Y-84565001D03*
D11*
X128850000Y-82025000D03*
D14*
X130600000Y-76626000D03*
X130600000Y-78026000D03*
X136100000Y-78026000D03*
X136100000Y-76626000D03*
D15*
X127650000Y-87145000D03*
X140350000Y-84605000D03*
%TD*%
D12*
%TO.C,SW7*%
X49150000Y-34925000D03*
D13*
X54230000Y-34925000D03*
D10*
X52960000Y-37465000D03*
X46610000Y-40005000D03*
X45340000Y-37465001D03*
D11*
X44650000Y-34925000D03*
X53650000Y-34925000D03*
D10*
X51690000Y-40005000D03*
D13*
X44070000Y-34925000D03*
D14*
X46400000Y-29526000D03*
X46400000Y-30926000D03*
X51900000Y-30926000D03*
X51900000Y-29526000D03*
D15*
X43450000Y-40045000D03*
X56150000Y-37505000D03*
%TD*%
D10*
%TO.C,SW15*%
X92709999Y-58165000D03*
D13*
X95250000Y-67055000D03*
X95250000Y-56895000D03*
D10*
X90170000Y-64515000D03*
D11*
X95250000Y-66475000D03*
D12*
X95250000Y-61975000D03*
D10*
X90170000Y-59435000D03*
X92710000Y-65785000D03*
D11*
X95250000Y-57475000D03*
D23*
X100649000Y-59225000D03*
X99249000Y-59225000D03*
X99249000Y-64725000D03*
X100649000Y-64725000D03*
D24*
X90130000Y-56275000D03*
X92670000Y-68975000D03*
%TD*%
D20*
%TO.C,H9*%
X58674000Y-42724274D03*
X59840726Y-45541000D03*
X57507274Y-45541000D03*
X58674000Y-46024274D03*
X57507274Y-43207548D03*
X57024000Y-44374274D03*
X59840726Y-43207548D03*
X60324000Y-44374274D03*
D21*
X58674000Y-44374274D03*
%TD*%
D10*
%TO.C,SW38_RH10*%
X40640000Y-97105000D03*
D11*
X42600000Y-92025000D03*
D13*
X43180000Y-92025000D03*
D12*
X38100000Y-92025000D03*
D11*
X33600000Y-92025000D03*
D13*
X33020000Y-92025000D03*
D10*
X34290000Y-94565001D03*
%TD*%
D37*
%TO.C,R1*%
X187547000Y-56801000D03*
X192627000Y-56801000D03*
%TD*%
D10*
%TO.C,SW13*%
X129540000Y-65515001D03*
X130810000Y-68055000D03*
D13*
X128270000Y-62975000D03*
D12*
X133350000Y-62975000D03*
D13*
X138430000Y-62975000D03*
D10*
X135890000Y-68055000D03*
D11*
X128850000Y-62975000D03*
X137850000Y-62975000D03*
D10*
X137160000Y-65515000D03*
D14*
X130600000Y-57576000D03*
X130600000Y-58976000D03*
X136100000Y-58976000D03*
X136100000Y-57576000D03*
D15*
X127650000Y-68095000D03*
X140350000Y-65555000D03*
%TD*%
D33*
%TO.C,D58*%
X23006250Y-141464000D03*
D32*
X23006250Y-142689000D03*
D34*
X23006250Y-147464000D03*
D32*
X23006250Y-146239000D03*
%TD*%
D33*
%TO.C,D17*%
X49200000Y-65264000D03*
D32*
X49200000Y-66489000D03*
X49200000Y-70039000D03*
D34*
X49200000Y-71264000D03*
%TD*%
D32*
%TO.C,D55*%
X87300000Y-131689000D03*
D33*
X87300000Y-130464000D03*
D32*
X87300000Y-135239000D03*
D34*
X87300000Y-136464000D03*
%TD*%
D32*
%TO.C,D46*%
X68250000Y-118139000D03*
D33*
X68250000Y-116914000D03*
D34*
X68250000Y-122914000D03*
D32*
X68250000Y-121689000D03*
%TD*%
D38*
%TO.C,D40*%
X182612064Y-141010548D03*
D39*
X182782551Y-139797470D03*
D38*
X182118000Y-144526000D03*
D40*
X181947513Y-145739078D03*
%TD*%
D33*
%TO.C,D15*%
X95123000Y-47340000D03*
D32*
X95123000Y-48565000D03*
D34*
X95123000Y-53340000D03*
D32*
X95123000Y-52115000D03*
%TD*%
%TO.C,D54*%
X106350000Y-127689000D03*
D33*
X106350000Y-126464000D03*
D32*
X106350000Y-131239000D03*
D34*
X106350000Y-132464000D03*
%TD*%
D32*
%TO.C,D56*%
X68250000Y-137189000D03*
D33*
X68250000Y-135964000D03*
D34*
X68250000Y-141964000D03*
D32*
X68250000Y-140739000D03*
%TD*%
%TO.C,D5*%
X89535000Y-44326000D03*
D33*
X89535000Y-43101000D03*
D34*
X89535000Y-49101000D03*
D32*
X89535000Y-47876000D03*
%TD*%
D33*
%TO.C,D13*%
X125400000Y-55264000D03*
D32*
X125400000Y-56489000D03*
D34*
X125400000Y-61264000D03*
D32*
X125400000Y-60039000D03*
%TD*%
%TO.C,D32*%
X144450000Y-97089000D03*
D33*
X144450000Y-95864000D03*
D34*
X144450000Y-101864000D03*
D32*
X144450000Y-100639000D03*
%TD*%
D33*
%TO.C,D26*%
X68250000Y-78814000D03*
D32*
X68250000Y-80039000D03*
D34*
X68250000Y-84814000D03*
D32*
X68250000Y-83589000D03*
%TD*%
%TO.C,D7*%
X41200000Y-28439000D03*
D33*
X41200000Y-27214000D03*
D32*
X41200000Y-31989000D03*
D34*
X41200000Y-33214000D03*
%TD*%
D32*
%TO.C,D2*%
X144450000Y-28439000D03*
D33*
X144450000Y-27214000D03*
D34*
X144450000Y-33214000D03*
D32*
X144450000Y-31989000D03*
%TD*%
D41*
%TO.C,Q1*%
X68227000Y-54101000D03*
D42*
X68227000Y-51561000D03*
X68227000Y-49021000D03*
%TD*%
D33*
%TO.C,D0*%
X185550000Y-60264000D03*
D32*
X185550000Y-61489000D03*
D34*
X185550000Y-66264000D03*
D32*
X185550000Y-65039000D03*
%TD*%
D33*
%TO.C,D21*%
X163500000Y-79314000D03*
D32*
X163500000Y-80539000D03*
X163500000Y-84089000D03*
D34*
X163500000Y-85314000D03*
%TD*%
D33*
%TO.C,D37*%
X42215000Y-103364000D03*
D32*
X42215000Y-104589000D03*
D34*
X42215000Y-109364000D03*
D32*
X42215000Y-108139000D03*
%TD*%
D33*
%TO.C,D42*%
X144450000Y-114914000D03*
D32*
X144450000Y-116139000D03*
X144450000Y-119689000D03*
D34*
X144450000Y-120914000D03*
%TD*%
D32*
%TO.C,D33*%
X125400000Y-94589000D03*
D33*
X125400000Y-93364000D03*
D34*
X125400000Y-99364000D03*
D32*
X125400000Y-98139000D03*
%TD*%
%TO.C,D11*%
X163500000Y-61489000D03*
D33*
X163500000Y-60264000D03*
D34*
X163500000Y-66264000D03*
D32*
X163500000Y-65039000D03*
%TD*%
D33*
%TO.C,D27*%
X65087500Y-87437500D03*
D32*
X65087500Y-88662500D03*
X65087500Y-92212500D03*
D34*
X65087500Y-93437500D03*
%TD*%
D33*
%TO.C,D12*%
X144450000Y-57764000D03*
D32*
X144450000Y-58989000D03*
D34*
X144450000Y-63764000D03*
D32*
X144450000Y-62539000D03*
%TD*%
D33*
%TO.C,D25*%
X86300000Y-82736000D03*
D32*
X86300000Y-83961000D03*
D34*
X86300000Y-88736000D03*
D32*
X86300000Y-87511000D03*
%TD*%
D33*
%TO.C,D34*%
X106350000Y-88364000D03*
D32*
X106350000Y-89589000D03*
D34*
X106350000Y-94364000D03*
D32*
X106350000Y-93139000D03*
%TD*%
D33*
%TO.C,D4*%
X118250000Y-27214000D03*
D32*
X118250000Y-28439000D03*
X118250000Y-31989000D03*
D34*
X118250000Y-33214000D03*
%TD*%
D39*
%TO.C,D50*%
X178344519Y-165431196D03*
D38*
X178174032Y-166644274D03*
D40*
X177509481Y-171372804D03*
D38*
X177679968Y-170159726D03*
%TD*%
%TO.C,D51*%
X162389513Y-147771078D03*
D39*
X162560000Y-146558000D03*
D38*
X161895449Y-151286530D03*
D40*
X161724962Y-152499608D03*
%TD*%
D32*
%TO.C,D1*%
X163500000Y-28439000D03*
D33*
X163500000Y-27214000D03*
D32*
X163500000Y-31989000D03*
D34*
X163500000Y-33214000D03*
%TD*%
D33*
%TO.C,D47*%
X30321250Y-125908000D03*
D32*
X30321250Y-127133000D03*
X30321250Y-130683000D03*
D34*
X30321250Y-131908000D03*
%TD*%
D32*
%TO.C,D6*%
X64250000Y-28439000D03*
D33*
X64250000Y-27214000D03*
D32*
X64250000Y-31989000D03*
D34*
X64250000Y-33214000D03*
%TD*%
D32*
%TO.C,D24*%
X106350000Y-70539000D03*
D33*
X106350000Y-69314000D03*
D32*
X106350000Y-74089000D03*
D34*
X106350000Y-75314000D03*
%TD*%
D33*
%TO.C,D3*%
X121400000Y-27214000D03*
D32*
X121400000Y-28439000D03*
D34*
X121400000Y-33214000D03*
D32*
X121400000Y-31989000D03*
%TD*%
D33*
%TO.C,D16*%
X68250000Y-59764000D03*
D32*
X68250000Y-60989000D03*
X68250000Y-64539000D03*
D34*
X68250000Y-65764000D03*
%TD*%
D33*
%TO.C,D35*%
X87300000Y-92364000D03*
D32*
X87300000Y-93589000D03*
D34*
X87300000Y-98364000D03*
D32*
X87300000Y-97139000D03*
%TD*%
%TO.C,D43*%
X125400000Y-113639000D03*
D33*
X125400000Y-112414000D03*
D32*
X125400000Y-117189000D03*
D34*
X125400000Y-118414000D03*
%TD*%
D43*
%TO.C,D_SOL_1*%
X79121000Y-54484000D03*
D44*
X79121000Y-56642000D03*
D43*
X79121000Y-47624000D03*
D44*
X79121000Y-45466000D03*
%TD*%
D33*
%TO.C,D45*%
X87300000Y-111414000D03*
D32*
X87300000Y-112639000D03*
X87300000Y-116189000D03*
D34*
X87300000Y-117414000D03*
%TD*%
D32*
%TO.C,D22*%
X144450000Y-78039000D03*
D33*
X144450000Y-76814000D03*
D34*
X144450000Y-82814000D03*
D32*
X144450000Y-81589000D03*
%TD*%
D45*
%TO.C,ULH1*%
X101550000Y-27845000D03*
D11*
X101550000Y-30385000D03*
X101550000Y-32925000D03*
X101550000Y-35465000D03*
X101550000Y-38005000D03*
X101550000Y-40545000D03*
X101550000Y-43085000D03*
X101550000Y-45625000D03*
X101550000Y-48165000D03*
X101550000Y-50705000D03*
X101550000Y-53245000D03*
X101550000Y-55785000D03*
X101550000Y-58325000D03*
X101550000Y-60865000D03*
X101550000Y-63405000D03*
X101550000Y-65945000D03*
X101550000Y-68485000D03*
X101550000Y-71025000D03*
X101550000Y-73565000D03*
X101550000Y-76105000D03*
X86310000Y-76105000D03*
X86310000Y-73565000D03*
X86310000Y-71025000D03*
X86310000Y-68485000D03*
X86310000Y-65945000D03*
X86310000Y-63405000D03*
X86310000Y-60865000D03*
X86310000Y-58325000D03*
X86310000Y-55785000D03*
X86310000Y-53245000D03*
X86310000Y-50705000D03*
X86310000Y-48165000D03*
X86310000Y-45625000D03*
X86310000Y-43085000D03*
X86310000Y-40545000D03*
X86310000Y-38005000D03*
X86310000Y-35465000D03*
X86310000Y-32925000D03*
X86310000Y-30385000D03*
X86310000Y-27845000D03*
X90118000Y-72294000D03*
X92658000Y-72294000D03*
X95198000Y-72294000D03*
X97738000Y-72294000D03*
%TD*%
D33*
%TO.C,D20*%
X185550000Y-98364000D03*
D32*
X185550000Y-99589000D03*
D34*
X185550000Y-104364000D03*
D32*
X185550000Y-103139000D03*
%TD*%
D45*
%TO.C,J_SOL_1*%
X73787000Y-51562000D03*
D46*
X73787000Y-49022000D03*
%TD*%
D32*
%TO.C,D14*%
X106350000Y-51489000D03*
D33*
X106350000Y-50264000D03*
D34*
X106350000Y-56264000D03*
D32*
X106350000Y-55039000D03*
%TD*%
%TO.C,D31*%
X163500000Y-99589000D03*
D33*
X163500000Y-98364000D03*
D32*
X163500000Y-103139000D03*
D34*
X163500000Y-104364000D03*
%TD*%
D32*
%TO.C,D44*%
X106350000Y-108639000D03*
D33*
X106350000Y-107414000D03*
D34*
X106350000Y-113414000D03*
D32*
X106350000Y-112189000D03*
%TD*%
D39*
%TO.C,D52*%
X143673519Y-143841196D03*
D38*
X143503032Y-145054274D03*
X143008968Y-148569726D03*
D40*
X142838481Y-149782804D03*
%TD*%
D33*
%TO.C,D36*%
X68250000Y-97864000D03*
D32*
X68250000Y-99089000D03*
X68250000Y-102639000D03*
D34*
X68250000Y-103864000D03*
%TD*%
D11*
%TO.C,SW48_RH10*%
X30693750Y-111075000D03*
D16*
X14255750Y-102820000D03*
D12*
X26193750Y-111075000D03*
D11*
X21693750Y-111075000D03*
D10*
X28733750Y-116155000D03*
D13*
X21113750Y-111075000D03*
X31273750Y-111075000D03*
D17*
X38131750Y-118060000D03*
D16*
X38131750Y-102820000D03*
D17*
X14255750Y-118060000D03*
D10*
X22383750Y-113615000D03*
%TD*%
D33*
%TO.C,D41*%
X181991000Y-116507000D03*
D32*
X181991000Y-117732000D03*
D34*
X181991000Y-122507000D03*
D32*
X181991000Y-121282000D03*
%TD*%
%TO.C,D28_RH10*%
X4921250Y-86220500D03*
D33*
X4921250Y-84995500D03*
D34*
X4921250Y-90995500D03*
D32*
X4921250Y-89770500D03*
%TD*%
D47*
%TO.C,R2*%
X67447000Y-44081000D03*
D48*
X77607000Y-44081000D03*
%TD*%
D33*
%TO.C,D23*%
X125400000Y-74314000D03*
D32*
X125400000Y-75539000D03*
D34*
X125400000Y-80314000D03*
D32*
X125400000Y-79089000D03*
%TD*%
%TO.C,D08_RH10*%
X952500Y-67976750D03*
D33*
X952500Y-66751750D03*
D34*
X952500Y-72751750D03*
D32*
X952500Y-71526750D03*
%TD*%
D38*
%TO.C,D30*%
X185322551Y-122017470D03*
D39*
X185493038Y-120804392D03*
D40*
X184658000Y-126746000D03*
D38*
X184828487Y-125532922D03*
%TD*%
D33*
%TO.C,D10*%
X185550000Y-79314000D03*
D32*
X185550000Y-80539000D03*
D34*
X185550000Y-85314000D03*
D32*
X185550000Y-84089000D03*
%TD*%
D33*
%TO.C,D57*%
X46818750Y-141464000D03*
D32*
X46818750Y-142689000D03*
D34*
X46818750Y-147464000D03*
D32*
X46818750Y-146239000D03*
%TD*%
D39*
%TO.C,D53*%
X123861519Y-148179470D03*
D38*
X123691032Y-149392548D03*
X123196968Y-152908000D03*
D40*
X123026481Y-154121078D03*
%TD*%
M02*
