%TF.GenerationSoftware,KiCad,Pcbnew,(6.0.5-0)*%
%TF.CreationDate,2023-02-03T13:19:04-08:00*%
%TF.ProjectId,ergodonk_pcb,6572676f-646f-46e6-9b5f-7063622e6b69,rev?*%
%TF.SameCoordinates,Original*%
%TF.FileFunction,Profile,NP*%
%FSLAX46Y46*%
G04 Gerber Fmt 4.6, Leading zero omitted, Abs format (unit mm)*
G04 Created by KiCad (PCBNEW (6.0.5-0)) date 2023-02-03 13:19:04*
%MOMM*%
%LPD*%
G01*
G04 APERTURE LIST*
%TA.AperFunction,Profile*%
%ADD10C,0.100000*%
%TD*%
%TA.AperFunction,Profile*%
%ADD11C,0.120000*%
%TD*%
G04 APERTURE END LIST*
D10*
X14587385Y-151341473D02*
X14625130Y-151351815D01*
X196745588Y-179336868D02*
X196775782Y-179296626D01*
X195681837Y-180059481D02*
X195730044Y-180045134D01*
X205107445Y-58272476D02*
X205097720Y-58197801D01*
X38770492Y-23606052D02*
X38716934Y-23634723D01*
X35045483Y-27293044D02*
X35010684Y-27281054D01*
X15316628Y-151304975D02*
X15316628Y-151304975D01*
X20192791Y-122402814D02*
X18754635Y-130362012D01*
X35545460Y-27596152D02*
X35518108Y-27571520D01*
X181213492Y-23406681D02*
X181150727Y-23401861D01*
X35010684Y-27281054D02*
X34975611Y-27269946D01*
X15422986Y-151255166D02*
X15457159Y-151236118D01*
X29342106Y-65879129D02*
X30806614Y-57744741D01*
X-11467290Y-63032792D02*
X-11467290Y-63032792D01*
X14935499Y-151385695D02*
X14974610Y-151383741D01*
X15205603Y-151343278D02*
X15243027Y-151331829D01*
X196714417Y-179376366D02*
X196745588Y-179336868D01*
X17111840Y-139561979D02*
X17111840Y-139561979D01*
X35172757Y-39511745D02*
X33701527Y-47653367D01*
X196229820Y-179811766D02*
X196271775Y-179784004D01*
X-11433832Y-83134838D02*
X-11420143Y-83178741D01*
X15616969Y-151123388D02*
X15631805Y-151110603D01*
X34106050Y-27275913D02*
X34071147Y-27287495D01*
X33652428Y-27514027D02*
X-10725216Y-61875242D01*
X17111840Y-139561979D02*
X16100016Y-139561979D01*
X15778888Y-150953878D02*
X15790714Y-150938253D01*
X15946537Y-150645536D02*
X15946537Y-150645536D01*
X17184393Y-159478016D02*
X17196207Y-159508080D01*
X17831560Y-160358768D02*
X17860119Y-160380849D01*
X195918807Y-179976144D02*
X195964893Y-179956000D01*
X204982690Y-57761222D02*
X204954362Y-57691379D01*
X38665241Y-23664960D02*
X38615248Y-23696711D01*
X205114415Y-58347482D02*
X205107445Y-58272476D01*
X34975611Y-27269946D02*
X34940281Y-27259724D01*
X36016724Y-28640652D02*
X36016724Y-28640652D01*
X17397338Y-159890498D02*
X17416271Y-159918158D01*
X35672415Y-27729072D02*
X35648381Y-27701240D01*
X35572186Y-27621461D02*
X35545460Y-27596152D01*
X-11515376Y-82683788D02*
X-11511786Y-82729613D01*
X32479378Y-48453319D02*
X33523758Y-48637286D01*
X38118800Y-24159089D02*
X38087763Y-24204295D01*
X15490640Y-151215876D02*
X15523397Y-151194461D01*
X14740364Y-151374800D02*
X14779213Y-151379731D01*
X16100016Y-139430188D02*
X17586749Y-131171781D01*
X196682288Y-179415105D02*
X196714417Y-179376366D01*
X15646406Y-151097562D02*
X15660771Y-151084271D01*
X18708409Y-160760208D02*
X18779386Y-160772663D01*
X19374236Y-121242673D02*
X20856316Y-113010106D01*
X28690983Y-75378289D02*
X27664174Y-75197419D01*
X36012661Y-28787689D02*
X36015059Y-28750994D01*
X35941008Y-28207419D02*
X35928881Y-28172703D01*
X34503631Y-27207709D02*
X34466862Y-27209346D01*
X17131478Y-139343381D02*
X17131478Y-139343381D01*
X36005110Y-28860847D02*
X36009345Y-28824313D01*
X14004685Y-150933113D02*
X14016403Y-150948782D01*
X18568036Y-160727877D02*
X18637938Y-160745277D01*
X14238630Y-151168082D02*
X14254450Y-151179590D01*
X-11381137Y-62753998D02*
X-11401534Y-62808704D01*
X18922589Y-160790120D02*
X119448246Y-169515691D01*
X204816041Y-57423816D02*
X204775349Y-57360269D01*
X36016536Y-28714245D02*
X36017092Y-28677458D01*
X-11487243Y-82911605D02*
X-11478574Y-82956688D01*
X35045483Y-27293044D02*
X35045483Y-27293044D01*
X13950280Y-150851720D02*
X13950280Y-150851720D01*
X17099955Y-150645536D02*
X17099955Y-159045537D01*
X195286113Y-180131222D02*
X195336249Y-180126520D01*
X-11420364Y-62863967D02*
X-11437611Y-62919757D01*
X18576869Y-131346456D02*
X17131478Y-139343381D01*
X18922589Y-160790120D02*
X18922589Y-160790120D01*
X195235875Y-180134694D02*
X195235875Y-180134694D01*
X26006390Y-84406167D02*
X26006390Y-84406167D01*
X35518108Y-27571520D02*
X35490159Y-27547594D01*
X35310727Y-27419433D02*
X35310727Y-27419433D01*
X34430148Y-27211905D02*
X34393526Y-27215382D01*
X35761406Y-27846237D02*
X35740262Y-27816108D01*
X17127109Y-139370483D02*
X17123629Y-139397686D01*
X38615248Y-23696711D02*
X38566793Y-23729921D01*
X36821232Y-30391888D02*
X36821232Y-30391888D01*
X37865714Y-24670233D02*
X37850650Y-24721135D01*
X34540411Y-27206995D02*
X34503631Y-27207709D01*
X15631805Y-151110603D02*
X15646406Y-151097562D01*
X196544682Y-179561960D02*
X196580396Y-179526525D01*
X17100245Y-159071234D02*
X17101111Y-159096896D01*
X23710408Y-102938367D02*
X23710408Y-102938367D01*
X194884269Y-180124548D02*
X194934319Y-180129701D01*
X31844796Y-57927671D02*
X30375119Y-66061544D01*
X33901551Y-27358320D02*
X33868752Y-27375016D01*
X182657120Y-24207995D02*
X182618325Y-24158438D01*
X181523518Y-23459495D02*
X181523518Y-23459495D01*
X36006041Y-28493948D02*
X36001077Y-28457511D01*
X14625130Y-151351815D02*
X14663239Y-151360827D01*
X196580396Y-179526525D02*
X196615246Y-179490222D01*
X196187203Y-179838487D02*
X196229820Y-179811766D01*
X18637938Y-160745277D02*
X18708409Y-160760208D01*
X35279015Y-27400747D02*
X35246860Y-27382872D01*
X34176712Y-27255383D02*
X34141244Y-27265208D01*
X15013665Y-151380407D02*
X15052576Y-151375691D01*
X17416271Y-159918158D02*
X17435658Y-159945526D01*
X33742149Y-27449798D02*
X33711719Y-27470448D01*
X205120015Y-58498185D02*
X205118612Y-58422744D01*
X18754635Y-130362012D02*
X17764000Y-130187360D01*
X35432529Y-27501900D02*
X35402876Y-27480152D01*
X-11494901Y-82866338D02*
X-11487243Y-82911605D01*
X181024830Y-23398000D02*
X181024830Y-23398000D01*
X14405344Y-151270192D02*
X14440746Y-151287020D01*
X23532639Y-103922811D02*
X22036087Y-112202405D01*
X194834340Y-180118154D02*
X194884269Y-180124548D01*
X33523758Y-48637286D02*
X33523758Y-48637286D01*
X196143944Y-179864153D02*
X196187203Y-179838487D01*
X15802268Y-150922414D02*
X15824522Y-150890147D01*
X35718366Y-27786519D02*
X35695747Y-27757503D01*
X14476685Y-151302573D02*
X14513128Y-151316840D01*
X17499613Y-160029713D02*
X17522403Y-160057653D01*
X35490159Y-27547594D02*
X35461629Y-27524384D01*
X36999001Y-29407452D02*
X35942215Y-29221417D01*
X33901551Y-27358320D02*
X33901551Y-27358320D01*
X18850801Y-160782636D02*
X18922589Y-160790120D01*
X35887310Y-28070477D02*
X35871754Y-28037118D01*
X182536299Y-24063022D02*
X182493116Y-24017244D01*
X-11499458Y-63204934D02*
X-11506863Y-63262788D01*
X-11095336Y-62246637D02*
X-11130284Y-62293470D01*
X33773081Y-27429921D02*
X33742149Y-27449798D01*
X17231166Y-159590330D02*
X17242161Y-159614472D01*
X182694404Y-24258731D02*
X182657120Y-24207995D01*
X-11506863Y-63262788D02*
X-11512616Y-63320830D01*
X35598255Y-27647421D02*
X35572186Y-27621461D01*
X15715802Y-151028656D02*
X15728937Y-151014157D01*
X195633259Y-180072667D02*
X195681837Y-180059481D01*
X35310727Y-27419433D02*
X35279015Y-27400747D01*
X17569413Y-160112274D02*
X17593622Y-160138943D01*
X17455492Y-159972600D02*
X17455492Y-159972600D01*
X34071147Y-27287495D02*
X34036550Y-27299946D01*
X14223012Y-151156295D02*
X14238630Y-151168082D01*
X17775673Y-160313161D02*
X17803409Y-160336203D01*
X18754635Y-130362012D02*
X18754635Y-130362012D01*
X34212416Y-27246452D02*
X34176712Y-27255383D01*
X17764000Y-130187360D02*
X19196986Y-122227109D01*
X39333844Y-23425665D02*
X39250903Y-23441169D01*
X14148097Y-151093274D02*
X14148097Y-151093274D01*
X181763426Y-23535523D02*
X181704380Y-23513777D01*
X39585623Y-23399736D02*
X39501318Y-23404935D01*
X195872262Y-179995131D02*
X195918807Y-179976144D01*
X195777862Y-180029626D02*
X195825274Y-180012958D01*
X204854316Y-57488779D02*
X204816041Y-57423816D01*
X39250903Y-23441169D02*
X39168644Y-23460080D01*
X17104567Y-159148072D02*
X17107153Y-159173569D01*
X-11501546Y-82820905D02*
X-11494901Y-82866338D01*
X182047295Y-23670928D02*
X181992222Y-23640362D01*
X17477307Y-160001360D02*
X17499613Y-160029713D01*
X21858323Y-113186841D02*
X21858323Y-113186841D01*
X-10942630Y-62069844D02*
X-10982653Y-62112361D01*
X-11021467Y-62156021D02*
X-11059046Y-62200799D01*
X17343345Y-159805767D02*
X17360867Y-159834302D01*
X17099955Y-159045537D02*
X17100245Y-159071234D01*
X34723884Y-27217246D02*
X34687304Y-27213356D01*
X18039077Y-160502375D02*
X18101402Y-160538581D01*
X195034689Y-180136295D02*
X195084964Y-180137739D01*
X17668993Y-160216322D02*
X17695012Y-160241221D01*
X182306751Y-23848037D02*
X182257084Y-23809460D01*
X38000168Y-24352657D02*
X37973398Y-24405007D01*
X35993893Y-28933580D02*
X35993893Y-28933580D01*
X35838176Y-27971665D02*
X35820172Y-27939601D01*
X15754436Y-150984468D02*
X15766795Y-150969283D01*
X17803409Y-160336203D02*
X17831560Y-160358768D01*
X-10901420Y-62028495D02*
X-10942630Y-62069844D01*
X196833162Y-179213977D02*
X196860309Y-179171601D01*
X38182569Y-24077480D02*
X38150461Y-24116682D01*
X17172820Y-159447072D02*
X17172820Y-159447072D01*
X32656632Y-47468885D02*
X34122693Y-39326744D01*
X205118612Y-58422744D02*
X205114415Y-58347482D01*
X18101402Y-160538581D02*
X18164961Y-160572576D01*
X34904712Y-27250393D02*
X34868919Y-27241956D01*
X14387867Y-151261310D02*
X14405344Y-151270192D01*
X14353423Y-151242641D02*
X14370559Y-151252125D01*
X38341881Y-23916046D02*
X38299228Y-23956918D01*
X15052576Y-151375691D02*
X15091261Y-151369612D01*
X14105900Y-151052355D02*
X14119717Y-151066236D01*
X15728937Y-151014157D02*
X15741816Y-150999426D01*
X17099955Y-150645536D02*
X17099955Y-150645536D01*
X182730153Y-24310606D02*
X182694404Y-24258731D01*
X15280047Y-151319058D02*
X15316628Y-151304975D01*
X181523518Y-23459495D02*
X181462182Y-23445119D01*
X205114914Y-121640924D02*
X205117137Y-121605221D01*
X22036087Y-112202405D02*
X21033562Y-112025670D01*
X35781778Y-27876872D02*
X35761406Y-27846237D01*
X35079973Y-27305904D02*
X35045483Y-27293044D01*
X17360867Y-159834302D02*
X17378868Y-159862546D01*
X35695747Y-27757503D02*
X35672415Y-27729072D01*
X182355244Y-23888142D02*
X182306751Y-23848037D01*
X15702415Y-151042920D02*
X15715802Y-151028656D01*
X37902846Y-24565069D02*
X37883172Y-24618076D01*
X17435658Y-159945526D02*
X17455492Y-159972600D01*
X14177413Y-151119290D02*
X14192400Y-151131897D01*
X35902027Y-28104215D02*
X35887310Y-28070477D01*
X17748358Y-160289646D02*
X17775673Y-160313161D01*
X20371075Y-121418378D02*
X19374236Y-121242673D01*
X22524434Y-103745038D02*
X23532639Y-103922811D01*
X196353627Y-179725408D02*
X196393459Y-179694614D01*
X195964893Y-179956000D02*
X196010502Y-179934697D01*
X194834340Y-180118154D02*
X194834340Y-180118154D01*
X14119717Y-151066236D02*
X14133784Y-151079877D01*
X17131478Y-139343381D02*
X17127109Y-139370483D01*
X34248315Y-27238423D02*
X34212416Y-27246452D01*
X14192400Y-151131897D02*
X14207600Y-151144233D01*
X-11467290Y-63032792D02*
X-11479675Y-63089909D01*
X14133784Y-151079877D02*
X14148097Y-151093274D01*
X35993893Y-28933580D02*
X35999959Y-28897275D01*
X30197350Y-67044950D02*
X30197350Y-67044950D01*
X-11516721Y-63379034D02*
X-11519181Y-63437371D01*
X14405344Y-151270192D02*
X14405344Y-151270192D01*
X15129684Y-151362178D02*
X15167810Y-151353397D01*
X35147888Y-27334179D02*
X35114113Y-27319618D01*
X195436095Y-180113437D02*
X195485746Y-180105064D01*
X14148097Y-151093274D02*
X14162644Y-151106415D01*
X30806614Y-57744741D02*
X31844796Y-57927671D01*
X182257084Y-23809460D02*
X182206274Y-23772436D01*
X15457159Y-151236118D02*
X15490640Y-151215876D01*
X15741816Y-150999426D02*
X15754436Y-150984468D01*
X17695012Y-160241221D02*
X17721469Y-160265664D01*
X205120015Y-121497953D02*
X205120015Y-58498185D01*
X15316628Y-151304975D02*
X15352689Y-151289613D01*
X204775349Y-57360269D02*
X204775349Y-57360269D01*
X181992222Y-23640362D02*
X181936221Y-23611504D01*
X27486920Y-76181344D02*
X28513215Y-76362211D01*
X196775782Y-179296626D02*
X196804980Y-179255657D01*
X-11520000Y-63495813D02*
X-11520000Y-63495813D01*
X205008463Y-57832090D02*
X204982690Y-57761222D01*
X196649220Y-179453069D02*
X196682288Y-179415105D01*
X15586611Y-151148183D02*
X15586611Y-151148183D01*
X16100016Y-149645070D02*
X16100016Y-149645070D01*
X15091261Y-151369612D02*
X15129684Y-151362178D01*
X14040655Y-150979484D02*
X14053182Y-150994509D01*
X38087763Y-24204295D02*
X38057528Y-24251896D01*
X205119693Y-121533726D02*
X205120015Y-121497953D01*
X-11389775Y-83265664D02*
X13950280Y-150851720D01*
X14162644Y-151106415D02*
X14177413Y-151119290D01*
X24351197Y-93599401D02*
X24351197Y-93599401D01*
X34760373Y-27222055D02*
X34723884Y-27217246D01*
X181087824Y-23398966D02*
X181024830Y-23398000D01*
X17134572Y-159324666D02*
X17141110Y-159349447D01*
X181400462Y-23432645D02*
X181338408Y-23422078D01*
X21033562Y-112025670D02*
X21033562Y-112025670D01*
X22701684Y-102760602D02*
X22701684Y-102760602D01*
X34320631Y-27225082D02*
X34284392Y-27231299D01*
X-11059046Y-62200799D02*
X-11095336Y-62246637D01*
X15790714Y-150938253D02*
X15802268Y-150922414D01*
X18498772Y-160708017D02*
X18568036Y-160727877D01*
X14028394Y-150964240D02*
X14040655Y-150979484D01*
X182730153Y-24310606D02*
X182730153Y-24310606D01*
X18576869Y-131346456D02*
X18576869Y-131346456D01*
X25187836Y-94762639D02*
X25187836Y-94762639D01*
X195535177Y-180095476D02*
X195584358Y-180084676D01*
X25187836Y-94762639D02*
X23710408Y-102938367D01*
X35820172Y-27939601D02*
X35801370Y-27907998D01*
X14270470Y-151190817D02*
X14286685Y-151201760D01*
X27664174Y-75197419D02*
X27664174Y-75197419D01*
X195336249Y-180126520D02*
X195386252Y-180120590D01*
X181150727Y-23401861D02*
X181087824Y-23398966D01*
X34940281Y-27259724D02*
X34904712Y-27250393D01*
X196313051Y-179755214D02*
X196353627Y-179725408D01*
X35461629Y-27524384D02*
X35432529Y-27501900D01*
X35764969Y-30205852D02*
X36821232Y-30391888D01*
X14016403Y-150948782D02*
X14028394Y-150964240D01*
X18430210Y-160685702D02*
X18498772Y-160708017D01*
X15884184Y-150789073D02*
X15901649Y-150754064D01*
X17242161Y-159614472D02*
X17254022Y-159639691D01*
X196432493Y-179662852D02*
X196470717Y-179630143D01*
X13993241Y-150917236D02*
X14004685Y-150933113D01*
X15901649Y-150754064D02*
X15917874Y-150718450D01*
X181276068Y-23413422D02*
X181213492Y-23406681D01*
X-11226887Y-62439613D02*
X-11256274Y-62490101D01*
X35214277Y-27365814D02*
X35181281Y-27349580D01*
X204775349Y-57360269D02*
X182730153Y-24310606D01*
X18779386Y-160772663D02*
X18850801Y-160782636D01*
X-11130284Y-62293470D02*
X-11163872Y-62341266D01*
X35246860Y-27382872D02*
X35214277Y-27365814D01*
X17593622Y-160138943D02*
X17618292Y-160165178D01*
X26006390Y-84406167D02*
X27486920Y-76181344D01*
X197086202Y-178667878D02*
X197099826Y-178619444D01*
X182154352Y-23736989D02*
X182101349Y-23703145D01*
X39417353Y-23413582D02*
X39333844Y-23425665D01*
X32022561Y-56943757D02*
X32022561Y-56943757D01*
X17123629Y-139397686D02*
X17120866Y-139424971D01*
X35545460Y-27596152D02*
X35545460Y-27596152D01*
X38473846Y-23800514D02*
X38429026Y-23837792D01*
X15586611Y-151148183D02*
X15601904Y-151135916D01*
X182618325Y-24158438D02*
X182578043Y-24110100D01*
X119448246Y-169515691D02*
X194834340Y-180118154D01*
X196470717Y-179630143D02*
X196508118Y-179596505D01*
X33968340Y-27327431D02*
X33934760Y-27342453D01*
X197149952Y-178373037D02*
X197149952Y-178373037D01*
X36015433Y-28603867D02*
X36013221Y-28567143D01*
X197038199Y-178811043D02*
X197055378Y-178763707D01*
X197123486Y-178521656D02*
X197133514Y-178472351D01*
X205118732Y-121569485D02*
X205119693Y-121533726D01*
X17110309Y-159198992D02*
X17114032Y-159224331D01*
X17326308Y-159776940D02*
X17343345Y-159805767D01*
X16100016Y-140561910D02*
X17099955Y-140561910D01*
X33701527Y-47653367D02*
X32656632Y-47468885D01*
X38716934Y-23634723D02*
X38665241Y-23664960D01*
X33836398Y-27392521D02*
X33804503Y-27410825D01*
X17101111Y-159096896D02*
X17102553Y-159122512D01*
X38150461Y-24116682D02*
X38118800Y-24159089D01*
X182578043Y-24110100D02*
X182536299Y-24063022D01*
X205108608Y-121712190D02*
X205112069Y-121676583D01*
X16100016Y-139430188D02*
X16100016Y-139430188D01*
X35648381Y-27701240D02*
X35623658Y-27674018D01*
X31844796Y-57927671D02*
X31844796Y-57927671D01*
X196271775Y-179784004D02*
X196313051Y-179755214D01*
X13982076Y-150901154D02*
X13993241Y-150917236D01*
X35172757Y-39511745D02*
X35172757Y-39511745D01*
X35942215Y-29221417D02*
X35942215Y-29221417D01*
X38883854Y-23553615D02*
X38826078Y-23578998D01*
X17099955Y-149645070D02*
X16100016Y-149645070D01*
X14701678Y-151368497D02*
X14701678Y-151368497D01*
X-11163872Y-62341266D02*
X-11196080Y-62389991D01*
X17172820Y-159447072D02*
X17184393Y-159478016D01*
X35350522Y-38527826D02*
X34299935Y-38342308D01*
X17978046Y-160463995D02*
X18039077Y-160502375D01*
X14896367Y-151386270D02*
X14935499Y-151385695D01*
X34299935Y-38342308D02*
X34299935Y-38342308D01*
X-11490397Y-63147299D02*
X-11499458Y-63204934D01*
X181821778Y-23559069D02*
X181763426Y-23535523D01*
X13971192Y-150884872D02*
X13982076Y-150901154D01*
X34002275Y-27313259D02*
X33968340Y-27327431D01*
X196860309Y-179171601D02*
X196886403Y-179128545D01*
X-11512616Y-63320830D02*
X-11516721Y-63379034D01*
X37828408Y-24817552D02*
X37828408Y-24817552D01*
X17099955Y-159045537D02*
X17099955Y-159045537D01*
X-11519181Y-63437371D02*
X-11520000Y-63495813D01*
X-11359190Y-62699882D02*
X-11381137Y-62753998D01*
X196010502Y-179934697D02*
X196055575Y-179912271D01*
X34176712Y-27255383D02*
X34176712Y-27255383D01*
X35871754Y-28037118D02*
X35855372Y-28004176D01*
X196055575Y-179912271D02*
X196100061Y-179888752D01*
X34650650Y-27210385D02*
X34613938Y-27208334D01*
X17266731Y-159665813D02*
X17280269Y-159692660D01*
X14254450Y-151179590D02*
X14270470Y-151190817D01*
X23710408Y-102938367D02*
X22701684Y-102760602D01*
X15388152Y-151273005D02*
X15422986Y-151255166D01*
X14065974Y-151009312D02*
X14079025Y-151023890D01*
X-11468896Y-83001571D02*
X-11458211Y-83046235D01*
X182493116Y-24017244D02*
X182448519Y-23972807D01*
X196010502Y-179934697D02*
X196010502Y-179934697D01*
X17102553Y-159122512D02*
X17104567Y-159148072D01*
X15932842Y-150682263D02*
X15946537Y-150645536D01*
X195633259Y-180072667D02*
X195633259Y-180072667D01*
X14303092Y-151212417D02*
X14319686Y-151222784D01*
X18362416Y-160660939D02*
X18362416Y-160660939D01*
X38385092Y-23876320D02*
X38341881Y-23916046D01*
X205120015Y-121497953D02*
X205120015Y-121497953D01*
X-11437611Y-62919757D02*
X-11453258Y-62976043D01*
X-11453258Y-62976043D02*
X-11467290Y-63032792D01*
X35181281Y-27349580D02*
X35147888Y-27334179D01*
X15946537Y-150645536D02*
X17099955Y-150645536D01*
X17120866Y-139424971D02*
X17118650Y-139452319D01*
X17155856Y-159398578D02*
X17164062Y-159422909D01*
X34796733Y-27227783D02*
X34760373Y-27222055D01*
X36015059Y-28750994D02*
X36016536Y-28714245D01*
X196100061Y-179888752D02*
X196143944Y-179864153D01*
X18164961Y-160572576D02*
X18229690Y-160604324D01*
X-11511786Y-82729613D02*
X-11507175Y-82775324D01*
X28690983Y-75378289D02*
X28690983Y-75378289D01*
X17099955Y-140561910D02*
X17099955Y-149645070D01*
X17141110Y-159349447D02*
X17148205Y-159374087D01*
X38566793Y-23729921D02*
X38519714Y-23764540D01*
X195185579Y-180136937D02*
X195235875Y-180134694D01*
X15917874Y-150718450D02*
X15932842Y-150682263D01*
X181338408Y-23422078D02*
X181276068Y-23413422D01*
X15523397Y-151194461D02*
X15555397Y-151171891D01*
X35962633Y-28277715D02*
X35952260Y-28242429D01*
X37850650Y-24721135D02*
X37838155Y-24770376D01*
X14818187Y-151383287D02*
X14857251Y-151385467D01*
X17254022Y-159639691D02*
X17266731Y-159665813D01*
X14974610Y-151383741D02*
X15013665Y-151380407D01*
X36017092Y-28677458D02*
X36016724Y-28640652D01*
X39670155Y-23398000D02*
X39585623Y-23399736D01*
X181992222Y-23640362D02*
X181992222Y-23640362D01*
X17128594Y-159299755D02*
X17134572Y-159324666D01*
X182101349Y-23703145D02*
X182047295Y-23670928D01*
X33868752Y-27375016D02*
X33836398Y-27392521D01*
X20856316Y-113010106D02*
X21858323Y-113186841D01*
X17643418Y-160190973D02*
X17668993Y-160216322D01*
X-11335709Y-62646386D02*
X-11359190Y-62699882D01*
X17107153Y-159173569D02*
X17110309Y-159198992D01*
X33681807Y-27491861D02*
X33652428Y-27514027D01*
X181644683Y-23493848D02*
X181584381Y-23475748D01*
X17294620Y-159720055D02*
X17309763Y-159747823D01*
X181704380Y-23513777D02*
X181644683Y-23493848D01*
X35887310Y-28070477D02*
X35887310Y-28070477D01*
X14779213Y-151379731D02*
X14818187Y-151383287D01*
X29342106Y-65879129D02*
X29342106Y-65879129D01*
X35350522Y-38527826D02*
X35350522Y-38527826D01*
X34299935Y-38342308D02*
X35764969Y-30205852D01*
X17721469Y-160265664D02*
X17748358Y-160289646D01*
X14370559Y-151252125D02*
X14387867Y-151261310D01*
X195730044Y-180045134D02*
X195777862Y-180029626D01*
X27664174Y-75197419D02*
X29164856Y-66863050D01*
X39501318Y-23404935D02*
X39417353Y-23413582D01*
X17123176Y-159274722D02*
X17128594Y-159299755D01*
X14092335Y-151038239D02*
X14105900Y-151052355D01*
X33523758Y-48637286D02*
X32022561Y-56943757D01*
X15766795Y-150969283D02*
X15778888Y-150953878D01*
X35928881Y-28172703D02*
X35915885Y-28138296D01*
X34393526Y-27215382D02*
X34357015Y-27219776D01*
X196911412Y-179084844D02*
X196935327Y-179040550D01*
X205085258Y-58123531D02*
X205070080Y-58049742D01*
X205097720Y-58197801D02*
X205085258Y-58123531D01*
X35623658Y-27674018D02*
X35598255Y-27647421D01*
X15674897Y-151070731D02*
X15688779Y-151056946D01*
X-10859050Y-61988335D02*
X-10901420Y-62028495D01*
X-11284222Y-62541421D02*
X-11310710Y-62593541D01*
X14207600Y-151144233D02*
X14223012Y-151156295D01*
X35980717Y-28349051D02*
X35972120Y-28313261D01*
X38429026Y-23837792D02*
X38385092Y-23876320D01*
X15013665Y-151380407D02*
X15013665Y-151380407D01*
X30983864Y-56760820D02*
X32479378Y-48453319D01*
X38028271Y-24301485D02*
X38000168Y-24352657D01*
X182206274Y-23772436D02*
X182154352Y-23736989D01*
X194984467Y-180133616D02*
X195034689Y-180136295D01*
X18295529Y-160633791D02*
X18362416Y-160660939D01*
X19196986Y-122227109D02*
X20192791Y-122402814D01*
X-10770923Y-61911685D02*
X-10815543Y-61949391D01*
X14319686Y-151222784D02*
X14336465Y-151232860D01*
X28513215Y-76362211D02*
X27027001Y-84586515D01*
X197019878Y-178857934D02*
X197038199Y-178811043D01*
X30983864Y-56760820D02*
X30983864Y-56760820D01*
X17918373Y-160423474D02*
X17978046Y-160463995D01*
X30197350Y-67044950D02*
X28690983Y-75378289D01*
X197000422Y-178904354D02*
X197019878Y-178857934D01*
X38299228Y-23956918D02*
X38214947Y-24041888D01*
X14053182Y-150994509D02*
X14065974Y-151009312D01*
X17860119Y-160380849D02*
X17860119Y-160380849D01*
X14336465Y-151232860D02*
X14353423Y-151242641D01*
X205099858Y-121783208D02*
X205099858Y-121783208D01*
X30375119Y-66061544D02*
X30375119Y-66061544D01*
X181879391Y-23584401D02*
X181821778Y-23559069D01*
X15865497Y-150823445D02*
X15884184Y-150789073D01*
X13950280Y-150851720D02*
X13960593Y-150868393D01*
X197142338Y-178422803D02*
X197149952Y-178373037D01*
X-11520000Y-82545812D02*
X-11520000Y-82545812D01*
X36009345Y-28824313D02*
X36012661Y-28787689D01*
X36999001Y-29407452D02*
X36999001Y-29407452D01*
X39006630Y-23508071D02*
X38943984Y-23529955D01*
X205104535Y-121747735D02*
X205108608Y-121712190D01*
X196886403Y-179128545D02*
X196886403Y-179128545D01*
X16100016Y-139561979D02*
X16100016Y-139561979D01*
X34466862Y-27209346D02*
X34430148Y-27211905D01*
X20371075Y-121418378D02*
X20371075Y-121418378D01*
X15601904Y-151135916D02*
X15616969Y-151123388D01*
X34284392Y-27231299D02*
X34248315Y-27238423D01*
X34036550Y-27299946D02*
X34002275Y-27313259D01*
X205112069Y-121676583D02*
X205114914Y-121640924D01*
X35740262Y-27816108D02*
X35718366Y-27786519D01*
X17309763Y-159747823D02*
X17326308Y-159776940D01*
X30375119Y-66061544D02*
X29342106Y-65879129D01*
X-10725216Y-61875242D02*
X-10770923Y-61911685D01*
X35341960Y-27438908D02*
X35310727Y-27419433D01*
X-10725216Y-61875242D02*
X-10725216Y-61875242D01*
X-11310710Y-62593541D02*
X-11335709Y-62646386D01*
X38826078Y-23578998D02*
X38770492Y-23606052D01*
X195084964Y-180137739D02*
X195135268Y-180137953D01*
X15845604Y-150857147D02*
X15865497Y-150823445D01*
X14079025Y-151023890D02*
X14092335Y-151038239D01*
X17618292Y-160165178D02*
X17643418Y-160190973D01*
X37828408Y-24817552D02*
X36999001Y-29407452D01*
X14663239Y-151360827D02*
X14701678Y-151368497D01*
X17378868Y-159862546D02*
X17397338Y-159890498D01*
X29164856Y-66863050D02*
X30197350Y-67044950D01*
X-11478574Y-82956688D02*
X-11468896Y-83001571D01*
X195584358Y-180084676D02*
X195633259Y-180072667D01*
X205031651Y-57903905D02*
X205031651Y-57903905D01*
X37924560Y-24511619D02*
X37902846Y-24565069D01*
X17164062Y-159422909D02*
X17172820Y-159447072D01*
X35972120Y-28313261D02*
X35962633Y-28277715D01*
X195386252Y-180120590D02*
X195436095Y-180113437D01*
X-11059046Y-62200799D02*
X-11059046Y-62200799D01*
X196886403Y-179128545D02*
X196911412Y-179084844D01*
X205052205Y-57976508D02*
X205031651Y-57903905D01*
X204954362Y-57691379D02*
X204923504Y-57622638D01*
X22701684Y-102760602D02*
X24173943Y-94583837D01*
X34466862Y-27209346D02*
X34466862Y-27209346D01*
X14440746Y-151287020D02*
X14476685Y-151302573D01*
X182402531Y-23929751D02*
X182355244Y-23888142D01*
X17764000Y-130187360D02*
X17764000Y-130187360D01*
X35942215Y-29221417D02*
X35993893Y-28933580D01*
X35372681Y-27459152D02*
X35341960Y-27438908D01*
X-11196080Y-62389991D02*
X-11226887Y-62439613D01*
X34577186Y-27207204D02*
X34540411Y-27206995D01*
X15802268Y-150922414D02*
X15802268Y-150922414D01*
X22036087Y-112202405D02*
X22036087Y-112202405D01*
X33711719Y-27470448D02*
X33681807Y-27491861D01*
X181936221Y-23611504D02*
X181879391Y-23584401D01*
X34613938Y-27208334D02*
X34577186Y-27207204D01*
X35980717Y-28349051D02*
X35980717Y-28349051D01*
X37948136Y-24458130D02*
X37924560Y-24511619D01*
X194934319Y-180129701D02*
X194984467Y-180133616D01*
X27027001Y-84586515D02*
X27027001Y-84586515D01*
X197133514Y-178472351D02*
X197142338Y-178422803D01*
X181024830Y-23398000D02*
X39670155Y-23398000D01*
X35999959Y-28897275D02*
X36005110Y-28860847D01*
X33804503Y-27410825D02*
X33773081Y-27429921D01*
X38943984Y-23529955D02*
X38883854Y-23553615D01*
X17148205Y-159374087D02*
X17155856Y-159398578D01*
X17099955Y-140561910D02*
X17099955Y-140561910D01*
X34122693Y-39326744D02*
X35172757Y-39511745D01*
X25829140Y-85390599D02*
X26849232Y-85570432D01*
X32022561Y-56943757D02*
X30983864Y-56760820D01*
X-11520000Y-82545812D02*
X-11519485Y-82591870D01*
X-11458211Y-83046235D02*
X-11446523Y-83090663D01*
X14513128Y-151316840D02*
X14550039Y-151329810D01*
X204923504Y-57622638D02*
X204890147Y-57555079D01*
X36821232Y-30391888D02*
X35350522Y-38527826D01*
X28513215Y-76362211D02*
X28513215Y-76362211D01*
X182448519Y-23972807D02*
X182402531Y-23929751D01*
X-11446523Y-83090663D02*
X-11433832Y-83134838D01*
X196649220Y-179453069D02*
X196649220Y-179453069D01*
X38214947Y-24041888D02*
X38182569Y-24077480D01*
X197055378Y-178763707D02*
X197071385Y-178715974D01*
X197071385Y-178715974D02*
X197086202Y-178667878D01*
X18362416Y-160660939D02*
X18430210Y-160685702D01*
X14701678Y-151368497D02*
X14740364Y-151374800D01*
X14857251Y-151385467D02*
X14896367Y-151386270D01*
X37883172Y-24618076D02*
X37865714Y-24670233D01*
X13960593Y-150868393D02*
X13971192Y-150884872D01*
X17196207Y-159508080D02*
X17211847Y-159545989D01*
X34357015Y-27219776D02*
X34320631Y-27225082D01*
X25366120Y-93778203D02*
X24351197Y-93599401D01*
X26849232Y-85570432D02*
X26849232Y-85570432D01*
X196615246Y-179490222D02*
X196649220Y-179453069D01*
X17118322Y-159249578D02*
X17123176Y-159274722D01*
X15824522Y-150890147D02*
X15845604Y-150857147D01*
X33652428Y-27514027D02*
X33652428Y-27514027D01*
X197055378Y-178763707D02*
X197055378Y-178763707D01*
X14286685Y-151201760D02*
X14303092Y-151212417D01*
X-10815543Y-61949391D02*
X-10859050Y-61988335D01*
X17545672Y-160085175D02*
X17569413Y-160112274D01*
X34868919Y-27241956D02*
X34832921Y-27234418D01*
X17522403Y-160057653D02*
X17545672Y-160085175D01*
X36001077Y-28457511D02*
X35995200Y-28421204D01*
X16100016Y-149645070D02*
X16100016Y-140561910D01*
X17309763Y-159747823D02*
X17309763Y-159747823D01*
X15352689Y-151289613D02*
X15388152Y-151273005D01*
X15243027Y-151331829D02*
X15280047Y-151319058D01*
X23532639Y-103922811D02*
X23532639Y-103922811D01*
X-11401534Y-62808704D02*
X-11420364Y-62863967D01*
X-11517943Y-82637868D02*
X-11515376Y-82683788D01*
X39006630Y-23508071D02*
X39006630Y-23508071D01*
X39168644Y-23460080D02*
X39087182Y-23482386D01*
X-11405456Y-83222356D02*
X-11389775Y-83265664D01*
X38057528Y-24251896D02*
X38028271Y-24301485D01*
X17860119Y-160380849D02*
X17918373Y-160423474D01*
X35915885Y-28138296D02*
X35902027Y-28104215D01*
X196935327Y-179040550D02*
X196958139Y-178995687D01*
X204890147Y-57555079D02*
X204854316Y-57488779D01*
X37838155Y-24770376D02*
X37828408Y-24817552D01*
X37973398Y-24405007D02*
X37948136Y-24458130D01*
X17455492Y-159972600D02*
X17477307Y-160001360D01*
X17118650Y-139452319D02*
X17111840Y-139561979D01*
X21858323Y-113186841D02*
X20371075Y-121418378D01*
X32656632Y-47468885D02*
X32656632Y-47468885D01*
X195235875Y-180134694D02*
X195286113Y-180131222D01*
X15167810Y-151353397D02*
X15205603Y-151343278D01*
X14550039Y-151329810D02*
X14587385Y-151341473D01*
X15660771Y-151084271D02*
X15674897Y-151070731D01*
X35995200Y-28421204D02*
X35988413Y-28385045D01*
X33701527Y-47653367D02*
X33701527Y-47653367D01*
X15555397Y-151171891D02*
X15586611Y-151148183D01*
X181462182Y-23445119D02*
X181400462Y-23432645D01*
X35988413Y-28385045D02*
X35980717Y-28349051D01*
X35402876Y-27480152D02*
X35372681Y-27459152D01*
X38519714Y-23764540D02*
X38473846Y-23800514D01*
X24351197Y-93599401D02*
X25829140Y-85390599D01*
X20192791Y-122402814D02*
X20192791Y-122402814D01*
X197149952Y-178373037D02*
X205099858Y-121783208D01*
X-11479675Y-63089909D02*
X-11490397Y-63147299D01*
X-11519485Y-82591870D02*
X-11517943Y-82637868D01*
X196804980Y-179255657D02*
X196833162Y-179213977D01*
X16100016Y-139561979D02*
X16100016Y-139430188D01*
X197112256Y-178570695D02*
X197123486Y-178521656D01*
X197099826Y-178619444D02*
X197112256Y-178570695D01*
X17114032Y-159224331D02*
X17118322Y-159249578D01*
X119448246Y-169515691D02*
X119448246Y-169515691D01*
X-11520000Y-63495813D02*
X-11520000Y-82545812D01*
X195825274Y-180012958D02*
X195872262Y-179995131D01*
X17280269Y-159692660D02*
X17294620Y-159720055D01*
X-10982653Y-62112361D02*
X-11021467Y-62156021D01*
X34760373Y-27222055D02*
X34760373Y-27222055D01*
X24173943Y-94583837D02*
X25187836Y-94762639D01*
X35801370Y-27907998D02*
X35781778Y-27876872D01*
X17211847Y-159545989D02*
X17231166Y-159590330D01*
X181584381Y-23475748D02*
X181523518Y-23459495D01*
X18229690Y-160604324D02*
X18295529Y-160633791D01*
X-11310710Y-62593541D02*
X-11310710Y-62593541D01*
X39087182Y-23482386D02*
X39006630Y-23508071D01*
X196979840Y-178950280D02*
X197000422Y-178904354D01*
X36010089Y-28530497D02*
X36006041Y-28493948D01*
X34832921Y-27234418D02*
X34796733Y-27227783D01*
X17099955Y-149645070D02*
X17099955Y-149645070D01*
X-11420143Y-83178741D02*
X-11405456Y-83222356D01*
X36013221Y-28567143D02*
X36010089Y-28530497D01*
X182402531Y-23929751D02*
X182402531Y-23929751D01*
X205117137Y-121605221D02*
X205118732Y-121569485D01*
X38214947Y-24041888D02*
X38214947Y-24041888D01*
X196958139Y-178995687D02*
X196979840Y-178950280D01*
X-11507175Y-82775324D02*
X-11501546Y-82820905D01*
X36016724Y-28640652D02*
X36015433Y-28603867D01*
X25366120Y-93778203D02*
X25366120Y-93778203D01*
X195135268Y-180137953D02*
X195185579Y-180136937D01*
X19374236Y-121242673D02*
X19374236Y-121242673D01*
X196353627Y-179725408D02*
X196353627Y-179725408D01*
X-11389775Y-83265664D02*
X-11389775Y-83265664D01*
X35855372Y-28004176D02*
X35838176Y-27971665D01*
X21033562Y-112025670D02*
X22524434Y-103745038D01*
X195485746Y-180105064D02*
X195535177Y-180095476D01*
X35114113Y-27319618D02*
X35079973Y-27305904D01*
X15688779Y-151056946D02*
X15702415Y-151042920D01*
X27027001Y-84586515D02*
X26006390Y-84406167D01*
X35952260Y-28242429D02*
X35941008Y-28207419D01*
X17586749Y-131171781D02*
X18576869Y-131346456D01*
X-11256274Y-62490101D02*
X-11284222Y-62541421D01*
X196508118Y-179596505D02*
X196544682Y-179561960D01*
X205070080Y-58049742D02*
X205052205Y-57976508D01*
X205120015Y-58498185D02*
X205120015Y-58498185D01*
X196393459Y-179694614D02*
X196432493Y-179662852D01*
X33934760Y-27342453D02*
X33901551Y-27358320D01*
X26849232Y-85570432D02*
X25366120Y-93778203D01*
X34687304Y-27213356D02*
X34650650Y-27210385D01*
X205099858Y-121783208D02*
X205104535Y-121747735D01*
X35740262Y-27816108D02*
X35740262Y-27816108D01*
X205031651Y-57903905D02*
X205008463Y-57832090D01*
X34141244Y-27265208D02*
X34106050Y-27275913D01*
X20716666Y-158699200D02*
G75*
G03*
X20716666Y-158699200I-1666666J0D01*
G01*
X16550000Y-158699200D02*
X21550000Y-158699200D01*
X19050000Y-156199200D02*
X19050000Y-161199200D01*
D11*
%TO.C,SW14*%
X116100000Y-54826000D02*
X116100000Y-51726000D01*
X116100000Y-51726000D02*
X112500000Y-51726000D01*
X112500000Y-54826000D02*
X116100000Y-54826000D01*
X112500000Y-51726000D02*
X112500000Y-54826000D01*
%TO.C,SW35*%
X97050000Y-93826000D02*
X93450000Y-93826000D01*
X93450000Y-96926000D02*
X97050000Y-96926000D01*
X93450000Y-93826000D02*
X93450000Y-96926000D01*
X97050000Y-96926000D02*
X97050000Y-93826000D01*
%TO.C,SW18_RH10*%
X39900000Y-66726000D02*
X36300000Y-66726000D01*
X36300000Y-69826000D02*
X39900000Y-69826000D01*
X36300000Y-66726000D02*
X36300000Y-69826000D01*
X39900000Y-69826000D02*
X39900000Y-66726000D01*
%TO.C,SW51*%
X168081369Y-151827871D02*
X171646334Y-152328894D01*
X168512805Y-148758040D02*
X168081369Y-151827871D01*
X172077770Y-149259063D02*
X168512805Y-148758040D01*
X171646334Y-152328894D02*
X172077770Y-149259063D01*
%TO.C,SW33*%
X131550000Y-94826000D02*
X131550000Y-97926000D01*
X131550000Y-97926000D02*
X135150000Y-97926000D01*
X135150000Y-97926000D02*
X135150000Y-94826000D01*
X135150000Y-94826000D02*
X131550000Y-94826000D01*
%TO.C,SW28_RH10*%
X12487500Y-85776000D02*
X12487500Y-88876000D01*
X12487500Y-88876000D02*
X16087500Y-88876000D01*
X16087500Y-88876000D02*
X16087500Y-85776000D01*
X16087500Y-85776000D02*
X12487500Y-85776000D01*
%TO.C,SW16*%
X78000000Y-64326000D02*
X78000000Y-61226000D01*
X78000000Y-61226000D02*
X74400000Y-61226000D01*
X74400000Y-64326000D02*
X78000000Y-64326000D01*
X74400000Y-61226000D02*
X74400000Y-64326000D01*
%TO.C,SW45*%
X93450000Y-115976000D02*
X97050000Y-115976000D01*
X97050000Y-115976000D02*
X97050000Y-112876000D01*
X93450000Y-112876000D02*
X93450000Y-115976000D01*
X97050000Y-112876000D02*
X93450000Y-112876000D01*
%TO.C,SW6*%
X70400000Y-31776000D02*
X74000000Y-31776000D01*
X74000000Y-28676000D02*
X70400000Y-28676000D01*
X70400000Y-28676000D02*
X70400000Y-31776000D01*
X74000000Y-31776000D02*
X74000000Y-28676000D01*
%TO.C,SW55*%
X97050000Y-135026000D02*
X97050000Y-131926000D01*
X93450000Y-135026000D02*
X97050000Y-135026000D01*
X97050000Y-131926000D02*
X93450000Y-131926000D01*
X93450000Y-131926000D02*
X93450000Y-135026000D01*
%TO.C,SW5*%
X85001000Y-36725000D02*
X88101000Y-36725000D01*
X85001000Y-33125000D02*
X85001000Y-36725000D01*
X88101000Y-36725000D02*
X88101000Y-33125000D01*
X88101000Y-33125000D02*
X85001000Y-33125000D01*
%TO.C,SW43*%
X135150000Y-113876000D02*
X131550000Y-113876000D01*
X135150000Y-116976000D02*
X135150000Y-113876000D01*
X131550000Y-116976000D02*
X135150000Y-116976000D01*
X131550000Y-113876000D02*
X131550000Y-116976000D01*
%TO.C,SW50*%
X189616753Y-161342614D02*
X186051788Y-160841591D01*
X186051788Y-160841591D02*
X185620352Y-163911422D01*
X185620352Y-163911422D02*
X189185317Y-164412445D01*
X189185317Y-164412445D02*
X189616753Y-161342614D01*
%TO.C,SW21*%
X169650000Y-80776000D02*
X169650000Y-83876000D01*
X173250000Y-83876000D02*
X173250000Y-80776000D01*
X173250000Y-80776000D02*
X169650000Y-80776000D01*
X169650000Y-83876000D02*
X173250000Y-83876000D01*
%TO.C,SW4*%
X108500000Y-31776000D02*
X112100000Y-31776000D01*
X112100000Y-31776000D02*
X112100000Y-28676000D01*
X108500000Y-28676000D02*
X108500000Y-31776000D01*
X112100000Y-28676000D02*
X108500000Y-28676000D01*
%TO.C,SW53*%
X133354339Y-151030795D02*
X129789374Y-150529772D01*
X129357938Y-153599603D02*
X132922903Y-154100626D01*
X129789374Y-150529772D02*
X129357938Y-153599603D01*
X132922903Y-154100626D02*
X133354339Y-151030795D01*
%TO.C,SW26*%
X78000000Y-80276000D02*
X74400000Y-80276000D01*
X74400000Y-83376000D02*
X78000000Y-83376000D01*
X74400000Y-80276000D02*
X74400000Y-83376000D01*
X78000000Y-83376000D02*
X78000000Y-80276000D01*
%TO.C,SW12*%
X154200000Y-62326000D02*
X154200000Y-59226000D01*
X150600000Y-62326000D02*
X154200000Y-62326000D01*
X150600000Y-59226000D02*
X150600000Y-62326000D01*
X154200000Y-59226000D02*
X150600000Y-59226000D01*
%TO.C,SW40*%
X191836564Y-145547838D02*
X192268000Y-142478007D01*
X192268000Y-142478007D02*
X188703035Y-141976984D01*
X188271599Y-145046815D02*
X191836564Y-145547838D01*
X188703035Y-141976984D02*
X188271599Y-145046815D01*
%TO.C,SW44*%
X112500000Y-111976000D02*
X116100000Y-111976000D01*
X116100000Y-108876000D02*
X112500000Y-108876000D01*
X112500000Y-108876000D02*
X112500000Y-111976000D01*
X116100000Y-111976000D02*
X116100000Y-108876000D01*
%TO.C,SW56*%
X78000000Y-140526000D02*
X78000000Y-137426000D01*
X74400000Y-140526000D02*
X78000000Y-140526000D01*
X78000000Y-137426000D02*
X74400000Y-137426000D01*
X74400000Y-137426000D02*
X74400000Y-140526000D01*
%TO.C,SW52*%
X149217413Y-149177569D02*
X152782378Y-149678592D01*
X152782378Y-149678592D02*
X153213814Y-146608761D01*
X153213814Y-146608761D02*
X149648849Y-146107738D01*
X149648849Y-146107738D02*
X149217413Y-149177569D01*
%TO.C,SW10*%
X191700000Y-83876000D02*
X195300000Y-83876000D01*
X191700000Y-80776000D02*
X191700000Y-83876000D01*
X195300000Y-83876000D02*
X195300000Y-80776000D01*
X195300000Y-80776000D02*
X191700000Y-80776000D01*
%TO.C,SW22*%
X154200000Y-78276000D02*
X150600000Y-78276000D01*
X154200000Y-81376000D02*
X154200000Y-78276000D01*
X150600000Y-78276000D02*
X150600000Y-81376000D01*
X150600000Y-81376000D02*
X154200000Y-81376000D01*
%TO.C,SW24*%
X116100000Y-73876000D02*
X116100000Y-70776000D01*
X116100000Y-70776000D02*
X112500000Y-70776000D01*
X112500000Y-70776000D02*
X112500000Y-73876000D01*
X112500000Y-73876000D02*
X116100000Y-73876000D01*
%TO.C,SW1*%
X169650000Y-28676000D02*
X169650000Y-31776000D01*
X173250000Y-31776000D02*
X173250000Y-28676000D01*
X169650000Y-31776000D02*
X173250000Y-31776000D01*
X173250000Y-28676000D02*
X169650000Y-28676000D01*
%TO.C,SW37*%
X51806250Y-107926000D02*
X51806250Y-104826000D01*
X55350000Y-104826000D02*
X55350000Y-107926000D01*
X48206250Y-104826000D02*
X48206250Y-107926000D01*
X58950000Y-104826000D02*
X55350000Y-104826000D01*
X51806250Y-104826000D02*
X48206250Y-104826000D01*
X48206250Y-107926000D02*
X51806250Y-107926000D01*
X58950000Y-107926000D02*
X58950000Y-104826000D01*
X55350000Y-107926000D02*
X58950000Y-107926000D01*
%TO.C,SW47*%
X43793750Y-126976000D02*
X47393750Y-126976000D01*
X38331250Y-126976000D02*
X41931250Y-126976000D01*
X41931250Y-126976000D02*
X41931250Y-123876000D01*
X38331250Y-123876000D02*
X38331250Y-126976000D01*
X47393750Y-123876000D02*
X43793750Y-123876000D01*
X47393750Y-126976000D02*
X47393750Y-123876000D01*
X41931250Y-123876000D02*
X38331250Y-123876000D01*
X43793750Y-123876000D02*
X43793750Y-126976000D01*
%TO.C,SW20*%
X195300000Y-102926000D02*
X195300000Y-99826000D01*
X195300000Y-99826000D02*
X191700000Y-99826000D01*
X191700000Y-102926000D02*
X195300000Y-102926000D01*
X191700000Y-99826000D02*
X191700000Y-102926000D01*
%TO.C,SW2*%
X150600000Y-31776000D02*
X154200000Y-31776000D01*
X154200000Y-28676000D02*
X150600000Y-28676000D01*
X150600000Y-28676000D02*
X150600000Y-31776000D01*
X154200000Y-31776000D02*
X154200000Y-28676000D01*
%TO.C,SW42*%
X154200000Y-119476000D02*
X154200000Y-116376000D01*
X150600000Y-119476000D02*
X154200000Y-119476000D01*
X154200000Y-116376000D02*
X150600000Y-116376000D01*
X150600000Y-116376000D02*
X150600000Y-119476000D01*
%TO.C,SW27*%
X53837500Y-88876000D02*
X53837500Y-85776000D01*
X59300000Y-88876000D02*
X59300000Y-85776000D01*
X53837500Y-85776000D02*
X50237500Y-85776000D01*
X55700000Y-85776000D02*
X55700000Y-88876000D01*
X50237500Y-85776000D02*
X50237500Y-88876000D01*
X59300000Y-85776000D02*
X55700000Y-85776000D01*
X50237500Y-88876000D02*
X53837500Y-88876000D01*
X55700000Y-88876000D02*
X59300000Y-88876000D01*
%TO.C,SW57*%
X52968750Y-142926000D02*
X52968750Y-146026000D01*
X56568750Y-146026000D02*
X56568750Y-142926000D01*
X56568750Y-142926000D02*
X52968750Y-142926000D01*
X52968750Y-146026000D02*
X56568750Y-146026000D01*
%TO.C,SW34*%
X116100000Y-89826000D02*
X112500000Y-89826000D01*
X112500000Y-92926000D02*
X116100000Y-92926000D01*
X116100000Y-92926000D02*
X116100000Y-89826000D01*
X112500000Y-89826000D02*
X112500000Y-92926000D01*
%TO.C,SW58*%
X32756250Y-142926000D02*
X29156250Y-142926000D01*
X29156250Y-142926000D02*
X29156250Y-146026000D01*
X32756250Y-146026000D02*
X32756250Y-142926000D01*
X29156250Y-146026000D02*
X32756250Y-146026000D01*
%TO.C,SW31*%
X173250000Y-102926000D02*
X173250000Y-99826000D01*
X173250000Y-99826000D02*
X169650000Y-99826000D01*
X169650000Y-102926000D02*
X173250000Y-102926000D01*
X169650000Y-99826000D02*
X169650000Y-102926000D01*
%TO.C,SW3*%
X127550000Y-31776000D02*
X131150000Y-31776000D01*
X127550000Y-28676000D02*
X127550000Y-31776000D01*
X131150000Y-31776000D02*
X131150000Y-28676000D01*
X131150000Y-28676000D02*
X127550000Y-28676000D01*
%TO.C,SW46*%
X78000000Y-118376000D02*
X74400000Y-118376000D01*
X74400000Y-121476000D02*
X78000000Y-121476000D01*
X78000000Y-121476000D02*
X78000000Y-118376000D01*
X74400000Y-118376000D02*
X74400000Y-121476000D01*
%TO.C,SW30*%
X190922847Y-126182209D02*
X194487812Y-126683232D01*
X194487812Y-126683232D02*
X194919248Y-123613401D01*
X191354283Y-123112378D02*
X190922847Y-126182209D01*
X194919248Y-123613401D02*
X191354283Y-123112378D01*
%TO.C,SW36*%
X78000000Y-99326000D02*
X74400000Y-99326000D01*
X74400000Y-102426000D02*
X78000000Y-102426000D01*
X78000000Y-102426000D02*
X78000000Y-99326000D01*
X74400000Y-99326000D02*
X74400000Y-102426000D01*
%TO.C,SW25*%
X97050000Y-74776000D02*
X93450000Y-74776000D01*
X93450000Y-77876000D02*
X97050000Y-77876000D01*
X93450000Y-74776000D02*
X93450000Y-77876000D01*
X97050000Y-77876000D02*
X97050000Y-74776000D01*
%TO.C,SW32*%
X154200000Y-100426000D02*
X154200000Y-97326000D01*
X150600000Y-97326000D02*
X150600000Y-100426000D01*
X154200000Y-97326000D02*
X150600000Y-97326000D01*
X150600000Y-100426000D02*
X154200000Y-100426000D01*
%TO.C,SW17*%
X58950000Y-66726000D02*
X55350000Y-66726000D01*
X55350000Y-66726000D02*
X55350000Y-69826000D01*
X58950000Y-69826000D02*
X58950000Y-66726000D01*
X55350000Y-69826000D02*
X58950000Y-69826000D01*
%TO.C,SW11*%
X173250000Y-61726000D02*
X169650000Y-61726000D01*
X169650000Y-61726000D02*
X169650000Y-64826000D01*
X173250000Y-64826000D02*
X173250000Y-61726000D01*
X169650000Y-64826000D02*
X173250000Y-64826000D01*
%TO.C,SW54*%
X116100000Y-131026000D02*
X116100000Y-127926000D01*
X116100000Y-127926000D02*
X112500000Y-127926000D01*
X112500000Y-127926000D02*
X112500000Y-131026000D01*
X112500000Y-131026000D02*
X116100000Y-131026000D01*
%TO.C,SW0*%
X191700000Y-61726000D02*
X191700000Y-64826000D01*
X195300000Y-61726000D02*
X191700000Y-61726000D01*
X195300000Y-64826000D02*
X195300000Y-61726000D01*
X191700000Y-64826000D02*
X195300000Y-64826000D01*
%TO.C,SW08_RH10*%
X7725000Y-69826000D02*
X11325000Y-69826000D01*
X7725000Y-66726000D02*
X7725000Y-69826000D01*
X11325000Y-66726000D02*
X7725000Y-66726000D01*
X11325000Y-69826000D02*
X11325000Y-66726000D01*
%TO.C,SW23*%
X135150000Y-78876000D02*
X135150000Y-75776000D01*
X131550000Y-75776000D02*
X131550000Y-78876000D01*
X135150000Y-75776000D02*
X131550000Y-75776000D01*
X131550000Y-78876000D02*
X135150000Y-78876000D01*
%TO.C,SW7*%
X50950000Y-28676000D02*
X47350000Y-28676000D01*
X50950000Y-31776000D02*
X50950000Y-28676000D01*
X47350000Y-31776000D02*
X50950000Y-31776000D01*
X47350000Y-28676000D02*
X47350000Y-31776000D01*
%TO.C,SW15*%
X98399000Y-63775000D02*
X101499000Y-63775000D01*
X101499000Y-63775000D02*
X101499000Y-60175000D01*
X98399000Y-60175000D02*
X98399000Y-63775000D01*
X101499000Y-60175000D02*
X98399000Y-60175000D01*
%TO.C,SW38_RH10*%
X36300000Y-88876000D02*
X39900000Y-88876000D01*
X36300000Y-85776000D02*
X36300000Y-88876000D01*
X39900000Y-88876000D02*
X39900000Y-85776000D01*
X39900000Y-85776000D02*
X36300000Y-85776000D01*
%TO.C,SW13*%
X131550000Y-56726000D02*
X131550000Y-59826000D01*
X135150000Y-56726000D02*
X131550000Y-56726000D01*
X131550000Y-59826000D02*
X135150000Y-59826000D01*
X135150000Y-59826000D02*
X135150000Y-56726000D01*
%TO.C,SW48_RH10*%
X24393750Y-104826000D02*
X27993750Y-104826000D01*
X27993750Y-107926000D02*
X24393750Y-107926000D01*
X24393750Y-107926000D02*
X24393750Y-104826000D01*
X27993750Y-104826000D02*
X27993750Y-107926000D01*
%TD*%
M02*
