%TF.GenerationSoftware,KiCad,Pcbnew,(6.0.5-0)*%
%TF.CreationDate,2023-02-03T13:19:03-08:00*%
%TF.ProjectId,ergodonk_pcb,6572676f-646f-46e6-9b5f-7063622e6b69,rev?*%
%TF.SameCoordinates,Original*%
%TF.FileFunction,Copper,L1,Top*%
%TF.FilePolarity,Positive*%
%FSLAX46Y46*%
G04 Gerber Fmt 4.6, Leading zero omitted, Abs format (unit mm)*
G04 Created by KiCad (PCBNEW (6.0.5-0)) date 2023-02-03 13:19:03*
%MOMM*%
%LPD*%
G01*
G04 APERTURE LIST*
G04 Aperture macros list*
%AMHorizOval*
0 Thick line with rounded ends*
0 $1 width*
0 $2 $3 position (X,Y) of the first rounded end (center of the circle)*
0 $4 $5 position (X,Y) of the second rounded end (center of the circle)*
0 Add line between two ends*
20,1,$1,$2,$3,$4,$5,0*
0 Add two circle primitives to create the rounded ends*
1,1,$1,$2,$3*
1,1,$1,$4,$5*%
%AMRotRect*
0 Rectangle, with rotation*
0 The origin of the aperture is its center*
0 $1 length*
0 $2 width*
0 $3 Rotation angle, in degrees counterclockwise*
0 Add horizontal line*
21,1,$1,$2,0,0,$3*%
%AMOutline5P*
0 Free polygon, 5 corners , with rotation*
0 The origin of the aperture is its center*
0 number of corners: always 5*
0 $1 to $10 corner X, Y*
0 $11 Rotation angle, in degrees counterclockwise*
0 create outline with 5 corners*
4,1,5,$1,$2,$3,$4,$5,$6,$7,$8,$9,$10,$1,$2,$11*%
%AMOutline6P*
0 Free polygon, 6 corners , with rotation*
0 The origin of the aperture is its center*
0 number of corners: always 6*
0 $1 to $12 corner X, Y*
0 $13 Rotation angle, in degrees counterclockwise*
0 create outline with 6 corners*
4,1,6,$1,$2,$3,$4,$5,$6,$7,$8,$9,$10,$11,$12,$1,$2,$13*%
%AMOutline7P*
0 Free polygon, 7 corners , with rotation*
0 The origin of the aperture is its center*
0 number of corners: always 7*
0 $1 to $14 corner X, Y*
0 $15 Rotation angle, in degrees counterclockwise*
0 create outline with 7 corners*
4,1,7,$1,$2,$3,$4,$5,$6,$7,$8,$9,$10,$11,$12,$13,$14,$1,$2,$15*%
%AMOutline8P*
0 Free polygon, 8 corners , with rotation*
0 The origin of the aperture is its center*
0 number of corners: always 8*
0 $1 to $16 corner X, Y*
0 $17 Rotation angle, in degrees counterclockwise*
0 create outline with 8 corners*
4,1,8,$1,$2,$3,$4,$5,$6,$7,$8,$9,$10,$11,$12,$13,$14,$15,$16,$1,$2,$17*%
G04 Aperture macros list end*
%TA.AperFunction,EtchedComponent*%
%ADD10C,0.010000*%
%TD*%
%TA.AperFunction,SMDPad,CuDef*%
%ADD11R,1.700000X1.000000*%
%TD*%
%TA.AperFunction,SMDPad,CuDef*%
%ADD12R,2.300000X2.000000*%
%TD*%
%TA.AperFunction,SMDPad,CuDef*%
%ADD13RotRect,1.700000X1.000000X172.000000*%
%TD*%
%TA.AperFunction,SMDPad,CuDef*%
%ADD14RotRect,2.300000X2.000000X352.000000*%
%TD*%
%TA.AperFunction,ComponentPad*%
%ADD15C,0.700000*%
%TD*%
%TA.AperFunction,ComponentPad*%
%ADD16C,4.400000*%
%TD*%
%TA.AperFunction,ComponentPad*%
%ADD17C,0.400000*%
%TD*%
%TA.AperFunction,SMDPad,CuDef*%
%ADD18R,1.000000X1.700000*%
%TD*%
%TA.AperFunction,SMDPad,CuDef*%
%ADD19R,2.000000X2.300000*%
%TD*%
%TA.AperFunction,ComponentPad*%
%ADD20R,2.000000X2.000000*%
%TD*%
%TA.AperFunction,ComponentPad*%
%ADD21C,2.000000*%
%TD*%
%TA.AperFunction,SMDPad,CuDef*%
%ADD22Outline5P,-1.150000X1.000000X0.150000X1.000000X1.150000X0.000000X1.150000X-1.000000X-1.150000X-1.000000X0.000000*%
%TD*%
%TA.AperFunction,ComponentPad*%
%ADD23R,1.752600X1.752600*%
%TD*%
%TA.AperFunction,ComponentPad*%
%ADD24C,1.752600*%
%TD*%
%TA.AperFunction,ComponentPad*%
%ADD25R,1.524000X1.524000*%
%TD*%
%TA.AperFunction,SMDPad,CuDef*%
%ADD26R,1.300000X1.400000*%
%TD*%
%TA.AperFunction,ComponentPad*%
%ADD27R,1.300000X1.778000*%
%TD*%
%TA.AperFunction,ComponentPad*%
%ADD28O,1.300000X1.778000*%
%TD*%
%TA.AperFunction,ComponentPad*%
%ADD29HorizOval,1.700000X-0.332394X-0.222518X0.332394X0.222518X0*%
%TD*%
%TA.AperFunction,ComponentPad*%
%ADD30C,1.397000*%
%TD*%
%TA.AperFunction,SMDPad,CuDef*%
%ADD31RotRect,1.400000X1.300000X82.000000*%
%TD*%
%TA.AperFunction,ComponentPad*%
%ADD32RotRect,1.778000X1.300000X262.000000*%
%TD*%
%TA.AperFunction,ComponentPad*%
%ADD33HorizOval,1.300000X-0.033262X-0.236674X0.033262X0.236674X0*%
%TD*%
%TA.AperFunction,ComponentPad*%
%ADD34R,2.000000X1.905000*%
%TD*%
%TA.AperFunction,ComponentPad*%
%ADD35O,2.000000X1.905000*%
%TD*%
%TA.AperFunction,ComponentPad*%
%ADD36C,1.524000*%
%TD*%
%TA.AperFunction,ComponentPad*%
%ADD37R,1.700000X1.700000*%
%TD*%
%TA.AperFunction,ComponentPad*%
%ADD38C,1.700000*%
%TD*%
%TA.AperFunction,ComponentPad*%
%ADD39O,1.700000X1.700000*%
%TD*%
%TA.AperFunction,ComponentPad*%
%ADD40C,1.600000*%
%TD*%
%TA.AperFunction,ComponentPad*%
%ADD41O,1.600000X1.600000*%
%TD*%
G04 APERTURE END LIST*
%TO.C,JP4*%
G36*
X50071500Y-59334450D02*
G01*
X50297100Y-59464750D01*
X50464500Y-59664250D01*
X50553600Y-59909050D01*
X50553600Y-60169450D01*
X50464500Y-60414250D01*
X50297100Y-60613750D01*
X50071500Y-60744050D01*
X49815000Y-60789250D01*
X49815000Y-59289250D01*
X50071500Y-59334450D01*
G37*
D10*
X50071500Y-59334450D02*
X50297100Y-59464750D01*
X50464500Y-59664250D01*
X50553600Y-59909050D01*
X50553600Y-60169450D01*
X50464500Y-60414250D01*
X50297100Y-60613750D01*
X50071500Y-60744050D01*
X49815000Y-60789250D01*
X49815000Y-59289250D01*
X50071500Y-59334450D01*
G36*
X49615000Y-60789250D02*
G01*
X49358500Y-60744050D01*
X49132900Y-60613750D01*
X48965500Y-60414250D01*
X48876400Y-60169450D01*
X48876400Y-59909050D01*
X48965500Y-59664250D01*
X49132900Y-59464750D01*
X49358500Y-59334450D01*
X49615000Y-59289250D01*
X49615000Y-60789250D01*
G37*
X49615000Y-60789250D02*
X49358500Y-60744050D01*
X49132900Y-60613750D01*
X48965500Y-60414250D01*
X48876400Y-60169450D01*
X48876400Y-59909050D01*
X48965500Y-59664250D01*
X49132900Y-59464750D01*
X49358500Y-59334450D01*
X49615000Y-59289250D01*
X49615000Y-60789250D01*
%TO.C,JP5*%
G36*
X53696500Y-59334450D02*
G01*
X53922100Y-59464750D01*
X54089500Y-59664250D01*
X54178600Y-59909050D01*
X54178600Y-60169450D01*
X54089500Y-60414250D01*
X53922100Y-60613750D01*
X53696500Y-60744050D01*
X53440000Y-60789250D01*
X53440000Y-59289250D01*
X53696500Y-59334450D01*
G37*
X53696500Y-59334450D02*
X53922100Y-59464750D01*
X54089500Y-59664250D01*
X54178600Y-59909050D01*
X54178600Y-60169450D01*
X54089500Y-60414250D01*
X53922100Y-60613750D01*
X53696500Y-60744050D01*
X53440000Y-60789250D01*
X53440000Y-59289250D01*
X53696500Y-59334450D01*
G36*
X53240000Y-60789250D02*
G01*
X52983500Y-60744050D01*
X52757900Y-60613750D01*
X52590500Y-60414250D01*
X52501400Y-60169450D01*
X52501400Y-59909050D01*
X52590500Y-59664250D01*
X52757900Y-59464750D01*
X52983500Y-59334450D01*
X53240000Y-59289250D01*
X53240000Y-60789250D01*
G37*
X53240000Y-60789250D02*
X52983500Y-60744050D01*
X52757900Y-60613750D01*
X52590500Y-60414250D01*
X52501400Y-60169450D01*
X52501400Y-59909050D01*
X52590500Y-59664250D01*
X52757900Y-59464750D01*
X52983500Y-59334450D01*
X53240000Y-59289250D01*
X53240000Y-60789250D01*
%TO.C,JP2*%
G36*
X45759000Y-59334450D02*
G01*
X45984600Y-59464750D01*
X46152000Y-59664250D01*
X46241100Y-59909050D01*
X46241100Y-60169450D01*
X46152000Y-60414250D01*
X45984600Y-60613750D01*
X45759000Y-60744050D01*
X45502500Y-60789250D01*
X45502500Y-59289250D01*
X45759000Y-59334450D01*
G37*
X45759000Y-59334450D02*
X45984600Y-59464750D01*
X46152000Y-59664250D01*
X46241100Y-59909050D01*
X46241100Y-60169450D01*
X46152000Y-60414250D01*
X45984600Y-60613750D01*
X45759000Y-60744050D01*
X45502500Y-60789250D01*
X45502500Y-59289250D01*
X45759000Y-59334450D01*
G36*
X45302500Y-60789250D02*
G01*
X45046000Y-60744050D01*
X44820400Y-60613750D01*
X44653000Y-60414250D01*
X44563900Y-60169450D01*
X44563900Y-59909050D01*
X44653000Y-59664250D01*
X44820400Y-59464750D01*
X45046000Y-59334450D01*
X45302500Y-59289250D01*
X45302500Y-60789250D01*
G37*
X45302500Y-60789250D02*
X45046000Y-60744050D01*
X44820400Y-60613750D01*
X44653000Y-60414250D01*
X44563900Y-60169450D01*
X44563900Y-59909050D01*
X44653000Y-59664250D01*
X44820400Y-59464750D01*
X45046000Y-59334450D01*
X45302500Y-59289250D01*
X45302500Y-60789250D01*
%TD*%
D11*
%TO.P,SW14,1,VDD*%
%TO.N,VDD*%
X111550000Y-53976000D03*
%TO.P,SW14,2,DOUT*%
%TO.N,Net-(SW14-Pad2)*%
X111550000Y-52576000D03*
%TO.P,SW14,3,GND*%
%TO.N,GND*%
X117050000Y-52576000D03*
%TO.P,SW14,4,DIN*%
%TO.N,Net-(SW13-Pad2)*%
X117050000Y-53976000D03*
D12*
%TO.P,SW14,5*%
%TO.N,Net-(D14-Pad2)*%
X120000000Y-63095000D03*
%TO.P,SW14,6*%
%TO.N,col4*%
X107300000Y-60555000D03*
%TD*%
D11*
%TO.P,SW35,1,VDD*%
%TO.N,VDD*%
X92500000Y-96076000D03*
%TO.P,SW35,2,DOUT*%
%TO.N,Net-(SW35-Pad2)*%
X92500000Y-94676000D03*
%TO.P,SW35,3,GND*%
%TO.N,GND*%
X98000000Y-94676000D03*
%TO.P,SW35,4,DIN*%
%TO.N,Net-(SW34-Pad2)*%
X98000000Y-96076000D03*
D12*
%TO.P,SW35,5*%
%TO.N,Net-(D35-Pad2)*%
X100950000Y-105195000D03*
%TO.P,SW35,6*%
%TO.N,col5*%
X88250000Y-102655000D03*
%TD*%
D11*
%TO.P,SW18_RH10,1,VDD*%
%TO.N,VDD*%
X35350000Y-68976000D03*
%TO.P,SW18_RH10,2,DOUT*%
%TO.N,Net-(SW28_RH10-Pad4)*%
X35350000Y-67576000D03*
%TO.P,SW18_RH10,3,GND*%
%TO.N,GND*%
X40850000Y-67576000D03*
%TO.P,SW18_RH10,4,DIN*%
%TO.N,Net-(SW18_RH10-Pad4)*%
X40850000Y-68976000D03*
D12*
%TO.P,SW18_RH10,5*%
%TO.N,Net-(D18_RH10-Pad2)*%
X43800000Y-78095000D03*
%TO.P,SW18_RH10,6*%
%TO.N,col0*%
X31100000Y-75555000D03*
%TD*%
D13*
%TO.P,SW51,1,VDD*%
%TO.N,VDD*%
X167258911Y-150853929D03*
%TO.P,SW51,2,DOUT*%
%TO.N,Net-(SW50-Pad4)*%
X167453753Y-149467554D03*
%TO.P,SW51,3,GND*%
%TO.N,GND*%
X172900228Y-150233006D03*
%TO.P,SW51,4,DIN*%
%TO.N,Net-(SW51-Pad4)*%
X172705385Y-151619381D03*
D14*
%TO.P,SW51,5*%
%TO.N,Net-(D51-Pad2)*%
X174357557Y-161060196D03*
%TO.P,SW51,6*%
%TO.N,SW41A*%
X162134652Y-156777417D03*
%TD*%
D15*
%TO.P,H7,1*%
%TO.N,N/C*%
X42799000Y-138177000D03*
X41632274Y-140993726D03*
X43965726Y-140993726D03*
X42799000Y-141477000D03*
D16*
X42799000Y-139827000D03*
D15*
X43965726Y-138660274D03*
X44449000Y-139827000D03*
X41632274Y-138660274D03*
X41149000Y-139827000D03*
%TD*%
D11*
%TO.P,SW33,1,VDD*%
%TO.N,VDD*%
X130600000Y-97076000D03*
%TO.P,SW33,2,DOUT*%
%TO.N,Net-(SW33-Pad2)*%
X130600000Y-95676000D03*
%TO.P,SW33,3,GND*%
%TO.N,GND*%
X136100000Y-95676000D03*
%TO.P,SW33,4,DIN*%
%TO.N,Net-(SW32-Pad2)*%
X136100000Y-97076000D03*
D12*
%TO.P,SW33,5*%
%TO.N,Net-(D33-Pad2)*%
X139050000Y-106195000D03*
%TO.P,SW33,6*%
%TO.N,col3*%
X126350000Y-103655000D03*
%TD*%
D17*
%TO.P,JP4,1,A*%
%TO.N,Net-(JP4-Pad1)*%
X49265000Y-60039250D03*
%TO.P,JP4,2,B*%
%TO.N,Net-(SW20-Pad4)*%
X50165000Y-60039250D03*
%TD*%
D15*
%TO.P,H5,1*%
%TO.N,N/C*%
X132183274Y-138485476D03*
X133350000Y-138968750D03*
X131700000Y-137318750D03*
X134516726Y-136152024D03*
X135000000Y-137318750D03*
D16*
X133350000Y-137318750D03*
D15*
X134516726Y-138485476D03*
X132183274Y-136152024D03*
X133350000Y-135668750D03*
%TD*%
D11*
%TO.P,SW28_RH10,1,VDD*%
%TO.N,VDD*%
X11537500Y-88026000D03*
%TO.P,SW28_RH10,2,DOUT*%
%TO.N,Net-(SW28_RH10-Pad2)*%
X11537500Y-86626000D03*
%TO.P,SW28_RH10,3,GND*%
%TO.N,GND*%
X17037500Y-86626000D03*
%TO.P,SW28_RH10,4,DIN*%
%TO.N,Net-(SW28_RH10-Pad4)*%
X17037500Y-88026000D03*
D12*
%TO.P,SW28_RH10,5*%
%TO.N,Net-(D28_RH10-Pad2)*%
X19987500Y-97145000D03*
%TO.P,SW28_RH10,6*%
%TO.N,col0*%
X7287500Y-94605000D03*
%TD*%
D11*
%TO.P,SW16,1,VDD*%
%TO.N,VDD*%
X73450000Y-63476000D03*
%TO.P,SW16,2,DOUT*%
%TO.N,Net-(SW16-Pad2)*%
X73450000Y-62076000D03*
%TO.P,SW16,3,GND*%
%TO.N,GND*%
X78950000Y-62076000D03*
%TO.P,SW16,4,DIN*%
%TO.N,Net-(SW15-Pad2)*%
X78950000Y-63476000D03*
D12*
%TO.P,SW16,5*%
%TO.N,Net-(D16-Pad2)*%
X81900000Y-72595000D03*
%TO.P,SW16,6*%
%TO.N,col6*%
X69200000Y-70055000D03*
%TD*%
D11*
%TO.P,SW45,1,VDD*%
%TO.N,VDD*%
X92500000Y-115126000D03*
%TO.P,SW45,2,DOUT*%
%TO.N,Net-(SW44-Pad4)*%
X92500000Y-113726000D03*
%TO.P,SW45,3,GND*%
%TO.N,GND*%
X98000000Y-113726000D03*
%TO.P,SW45,4,DIN*%
%TO.N,Net-(SW45-Pad4)*%
X98000000Y-115126000D03*
D12*
%TO.P,SW45,5*%
%TO.N,Net-(D45-Pad2)*%
X100950000Y-124245000D03*
%TO.P,SW45,6*%
%TO.N,col5*%
X88250000Y-121705000D03*
%TD*%
D11*
%TO.P,SW6,1,VDD*%
%TO.N,VDD*%
X69450000Y-30926000D03*
%TO.P,SW6,2,DOUT*%
%TO.N,Net-(SW6-Pad2)*%
X69450000Y-29526000D03*
%TO.P,SW6,3,GND*%
%TO.N,GND*%
X74950000Y-29526000D03*
%TO.P,SW6,4,DIN*%
%TO.N,Net-(SW5-Pad2)*%
X74950000Y-30926000D03*
D12*
%TO.P,SW6,5*%
%TO.N,Net-(D6-Pad2)*%
X77900000Y-40045000D03*
%TO.P,SW6,6*%
%TO.N,col6*%
X65200000Y-37505000D03*
%TD*%
D11*
%TO.P,SW55,1,VDD*%
%TO.N,VDD*%
X92500000Y-134176000D03*
%TO.P,SW55,2,DOUT*%
%TO.N,Net-(SW55-Pad2)*%
X92500000Y-132776000D03*
%TO.P,SW55,3,GND*%
%TO.N,GND*%
X98000000Y-132776000D03*
%TO.P,SW55,4,DIN*%
%TO.N,Net-(SW54-Pad2)*%
X98000000Y-134176000D03*
D12*
%TO.P,SW55,5*%
%TO.N,Net-(D55-Pad2)*%
X100950000Y-143295000D03*
%TO.P,SW55,6*%
%TO.N,col5*%
X88250000Y-140755000D03*
%TD*%
D18*
%TO.P,SW5,1,VDD*%
%TO.N,VDD*%
X87251000Y-37675000D03*
%TO.P,SW5,2,DOUT*%
%TO.N,Net-(SW5-Pad2)*%
X85851000Y-37675000D03*
%TO.P,SW5,3,GND*%
%TO.N,GND*%
X85851000Y-32175000D03*
%TO.P,SW5,4,DIN*%
%TO.N,Net-(SW5-Pad4)*%
X87251000Y-32175000D03*
D19*
%TO.P,SW5,5*%
%TO.N,Net-(D5-Pad2)*%
X96370000Y-29225000D03*
%TO.P,SW5,6*%
%TO.N,col5*%
X93830000Y-41925000D03*
%TD*%
D20*
%TO.P,SWLH_ROT1,A,A*%
%TO.N,encA*%
X173950000Y-117625000D03*
D21*
%TO.P,SWLH_ROT1,B,B*%
%TO.N,encB*%
X168950000Y-117625000D03*
%TO.P,SWLH_ROT1,C,C*%
%TO.N,GND*%
X171450000Y-117625000D03*
D12*
%TO.P,SWLH_ROT1,S1,S1*%
%TO.N,SW41A*%
X177122000Y-130245000D03*
D21*
X173950000Y-132125000D03*
D22*
%TO.P,SWLH_ROT1,S2,S2*%
%TO.N,SW41B*%
X164422000Y-127705000D03*
D21*
X168950000Y-132125000D03*
%TD*%
D11*
%TO.P,SW43,1,VDD*%
%TO.N,VDD*%
X130600000Y-116126000D03*
%TO.P,SW43,2,DOUT*%
%TO.N,Net-(SW42-Pad4)*%
X130600000Y-114726000D03*
%TO.P,SW43,3,GND*%
%TO.N,GND*%
X136100000Y-114726000D03*
%TO.P,SW43,4,DIN*%
%TO.N,Net-(SW43-Pad4)*%
X136100000Y-116126000D03*
D12*
%TO.P,SW43,5*%
%TO.N,Net-(D43-Pad2)*%
X139050000Y-125245000D03*
%TO.P,SW43,6*%
%TO.N,col3*%
X126350000Y-122705000D03*
%TD*%
D15*
%TO.P,H4,1*%
%TO.N,N/C*%
X180898274Y-156539726D03*
X178081548Y-157706452D03*
X179248274Y-158189726D03*
X177598274Y-156539726D03*
X180415000Y-155373000D03*
X179248274Y-154889726D03*
X178081548Y-155373000D03*
D16*
X179248274Y-156539726D03*
D15*
X180415000Y-157706452D03*
%TD*%
D13*
%TO.P,SW50,1,VDD*%
%TO.N,VDD*%
X184797894Y-162937480D03*
%TO.P,SW50,2,DOUT*%
%TO.N,GND*%
X184992736Y-161551105D03*
%TO.P,SW50,3,GND*%
X190439211Y-162316557D03*
%TO.P,SW50,4,DIN*%
%TO.N,Net-(SW50-Pad4)*%
X190244368Y-163702932D03*
D14*
%TO.P,SW50,5*%
%TO.N,Net-(D50-Pad2)*%
X191896540Y-173143747D03*
%TO.P,SW50,6*%
%TO.N,col0*%
X179673635Y-168860968D03*
%TD*%
D11*
%TO.P,SW21,1,VDD*%
%TO.N,VDD*%
X168700000Y-83026000D03*
%TO.P,SW21,2,DOUT*%
%TO.N,Net-(SW21-Pad2)*%
X168700000Y-81626000D03*
%TO.P,SW21,3,GND*%
%TO.N,GND*%
X174200000Y-81626000D03*
%TO.P,SW21,4,DIN*%
%TO.N,Net-(SW21-Pad4)*%
X174200000Y-83026000D03*
D12*
%TO.P,SW21,5*%
%TO.N,Net-(D21-Pad2)*%
X177150000Y-92145000D03*
%TO.P,SW21,6*%
%TO.N,SW41A*%
X164450000Y-89605000D03*
%TD*%
D11*
%TO.P,SW4,1,VDD*%
%TO.N,VDD*%
X107550000Y-30926000D03*
%TO.P,SW4,2,DOUT*%
%TO.N,Net-(SW5-Pad4)*%
X107550000Y-29526000D03*
%TO.P,SW4,3,GND*%
%TO.N,GND*%
X113050000Y-29526000D03*
%TO.P,SW4,4,DIN*%
%TO.N,Net-(SW3-Pad2)*%
X113050000Y-30926000D03*
D12*
%TO.P,SW4,5*%
%TO.N,Net-(D4-Pad2)*%
X116000000Y-40045000D03*
%TO.P,SW4,6*%
%TO.N,col4*%
X103300000Y-37505000D03*
%TD*%
D23*
%TO.P,U1,1*%
%TO.N,N/C*%
X45331400Y-27448000D03*
D24*
%TO.P,U1,2*%
X45788600Y-29988000D03*
%TO.P,U1,3*%
X45331400Y-32528000D03*
%TO.P,U1,4*%
X45788600Y-35068000D03*
%TO.P,U1,5*%
X45331400Y-37608000D03*
%TO.P,U1,6*%
X45788600Y-40148000D03*
%TO.P,U1,7*%
X45331400Y-42688000D03*
%TO.P,U1,8*%
X45788600Y-45228000D03*
%TO.P,U1,9*%
X45331400Y-47768000D03*
%TO.P,U1,10*%
X45788600Y-50308000D03*
%TO.P,U1,11*%
X45331400Y-52848000D03*
%TO.P,U1,12*%
X45788600Y-55388000D03*
%TO.P,U1,13*%
X60571400Y-55388000D03*
%TO.P,U1,14*%
X61028600Y-52848000D03*
%TO.P,U1,15*%
X60571400Y-50308000D03*
%TO.P,U1,16*%
X61028600Y-47768000D03*
%TO.P,U1,17*%
X60571400Y-45228000D03*
%TO.P,U1,18*%
X61028600Y-42688000D03*
%TO.P,U1,19*%
X60571400Y-40148000D03*
%TO.P,U1,20*%
X61028600Y-37608000D03*
%TO.P,U1,21*%
X60571400Y-35068000D03*
%TO.P,U1,22*%
X61028600Y-32528000D03*
%TO.P,U1,23*%
X60571400Y-29988000D03*
%TO.P,U1,24*%
X61028600Y-27448000D03*
%TO.P,U1,25*%
X48100000Y-55616600D03*
%TO.P,U1,26*%
X50640000Y-55159400D03*
%TO.P,U1,27*%
X53180000Y-55616600D03*
%TO.P,U1,28*%
X55720000Y-55159400D03*
%TO.P,U1,29*%
X58260000Y-55616600D03*
%TD*%
D13*
%TO.P,SW53,1,VDD*%
%TO.N,VDD*%
X128535480Y-152625661D03*
%TO.P,SW53,2,DOUT*%
%TO.N,Net-(SW53-Pad2)*%
X128730322Y-151239286D03*
%TO.P,SW53,3,GND*%
%TO.N,GND*%
X134176797Y-152004738D03*
%TO.P,SW53,4,DIN*%
%TO.N,unconnected-(SW53-Pad4)*%
X133981954Y-153391113D03*
D14*
%TO.P,SW53,5*%
%TO.N,Net-(D53-Pad2)*%
X135634126Y-162831928D03*
%TO.P,SW53,6*%
%TO.N,col3*%
X123411221Y-158549149D03*
%TD*%
D11*
%TO.P,SW26,1,VDD*%
%TO.N,VDD*%
X73450000Y-82526000D03*
%TO.P,SW26,2,DOUT*%
%TO.N,Net-(SW25-Pad4)*%
X73450000Y-81126000D03*
%TO.P,SW26,3,GND*%
%TO.N,GND*%
X78950000Y-81126000D03*
%TO.P,SW26,4,DIN*%
%TO.N,Net-(SW26-Pad4)*%
X78950000Y-82526000D03*
D12*
%TO.P,SW26,5*%
%TO.N,Net-(D26-Pad2)*%
X81900000Y-91645000D03*
%TO.P,SW26,6*%
%TO.N,col6*%
X69200000Y-89105000D03*
%TD*%
D15*
%TO.P,H10,1*%
%TO.N,N/C*%
X92710000Y-96694452D03*
X90376548Y-94361000D03*
X89893274Y-95527726D03*
X90376548Y-96694452D03*
X91543274Y-93877726D03*
X92710000Y-94361000D03*
X93193274Y-95527726D03*
D16*
X91543274Y-95527726D03*
D15*
X91543274Y-97177726D03*
%TD*%
D11*
%TO.P,SW12,1,VDD*%
%TO.N,VDD*%
X149650000Y-61476000D03*
%TO.P,SW12,2,DOUT*%
%TO.N,Net-(SW12-Pad2)*%
X149650000Y-60076000D03*
%TO.P,SW12,3,GND*%
%TO.N,GND*%
X155150000Y-60076000D03*
%TO.P,SW12,4,DIN*%
%TO.N,Net-(SW11-Pad2)*%
X155150000Y-61476000D03*
D12*
%TO.P,SW12,5*%
%TO.N,Net-(D12-Pad2)*%
X158100000Y-70595000D03*
%TO.P,SW12,6*%
%TO.N,col2*%
X145400000Y-68055000D03*
%TD*%
D13*
%TO.P,SW40,1,VDD*%
%TO.N,VDD*%
X187449141Y-144072873D03*
%TO.P,SW40,2,DOUT*%
%TO.N,Net-(SW40-Pad2)*%
X187643983Y-142686498D03*
%TO.P,SW40,3,GND*%
%TO.N,GND*%
X193090458Y-143451950D03*
%TO.P,SW40,4,DIN*%
X192895615Y-144838325D03*
D14*
%TO.P,SW40,5*%
%TO.N,Net-(D40-Pad2)*%
X194547787Y-154279140D03*
%TO.P,SW40,6*%
%TO.N,col0*%
X182324882Y-149996361D03*
%TD*%
D11*
%TO.P,SW44,1,VDD*%
%TO.N,VDD*%
X111550000Y-111126000D03*
%TO.P,SW44,2,DOUT*%
%TO.N,Net-(SW43-Pad4)*%
X111550000Y-109726000D03*
%TO.P,SW44,3,GND*%
%TO.N,GND*%
X117050000Y-109726000D03*
%TO.P,SW44,4,DIN*%
%TO.N,Net-(SW44-Pad4)*%
X117050000Y-111126000D03*
D12*
%TO.P,SW44,5*%
%TO.N,Net-(D44-Pad2)*%
X120000000Y-120245000D03*
%TO.P,SW44,6*%
%TO.N,col4*%
X107300000Y-117705000D03*
%TD*%
D15*
%TO.P,H3,1*%
%TO.N,N/C*%
X183538726Y-92432274D03*
X181205274Y-92432274D03*
X180722000Y-93599000D03*
X181205274Y-94765726D03*
X183538726Y-94765726D03*
X182372000Y-91949000D03*
X184022000Y-93599000D03*
X182372000Y-95249000D03*
D16*
X182372000Y-93599000D03*
%TD*%
D15*
%TO.P,H6,1*%
%TO.N,N/C*%
X107529226Y-154408274D03*
X108012500Y-155575000D03*
X105195774Y-154408274D03*
X106362500Y-157225000D03*
X107529226Y-156741726D03*
X106362500Y-153925000D03*
X105195774Y-156741726D03*
X104712500Y-155575000D03*
D16*
X106362500Y-155575000D03*
%TD*%
D11*
%TO.P,SW56,1,VDD*%
%TO.N,VDD*%
X73450000Y-139676000D03*
%TO.P,SW56,2,DOUT*%
%TO.N,Net-(SW56-Pad2)*%
X73450000Y-138276000D03*
%TO.P,SW56,3,GND*%
%TO.N,GND*%
X78950000Y-138276000D03*
%TO.P,SW56,4,DIN*%
%TO.N,Net-(SW55-Pad2)*%
X78950000Y-139676000D03*
D12*
%TO.P,SW56,5*%
%TO.N,Net-(D56-Pad2)*%
X81900000Y-148795000D03*
%TO.P,SW56,6*%
%TO.N,col6*%
X69200000Y-146255000D03*
%TD*%
D17*
%TO.P,JP5,1,A*%
%TO.N,Net-(SW0-Pad2)*%
X52890000Y-60039250D03*
%TO.P,JP5,2,B*%
%TO.N,Net-(SW1-Pad4)*%
X53790000Y-60039250D03*
%TD*%
D13*
%TO.P,SW52,1,VDD*%
%TO.N,VDD*%
X148394955Y-148203627D03*
%TO.P,SW52,2,DOUT*%
%TO.N,Net-(SW51-Pad4)*%
X148589797Y-146817252D03*
%TO.P,SW52,3,GND*%
%TO.N,GND*%
X154036272Y-147582704D03*
%TO.P,SW52,4,DIN*%
%TO.N,Net-(SW53-Pad2)*%
X153841429Y-148969079D03*
D14*
%TO.P,SW52,5*%
%TO.N,Net-(D52-Pad2)*%
X155493601Y-158409894D03*
%TO.P,SW52,6*%
%TO.N,col2*%
X143270696Y-154127115D03*
%TD*%
D15*
%TO.P,H1,1*%
%TO.N,N/C*%
X118895726Y-49553726D03*
X118895726Y-47220274D03*
X116562274Y-47220274D03*
X117729000Y-50037000D03*
X119379000Y-48387000D03*
D16*
X117729000Y-48387000D03*
D15*
X117729000Y-46737000D03*
X116079000Y-48387000D03*
X116562274Y-49553726D03*
%TD*%
D11*
%TO.P,SW10,1,VDD*%
%TO.N,VDD*%
X190750000Y-83026000D03*
%TO.P,SW10,2,DOUT*%
%TO.N,Net-(SW0-Pad4)*%
X190750000Y-81626000D03*
%TO.P,SW10,3,GND*%
%TO.N,GND*%
X196250000Y-81626000D03*
%TO.P,SW10,4,DIN*%
%TO.N,Net-(SW20-Pad2)*%
X196250000Y-83026000D03*
D12*
%TO.P,SW10,5*%
%TO.N,Net-(D10-Pad2)*%
X199200000Y-92145000D03*
%TO.P,SW10,6*%
%TO.N,col0*%
X186500000Y-89605000D03*
%TD*%
D11*
%TO.P,SW22,1,VDD*%
%TO.N,VDD*%
X149650000Y-80526000D03*
%TO.P,SW22,2,DOUT*%
%TO.N,Net-(SW21-Pad4)*%
X149650000Y-79126000D03*
%TO.P,SW22,3,GND*%
%TO.N,GND*%
X155150000Y-79126000D03*
%TO.P,SW22,4,DIN*%
%TO.N,Net-(SW22-Pad4)*%
X155150000Y-80526000D03*
D12*
%TO.P,SW22,5*%
%TO.N,Net-(D22-Pad2)*%
X158100000Y-89645000D03*
%TO.P,SW22,6*%
%TO.N,col2*%
X145400000Y-87105000D03*
%TD*%
D11*
%TO.P,SW24,1,VDD*%
%TO.N,VDD*%
X111550000Y-73026000D03*
%TO.P,SW24,2,DOUT*%
%TO.N,Net-(SW23-Pad4)*%
X111550000Y-71626000D03*
%TO.P,SW24,3,GND*%
%TO.N,GND*%
X117050000Y-71626000D03*
%TO.P,SW24,4,DIN*%
%TO.N,Net-(SW24-Pad4)*%
X117050000Y-73026000D03*
D12*
%TO.P,SW24,5*%
%TO.N,Net-(D24-Pad2)*%
X120000000Y-82145000D03*
%TO.P,SW24,6*%
%TO.N,col4*%
X107300000Y-79605000D03*
%TD*%
D11*
%TO.P,SW1,1,VDD*%
%TO.N,VDD*%
X168700000Y-30926000D03*
%TO.P,SW1,2,DOUT*%
%TO.N,Net-(SW2-Pad4)*%
X168700000Y-29526000D03*
%TO.P,SW1,3,GND*%
%TO.N,GND*%
X174200000Y-29526000D03*
%TO.P,SW1,4,DIN*%
%TO.N,Net-(SW1-Pad4)*%
X174200000Y-30926000D03*
D12*
%TO.P,SW1,5*%
%TO.N,Net-(D1-Pad2)*%
X177150000Y-40045000D03*
%TO.P,SW1,6*%
%TO.N,SW41A*%
X164450000Y-37505000D03*
%TD*%
D11*
%TO.P,SW37,1,VDD*%
%TO.N,VDD*%
X54400000Y-107076000D03*
%TO.P,SW37,2,DOUT*%
%TO.N,Net-(SW37-Pad2)*%
X54400000Y-105676000D03*
%TO.P,SW37,3,GND*%
%TO.N,GND*%
X59900000Y-105676000D03*
%TO.P,SW37,4,DIN*%
%TO.N,Net-(SW36-Pad2)*%
X59900000Y-107076000D03*
D12*
%TO.P,SW37,5*%
%TO.N,Net-(D37-Pad2)*%
X62850000Y-116195000D03*
%TO.P,SW37,6*%
%TO.N,SW41A*%
X50150000Y-113655000D03*
%TD*%
D11*
%TO.P,SW47,1,VDD*%
%TO.N,VDD*%
X37381250Y-126126000D03*
%TO.P,SW47,2,DOUT*%
%TO.N,Net-(SW46-Pad4)*%
X37381250Y-124726000D03*
%TO.P,SW47,3,GND*%
%TO.N,GND*%
X42881250Y-124726000D03*
%TO.P,SW47,4,DIN*%
%TO.N,Net-(SW37-Pad2)*%
X42881250Y-126126000D03*
D12*
%TO.P,SW47,5*%
%TO.N,Net-(D47-Pad2)*%
X46181250Y-135245000D03*
%TO.P,SW47,6*%
%TO.N,SW41A*%
X33481250Y-132705000D03*
%TD*%
D11*
%TO.P,SW20,1,VDD*%
%TO.N,VDD*%
X190750000Y-102076000D03*
%TO.P,SW20,2,DOUT*%
%TO.N,Net-(SW20-Pad2)*%
X190750000Y-100676000D03*
%TO.P,SW20,3,GND*%
%TO.N,GND*%
X196250000Y-100676000D03*
%TO.P,SW20,4,DIN*%
%TO.N,Net-(SW20-Pad4)*%
X196250000Y-102076000D03*
D12*
%TO.P,SW20,5*%
%TO.N,Net-(D20-Pad2)*%
X199200000Y-111195000D03*
%TO.P,SW20,6*%
%TO.N,col0*%
X186500000Y-108655000D03*
%TD*%
D11*
%TO.P,SW2,1,VDD*%
%TO.N,VDD*%
X149650000Y-30926000D03*
%TO.P,SW2,2,DOUT*%
%TO.N,Net-(SW3-Pad4)*%
X149650000Y-29526000D03*
%TO.P,SW2,3,GND*%
%TO.N,GND*%
X155150000Y-29526000D03*
%TO.P,SW2,4,DIN*%
%TO.N,Net-(SW2-Pad4)*%
X155150000Y-30926000D03*
D12*
%TO.P,SW2,5*%
%TO.N,Net-(D2-Pad2)*%
X158100000Y-40045000D03*
%TO.P,SW2,6*%
%TO.N,col2*%
X145400000Y-37505000D03*
%TD*%
D11*
%TO.P,SW42,1,VDD*%
%TO.N,VDD*%
X149650000Y-118626000D03*
%TO.P,SW42,2,DOUT*%
%TO.N,Net-(SW42-Pad2)*%
X149650000Y-117226000D03*
%TO.P,SW42,3,GND*%
%TO.N,GND*%
X155150000Y-117226000D03*
%TO.P,SW42,4,DIN*%
%TO.N,Net-(SW42-Pad4)*%
X155150000Y-118626000D03*
D12*
%TO.P,SW42,5*%
%TO.N,Net-(D42-Pad2)*%
X158100000Y-127745000D03*
%TO.P,SW42,6*%
%TO.N,col2*%
X145400000Y-125205000D03*
%TD*%
D25*
%TO.P,JP1,1,A*%
%TO.N,Net-(JP1-Pad1)*%
X56928000Y-58928000D03*
%TO.P,JP1,2,C*%
%TO.N,Net-(JP1-Pad2)*%
X58928000Y-61928000D03*
X58928000Y-58928000D03*
%TO.P,JP1,3,B*%
%TO.N,GND*%
X56928000Y-61928000D03*
%TD*%
D11*
%TO.P,SW27,1,VDD*%
%TO.N,VDD*%
X54750000Y-88026000D03*
%TO.P,SW27,2,DOUT*%
%TO.N,Net-(SW26-Pad4)*%
X54750000Y-86626000D03*
%TO.P,SW27,3,GND*%
%TO.N,GND*%
X60250000Y-86626000D03*
%TO.P,SW27,4,DIN*%
%TO.N,Net-(SW17-Pad2)*%
X60250000Y-88026000D03*
D12*
%TO.P,SW27,5*%
%TO.N,Net-(D27-Pad2)*%
X62850000Y-97145000D03*
%TO.P,SW27,6*%
%TO.N,SW41A*%
X50150000Y-94605000D03*
%TD*%
D11*
%TO.P,SW57,1,VDD*%
%TO.N,VDD*%
X52018750Y-145176000D03*
%TO.P,SW57,2,DOUT*%
%TO.N,Net-(SW57-Pad2)*%
X52018750Y-143776000D03*
%TO.P,SW57,3,GND*%
%TO.N,GND*%
X57518750Y-143776000D03*
%TO.P,SW57,4,DIN*%
%TO.N,Net-(SW56-Pad2)*%
X57518750Y-145176000D03*
D12*
%TO.P,SW57,5*%
%TO.N,Net-(D57-Pad2)*%
X60468750Y-154295000D03*
%TO.P,SW57,6*%
%TO.N,SW41A*%
X47768750Y-151755000D03*
%TD*%
D11*
%TO.P,SW34,1,VDD*%
%TO.N,VDD*%
X111550000Y-92076000D03*
%TO.P,SW34,2,DOUT*%
%TO.N,Net-(SW34-Pad2)*%
X111550000Y-90676000D03*
%TO.P,SW34,3,GND*%
%TO.N,GND*%
X117050000Y-90676000D03*
%TO.P,SW34,4,DIN*%
%TO.N,Net-(SW33-Pad2)*%
X117050000Y-92076000D03*
D12*
%TO.P,SW34,5*%
%TO.N,Net-(D34-Pad2)*%
X120000000Y-101195000D03*
%TO.P,SW34,6*%
%TO.N,col4*%
X107300000Y-98655000D03*
%TD*%
D11*
%TO.P,SW58,1,VDD*%
%TO.N,VDD*%
X28206250Y-145176000D03*
%TO.P,SW58,2,DOUT*%
%TO.N,Net-(SW58-Pad2)*%
X28206250Y-143776000D03*
%TO.P,SW58,3,GND*%
%TO.N,GND*%
X33706250Y-143776000D03*
%TO.P,SW58,4,DIN*%
%TO.N,Net-(SW57-Pad2)*%
X33706250Y-145176000D03*
D12*
%TO.P,SW58,5*%
%TO.N,Net-(D58-Pad2)*%
X36656250Y-154295000D03*
%TO.P,SW58,6*%
%TO.N,col0*%
X23956250Y-151755000D03*
%TD*%
D11*
%TO.P,SW31,1,VDD*%
%TO.N,VDD*%
X168700000Y-102076000D03*
%TO.P,SW31,2,DOUT*%
%TO.N,Net-(SW31-Pad2)*%
X168700000Y-100676000D03*
%TO.P,SW31,3,GND*%
%TO.N,GND*%
X174200000Y-100676000D03*
%TO.P,SW31,4,DIN*%
%TO.N,Net-(SW21-Pad2)*%
X174200000Y-102076000D03*
D12*
%TO.P,SW31,5*%
%TO.N,Net-(D31-Pad2)*%
X177150000Y-111195000D03*
%TO.P,SW31,6*%
%TO.N,SW41A*%
X164450000Y-108655000D03*
%TD*%
D11*
%TO.P,SW3,1,VDD*%
%TO.N,VDD*%
X126600000Y-30926000D03*
%TO.P,SW3,2,DOUT*%
%TO.N,Net-(SW3-Pad2)*%
X126600000Y-29526000D03*
%TO.P,SW3,3,GND*%
%TO.N,GND*%
X132100000Y-29526000D03*
%TO.P,SW3,4,DIN*%
%TO.N,Net-(SW3-Pad4)*%
X132100000Y-30926000D03*
D12*
%TO.P,SW3,5*%
%TO.N,Net-(D3-Pad2)*%
X135050000Y-40045000D03*
%TO.P,SW3,6*%
%TO.N,col3*%
X122350000Y-37505000D03*
%TD*%
D11*
%TO.P,SW46,1,VDD*%
%TO.N,VDD*%
X73450000Y-120626000D03*
%TO.P,SW46,2,DOUT*%
%TO.N,Net-(SW45-Pad4)*%
X73450000Y-119226000D03*
%TO.P,SW46,3,GND*%
%TO.N,GND*%
X78950000Y-119226000D03*
%TO.P,SW46,4,DIN*%
%TO.N,Net-(SW46-Pad4)*%
X78950000Y-120626000D03*
D12*
%TO.P,SW46,5*%
%TO.N,Net-(D46-Pad2)*%
X81900000Y-129745000D03*
%TO.P,SW46,6*%
%TO.N,col6*%
X69200000Y-127205000D03*
%TD*%
D13*
%TO.P,SW30,1,VDD*%
%TO.N,VDD*%
X190100389Y-125208267D03*
%TO.P,SW30,2,DOUT*%
%TO.N,Net-(JP4-Pad1)*%
X190295231Y-123821892D03*
%TO.P,SW30,3,GND*%
%TO.N,GND*%
X195741706Y-124587344D03*
%TO.P,SW30,4,DIN*%
%TO.N,Net-(SW40-Pad2)*%
X195546863Y-125973719D03*
D14*
%TO.P,SW30,5*%
%TO.N,Net-(D30-Pad2)*%
X197199035Y-135414534D03*
%TO.P,SW30,6*%
%TO.N,col0*%
X184976130Y-131131755D03*
%TD*%
D26*
%TO.P,D48_RH10,1,K*%
%TO.N,row4*%
X17932750Y-105395000D03*
D27*
X17932750Y-104170000D03*
D26*
%TO.P,D48_RH10,2,A*%
%TO.N,Net-(D48_RH10-Pad2)*%
X17932750Y-108945000D03*
D28*
X17932750Y-110170000D03*
%TD*%
D15*
%TO.P,H2,1*%
%TO.N,N/C*%
X175007000Y-51816000D03*
X176657000Y-53466000D03*
X178307000Y-51816000D03*
X175490274Y-52982726D03*
X177823726Y-52982726D03*
X177823726Y-50649274D03*
D16*
X176657000Y-51816000D03*
D15*
X176657000Y-50166000D03*
X175490274Y-50649274D03*
%TD*%
D11*
%TO.P,SW36,1,VDD*%
%TO.N,VDD*%
X73450000Y-101576000D03*
%TO.P,SW36,2,DOUT*%
%TO.N,Net-(SW36-Pad2)*%
X73450000Y-100176000D03*
%TO.P,SW36,3,GND*%
%TO.N,GND*%
X78950000Y-100176000D03*
%TO.P,SW36,4,DIN*%
%TO.N,Net-(SW35-Pad2)*%
X78950000Y-101576000D03*
D12*
%TO.P,SW36,5*%
%TO.N,Net-(D36-Pad2)*%
X81900000Y-110695000D03*
%TO.P,SW36,6*%
%TO.N,col6*%
X69200000Y-108155000D03*
%TD*%
D11*
%TO.P,SW25,1,VDD*%
%TO.N,VDD*%
X92500000Y-77026000D03*
%TO.P,SW25,2,DOUT*%
%TO.N,Net-(SW24-Pad4)*%
X92500000Y-75626000D03*
%TO.P,SW25,3,GND*%
%TO.N,GND*%
X98000000Y-75626000D03*
%TO.P,SW25,4,DIN*%
%TO.N,Net-(SW25-Pad4)*%
X98000000Y-77026000D03*
D12*
%TO.P,SW25,5*%
%TO.N,Net-(D25-Pad2)*%
X100950000Y-86145000D03*
%TO.P,SW25,6*%
%TO.N,col5*%
X88250000Y-83605000D03*
%TD*%
D26*
%TO.P,D38_RH10,1,K*%
%TO.N,row3*%
X29739000Y-86625000D03*
D27*
X29739000Y-85400000D03*
D28*
%TO.P,D38_RH10,2,A*%
%TO.N,Net-(D38_RH10-Pad2)*%
X29739000Y-91400000D03*
D26*
X29739000Y-90175000D03*
%TD*%
D11*
%TO.P,SW32,1,VDD*%
%TO.N,VDD*%
X149650000Y-99576000D03*
%TO.P,SW32,2,DOUT*%
%TO.N,Net-(SW32-Pad2)*%
X149650000Y-98176000D03*
%TO.P,SW32,3,GND*%
%TO.N,GND*%
X155150000Y-98176000D03*
%TO.P,SW32,4,DIN*%
%TO.N,Net-(SW31-Pad2)*%
X155150000Y-99576000D03*
D12*
%TO.P,SW32,5*%
%TO.N,Net-(D32-Pad2)*%
X158100000Y-108695000D03*
%TO.P,SW32,6*%
%TO.N,col2*%
X145400000Y-106155000D03*
%TD*%
D11*
%TO.P,SW17,1,VDD*%
%TO.N,VDD*%
X54400000Y-68976000D03*
%TO.P,SW17,2,DOUT*%
%TO.N,Net-(SW17-Pad2)*%
X54400000Y-67576000D03*
%TO.P,SW17,3,GND*%
%TO.N,GND*%
X59900000Y-67576000D03*
%TO.P,SW17,4,DIN*%
%TO.N,Net-(SW16-Pad2)*%
X59900000Y-68976000D03*
D12*
%TO.P,SW17,5*%
%TO.N,Net-(D17-Pad2)*%
X62850000Y-78095000D03*
%TO.P,SW17,6*%
%TO.N,SW41A*%
X50150000Y-75555000D03*
%TD*%
D29*
%TO.P,J1,A*%
%TO.N,GND*%
X181558162Y-47618221D03*
X182921087Y-49654133D03*
%TO.P,J1,B*%
%TO.N,TRRS_VCC*%
X187648013Y-41435485D03*
X190957972Y-46379843D03*
%TO.P,J1,C*%
%TO.N,Net-(J1-PadC)*%
X188465019Y-48048730D03*
X185155060Y-43104372D03*
%TO.P,J1,D*%
%TO.N,unconnected-(J1-PadD)*%
X181831122Y-45329555D03*
X185141081Y-50273912D03*
%TD*%
D17*
%TO.P,JP2,1,A*%
%TO.N,Net-(SW58-Pad2)*%
X44952500Y-60039250D03*
%TO.P,JP2,2,B*%
%TO.N,Net-(SW08_RH10-Pad4)*%
X45852500Y-60039250D03*
%TD*%
D11*
%TO.P,SW11,1,VDD*%
%TO.N,VDD*%
X168700000Y-63976000D03*
%TO.P,SW11,2,DOUT*%
%TO.N,Net-(SW11-Pad2)*%
X168700000Y-62576000D03*
%TO.P,SW11,3,GND*%
%TO.N,GND*%
X174200000Y-62576000D03*
%TO.P,SW11,4,DIN*%
%TO.N,LED*%
X174200000Y-63976000D03*
D12*
%TO.P,SW11,5*%
%TO.N,Net-(D11-Pad2)*%
X177150000Y-73095000D03*
%TO.P,SW11,6*%
%TO.N,SW41A*%
X164450000Y-70555000D03*
%TD*%
D11*
%TO.P,SW54,1,VDD*%
%TO.N,VDD*%
X111550000Y-130176000D03*
%TO.P,SW54,2,DOUT*%
%TO.N,Net-(SW54-Pad2)*%
X111550000Y-128776000D03*
%TO.P,SW54,3,GND*%
%TO.N,GND*%
X117050000Y-128776000D03*
%TO.P,SW54,4,DIN*%
%TO.N,Net-(SW42-Pad2)*%
X117050000Y-130176000D03*
D12*
%TO.P,SW54,5*%
%TO.N,Net-(D54-Pad2)*%
X120000000Y-139295000D03*
%TO.P,SW54,6*%
%TO.N,col4*%
X107300000Y-136755000D03*
%TD*%
D11*
%TO.P,SW0,1,VDD*%
%TO.N,VDD*%
X190750000Y-63976000D03*
%TO.P,SW0,2,DOUT*%
%TO.N,Net-(SW0-Pad2)*%
X190750000Y-62576000D03*
%TO.P,SW0,3,GND*%
%TO.N,GND*%
X196250000Y-62576000D03*
%TO.P,SW0,4,DIN*%
%TO.N,Net-(SW0-Pad4)*%
X196250000Y-63976000D03*
D12*
%TO.P,SW0,5*%
%TO.N,Net-(D0-Pad2)*%
X199200000Y-73095000D03*
%TO.P,SW0,6*%
%TO.N,col0*%
X186500000Y-70555000D03*
%TD*%
D15*
%TO.P,H11,1*%
%TO.N,N/C*%
X131413274Y-91211274D03*
X132580000Y-90728000D03*
X134230000Y-92378000D03*
X132580000Y-94028000D03*
X131413274Y-93544726D03*
X133746726Y-93544726D03*
D16*
X132580000Y-92378000D03*
D15*
X133746726Y-91211274D03*
X130930000Y-92378000D03*
%TD*%
D11*
%TO.P,SW08_RH10,1,VDD*%
%TO.N,VDD*%
X6775000Y-68976000D03*
%TO.P,SW08_RH10,2,DOUT*%
%TO.N,Net-(SW18_RH10-Pad4)*%
X6775000Y-67576000D03*
%TO.P,SW08_RH10,3,GND*%
%TO.N,GND*%
X12275000Y-67576000D03*
%TO.P,SW08_RH10,4,DIN*%
%TO.N,Net-(SW08_RH10-Pad4)*%
X12275000Y-68976000D03*
D12*
%TO.P,SW08_RH10,5*%
%TO.N,Net-(D08_RH10-Pad2)*%
X15225000Y-78095000D03*
%TO.P,SW08_RH10,6*%
%TO.N,col0*%
X2525000Y-75555000D03*
%TD*%
D15*
%TO.P,H8,1*%
%TO.N,N/C*%
X47499000Y-101600000D03*
X47982274Y-102766726D03*
X50315726Y-102766726D03*
X49149000Y-103250000D03*
X50799000Y-101600000D03*
X47982274Y-100433274D03*
D16*
X49149000Y-101600000D03*
D15*
X50315726Y-100433274D03*
X49149000Y-99950000D03*
%TD*%
D27*
%TO.P,D18_RH10,1,K*%
%TO.N,row1*%
X30319000Y-69975000D03*
D26*
X30319000Y-71200000D03*
D28*
%TO.P,D18_RH10,2,A*%
%TO.N,Net-(D18_RH10-Pad2)*%
X30319000Y-75975000D03*
D26*
X30319000Y-74750000D03*
%TD*%
D11*
%TO.P,SW23,1,VDD*%
%TO.N,VDD*%
X130600000Y-78026000D03*
%TO.P,SW23,2,DOUT*%
%TO.N,Net-(SW22-Pad4)*%
X130600000Y-76626000D03*
%TO.P,SW23,3,GND*%
%TO.N,GND*%
X136100000Y-76626000D03*
%TO.P,SW23,4,DIN*%
%TO.N,Net-(SW23-Pad4)*%
X136100000Y-78026000D03*
D12*
%TO.P,SW23,5*%
%TO.N,Net-(D23-Pad2)*%
X139050000Y-87145000D03*
%TO.P,SW23,6*%
%TO.N,col3*%
X126350000Y-84605000D03*
%TD*%
D11*
%TO.P,SW7,1,VDD*%
%TO.N,VDD*%
X46400000Y-30926000D03*
%TO.P,SW7,2,DOUT*%
%TO.N,unconnected-(SW7-Pad2)*%
X46400000Y-29526000D03*
%TO.P,SW7,3,GND*%
%TO.N,GND*%
X51900000Y-29526000D03*
%TO.P,SW7,4,DIN*%
%TO.N,Net-(SW6-Pad2)*%
X51900000Y-30926000D03*
D12*
%TO.P,SW7,5*%
%TO.N,Net-(D7-Pad2)*%
X54850000Y-40045000D03*
%TO.P,SW7,6*%
%TO.N,SW41A*%
X42150000Y-37505000D03*
%TD*%
D18*
%TO.P,SW15,1,VDD*%
%TO.N,VDD*%
X99249000Y-59225000D03*
%TO.P,SW15,2,DOUT*%
%TO.N,Net-(SW15-Pad2)*%
X100649000Y-59225000D03*
%TO.P,SW15,3,GND*%
%TO.N,GND*%
X100649000Y-64725000D03*
%TO.P,SW15,4,DIN*%
%TO.N,Net-(SW14-Pad2)*%
X99249000Y-64725000D03*
D19*
%TO.P,SW15,5*%
%TO.N,Net-(D15-Pad2)*%
X90130000Y-67675000D03*
%TO.P,SW15,6*%
%TO.N,col5*%
X92670000Y-54975000D03*
%TD*%
D15*
%TO.P,H9,1*%
%TO.N,N/C*%
X58674000Y-42724274D03*
X59840726Y-45541000D03*
X57507274Y-45541000D03*
X58674000Y-46024274D03*
X57507274Y-43207548D03*
X57024000Y-44374274D03*
X59840726Y-43207548D03*
X60324000Y-44374274D03*
D16*
X58674000Y-44374274D03*
%TD*%
D11*
%TO.P,SW38_RH10,1,VDD*%
%TO.N,VDD*%
X35350000Y-88026000D03*
%TO.P,SW38_RH10,2,DOUT*%
%TO.N,Net-(SW38_RH10-Pad2)*%
X35350000Y-86626000D03*
%TO.P,SW38_RH10,3,GND*%
%TO.N,GND*%
X40850000Y-86626000D03*
%TO.P,SW38_RH10,4,DIN*%
%TO.N,Net-(SW28_RH10-Pad2)*%
X40850000Y-88026000D03*
D12*
%TO.P,SW38_RH10,5*%
%TO.N,Net-(D38_RH10-Pad2)*%
X43800000Y-97145000D03*
%TO.P,SW38_RH10,6*%
%TO.N,col0*%
X31100000Y-94605000D03*
%TD*%
D30*
%TO.P,R1,1*%
%TO.N,Net-(J1-PadC)*%
X187547000Y-56801000D03*
%TO.P,R1,2*%
%TO.N,TRRS1*%
X192627000Y-56801000D03*
%TD*%
D11*
%TO.P,SW13,1,VDD*%
%TO.N,VDD*%
X130600000Y-58976000D03*
%TO.P,SW13,2,DOUT*%
%TO.N,Net-(SW13-Pad2)*%
X130600000Y-57576000D03*
%TO.P,SW13,3,GND*%
%TO.N,GND*%
X136100000Y-57576000D03*
%TO.P,SW13,4,DIN*%
%TO.N,Net-(SW12-Pad2)*%
X136100000Y-58976000D03*
D12*
%TO.P,SW13,5*%
%TO.N,Net-(D13-Pad2)*%
X139050000Y-68095000D03*
%TO.P,SW13,6*%
%TO.N,col3*%
X126350000Y-65555000D03*
%TD*%
D26*
%TO.P,D58,1,K*%
%TO.N,row5*%
X23006250Y-142689000D03*
D27*
X23006250Y-141464000D03*
D26*
%TO.P,D58,2,A*%
%TO.N,Net-(D58-Pad2)*%
X23006250Y-146239000D03*
D28*
X23006250Y-147464000D03*
%TD*%
D27*
%TO.P,D17,1,K*%
%TO.N,row1*%
X49200000Y-65264000D03*
D26*
X49200000Y-66489000D03*
%TO.P,D17,2,A*%
%TO.N,Net-(D17-Pad2)*%
X49200000Y-70039000D03*
D28*
X49200000Y-71264000D03*
%TD*%
D26*
%TO.P,D55,1,K*%
%TO.N,row5*%
X87300000Y-131689000D03*
D27*
X87300000Y-130464000D03*
D26*
%TO.P,D55,2,A*%
%TO.N,Net-(D55-Pad2)*%
X87300000Y-135239000D03*
D28*
X87300000Y-136464000D03*
%TD*%
D26*
%TO.P,D46,1,K*%
%TO.N,row4*%
X68250000Y-118139000D03*
D27*
X68250000Y-116914000D03*
D28*
%TO.P,D46,2,A*%
%TO.N,Net-(D46-Pad2)*%
X68250000Y-122914000D03*
D26*
X68250000Y-121689000D03*
%TD*%
D31*
%TO.P,D40,1,K*%
%TO.N,row4*%
X182612064Y-141010548D03*
D32*
X182782551Y-139797470D03*
D31*
%TO.P,D40,2,A*%
%TO.N,Net-(D40-Pad2)*%
X182118000Y-144526000D03*
D33*
X181947513Y-145739078D03*
%TD*%
D26*
%TO.P,D15,1,K*%
%TO.N,row1*%
X95123000Y-48565000D03*
D27*
X95123000Y-47340000D03*
D26*
%TO.P,D15,2,A*%
%TO.N,Net-(D15-Pad2)*%
X95123000Y-52115000D03*
D28*
X95123000Y-53340000D03*
%TD*%
D27*
%TO.P,D54,1,K*%
%TO.N,row5*%
X106350000Y-126464000D03*
D26*
X106350000Y-127689000D03*
D28*
%TO.P,D54,2,A*%
%TO.N,Net-(D54-Pad2)*%
X106350000Y-132464000D03*
D26*
X106350000Y-131239000D03*
%TD*%
D27*
%TO.P,D56,1,K*%
%TO.N,row5*%
X68250000Y-135964000D03*
D26*
X68250000Y-137189000D03*
%TO.P,D56,2,A*%
%TO.N,Net-(D56-Pad2)*%
X68250000Y-140739000D03*
D28*
X68250000Y-141964000D03*
%TD*%
D27*
%TO.P,D5,1,K*%
%TO.N,row0*%
X89535000Y-43101000D03*
D26*
X89535000Y-44326000D03*
D28*
%TO.P,D5,2,A*%
%TO.N,Net-(D5-Pad2)*%
X89535000Y-49101000D03*
D26*
X89535000Y-47876000D03*
%TD*%
D27*
%TO.P,D13,1,K*%
%TO.N,row1*%
X125400000Y-55264000D03*
D26*
X125400000Y-56489000D03*
%TO.P,D13,2,A*%
%TO.N,Net-(D13-Pad2)*%
X125400000Y-60039000D03*
D28*
X125400000Y-61264000D03*
%TD*%
D27*
%TO.P,D32,1,K*%
%TO.N,row3*%
X144450000Y-95864000D03*
D26*
X144450000Y-97089000D03*
D28*
%TO.P,D32,2,A*%
%TO.N,Net-(D32-Pad2)*%
X144450000Y-101864000D03*
D26*
X144450000Y-100639000D03*
%TD*%
%TO.P,D26,1,K*%
%TO.N,row2*%
X68250000Y-80039000D03*
D27*
X68250000Y-78814000D03*
D26*
%TO.P,D26,2,A*%
%TO.N,Net-(D26-Pad2)*%
X68250000Y-83589000D03*
D28*
X68250000Y-84814000D03*
%TD*%
D26*
%TO.P,D7,1,K*%
%TO.N,row0*%
X41200000Y-28439000D03*
D27*
X41200000Y-27214000D03*
D28*
%TO.P,D7,2,A*%
%TO.N,Net-(D7-Pad2)*%
X41200000Y-33214000D03*
D26*
X41200000Y-31989000D03*
%TD*%
%TO.P,D2,1,K*%
%TO.N,row0*%
X144450000Y-28439000D03*
D27*
X144450000Y-27214000D03*
D28*
%TO.P,D2,2,A*%
%TO.N,Net-(D2-Pad2)*%
X144450000Y-33214000D03*
D26*
X144450000Y-31989000D03*
%TD*%
D34*
%TO.P,Q1,1,B*%
%TO.N,Net-(Q1-Pad1)*%
X68227000Y-54101000D03*
D35*
%TO.P,Q1,2,C*%
%TO.N,Net-(D_SOL_1-PadA)*%
X68227000Y-51561000D03*
%TO.P,Q1,3,E*%
%TO.N,GND*%
X68227000Y-49021000D03*
%TD*%
D27*
%TO.P,D0,1,K*%
%TO.N,row0*%
X185550000Y-60264000D03*
D26*
X185550000Y-61489000D03*
%TO.P,D0,2,A*%
%TO.N,Net-(D0-Pad2)*%
X185550000Y-65039000D03*
D28*
X185550000Y-66264000D03*
%TD*%
D27*
%TO.P,D21,1,K*%
%TO.N,row2*%
X163500000Y-79314000D03*
D26*
X163500000Y-80539000D03*
%TO.P,D21,2,A*%
%TO.N,Net-(D21-Pad2)*%
X163500000Y-84089000D03*
D28*
X163500000Y-85314000D03*
%TD*%
D26*
%TO.P,D37,1,K*%
%TO.N,row3*%
X42215000Y-104589000D03*
D27*
X42215000Y-103364000D03*
D28*
%TO.P,D37,2,A*%
%TO.N,Net-(D37-Pad2)*%
X42215000Y-109364000D03*
D26*
X42215000Y-108139000D03*
%TD*%
%TO.P,D42,1,K*%
%TO.N,row4*%
X144450000Y-116139000D03*
D27*
X144450000Y-114914000D03*
D26*
%TO.P,D42,2,A*%
%TO.N,Net-(D42-Pad2)*%
X144450000Y-119689000D03*
D28*
X144450000Y-120914000D03*
%TD*%
D26*
%TO.P,D33,1,K*%
%TO.N,row3*%
X125400000Y-94589000D03*
D27*
X125400000Y-93364000D03*
D28*
%TO.P,D33,2,A*%
%TO.N,Net-(D33-Pad2)*%
X125400000Y-99364000D03*
D26*
X125400000Y-98139000D03*
%TD*%
D27*
%TO.P,D11,1,K*%
%TO.N,row1*%
X163500000Y-60264000D03*
D26*
X163500000Y-61489000D03*
D28*
%TO.P,D11,2,A*%
%TO.N,Net-(D11-Pad2)*%
X163500000Y-66264000D03*
D26*
X163500000Y-65039000D03*
%TD*%
%TO.P,D27,1,K*%
%TO.N,row2*%
X65087500Y-88662500D03*
D27*
X65087500Y-87437500D03*
D26*
%TO.P,D27,2,A*%
%TO.N,Net-(D27-Pad2)*%
X65087500Y-92212500D03*
D28*
X65087500Y-93437500D03*
%TD*%
D27*
%TO.P,D12,1,K*%
%TO.N,row1*%
X144450000Y-57764000D03*
D26*
X144450000Y-58989000D03*
D28*
%TO.P,D12,2,A*%
%TO.N,Net-(D12-Pad2)*%
X144450000Y-63764000D03*
D26*
X144450000Y-62539000D03*
%TD*%
D27*
%TO.P,D25,1,K*%
%TO.N,row2*%
X86300000Y-82736000D03*
D26*
X86300000Y-83961000D03*
D28*
%TO.P,D25,2,A*%
%TO.N,Net-(D25-Pad2)*%
X86300000Y-88736000D03*
D26*
X86300000Y-87511000D03*
%TD*%
%TO.P,D34,1,K*%
%TO.N,row3*%
X106350000Y-89589000D03*
D27*
X106350000Y-88364000D03*
D28*
%TO.P,D34,2,A*%
%TO.N,Net-(D34-Pad2)*%
X106350000Y-94364000D03*
D26*
X106350000Y-93139000D03*
%TD*%
D27*
%TO.P,D4,1,K*%
%TO.N,row0*%
X118250000Y-27214000D03*
D26*
X118250000Y-28439000D03*
%TO.P,D4,2,A*%
%TO.N,Net-(D4-Pad2)*%
X118250000Y-31989000D03*
D28*
X118250000Y-33214000D03*
%TD*%
D31*
%TO.P,D50,1,K*%
%TO.N,row5*%
X178174032Y-166644274D03*
D32*
X178344519Y-165431196D03*
D33*
%TO.P,D50,2,A*%
%TO.N,Net-(D50-Pad2)*%
X177509481Y-171372804D03*
D31*
X177679968Y-170159726D03*
%TD*%
%TO.P,D51,1,K*%
%TO.N,row5*%
X162389513Y-147771078D03*
D32*
X162560000Y-146558000D03*
D31*
%TO.P,D51,2,A*%
%TO.N,Net-(D51-Pad2)*%
X161895449Y-151286530D03*
D33*
X161724962Y-152499608D03*
%TD*%
D26*
%TO.P,D1,1,K*%
%TO.N,row0*%
X163500000Y-28439000D03*
D27*
X163500000Y-27214000D03*
D26*
%TO.P,D1,2,A*%
%TO.N,Net-(D1-Pad2)*%
X163500000Y-31989000D03*
D28*
X163500000Y-33214000D03*
%TD*%
D27*
%TO.P,D47,1,K*%
%TO.N,row4*%
X30321250Y-125908000D03*
D26*
X30321250Y-127133000D03*
%TO.P,D47,2,A*%
%TO.N,Net-(D47-Pad2)*%
X30321250Y-130683000D03*
D28*
X30321250Y-131908000D03*
%TD*%
D26*
%TO.P,D6,1,K*%
%TO.N,row0*%
X64250000Y-28439000D03*
D27*
X64250000Y-27214000D03*
D26*
%TO.P,D6,2,A*%
%TO.N,Net-(D6-Pad2)*%
X64250000Y-31989000D03*
D28*
X64250000Y-33214000D03*
%TD*%
D26*
%TO.P,D24,1,K*%
%TO.N,row2*%
X106350000Y-70539000D03*
D27*
X106350000Y-69314000D03*
D28*
%TO.P,D24,2,A*%
%TO.N,Net-(D24-Pad2)*%
X106350000Y-75314000D03*
D26*
X106350000Y-74089000D03*
%TD*%
D27*
%TO.P,D3,1,K*%
%TO.N,row0*%
X121400000Y-27214000D03*
D26*
X121400000Y-28439000D03*
D28*
%TO.P,D3,2,A*%
%TO.N,Net-(D3-Pad2)*%
X121400000Y-33214000D03*
D26*
X121400000Y-31989000D03*
%TD*%
D27*
%TO.P,D16,1,K*%
%TO.N,row1*%
X68250000Y-59764000D03*
D26*
X68250000Y-60989000D03*
%TO.P,D16,2,A*%
%TO.N,Net-(D16-Pad2)*%
X68250000Y-64539000D03*
D28*
X68250000Y-65764000D03*
%TD*%
D27*
%TO.P,D35,1,K*%
%TO.N,row3*%
X87300000Y-92364000D03*
D26*
X87300000Y-93589000D03*
D28*
%TO.P,D35,2,A*%
%TO.N,Net-(D35-Pad2)*%
X87300000Y-98364000D03*
D26*
X87300000Y-97139000D03*
%TD*%
%TO.P,D43,1,K*%
%TO.N,row4*%
X125400000Y-113639000D03*
D27*
X125400000Y-112414000D03*
D26*
%TO.P,D43,2,A*%
%TO.N,Net-(D43-Pad2)*%
X125400000Y-117189000D03*
D28*
X125400000Y-118414000D03*
%TD*%
D36*
%TO.P,D_SOL_1,A*%
%TO.N,Net-(D_SOL_1-PadA)*%
X79121000Y-56642000D03*
%TO.P,D_SOL_1,C*%
%TO.N,SOL_VCC*%
X79121000Y-45466000D03*
%TD*%
D27*
%TO.P,D45,1,K*%
%TO.N,row4*%
X87300000Y-111414000D03*
D26*
X87300000Y-112639000D03*
%TO.P,D45,2,A*%
%TO.N,Net-(D45-Pad2)*%
X87300000Y-116189000D03*
D28*
X87300000Y-117414000D03*
%TD*%
D26*
%TO.P,D22,1,K*%
%TO.N,row2*%
X144450000Y-78039000D03*
D27*
X144450000Y-76814000D03*
D28*
%TO.P,D22,2,A*%
%TO.N,Net-(D22-Pad2)*%
X144450000Y-82814000D03*
D26*
X144450000Y-81589000D03*
%TD*%
D37*
%TO.P,ULH1,1,PB12*%
%TO.N,row0*%
X101550000Y-27845000D03*
D38*
%TO.P,ULH1,2,PB13*%
%TO.N,row1*%
X101550000Y-30385000D03*
%TO.P,ULH1,3,PB14*%
%TO.N,row2*%
X101550000Y-32925000D03*
%TO.P,ULH1,4,PB15*%
%TO.N,row3*%
X101550000Y-35465000D03*
%TO.P,ULH1,5,PA8*%
%TO.N,row4*%
X101550000Y-38005000D03*
%TO.P,ULH1,6,PA9*%
%TO.N,unconnected-(ULH1-Pad6)*%
X101550000Y-40545000D03*
%TO.P,ULH1,7,PA10*%
%TO.N,unconnected-(ULH1-Pad7)*%
X101550000Y-43085000D03*
%TO.P,ULH1,8,PA11*%
%TO.N,unconnected-(ULH1-Pad8)*%
X101550000Y-45625000D03*
%TO.P,ULH1,9,PA12*%
%TO.N,unconnected-(ULH1-Pad9)*%
X101550000Y-48165000D03*
%TO.P,ULH1,10,PA15*%
%TO.N,row5*%
X101550000Y-50705000D03*
%TO.P,ULH1,11,PB3*%
%TO.N,LED*%
X101550000Y-53245000D03*
%TO.P,ULH1,12,PB4*%
%TO.N,col4*%
X101550000Y-55785000D03*
%TO.P,ULH1,13,PB5*%
%TO.N,col5*%
X101550000Y-58325000D03*
%TO.P,ULH1,14,PB6*%
%TO.N,TRRS1*%
X101550000Y-60865000D03*
%TO.P,ULH1,15,PB7*%
%TO.N,SW41A*%
X101550000Y-63405000D03*
%TO.P,ULH1,16,PB8*%
%TO.N,col0*%
X101550000Y-65945000D03*
%TO.P,ULH1,17,PB9*%
%TO.N,unconnected-(ULH1-Pad17)*%
X101550000Y-68485000D03*
%TO.P,ULH1,18,5V*%
%TO.N,TRRS_VCC*%
X101550000Y-71025000D03*
%TO.P,ULH1,19,GND*%
%TO.N,GND*%
X101550000Y-73565000D03*
%TO.P,ULH1,20,3V3*%
%TO.N,unconnected-(ULH1-Pad20)*%
X101550000Y-76105000D03*
%TO.P,ULH1,21,VBat*%
%TO.N,unconnected-(ULH1-Pad21)*%
X86310000Y-76105000D03*
%TO.P,ULH1,22,PC13*%
%TO.N,col0*%
X86310000Y-73565000D03*
%TO.P,ULH1,23,PC14*%
%TO.N,SW41A*%
X86310000Y-71025000D03*
%TO.P,ULH1,24,PC15*%
%TO.N,col2*%
X86310000Y-68485000D03*
%TO.P,ULH1,25,RES*%
%TO.N,unconnected-(ULH1-Pad25)*%
X86310000Y-65945000D03*
%TO.P,ULH1,26,PA0*%
%TO.N,col3*%
X86310000Y-63405000D03*
%TO.P,ULH1,27,PA1*%
%TO.N,unconnected-(ULH1-Pad27)*%
X86310000Y-60865000D03*
%TO.P,ULH1,28,PA2*%
%TO.N,unconnected-(ULH1-Pad28)*%
X86310000Y-58325000D03*
%TO.P,ULH1,29,PA3*%
%TO.N,unconnected-(ULH1-Pad29)*%
X86310000Y-55785000D03*
%TO.P,ULH1,30,PA4*%
%TO.N,unconnected-(ULH1-Pad30)*%
X86310000Y-53245000D03*
%TO.P,ULH1,31,PA5*%
%TO.N,unconnected-(ULH1-Pad31)*%
X86310000Y-50705000D03*
%TO.P,ULH1,32,PA6*%
%TO.N,unconnected-(ULH1-Pad32)*%
X86310000Y-48165000D03*
%TO.P,ULH1,33,PA7*%
%TO.N,unconnected-(ULH1-Pad33)*%
X86310000Y-45625000D03*
%TO.P,ULH1,34,PB0*%
%TO.N,Net-(JP1-Pad2)*%
X86310000Y-43085000D03*
%TO.P,ULH1,35,PB1*%
%TO.N,SOLENOID_CONTROL*%
X86310000Y-40545000D03*
%TO.P,ULH1,36,PB2*%
%TO.N,unconnected-(ULH1-Pad36)*%
X86310000Y-38005000D03*
%TO.P,ULH1,37,PB10*%
%TO.N,col6*%
X86310000Y-35465000D03*
%TO.P,ULH1,38,3V3*%
%TO.N,Net-(JP1-Pad1)*%
X86310000Y-32925000D03*
%TO.P,ULH1,39,GND*%
%TO.N,GND*%
X86310000Y-30385000D03*
%TO.P,ULH1,40,5V*%
%TO.N,SOL_VCC*%
X86310000Y-27845000D03*
%TO.P,ULH1,41,GND*%
%TO.N,GND*%
X90118000Y-72294000D03*
%TO.P,ULH1,42,SWCLK*%
%TO.N,encB*%
X92658000Y-72294000D03*
%TO.P,ULH1,43,SWIO*%
%TO.N,encA*%
X95198000Y-72294000D03*
%TO.P,ULH1,44,3V3*%
%TO.N,unconnected-(ULH1-Pad44)*%
X97738000Y-72294000D03*
%TD*%
D27*
%TO.P,D20,1,K*%
%TO.N,row2*%
X185550000Y-98364000D03*
D26*
X185550000Y-99589000D03*
%TO.P,D20,2,A*%
%TO.N,Net-(D20-Pad2)*%
X185550000Y-103139000D03*
D28*
X185550000Y-104364000D03*
%TD*%
D37*
%TO.P,J_SOL_1,1,Pin_1*%
%TO.N,Net-(D_SOL_1-PadA)*%
X73787000Y-51562000D03*
D39*
%TO.P,J_SOL_1,2,Pin_2*%
%TO.N,SOL_VCC*%
X73787000Y-49022000D03*
%TD*%
D26*
%TO.P,D14,1,K*%
%TO.N,row1*%
X106350000Y-51489000D03*
D27*
X106350000Y-50264000D03*
D26*
%TO.P,D14,2,A*%
%TO.N,Net-(D14-Pad2)*%
X106350000Y-55039000D03*
D28*
X106350000Y-56264000D03*
%TD*%
D26*
%TO.P,D31,1,K*%
%TO.N,row3*%
X163500000Y-99589000D03*
D27*
X163500000Y-98364000D03*
D28*
%TO.P,D31,2,A*%
%TO.N,Net-(D31-Pad2)*%
X163500000Y-104364000D03*
D26*
X163500000Y-103139000D03*
%TD*%
D27*
%TO.P,D44,1,K*%
%TO.N,row4*%
X106350000Y-107414000D03*
D26*
X106350000Y-108639000D03*
D28*
%TO.P,D44,2,A*%
%TO.N,Net-(D44-Pad2)*%
X106350000Y-113414000D03*
D26*
X106350000Y-112189000D03*
%TD*%
D31*
%TO.P,D52,1,K*%
%TO.N,row5*%
X143503032Y-145054274D03*
D32*
X143673519Y-143841196D03*
D31*
%TO.P,D52,2,A*%
%TO.N,Net-(D52-Pad2)*%
X143008968Y-148569726D03*
D33*
X142838481Y-149782804D03*
%TD*%
D27*
%TO.P,D36,1,K*%
%TO.N,row3*%
X68250000Y-97864000D03*
D26*
X68250000Y-99089000D03*
%TO.P,D36,2,A*%
%TO.N,Net-(D36-Pad2)*%
X68250000Y-102639000D03*
D28*
X68250000Y-103864000D03*
%TD*%
D11*
%TO.P,SW48_RH10,1,VDD*%
%TO.N,VDD*%
X28943750Y-105676000D03*
%TO.P,SW48_RH10,2,DOUT*%
%TO.N,unconnected-(SW48_RH10-Pad2)*%
X28943750Y-107076000D03*
%TO.P,SW48_RH10,3,GND*%
%TO.N,GND*%
X23443750Y-107076000D03*
%TO.P,SW48_RH10,4,DIN*%
%TO.N,Net-(SW38_RH10-Pad2)*%
X23443750Y-105676000D03*
D12*
%TO.P,SW48_RH10,5*%
%TO.N,Net-(D48_RH10-Pad2)*%
X31893750Y-116195000D03*
%TO.P,SW48_RH10,6*%
%TO.N,col0*%
X19193750Y-113655000D03*
%TD*%
D27*
%TO.P,D41,1,K*%
%TO.N,row4*%
X181991000Y-116507000D03*
D26*
X181991000Y-117732000D03*
%TO.P,D41,2,A*%
%TO.N,SW41B*%
X181991000Y-121282000D03*
D28*
X181991000Y-122507000D03*
%TD*%
D26*
%TO.P,D28_RH10,1,K*%
%TO.N,row2*%
X4921250Y-86220500D03*
D27*
X4921250Y-84995500D03*
D28*
%TO.P,D28_RH10,2,A*%
%TO.N,Net-(D28_RH10-Pad2)*%
X4921250Y-90995500D03*
D26*
X4921250Y-89770500D03*
%TD*%
D40*
%TO.P,R2,1*%
%TO.N,Net-(Q1-Pad1)*%
X67447000Y-44081000D03*
D41*
%TO.P,R2,2*%
%TO.N,SOLENOID_CONTROL*%
X77607000Y-44081000D03*
%TD*%
D26*
%TO.P,D23,1,K*%
%TO.N,row2*%
X125400000Y-75539000D03*
D27*
X125400000Y-74314000D03*
D28*
%TO.P,D23,2,A*%
%TO.N,Net-(D23-Pad2)*%
X125400000Y-80314000D03*
D26*
X125400000Y-79089000D03*
%TD*%
D27*
%TO.P,D08_RH10,1,K*%
%TO.N,row0*%
X952500Y-66751750D03*
D26*
X952500Y-67976750D03*
D28*
%TO.P,D08_RH10,2,A*%
%TO.N,Net-(D08_RH10-Pad2)*%
X952500Y-72751750D03*
D26*
X952500Y-71526750D03*
%TD*%
D31*
%TO.P,D30,1,K*%
%TO.N,row3*%
X185322551Y-122017470D03*
D32*
X185493038Y-120804392D03*
D31*
%TO.P,D30,2,A*%
%TO.N,Net-(D30-Pad2)*%
X184828487Y-125532922D03*
D33*
X184658000Y-126746000D03*
%TD*%
D26*
%TO.P,D10,1,K*%
%TO.N,row1*%
X185550000Y-80539000D03*
D27*
X185550000Y-79314000D03*
D28*
%TO.P,D10,2,A*%
%TO.N,Net-(D10-Pad2)*%
X185550000Y-85314000D03*
D26*
X185550000Y-84089000D03*
%TD*%
D27*
%TO.P,D57,1,K*%
%TO.N,row5*%
X46818750Y-141464000D03*
D26*
X46818750Y-142689000D03*
D28*
%TO.P,D57,2,A*%
%TO.N,Net-(D57-Pad2)*%
X46818750Y-147464000D03*
D26*
X46818750Y-146239000D03*
%TD*%
D32*
%TO.P,D53,1,K*%
%TO.N,row5*%
X123861519Y-148179470D03*
D31*
X123691032Y-149392548D03*
%TO.P,D53,2,A*%
%TO.N,Net-(D53-Pad2)*%
X123196968Y-152908000D03*
D33*
X123026481Y-154121078D03*
%TD*%
M02*
