M48
; DRILL file {KiCad (6.0.5-0)} date Saturday, January 14, 2023 at 07:39:38 PM
; FORMAT={-:-/ absolute / inch / decimal}
; #@! TF.CreationDate,2023-01-14T19:39:38-08:00
; #@! TF.GenerationSoftware,Kicad,Pcbnew,(6.0.5-0)
; #@! TF.FileFunction,NonPlated,1,2,NPTH
FMAT,2
INCH
; #@! TA.AperFunction,NonPlated,NPTH,ComponentDrill
T1C0.0591
; #@! TA.AperFunction,NonPlated,NPTH,ComponentDrill
T2C0.0669
; #@! TA.AperFunction,NonPlated,NPTH,ComponentDrill
T3C0.0748
; #@! TA.AperFunction,NonPlated,NPTH,ComponentDrill
T4C0.1181
; #@! TA.AperFunction,NonPlated,NPTH,ComponentDrill
T5C0.1614
%
G90
G05
T2
X2.6654Y-1.375
X2.8228Y-2.6565
X2.8228Y-3.4065
X2.8228Y-4.1565
X2.8228Y-4.9065
X2.8228Y-5.6565
X3.0197Y-1.375
X3.1772Y-2.6565
X3.1772Y-3.4065
X3.1772Y-4.1565
X3.1772Y-4.9065
X3.1772Y-5.6565
X3.4154Y-1.375
X3.5728Y-2.44
X3.5728Y-3.19
X3.5728Y-3.94
X3.5728Y-4.69
X3.5728Y-5.44
X3.7697Y-1.375
X3.9272Y-2.44
X3.9272Y-3.19
X3.9272Y-3.94
X3.9272Y-4.69
X3.9272Y-5.44
X4.1654Y-1.375
X4.3228Y-2.2825
X4.3228Y-3.0325
X4.3228Y-3.7825
X4.3228Y-4.5325
X4.3228Y-5.2825
X4.5197Y-1.375
X4.6772Y-2.2825
X4.6772Y-3.0325
X4.6772Y-3.7825
X4.6772Y-4.5325
X4.6772Y-5.2825
X4.9154Y-1.375
X4.9632Y-6.1485
X5.0728Y-2.4793
X5.0728Y-3.2293
X5.0728Y-3.9793
X5.0728Y-4.7293
X5.2697Y-1.375
X5.3141Y-6.1978
X5.4272Y-2.4793
X5.4272Y-3.2293
X5.4272Y-3.9793
X5.4272Y-4.7293
X5.8228Y-1.375
X5.8228Y-2.5778
X5.8228Y-3.3278
X5.8228Y-4.0778
X5.8228Y-4.8278
X5.8957Y-6.1757
X5.945Y-5.8248
X6.1772Y-1.375
X6.1772Y-2.5778
X6.1772Y-3.3278
X6.1772Y-4.0778
X6.1772Y-4.8278
X6.5728Y-1.375
X6.5728Y-2.6762
X6.5728Y-3.4262
X6.5728Y-4.1762
X6.6386Y-6.2789
X6.6879Y-5.928
X6.9272Y-1.375
X6.9272Y-2.6762
X6.9272Y-3.4262
X6.9272Y-4.1762
X7.1783Y-6.5545
X7.2827Y-5.8118
X7.3871Y-5.0691
X7.4409Y-2.6762
X7.4409Y-3.4262
X7.4409Y-4.1762
X7.5292Y-6.6038
X7.6336Y-5.8611
X7.7379Y-5.1184
X7.7953Y-2.6762
X7.7953Y-3.4262
X7.7953Y-4.1762
T3
X1.0188Y-5.873
X1.4187Y-5.873
X1.675Y-5.123
X1.735Y-1.375
X1.775Y-4.373
X1.8687Y-3.623
X1.9563Y-5.873
X2.05Y-2.873
X2.075Y-5.123
X2.135Y-1.375
X2.175Y-4.373
X2.2687Y-3.623
X2.3562Y-5.873
X2.45Y-2.873
X2.6425Y-1.375
X2.8Y-2.6565
X2.8Y-3.4065
X2.8Y-4.1565
X2.8Y-4.9065
X2.8Y-5.6565
X3.0425Y-1.375
X3.2Y-2.6565
X3.2Y-3.4065
X3.2Y-4.1565
X3.2Y-4.9065
X3.2Y-5.6565
X3.3925Y-1.375
X3.55Y-2.44
X3.55Y-3.19
X3.55Y-3.94
X3.55Y-4.69
X3.55Y-5.44
X3.7925Y-1.375
X3.95Y-2.44
X3.95Y-3.19
X3.95Y-3.94
X3.95Y-4.69
X3.95Y-5.44
X4.1425Y-1.375
X4.3Y-2.2825
X4.3Y-3.0325
X4.3Y-3.7825
X4.3Y-4.5325
X4.3Y-5.2825
X4.5425Y-1.375
X4.7Y-2.2825
X4.7Y-3.0325
X4.7Y-3.7825
X4.7Y-4.5325
X4.7Y-5.2825
X4.8925Y-1.375
X4.9406Y-6.1453
X5.05Y-2.4793
X5.05Y-3.2293
X5.05Y-3.9793
X5.05Y-4.7293
X5.2925Y-1.375
X5.3367Y-6.201
X5.45Y-2.4793
X5.45Y-3.2293
X5.45Y-3.9793
X5.45Y-4.7293
X5.8Y-1.375
X5.8Y-2.5778
X5.8Y-3.3278
X5.8Y-4.0778
X5.8Y-4.8278
X5.8925Y-6.1983
X5.9482Y-5.8022
X6.2Y-1.375
X6.2Y-2.5778
X6.2Y-3.3278
X6.2Y-4.0778
X6.2Y-4.8278
X6.55Y-1.375
X6.55Y-2.6762
X6.55Y-3.4262
X6.55Y-4.1762
X6.6354Y-6.3015
X6.6911Y-5.9054
X6.95Y-1.375
X6.95Y-2.6762
X6.95Y-3.4262
X6.95Y-4.1762
X7.1557Y-6.5513
X7.2601Y-5.8086
X7.3644Y-5.0659
X7.4181Y-2.6762
X7.4181Y-3.4262
X7.4181Y-4.1762
X7.5518Y-6.607
X7.6562Y-5.8643
X7.7606Y-5.1216
X7.8181Y-2.6762
X7.8181Y-3.4262
X7.8181Y-4.1762
T4
X1.1187Y-6.073
X1.3687Y-5.973
X1.775Y-5.323
X1.835Y-1.575
X1.875Y-4.573
X1.9688Y-3.823
X2.025Y-5.223
X2.0562Y-6.073
X2.085Y-1.475
X2.125Y-4.473
X2.15Y-3.073
X2.2188Y-3.723
X2.3062Y-5.973
X2.4Y-2.973
X2.6925Y-1.475
X2.7425Y-1.575
X2.85Y-2.7565
X2.85Y-3.5065
X2.85Y-4.2565
X2.85Y-5.0065
X2.85Y-5.7565
X2.9Y-2.8565
X2.9Y-3.6065
X2.9Y-4.3565
X2.9Y-5.1065
X2.9Y-5.8565
X2.9425Y-1.575
X2.9925Y-1.475
X3.1Y-2.8565
X3.1Y-3.6065
X3.1Y-4.3565
X3.1Y-5.1065
X3.1Y-5.8565
X3.15Y-2.7565
X3.15Y-3.5065
X3.15Y-4.2565
X3.15Y-5.0065
X3.15Y-5.7565
X3.4425Y-1.475
X3.4925Y-1.575
X3.6Y-2.54
X3.6Y-3.29
X3.6Y-4.04
X3.6Y-4.79
X3.6Y-5.54
X3.65Y-2.64
X3.65Y-3.39
X3.65Y-4.14
X3.65Y-4.89
X3.65Y-5.64
X3.6925Y-1.575
X3.7425Y-1.475
X3.85Y-2.64
X3.85Y-3.39
X3.85Y-4.14
X3.85Y-4.89
X3.85Y-5.64
X3.9Y-2.54
X3.9Y-3.29
X3.9Y-4.04
X3.9Y-4.79
X3.9Y-5.54
X4.1925Y-1.475
X4.2425Y-1.575
X4.35Y-2.3825
X4.35Y-3.1325
X4.35Y-3.8825
X4.35Y-4.6325
X4.35Y-5.3825
X4.4Y-2.4825
X4.4Y-3.2325
X4.4Y-3.9825
X4.4Y-4.7325
X4.4Y-5.4825
X4.4425Y-1.575
X4.4925Y-1.475
X4.6Y-2.4825
X4.6Y-3.2325
X4.6Y-3.9825
X4.6Y-4.7325
X4.6Y-5.4825
X4.65Y-2.3825
X4.65Y-3.1325
X4.65Y-3.8825
X4.65Y-4.6325
X4.65Y-5.3825
X4.9425Y-1.475
X4.9762Y-6.2513
X4.9925Y-1.575
X5.0118Y-6.3573
X5.1Y-2.5793
X5.1Y-3.3293
X5.1Y-4.0793
X5.1Y-4.8293
X5.15Y-2.6793
X5.15Y-3.4293
X5.15Y-4.1793
X5.15Y-4.9293
X5.1925Y-1.575
X5.2099Y-6.3851
X5.2425Y-1.475
X5.2733Y-6.2931
X5.35Y-2.6793
X5.35Y-3.4293
X5.35Y-4.1793
X5.35Y-4.9293
X5.4Y-2.5793
X5.4Y-3.3293
X5.4Y-4.0793
X5.4Y-4.8293
X5.85Y-1.475
X5.85Y-2.6778
X5.85Y-3.4278
X5.85Y-4.1778
X5.85Y-4.9278
X5.9Y-1.575
X5.9Y-2.7778
X5.9Y-3.5278
X5.9Y-4.2778
X5.9Y-5.0278
X5.9985Y-6.1627
X6.0403Y-5.8656
X6.1Y-1.575
X6.1Y-2.7778
X6.1Y-3.5278
X6.1Y-4.2778
X6.1Y-5.0278
X6.1045Y-6.1271
X6.1323Y-5.9291
X6.15Y-1.475
X6.15Y-2.6778
X6.15Y-3.4278
X6.15Y-4.1778
X6.15Y-4.9278
X6.6Y-1.475
X6.6Y-2.7762
X6.6Y-3.5262
X6.6Y-4.2762
X6.65Y-1.575
X6.65Y-2.8762
X6.65Y-3.6262
X6.65Y-4.3762
X6.7414Y-6.2659
X6.7831Y-5.9688
X6.8474Y-6.2303
X6.85Y-1.575
X6.85Y-2.8762
X6.85Y-3.6262
X6.85Y-4.3762
X6.8752Y-6.0322
X6.9Y-1.475
X6.9Y-2.7762
X6.9Y-3.5262
X6.9Y-4.2762
X7.1913Y-6.6573
X7.2269Y-6.7633
X7.2957Y-5.9146
X7.3313Y-6.0206
X7.4Y-5.1719
X7.4249Y-6.7911
X7.4356Y-5.2779
X7.4681Y-2.7762
X7.4681Y-3.5262
X7.4681Y-4.2762
X7.4884Y-6.6991
X7.5181Y-2.8762
X7.5181Y-3.6262
X7.5181Y-4.3762
X7.5293Y-6.0484
X7.5927Y-5.9564
X7.6337Y-5.3057
X7.6971Y-5.2137
X7.7181Y-2.8762
X7.7181Y-3.6262
X7.7181Y-4.3762
X7.7681Y-2.7762
X7.7681Y-3.5262
X7.7681Y-4.2762
T5
X1.2188Y-5.873
X1.875Y-5.123
X1.935Y-1.375
X1.975Y-4.373
X2.0688Y-3.623
X2.1562Y-5.873
X2.25Y-2.873
X2.8425Y-1.375
X3.0Y-2.6565
X3.0Y-3.4065
X3.0Y-4.1565
X3.0Y-4.9065
X3.0Y-5.6565
X3.5925Y-1.375
X3.75Y-2.44
X3.75Y-3.19
X3.75Y-3.94
X3.75Y-4.69
X3.75Y-5.44
X4.3425Y-1.375
X4.5Y-2.2825
X4.5Y-3.0325
X4.5Y-3.7825
X4.5Y-4.5325
X4.5Y-5.2825
X5.0925Y-1.375
X5.1387Y-6.1732
X5.25Y-2.4793
X5.25Y-3.2293
X5.25Y-3.9793
X5.25Y-4.7293
X5.9204Y-6.0003
X6.0Y-1.375
X6.0Y-2.5778
X6.0Y-3.3278
X6.0Y-4.0778
X6.0Y-4.8278
X6.6632Y-6.1034
X6.75Y-1.375
X6.75Y-2.6762
X6.75Y-3.4262
X6.75Y-4.1762
X7.3537Y-6.5792
X7.4581Y-5.8365
X7.5625Y-5.0938
X7.6181Y-2.6762
X7.6181Y-3.4262
X7.6181Y-4.1762
T1
G00X6.5608Y-4.9318
M15
G01X6.5608Y-4.8807
M16
G05
G00X7.0017Y-4.9318
M15
G01X7.0017Y-4.8807
M16
G05
T0
M30
