M48
; DRILL file {KiCad (6.0.5-0)} date Saturday, January 14, 2023 at 07:39:38 PM
; FORMAT={-:-/ absolute / inch / decimal}
; #@! TF.CreationDate,2023-01-14T19:39:38-08:00
; #@! TF.GenerationSoftware,Kicad,Pcbnew,(6.0.5-0)
; #@! TF.FileFunction,Plated,1,2,PTH
FMAT,2
INCH
; #@! TA.AperFunction,Plated,PTH,ComponentDrill
T1C0.0315
; #@! TA.AperFunction,Plated,PTH,ComponentDrill
T2C0.0320
; #@! TA.AperFunction,Plated,PTH,ComponentDrill
T3C0.0394
; #@! TA.AperFunction,Plated,PTH,ComponentDrill
T4C0.0433
%
G90
G05
T1
X1.7063Y-2.3438
X2.1062Y-2.3438
T2
X0.9756Y-5.5918
X1.2119Y-5.5918
X1.7643Y-4.873
X1.8169Y-1.0625
X1.8194Y-1.8438
X1.9131Y-4.0918
X2.0005Y-4.873
X2.0312Y-3.3418
X2.0531Y-1.0625
X2.0556Y-1.8438
X2.1006Y-5.623
X2.1319Y-2.5918
X2.1494Y-4.0918
X2.2675Y-3.3418
X2.2881Y-2.1562
X2.3369Y-5.623
X2.3375Y-1.9688
X2.3681Y-2.5918
X2.5244Y-2.1562
X2.5375Y-1.9688
X2.6619Y-1.125
X2.8268Y-3.8752
X2.8819Y-2.0
X2.8819Y-5.3752
X2.8893Y-3.1252
X2.8893Y-4.6252
X2.8981Y-1.125
X2.9205Y-2.3752
X3.063Y-3.8752
X3.1181Y-2.0
X3.1181Y-5.3752
X3.1255Y-3.1252
X3.1255Y-4.6252
X3.1567Y-2.3752
X3.5057Y-1.125
X3.5694Y-5.19
X3.6075Y-3.6587
X3.6245Y-2.94
X3.6319Y-1.875
X3.6319Y-2.19
X3.6393Y-4.4087
X3.7419Y-1.125
X3.8056Y-5.19
X3.8438Y-3.6587
X3.8607Y-2.94
X3.8681Y-1.875
X3.8681Y-2.19
X3.8755Y-4.4087
X4.2483Y-1.0938
X4.3433Y-4.2512
X4.3506Y-2.7512
X4.375Y-5.0012
X4.3893Y-2.0012
X4.4205Y-3.5012
X4.4845Y-1.0938
X4.5795Y-4.2512
X4.5869Y-2.7512
X4.6112Y-5.0012
X4.6255Y-2.0012
X4.6567Y-3.5012
X4.9744Y-1.0938
X5.0652Y-5.8473
X5.1006Y-4.4481
X5.125Y-2.9793
X5.1393Y-2.1981
X5.1705Y-3.6981
X5.2106Y-1.0938
X5.2991Y-5.8802
X5.3369Y-4.4481
X5.3612Y-2.9793
X5.3755Y-2.1981
X5.4067Y-3.6981
X5.5998Y-6.0355
X5.6327Y-5.8016
X5.875Y-4.5465
X5.8819Y-1.0938
X5.8819Y-3.7965
X5.8893Y-2.2965
X5.937Y-3.0465
X6.1112Y-4.5465
X6.1181Y-1.0938
X6.1181Y-3.7965
X6.1255Y-2.2965
X6.1732Y-3.0465
X6.346Y-6.115
X6.3789Y-5.8811
X6.6075Y-3.1449
X6.608Y-2.3949
X6.6319Y-1.0625
X6.6562Y-3.8949
X6.6759Y-4.7879
X6.6759Y-5.0241
X6.8438Y-3.1449
X6.8442Y-2.3949
X6.8681Y-1.0625
X6.8925Y-3.8949
X7.2716Y-6.3151
X7.4044Y-5.5449
X7.4537Y-4.7945
X7.4926Y-3.1449
X7.5Y-2.4262
X7.5055Y-6.348
X7.5244Y-3.8949
X7.6383Y-5.5778
X7.6877Y-4.8273
X7.7288Y-3.1449
X7.7362Y-2.4262
X7.7606Y-3.8949
T3
X6.3687Y-1.1062
X6.3687Y-1.2063
X6.3687Y-1.3062
X6.3687Y-1.4062
X6.3687Y-1.5062
X6.3687Y-1.6062
X6.3687Y-1.7063
X6.3687Y-1.8062
X6.3687Y-1.9062
X6.3687Y-2.0063
X6.3687Y-2.1062
X6.3687Y-2.2062
X6.3687Y-2.3062
X6.3687Y-2.4062
X6.3687Y-2.5063
X6.3687Y-2.6062
X6.3687Y-2.7062
X6.3687Y-2.8062
X6.3687Y-2.9062
X6.3687Y-3.0063
X6.5187Y-2.8562
X6.6187Y-2.8562
X6.6828Y-4.6307
X6.6828Y-5.2015
X6.7187Y-2.8562
X6.7812Y-5.2015
X6.8187Y-2.8562
X6.8797Y-4.6307
X6.8797Y-5.2015
X6.9688Y-1.1062
X6.9688Y-1.2063
X6.9688Y-1.3062
X6.9688Y-1.4062
X6.9688Y-1.5062
X6.9688Y-1.6062
X6.9688Y-1.7063
X6.9688Y-1.8062
X6.9688Y-1.9062
X6.9688Y-2.0063
X6.9688Y-2.1062
X6.9688Y-2.2062
X6.9688Y-2.3062
X6.9688Y-2.4062
X6.9688Y-2.5063
X6.9688Y-2.6062
X6.9688Y-2.7062
X6.9688Y-2.8062
X6.9688Y-2.9062
X6.9688Y-3.0063
T4
X1.8062Y-2.0565
X1.9062Y-2.0565
X2.0063Y-2.0565
T0
M30
