%TF.GenerationSoftware,KiCad,Pcbnew,(6.0.5-0)*%
%TF.CreationDate,2023-01-14T19:39:34-08:00*%
%TF.ProjectId,ergodonk_pcb,6572676f-646f-46e6-9b5f-7063622e6b69,rev?*%
%TF.SameCoordinates,Original*%
%TF.FileFunction,Paste,Top*%
%TF.FilePolarity,Positive*%
%FSLAX46Y46*%
G04 Gerber Fmt 4.6, Leading zero omitted, Abs format (unit mm)*
G04 Created by KiCad (PCBNEW (6.0.5-0)) date 2023-01-14 19:39:34*
%MOMM*%
%LPD*%
G01*
G04 APERTURE LIST*
G04 Aperture macros list*
%AMRotRect*
0 Rectangle, with rotation*
0 The origin of the aperture is its center*
0 $1 length*
0 $2 width*
0 $3 Rotation angle, in degrees counterclockwise*
0 Add horizontal line*
21,1,$1,$2,0,0,$3*%
G04 Aperture macros list end*
%ADD10R,2.300000X2.000000*%
%ADD11R,1.400000X1.300000*%
%ADD12RotRect,2.300000X2.000000X82.000000*%
%ADD13RotRect,1.400000X1.300000X352.000000*%
%ADD14RotRect,2.300000X2.000000X352.000000*%
%ADD15RotRect,1.400000X1.300000X82.000000*%
%ADD16R,1.300000X1.400000*%
G04 APERTURE END LIST*
D10*
%TO.C,SWLH14*%
X107300000Y-60555000D03*
X120000000Y-63095000D03*
%TD*%
D11*
%TO.C,D50*%
X29556250Y-142031250D03*
X26006250Y-142031250D03*
%TD*%
D10*
%TO.C,SWLH33*%
X88250000Y-102655000D03*
X100950000Y-105195000D03*
%TD*%
D12*
%TO.C,SWLH57*%
X170826702Y-162317855D03*
X175109481Y-150094950D03*
%TD*%
D11*
%TO.C,D11*%
X58925000Y-65831250D03*
X55375000Y-65831250D03*
%TD*%
%TO.C,D53*%
X95437500Y-131825000D03*
X91887500Y-131825000D03*
%TD*%
D10*
%TO.C,SWLH35*%
X126350000Y-103655000D03*
X139050000Y-106195000D03*
%TD*%
D11*
%TO.C,D42*%
X78162500Y-117481250D03*
X74612500Y-117481250D03*
%TD*%
D13*
%TO.C,D58*%
X192800924Y-141504774D03*
X189285472Y-141010710D03*
%TD*%
D11*
%TO.C,D13*%
X97025000Y-55625000D03*
X93475000Y-55625000D03*
%TD*%
%TO.C,D54*%
X115900000Y-127031250D03*
X112350000Y-127031250D03*
%TD*%
D10*
%TO.C,SWLH12*%
X69200000Y-70055000D03*
X81900000Y-72595000D03*
%TD*%
%TO.C,SWLH43*%
X88250000Y-121705000D03*
X100950000Y-124245000D03*
%TD*%
%TO.C,SWLH2*%
X65200000Y-37505000D03*
X77900000Y-40045000D03*
%TD*%
D11*
%TO.C,D52*%
X77975000Y-136531250D03*
X74425000Y-136531250D03*
%TD*%
%TO.C,D3*%
X93818750Y-28575000D03*
X90268750Y-28575000D03*
%TD*%
%TO.C,D15*%
X135312500Y-55831250D03*
X131762500Y-55831250D03*
%TD*%
%TO.C,D36*%
X154175000Y-96431250D03*
X150625000Y-96431250D03*
%TD*%
%TO.C,D22*%
X78162500Y-79381250D03*
X74612500Y-79381250D03*
%TD*%
D10*
%TO.C,SWLH53*%
X88250000Y-140755000D03*
X100950000Y-143295000D03*
%TD*%
%TO.C,SWLH3*%
X84250000Y-37505000D03*
X96950000Y-40045000D03*
%TD*%
D11*
%TO.C,D_sol_1*%
X59343750Y-54768750D03*
X62893750Y-54768750D03*
%TD*%
D10*
%TO.C,SWLH45*%
X126350000Y-122705000D03*
X139050000Y-125245000D03*
%TD*%
D11*
%TO.C,D1*%
X50925000Y-26987500D03*
X47375000Y-26987500D03*
%TD*%
%TO.C,D6*%
X154175000Y-27781250D03*
X150625000Y-27781250D03*
%TD*%
D14*
%TO.C,SWLH68*%
X179494062Y-168691143D03*
X191716967Y-172973922D03*
%TD*%
D10*
%TO.C,SWLH27*%
X164450000Y-89605000D03*
X177150000Y-92145000D03*
%TD*%
%TO.C,SWLH4*%
X103300000Y-37505000D03*
X116000000Y-40045000D03*
%TD*%
D14*
%TO.C,SWLH65*%
X123231648Y-158379324D03*
X135454553Y-162662103D03*
%TD*%
D10*
%TO.C,SWLH22*%
X69200000Y-89105000D03*
X81900000Y-91645000D03*
%TD*%
D11*
%TO.C,D18*%
X195275000Y-61625000D03*
X191725000Y-61625000D03*
%TD*%
%TO.C,D27*%
X172606250Y-79881250D03*
X169056250Y-79881250D03*
%TD*%
D10*
%TO.C,SWLH16*%
X145400000Y-68055000D03*
X158100000Y-70595000D03*
%TD*%
D11*
%TO.C,D31*%
X53368750Y-103931250D03*
X49818750Y-103931250D03*
%TD*%
D14*
%TO.C,SWLH58*%
X182145309Y-149826536D03*
X194368214Y-154109315D03*
%TD*%
D10*
%TO.C,SWLH44*%
X107300000Y-117705000D03*
X120000000Y-120245000D03*
%TD*%
D11*
%TO.C,D46*%
X154000000Y-115481250D03*
X150450000Y-115481250D03*
%TD*%
%TO.C,D35*%
X136106250Y-93931250D03*
X132556250Y-93931250D03*
%TD*%
%TO.C,D17*%
X172618750Y-60831250D03*
X169068750Y-60831250D03*
%TD*%
%TO.C,D21*%
X56368750Y-84881250D03*
X52818750Y-84881250D03*
%TD*%
%TO.C,D16*%
X154362500Y-58331250D03*
X150812500Y-58331250D03*
%TD*%
D10*
%TO.C,SWLH52*%
X69200000Y-146255000D03*
X81900000Y-148795000D03*
%TD*%
D11*
%TO.C,D23*%
X96837500Y-74675000D03*
X93287500Y-74675000D03*
%TD*%
%TO.C,D34*%
X117056250Y-88931250D03*
X113506250Y-88931250D03*
%TD*%
D12*
%TO.C,SWLH56*%
X151957746Y-159697553D03*
X156240525Y-147474648D03*
%TD*%
D11*
%TO.C,H1*%
X77975000Y-50800000D03*
X74425000Y-50800000D03*
%TD*%
%TO.C,D4*%
X112681250Y-27781250D03*
X109131250Y-27781250D03*
%TD*%
D13*
%TO.C,D68*%
X189426480Y-161069293D03*
X185911028Y-160575229D03*
%TD*%
D10*
%TO.C,SWLH28*%
X186500000Y-89605000D03*
X199200000Y-92145000D03*
%TD*%
%TO.C,SWLH26*%
X145400000Y-87105000D03*
X158100000Y-89645000D03*
%TD*%
%TO.C,SWLH24*%
X107300000Y-79605000D03*
X120000000Y-82145000D03*
%TD*%
%TO.C,SWLH7*%
X164450000Y-37505000D03*
X177150000Y-40045000D03*
%TD*%
D15*
%TO.C,D57*%
X161853738Y-150592449D03*
X161359674Y-154107901D03*
%TD*%
D11*
%TO.C,D7*%
X173225000Y-26987500D03*
X169675000Y-26987500D03*
%TD*%
D10*
%TO.C,SWLH38*%
X186500000Y-108655000D03*
X199200000Y-111195000D03*
%TD*%
%TO.C,SWLH6*%
X145400000Y-37505000D03*
X158100000Y-40045000D03*
%TD*%
D11*
%TO.C,D41*%
X49587500Y-123775000D03*
X46037500Y-123775000D03*
%TD*%
D10*
%TO.C,SWLH46*%
X145400000Y-125205000D03*
X158100000Y-127745000D03*
%TD*%
D11*
%TO.C,D2*%
X72387500Y-28575000D03*
X68837500Y-28575000D03*
%TD*%
%TO.C,D24*%
X115281250Y-69881250D03*
X111731250Y-69881250D03*
%TD*%
%TO.C,D5*%
X131125000Y-27781250D03*
X127575000Y-27781250D03*
%TD*%
D10*
%TO.C,SWLH34*%
X107300000Y-98655000D03*
X120000000Y-101195000D03*
%TD*%
D11*
%TO.C,D12*%
X78956250Y-60331250D03*
X75406250Y-60331250D03*
%TD*%
%TO.C,D33*%
X96406250Y-92931250D03*
X92856250Y-92931250D03*
%TD*%
%TO.C,D45*%
X134331250Y-112981250D03*
X130781250Y-112981250D03*
%TD*%
D10*
%TO.C,SWLH37*%
X164450000Y-108655000D03*
X177150000Y-111195000D03*
%TD*%
D11*
%TO.C,D43*%
X97212500Y-111981250D03*
X93662500Y-111981250D03*
%TD*%
D10*
%TO.C,SWLH5*%
X122350000Y-37505000D03*
X135050000Y-40045000D03*
%TD*%
D11*
%TO.C,D26*%
X155575000Y-77381250D03*
X152025000Y-77381250D03*
%TD*%
D10*
%TO.C,SWLH42*%
X69200000Y-127205000D03*
X81900000Y-129745000D03*
%TD*%
D14*
%TO.C,SWLH48*%
X184796557Y-130961930D03*
X197019462Y-135244709D03*
%TD*%
D10*
%TO.C,SWLH32*%
X69200000Y-108155000D03*
X81900000Y-110695000D03*
%TD*%
D11*
%TO.C,D38*%
X195893750Y-98931250D03*
X192343750Y-98931250D03*
%TD*%
D10*
%TO.C,SWLH23*%
X88250000Y-83605000D03*
X100950000Y-86145000D03*
%TD*%
D11*
%TO.C,J_SOL_1*%
X50987500Y-46831250D03*
X47437500Y-46831250D03*
%TD*%
%TO.C,D14*%
X116262500Y-50831250D03*
X112712500Y-50831250D03*
%TD*%
D10*
%TO.C,SWLH36*%
X145400000Y-106155000D03*
X158100000Y-108695000D03*
%TD*%
D11*
%TO.C,D37*%
X173843750Y-98931250D03*
X170293750Y-98931250D03*
%TD*%
%TO.C,J1*%
X97025000Y-47625000D03*
X93475000Y-47625000D03*
%TD*%
D10*
%TO.C,SWLH17*%
X164450000Y-70555000D03*
X177150000Y-73095000D03*
%TD*%
%TO.C,SWLH54*%
X107300000Y-136755000D03*
X120000000Y-139295000D03*
%TD*%
D11*
%TO.C,D44*%
X115093750Y-107981250D03*
X111543750Y-107981250D03*
%TD*%
D15*
%TO.C,D56*%
X142900409Y-148572497D03*
X142406345Y-152087949D03*
%TD*%
D10*
%TO.C,SWLH18*%
X186500000Y-70555000D03*
X199200000Y-73095000D03*
%TD*%
D11*
%TO.C,D32*%
X76575000Y-98431250D03*
X73025000Y-98431250D03*
%TD*%
D16*
%TO.C,D47*%
X169568750Y-126387500D03*
X169568750Y-122837500D03*
%TD*%
D11*
%TO.C,D25*%
X134950000Y-75675000D03*
X131400000Y-75675000D03*
%TD*%
D10*
%TO.C,SWLH25*%
X126350000Y-84605000D03*
X139050000Y-87145000D03*
%TD*%
%TO.C,SWLH13*%
X88250000Y-64555000D03*
X100950000Y-67095000D03*
%TD*%
D13*
%TO.C,D48*%
X194053418Y-122443585D03*
X190537966Y-121949521D03*
%TD*%
D11*
%TO.C,D28*%
X195087500Y-79881250D03*
X191537500Y-79881250D03*
%TD*%
%TO.C,D51*%
X58131250Y-142825000D03*
X54581250Y-142825000D03*
%TD*%
D13*
%TO.C,D65*%
X133385003Y-149185424D03*
X129869551Y-148691360D03*
%TD*%
D10*
%TO.C,SWLH15*%
X126350000Y-65555000D03*
X139050000Y-68095000D03*
%TD*%
M02*
