M48
; DRILL file {KiCad 7.0.5-0} date 2023 July 26, Wednesday 18:11:15
; FORMAT={-:-/ absolute / metric / decimal}
; #@! TF.CreationDate,2023-07-26T18:11:15-07:00
; #@! TF.GenerationSoftware,Kicad,Pcbnew,7.0.5-0
; #@! TF.FileFunction,Plated,1,2,PTH
FMAT,2
METRIC
; #@! TA.AperFunction,Plated,PTH,ViaDrill
T1C0.300
; #@! TA.AperFunction,Plated,PTH,ComponentDrill
T2C0.300
; #@! TA.AperFunction,Plated,PTH,ComponentDrill
T3C0.400
; #@! TA.AperFunction,Plated,PTH,ComponentDrill
T4C0.762
; #@! TA.AperFunction,Plated,PTH,ComponentDrill
T5C0.800
; #@! TA.AperFunction,Plated,PTH,ComponentDrill
T6C1.000
; #@! TA.AperFunction,Plated,PTH,ComponentDrill
T7C1.100
; #@! TA.AperFunction,Plated,PTH,ComponentDrill
T8C2.200
; #@! TA.AperFunction,Plated,PTH,ComponentDrill
T9C3.048
; #@! TA.AperFunction,Plated,PTH,ComponentDrill
T10C4.100
%
G90
G05
T1
X61.83Y-77.82
X64.49Y-75.94
X66.73Y-93.3
X72.77Y-126.57
X77.6Y-94.08
X80.63Y-114.04
X82.05Y-111.39
X85.54Y-77.88
X87.05Y-65.14
X90.36Y-93.46
X90.43Y-96.4
X106.72Y-44.935
X129.635Y-42.585
X149.55Y-48.34
X149.56Y-76.18
X160.71Y-107.8
X161.251Y-107.21
X169.21Y-84.37
X172.243Y-115.497
X173.2Y-115.57
X173.68Y-69.55
X187.54Y-131.38
X207.865Y-60.067
X207.895Y-130.38
X208.51Y-80.899
X209.015Y-82.05
X229.29Y-45.41
X233.06Y-138.27
T2
X71.176Y-150.888
X80.945Y-130.558
X83.876Y-150.878
X91.781Y-114.07
X93.37Y-37.638
X94.196Y-94.998
X94.989Y-150.888
X97.37Y-74.688
X97.921Y-130.474
X106.07Y-37.628
X107.689Y-150.878
X108.509Y-114.082
X108.518Y-95.019
X110.07Y-74.678
X116.42Y-37.638
X116.42Y-69.188
X116.42Y-88.238
X116.42Y-107.288
X116.42Y-126.338
X116.42Y-145.388
X129.12Y-37.628
X129.12Y-69.178
X129.12Y-88.228
X129.12Y-107.278
X129.12Y-126.328
X129.12Y-145.378
X135.47Y-37.638
X135.47Y-63.688
X135.47Y-82.738
X135.47Y-101.788
X135.47Y-120.838
X135.47Y-132.258
X148.17Y-37.628
X148.17Y-63.678
X148.17Y-82.728
X148.17Y-101.778
X148.17Y-120.828
X148.17Y-132.248
X154.52Y-97.788
X154.52Y-116.838
X154.52Y-128.258
X164.68Y-27.468
X164.68Y-49.518
X164.68Y-68.568
X164.69Y-40.168
X164.69Y-62.218
X164.69Y-81.268
X167.22Y-97.778
X167.22Y-116.828
X167.22Y-128.248
X173.57Y-37.638
X173.57Y-64.688
X173.57Y-83.738
X173.57Y-102.788
X173.57Y-121.838
X180.161Y-161.68
X181.939Y-149.105
X186.27Y-37.628
X186.27Y-64.678
X186.27Y-83.728
X186.27Y-102.778
X186.27Y-121.828
X190.312Y-153.339
X192.62Y-67.188
X192.62Y-86.238
X192.62Y-105.288
X192.62Y-124.338
X196.62Y-37.638
X202.89Y-155.096
X205.32Y-67.178
X205.32Y-86.228
X205.32Y-105.278
X205.32Y-124.328
X209.176Y-155.989
X209.32Y-37.628
X211.67Y-69.688
X211.67Y-88.738
X211.67Y-107.788
X215.67Y-37.638
X221.754Y-157.746
X224.37Y-69.678
X224.37Y-88.728
X224.37Y-107.778
X226.715Y-168.072
X228.37Y-37.628
X229.366Y-149.208
X232.017Y-130.343
X233.72Y-69.688
X233.72Y-88.738
X233.72Y-107.788
X239.293Y-169.83
X241.944Y-150.965
X244.595Y-132.101
X246.42Y-69.678
X246.42Y-88.728
X246.42Y-107.778
T3
X41.63Y-83.809
X41.63Y-85.93
X43.751Y-83.809
X43.751Y-85.93
X56.219Y-121.359
X56.219Y-123.48
X58.34Y-121.359
X58.34Y-123.48
X67.14Y-134.279
X67.14Y-136.4
X67.77Y-49.209
X67.77Y-51.33
X69.261Y-134.279
X69.261Y-136.4
X69.891Y-49.209
X69.891Y-51.33
X76.759Y-102.43
X76.759Y-104.551
X78.88Y-102.43
X78.88Y-104.551
X84.759Y-54.439
X84.759Y-56.561
X86.881Y-54.439
X86.881Y-56.561
X110.159Y-25.299
X110.159Y-27.42
X112.28Y-25.299
X112.28Y-27.42
X121.769Y-48.489
X121.769Y-50.611
X123.891Y-48.489
X123.891Y-50.611
X126.66Y-161.62
X127.1Y-162.68
X127.1Y-160.56
X128.16Y-160.12
X128.16Y-163.12
X129.22Y-160.56
X129.22Y-162.68
X129.66Y-161.62
X130.78Y-138.48
X131.22Y-137.42
X131.22Y-139.54
X132.28Y-136.98
X132.28Y-139.98
X133.279Y-153.429
X133.279Y-155.55
X133.34Y-139.54
X133.34Y-137.42
X133.78Y-138.48
X135.4Y-153.429
X135.4Y-155.55
X177.569Y-46.139
X177.569Y-48.261
X178.279Y-134.409
X178.279Y-136.531
X179.691Y-46.139
X179.691Y-48.261
X180.401Y-134.409
X180.401Y-136.531
X183.69Y-142.76
X184.13Y-141.7
X184.13Y-143.82
X185.19Y-141.26
X185.19Y-144.26
X186.25Y-141.7
X186.25Y-143.82
X186.69Y-142.76
X190.479Y-25.299
X190.479Y-27.42
X192.601Y-25.299
X192.601Y-27.42
X224.749Y-131.499
X224.749Y-133.62
X226.87Y-131.499
X226.87Y-133.62
X240.209Y-51.15
X240.209Y-53.271
X242.33Y-51.15
X242.33Y-53.271
X246.009Y-115.089
X246.009Y-117.21
X248.13Y-115.089
X248.13Y-117.21
T4
X108.55Y-47.07
X118.71Y-47.07
T5
X52.095Y-79.443
X55.68Y-104.12
X55.84Y-106.94
X60.095Y-79.443
X63.68Y-104.12
X63.84Y-106.94
X73.526Y-155.643
X73.98Y-98.54
X80.67Y-81.23
X81.526Y-155.643
X81.98Y-98.54
X85.53Y-136.593
X88.35Y-117.543
X88.67Y-81.23
X91.11Y-46.83
X93.53Y-136.593
X95.72Y-42.393
X96.35Y-117.543
X97.339Y-155.643
X97.38Y-98.493
X99.72Y-79.443
X103.72Y-42.393
X103.81Y-46.83
X105.339Y-155.643
X105.38Y-98.493
X107.72Y-79.443
X118.77Y-73.943
X118.77Y-92.993
X118.77Y-112.043
X118.77Y-131.093
X118.77Y-150.143
X119.02Y-42.393
X126.77Y-73.943
X126.77Y-92.993
X126.77Y-112.043
X126.77Y-131.093
X126.77Y-150.143
X127.02Y-42.393
X132.97Y-127.85
X137.82Y-68.443
X137.82Y-87.493
X137.82Y-106.543
X137.82Y-125.593
X138.07Y-42.393
X140.97Y-127.85
X145.82Y-68.443
X145.82Y-87.493
X145.82Y-106.543
X145.82Y-125.593
X146.07Y-42.393
X149.67Y-24.84
X149.67Y-32.84
X151.98Y-24.818
X151.98Y-27.358
X151.98Y-29.898
X151.98Y-32.438
X151.98Y-34.978
X151.98Y-37.518
X151.98Y-40.058
X151.98Y-42.598
X151.98Y-45.138
X151.98Y-47.678
X151.98Y-50.218
X151.98Y-52.758
X151.98Y-55.298
X151.98Y-57.838
X151.98Y-60.378
X151.98Y-62.918
X151.98Y-65.458
X151.98Y-67.998
X151.98Y-70.538
X151.98Y-73.078
X152.49Y-123.83
X156.87Y-102.543
X156.87Y-121.593
X158.95Y-43.33
X159.03Y-84.37
X159.1Y-65.33
X160.49Y-123.83
X164.87Y-102.543
X164.87Y-121.593
X166.95Y-43.33
X167.03Y-84.37
X167.1Y-65.33
X169.76Y-24.818
X169.76Y-27.358
X169.76Y-29.898
X169.76Y-32.438
X169.76Y-34.978
X169.76Y-37.518
X169.76Y-40.058
X169.76Y-42.598
X169.76Y-45.138
X169.76Y-47.678
X169.76Y-50.218
X169.76Y-52.758
X169.76Y-55.298
X169.76Y-57.838
X169.76Y-60.378
X169.76Y-62.918
X169.76Y-65.458
X169.76Y-67.998
X169.76Y-70.538
X169.76Y-73.078
X175.92Y-69.443
X175.92Y-88.493
X175.92Y-107.543
X175.92Y-126.593
X176.17Y-42.393
X183.92Y-69.443
X183.92Y-88.493
X183.92Y-107.543
X183.92Y-126.593
X184.17Y-42.393
X191.4Y-160.673
X191.779Y-158.343
X194.97Y-71.943
X194.97Y-90.993
X194.97Y-110.043
X194.97Y-129.093
X198.97Y-42.393
X199.323Y-161.787
X199.701Y-159.457
X202.97Y-71.943
X202.97Y-90.993
X202.97Y-110.043
X202.97Y-129.093
X206.97Y-42.393
X210.779Y-160.993
X214.02Y-74.443
X214.02Y-93.493
X214.02Y-112.543
X214.05Y-133.49
X218.27Y-42.393
X218.701Y-162.107
X222.02Y-74.443
X222.02Y-93.493
X222.02Y-112.543
X222.05Y-133.49
X226.27Y-42.393
X228.422Y-173.113
X230.919Y-154.213
X233.579Y-135.383
X236.07Y-74.443
X236.07Y-93.493
X236.07Y-112.543
X236.344Y-174.227
X238.841Y-155.327
X241.501Y-136.497
X244.07Y-74.443
X244.07Y-93.493
X244.07Y-112.543
T6
X113.785Y-52.64
X116.325Y-52.64
X129.49Y-48.37
X132.03Y-48.37
X134.57Y-48.37
X137.11Y-48.37
X139.65Y-48.37
X142.19Y-48.37
X144.73Y-48.37
X147.27Y-48.37
X174.22Y-131.39
X176.76Y-131.39
X179.3Y-131.39
X181.84Y-131.39
X184.38Y-131.39
X215.52Y-115.518
X215.52Y-130.018
X218.02Y-115.518
X220.52Y-115.518
X220.52Y-130.018
T7
X109.77Y-52.36
X109.77Y-54.9
X109.77Y-57.44
T8
X42.691Y-84.869
X57.279Y-122.419
X68.201Y-135.339
X68.831Y-50.269
X77.819Y-103.491
X85.82Y-55.5
X111.219Y-26.359
X122.83Y-49.55
X128.16Y-161.62
X132.28Y-138.48
X134.339Y-154.489
X151.345Y-98.71
X170.395Y-79.66
X170.395Y-117.76
X178.63Y-47.2
X179.34Y-135.47
X185.19Y-142.76
X189.445Y-98.71
X191.54Y-26.359
X225.809Y-132.559
X241.269Y-52.211
X247.069Y-116.149
T9
X202.377Y-163.187
X205.691Y-139.606
X207.407Y-163.893
X210.721Y-140.312
T10
X40.68Y-70.42
X89.49Y-140.6
X113.31Y-80.33
X113.31Y-118.49
X132.32Y-32.61
X187.91Y-147.14
X189.43Y-72.82
X189.43Y-115.44
X212.51Y-32.61
X225.92Y-153.46
T6
X232.842Y-46.049G85X232.407Y-46.294
G05
X233.29Y-43.788G85X232.855Y-44.033
G05
X234.045Y-48.183G85X233.61Y-48.429
G05
X236.211Y-48.971G85X235.775Y-49.217
G05
X236.775Y-41.824G85X236.339Y-42.07
G05
X239.389Y-40.351G85X238.953Y-40.597
G05
X239.696Y-47.008G85X239.26Y-47.253
G05
X242.31Y-45.535G85X241.874Y-45.781
G05
T0
M30
