M48
; DRILL file {KiCad (6.0.5-0)} date Friday, February 03, 2023 at 01:19:07 PM
; FORMAT={-:-/ absolute / inch / decimal}
; #@! TF.CreationDate,2023-02-03T13:19:07-08:00
; #@! TF.GenerationSoftware,Kicad,Pcbnew,(6.0.5-0)
; #@! TF.FileFunction,NonPlated,1,2,NPTH
FMAT,2
INCH
; #@! TA.AperFunction,NonPlated,NPTH,ComponentDrill
T1C0.0472
; #@! TA.AperFunction,NonPlated,NPTH,ComponentDrill
T2C0.0591
; #@! TA.AperFunction,NonPlated,NPTH,ComponentDrill
T3C0.0669
; #@! TA.AperFunction,NonPlated,NPTH,ComponentDrill
T4C0.0748
; #@! TA.AperFunction,NonPlated,NPTH,ComponentDrill
T5C0.0866
; #@! TA.AperFunction,NonPlated,NPTH,ComponentDrill
T6C0.1181
; #@! TA.AperFunction,NonPlated,NPTH,ComponentDrill
T7C0.1200
; #@! TA.AperFunction,NonPlated,NPTH,ComponentDrill
T8C0.1570
; #@! TA.AperFunction,NonPlated,NPTH,ComponentDrill
T9C0.1614
%
G90
G05
T1
X7.2636Y-1.8139
X7.3019Y-1.8712
X7.4926Y-1.6606
X7.5309Y-1.7179
T3
X0.1978Y-2.873
X0.3853Y-3.623
X0.5522Y-2.873
X0.7397Y-3.623
X0.8541Y-4.373
X1.0416Y-5.873
X1.2084Y-4.373
X1.3228Y-2.873
X1.3228Y-3.623
X1.3959Y-5.873
X1.4166Y-5.123
X1.6041Y-5.123
X1.6772Y-2.873
X1.6772Y-3.623
X1.7579Y-1.375
X1.7709Y-5.123
X1.7916Y-4.373
X1.8853Y-3.623
X1.9584Y-5.123
X1.9791Y-5.873
X2.0728Y-2.873
X2.0728Y-3.623
X2.0728Y-4.373
X2.1122Y-1.375
X2.1459Y-4.373
X2.2397Y-3.623
X2.3334Y-5.873
X2.4272Y-2.873
X2.4272Y-3.623
X2.4272Y-4.373
X2.6654Y-1.375
X2.8228Y-2.6565
X2.8228Y-3.4065
X2.8228Y-4.1565
X2.8228Y-4.9065
X2.8228Y-5.6565
X3.0197Y-1.375
X3.1772Y-2.6565
X3.1772Y-3.4065
X3.1772Y-4.1565
X3.1772Y-4.9065
X3.1772Y-5.6565
X3.5728Y-3.19
X3.5728Y-3.94
X3.5728Y-4.69
X3.5728Y-5.44
X3.5925Y-1.1978
X3.5925Y-1.5522
X3.75Y-2.2628
X3.75Y-2.6171
X3.9272Y-3.19
X3.9272Y-3.94
X3.9272Y-4.69
X3.9272Y-5.44
X4.1654Y-1.375
X4.3228Y-2.2825
X4.3228Y-3.0325
X4.3228Y-3.7825
X4.3228Y-4.5325
X4.3228Y-5.2825
X4.5197Y-1.375
X4.6772Y-2.2825
X4.6772Y-3.0325
X4.6772Y-3.7825
X4.6772Y-4.5325
X4.6772Y-5.2825
X4.9154Y-1.375
X4.9703Y-6.1552
X5.0728Y-2.4793
X5.0728Y-3.2293
X5.0728Y-3.9793
X5.0728Y-4.7293
X5.2697Y-1.375
X5.3212Y-6.2045
X5.4272Y-2.4793
X5.4272Y-3.2293
X5.4272Y-3.9793
X5.4272Y-4.7293
X5.7522Y-5.9811
X5.8228Y-1.375
X5.8228Y-2.5778
X5.8228Y-3.3278
X5.8228Y-4.0778
X5.8228Y-4.8278
X6.1031Y-6.0304
X6.1772Y-1.375
X6.1772Y-2.5778
X6.1772Y-3.3278
X6.1772Y-4.0778
X6.1772Y-4.8278
X6.4949Y-6.0855
X6.5717Y-4.9262
X6.5728Y-1.375
X6.5728Y-2.6762
X6.5728Y-3.4262
X6.5728Y-4.1762
X6.8457Y-6.1348
X6.9261Y-4.9262
X6.9272Y-1.375
X6.9272Y-2.6762
X6.9272Y-3.4262
X6.9272Y-4.1762
X7.1854Y-6.5612
X7.2897Y-5.8185
X7.3941Y-5.0758
X7.4409Y-2.6762
X7.4409Y-3.4262
X7.4409Y-4.1762
X7.5363Y-6.6105
X7.6406Y-5.8678
X7.745Y-5.1251
X7.7953Y-2.6762
X7.7953Y-3.4262
X7.7953Y-4.1762
T4
X0.175Y-2.873
X0.3625Y-3.623
X0.575Y-2.873
X0.7625Y-3.623
X0.8312Y-4.373
X1.0188Y-5.873
X1.2312Y-4.373
X1.3Y-2.873
X1.3Y-3.623
X1.3938Y-5.123
X1.4187Y-5.873
X1.5813Y-5.123
X1.7Y-2.873
X1.7Y-3.623
X1.735Y-1.375
X1.7688Y-4.373
X1.7937Y-5.123
X1.8625Y-3.623
X1.9563Y-5.873
X1.9812Y-5.123
X2.05Y-2.873
X2.05Y-3.623
X2.05Y-4.373
X2.135Y-1.375
X2.1687Y-4.373
X2.2625Y-3.623
X2.3562Y-5.873
X2.45Y-2.873
X2.45Y-3.623
X2.45Y-4.373
X2.6425Y-1.375
X2.8Y-2.6565
X2.8Y-3.4065
X2.8Y-4.1565
X2.8Y-4.9065
X2.8Y-5.6565
X3.0425Y-1.375
X3.2Y-2.6565
X3.2Y-3.4065
X3.2Y-4.1565
X3.2Y-4.9065
X3.2Y-5.6565
X3.55Y-3.19
X3.55Y-3.94
X3.55Y-4.69
X3.55Y-5.44
X3.5925Y-1.175
X3.5925Y-1.575
X3.75Y-2.24
X3.75Y-2.64
X3.95Y-3.19
X3.95Y-3.94
X3.95Y-4.69
X3.95Y-5.44
X4.1425Y-1.375
X4.3Y-2.2825
X4.3Y-3.0325
X4.3Y-3.7825
X4.3Y-4.5325
X4.3Y-5.2825
X4.5425Y-1.375
X4.7Y-2.2825
X4.7Y-3.0325
X4.7Y-3.7825
X4.7Y-4.5325
X4.7Y-5.2825
X4.8925Y-1.375
X4.9477Y-6.152
X5.05Y-2.4793
X5.05Y-3.2293
X5.05Y-3.9793
X5.05Y-4.7293
X5.2925Y-1.375
X5.3438Y-6.2077
X5.45Y-2.4793
X5.45Y-3.2293
X5.45Y-3.9793
X5.45Y-4.7293
X5.7296Y-5.9779
X5.8Y-1.375
X5.8Y-2.5778
X5.8Y-3.3278
X5.8Y-4.0778
X5.8Y-4.8278
X6.1257Y-6.0336
X6.2Y-1.375
X6.2Y-2.5778
X6.2Y-3.3278
X6.2Y-4.0778
X6.2Y-4.8278
X6.4722Y-6.0823
X6.5489Y-4.9262
X6.55Y-1.375
X6.55Y-2.6762
X6.55Y-3.4262
X6.55Y-4.1762
X6.8684Y-6.1379
X6.9489Y-4.9262
X6.95Y-1.375
X6.95Y-2.6762
X6.95Y-3.4262
X6.95Y-4.1762
X7.1628Y-6.558
X7.2671Y-5.8153
X7.3715Y-5.0726
X7.4181Y-2.6762
X7.4181Y-3.4262
X7.4181Y-4.1762
X7.5589Y-6.6137
X7.6632Y-5.871
X7.7676Y-5.1283
X7.8181Y-2.6762
X7.8181Y-3.4262
X7.8181Y-4.1762
T5
X5.4613Y-1.8469
X5.4613Y-2.0821
X5.6188Y-1.9059
X5.6975Y-2.0241
X5.855Y-1.8469
X5.855Y-2.0831
T6
X0.225Y-2.973
X0.4125Y-3.723
X0.475Y-3.073
X0.6625Y-3.823
X0.8812Y-4.473
X1.0687Y-5.973
X1.1187Y-6.073
X1.1312Y-4.573
X1.3187Y-6.073
X1.35Y-2.973
X1.35Y-3.723
X1.3687Y-5.973
X1.4437Y-5.223
X1.6Y-3.073
X1.6Y-3.823
X1.6812Y-5.323
X1.6937Y-5.323
X1.785Y-1.475
X1.835Y-1.575
X1.8687Y-4.573
X1.9312Y-5.223
X1.9625Y-3.823
X2.0063Y-5.973
X2.035Y-1.575
X2.0562Y-6.073
X2.085Y-1.475
X2.1Y-2.973
X2.1Y-3.723
X2.1Y-4.473
X2.1187Y-4.473
X2.15Y-3.073
X2.2125Y-3.723
X2.2563Y-6.073
X2.3062Y-5.973
X2.35Y-3.073
X2.35Y-3.823
X2.35Y-4.573
X2.4Y-2.973
X2.6925Y-1.475
X2.7425Y-1.575
X2.85Y-2.7565
X2.85Y-3.5065
X2.85Y-4.2565
X2.85Y-5.0065
X2.85Y-5.7565
X2.9Y-2.8565
X2.9Y-3.6065
X2.9Y-4.3565
X2.9Y-5.1065
X2.9Y-5.8565
X2.9425Y-1.575
X2.9925Y-1.475
X3.1Y-2.8565
X3.1Y-3.6065
X3.1Y-4.3565
X3.1Y-5.1065
X3.1Y-5.8565
X3.15Y-2.7565
X3.15Y-3.5065
X3.15Y-4.2565
X3.15Y-5.0065
X3.15Y-5.7565
X3.55Y-2.34
X3.55Y-2.54
X3.6Y-3.29
X3.6Y-4.04
X3.6Y-4.79
X3.6Y-5.54
X3.65Y-2.29
X3.65Y-2.59
X3.65Y-3.39
X3.65Y-4.14
X3.65Y-4.89
X3.65Y-5.64
X3.6925Y-1.225
X3.6925Y-1.525
X3.7925Y-1.275
X3.7925Y-1.475
X3.85Y-3.39
X3.85Y-4.14
X3.85Y-4.89
X3.85Y-5.64
X3.9Y-3.29
X3.9Y-4.04
X3.9Y-4.79
X3.9Y-5.54
X4.1925Y-1.475
X4.2425Y-1.575
X4.35Y-2.3825
X4.35Y-3.1325
X4.35Y-3.8825
X4.35Y-4.6325
X4.35Y-5.3825
X4.4Y-2.4825
X4.4Y-3.2325
X4.4Y-3.9825
X4.4Y-4.7325
X4.4Y-5.4825
X4.4425Y-1.575
X4.4925Y-1.475
X4.6Y-2.4825
X4.6Y-3.2325
X4.6Y-3.9825
X4.6Y-4.7325
X4.6Y-5.4825
X4.65Y-2.3825
X4.65Y-3.1325
X4.65Y-3.8825
X4.65Y-4.6325
X4.65Y-5.3825
X4.9425Y-1.475
X4.9833Y-6.258
X4.9925Y-1.575
X5.0189Y-6.364
X5.1Y-2.5793
X5.1Y-3.3293
X5.1Y-4.0793
X5.1Y-4.8293
X5.15Y-2.6793
X5.15Y-3.4293
X5.15Y-4.1793
X5.15Y-4.9293
X5.1925Y-1.575
X5.2169Y-6.3918
X5.2425Y-1.475
X5.2804Y-6.2998
X5.35Y-2.6793
X5.35Y-3.4293
X5.35Y-4.1793
X5.35Y-4.9293
X5.4Y-2.5793
X5.4Y-3.3293
X5.4Y-4.0793
X5.4Y-4.8293
X5.7652Y-6.0839
X5.8008Y-6.1899
X5.85Y-1.475
X5.85Y-2.6778
X5.85Y-3.4278
X5.85Y-4.1778
X5.85Y-4.9278
X5.9Y-1.575
X5.9Y-2.7778
X5.9Y-3.5278
X5.9Y-4.2778
X5.9Y-5.0278
X5.9988Y-6.2177
X6.0622Y-6.1257
X6.1Y-1.575
X6.1Y-2.7778
X6.1Y-3.5278
X6.1Y-4.2778
X6.1Y-5.0278
X6.15Y-1.475
X6.15Y-2.6778
X6.15Y-3.4278
X6.15Y-4.1778
X6.15Y-4.9278
X6.5078Y-6.1883
X6.5434Y-6.2942
X6.5989Y-5.0262
X6.6Y-1.475
X6.6Y-2.7762
X6.6Y-3.5262
X6.6Y-4.2762
X6.6489Y-5.1262
X6.65Y-1.575
X6.65Y-2.8762
X6.65Y-3.6262
X6.65Y-4.3762
X6.7415Y-6.3221
X6.8049Y-6.23
X6.8489Y-5.1262
X6.85Y-1.575
X6.85Y-2.8762
X6.85Y-3.6262
X6.85Y-4.3762
X6.8989Y-5.0262
X6.9Y-1.475
X6.9Y-2.7762
X6.9Y-3.5262
X6.9Y-4.2762
X7.1984Y-6.664
X7.2339Y-6.77
X7.3027Y-5.9213
X7.3383Y-6.0273
X7.4071Y-5.1786
X7.432Y-6.7978
X7.4427Y-5.2846
X7.4681Y-2.7762
X7.4681Y-3.5262
X7.4681Y-4.2762
X7.4954Y-6.7057
X7.5181Y-2.8762
X7.5181Y-3.6262
X7.5181Y-4.3762
X7.5364Y-6.0551
X7.5998Y-5.963
X7.6408Y-5.3124
X7.7042Y-5.2203
X7.7181Y-2.8762
X7.7181Y-3.6262
X7.7181Y-4.3762
X7.7681Y-2.7762
X7.7681Y-3.5262
X7.7681Y-4.2762
T7
X-0.095Y-3.148
X0.5613Y-4.648
X0.845Y-3.148
X1.1238Y-5.398
X1.3113Y-5.398
X1.5012Y-4.648
X2.0637Y-5.398
X2.2512Y-5.398
X6.1345Y-6.5095
X6.2654Y-5.5786
X6.8772Y-6.6138
X7.008Y-5.683
T8
X-0.095Y-2.548
X0.5613Y-4.048
X0.845Y-2.548
X1.1238Y-4.798
X1.3113Y-4.798
X1.5012Y-4.048
X2.0637Y-4.798
X2.2512Y-4.798
X5.5404Y-6.426
X5.6712Y-5.4951
X6.2831Y-6.5303
X6.4139Y-5.5995
T9
X0.375Y-2.873
X0.5625Y-3.623
X1.0312Y-4.373
X1.2188Y-5.873
X1.5Y-2.873
X1.5Y-3.623
X1.5938Y-5.123
X1.7812Y-5.123
X1.935Y-1.375
X1.9688Y-4.373
X2.0625Y-3.623
X2.1562Y-5.873
X2.25Y-2.873
X2.25Y-3.623
X2.25Y-4.373
X2.8425Y-1.375
X3.0Y-2.6565
X3.0Y-3.4065
X3.0Y-4.1565
X3.0Y-4.9065
X3.0Y-5.6565
X3.5925Y-1.375
X3.75Y-2.44
X3.75Y-3.19
X3.75Y-3.94
X3.75Y-4.69
X3.75Y-5.44
X4.3425Y-1.375
X4.5Y-2.2825
X4.5Y-3.0325
X4.5Y-3.7825
X4.5Y-4.5325
X4.5Y-5.2825
X5.0925Y-1.375
X5.1458Y-6.1799
X5.25Y-2.4793
X5.25Y-3.2293
X5.25Y-3.9793
X5.25Y-4.7293
X5.9276Y-6.0058
X6.0Y-1.375
X6.0Y-2.5778
X6.0Y-3.3278
X6.0Y-4.0778
X6.0Y-4.8278
X6.6703Y-6.1101
X6.7489Y-4.9262
X6.75Y-1.375
X6.75Y-2.6762
X6.75Y-3.4262
X6.75Y-4.1762
X7.3608Y-6.5858
X7.4652Y-5.8431
X7.5696Y-5.1004
X7.6181Y-2.6762
X7.6181Y-3.4262
X7.6181Y-4.1762
T2
G00X6.5295Y-4.9006
M15
G01X6.5295Y-4.9518
M16
G05
G00X6.9705Y-4.9006
M15
G01X6.9705Y-4.9518
M16
G05
T0
M30
