%TF.GenerationSoftware,KiCad,Pcbnew,7.0.5-0*%
%TF.CreationDate,2023-07-26T18:11:08-07:00*%
%TF.ProjectId,ergodonk_simple,6572676f-646f-46e6-9b5f-73696d706c65,rev?*%
%TF.SameCoordinates,Original*%
%TF.FileFunction,Soldermask,Top*%
%TF.FilePolarity,Negative*%
%FSLAX46Y46*%
G04 Gerber Fmt 4.6, Leading zero omitted, Abs format (unit mm)*
G04 Created by KiCad (PCBNEW 7.0.5-0) date 2023-07-26 18:11:08*
%MOMM*%
%LPD*%
G01*
G04 APERTURE LIST*
G04 Aperture macros list*
%AMRoundRect*
0 Rectangle with rounded corners*
0 $1 Rounding radius*
0 $2 $3 $4 $5 $6 $7 $8 $9 X,Y pos of 4 corners*
0 Add a 4 corners polygon primitive as box body*
4,1,4,$2,$3,$4,$5,$6,$7,$8,$9,$2,$3,0*
0 Add four circle primitives for the rounded corners*
1,1,$1+$1,$2,$3*
1,1,$1+$1,$4,$5*
1,1,$1+$1,$6,$7*
1,1,$1+$1,$8,$9*
0 Add four rect primitives between the rounded corners*
20,1,$1+$1,$2,$3,$4,$5,0*
20,1,$1+$1,$4,$5,$6,$7,0*
20,1,$1+$1,$6,$7,$8,$9,0*
20,1,$1+$1,$8,$9,$2,$3,0*%
%AMHorizOval*
0 Thick line with rounded ends*
0 $1 width*
0 $2 $3 position (X,Y) of the first rounded end (center of the circle)*
0 $4 $5 position (X,Y) of the second rounded end (center of the circle)*
0 Add line between two ends*
20,1,$1,$2,$3,$4,$5,0*
0 Add two circle primitives to create the rounded ends*
1,1,$1,$2,$3*
1,1,$1,$4,$5*%
%AMRotRect*
0 Rectangle, with rotation*
0 The origin of the aperture is its center*
0 $1 length*
0 $2 width*
0 $3 Rotation angle, in degrees counterclockwise*
0 Add horizontal line*
21,1,$1,$2,0,0,$3*%
%AMOutline5P*
0 Free polygon, 5 corners , with rotation*
0 The origin of the aperture is its center*
0 number of corners: always 5*
0 $1 to $10 corner X, Y*
0 $11 Rotation angle, in degrees counterclockwise*
0 create outline with 5 corners*
4,1,5,$1,$2,$3,$4,$5,$6,$7,$8,$9,$10,$1,$2,$11*%
%AMOutline6P*
0 Free polygon, 6 corners , with rotation*
0 The origin of the aperture is its center*
0 number of corners: always 6*
0 $1 to $12 corner X, Y*
0 $13 Rotation angle, in degrees counterclockwise*
0 create outline with 6 corners*
4,1,6,$1,$2,$3,$4,$5,$6,$7,$8,$9,$10,$11,$12,$1,$2,$13*%
%AMOutline7P*
0 Free polygon, 7 corners , with rotation*
0 The origin of the aperture is its center*
0 number of corners: always 7*
0 $1 to $14 corner X, Y*
0 $15 Rotation angle, in degrees counterclockwise*
0 create outline with 7 corners*
4,1,7,$1,$2,$3,$4,$5,$6,$7,$8,$9,$10,$11,$12,$13,$14,$1,$2,$15*%
%AMOutline8P*
0 Free polygon, 8 corners , with rotation*
0 The origin of the aperture is its center*
0 number of corners: always 8*
0 $1 to $16 corner X, Y*
0 $17 Rotation angle, in degrees counterclockwise*
0 create outline with 8 corners*
4,1,8,$1,$2,$3,$4,$5,$6,$7,$8,$9,$10,$11,$12,$13,$14,$15,$16,$1,$2,$17*%
%AMFreePoly0*
4,1,45,2.563603,2.996506,2.630114,2.940697,2.673526,2.865505,2.688603,2.780000,2.670586,2.482141,2.616797,2.188626,2.528021,1.903735,2.405553,1.631621,2.251178,1.376254,2.067147,1.141356,1.856144,0.930353,1.621246,0.746322,1.365879,0.591947,1.275000,0.551045,1.275000,-0.808000,1.259624,-0.885302,1.215836,-0.950836,1.150302,-0.994624,1.073000,-1.010000,0.000000,-1.010000,
-0.568000,-1.010000,-1.275000,-0.303000,-1.275000,0.808000,-1.259624,0.885302,-1.215836,0.950836,-1.150302,0.994624,-1.073000,1.010000,1.073000,1.010000,1.087917,1.007032,1.091167,1.008379,1.314936,1.137571,1.519927,1.294867,1.702633,1.477573,1.859929,1.682564,1.989121,1.906333,2.088001,2.145050,2.154877,2.394632,2.188603,2.650807,2.188603,2.780000,2.203680,2.865505,
2.247092,2.940697,2.313603,2.996506,2.395191,3.026202,2.482015,3.026202,2.563603,2.996506,2.563603,2.996506,$1*%
%AMFreePoly1*
4,1,13,-1.275000,1.000000,-1.255970,1.095671,-1.201777,1.176777,-1.120671,1.230970,-1.025000,1.250000,1.275000,1.250000,1.275000,-1.250000,-1.025000,-1.250000,-1.120671,-1.230970,-1.201777,-1.176777,-1.255970,-1.095671,-1.275000,-1.000000,-1.275000,1.000000,-1.275000,1.000000,$1*%
%AMFreePoly2*
4,1,28,-0.850000,0.400000,-0.842219,0.514750,-0.797860,0.693118,-0.716195,0.857783,-0.601041,1.001041,-0.457783,1.116195,-0.293119,1.197860,-0.114750,1.242219,0.000000,1.250000,0.850000,0.400000,0.850000,-0.400000,0.842219,-0.514750,0.797860,-0.693118,0.716195,-0.857783,0.601041,-1.001041,0.457783,-1.116195,0.293119,-1.197860,0.114750,-1.242219,0.000000,-1.250000,-0.114750,-1.242219,
-0.293119,-1.197860,-0.457783,-1.116195,-0.601041,-1.001041,-0.716195,-0.857783,-0.797860,-0.693119,-0.842219,-0.514750,-0.850000,-0.400000,-0.850000,0.400000,-0.850000,0.400000,$1*%
%AMFreePoly3*
4,1,28,-0.850000,0.400000,-0.842219,0.514750,-0.797860,0.693118,-0.716195,0.857783,-0.601041,1.001041,-0.457783,1.116195,-0.293119,1.197860,-0.114750,1.242219,0.000000,1.250000,0.114750,1.242219,0.293119,1.197860,0.457783,1.116195,0.601041,1.001041,0.716195,0.857783,0.797860,0.693119,0.842219,0.514750,0.850000,0.400000,0.850000,-0.400000,0.000000,-1.250000,-0.114750,-1.242219,
-0.293119,-1.197860,-0.457783,-1.116195,-0.601041,-1.001041,-0.716195,-0.857783,-0.797860,-0.693119,-0.842219,-0.514750,-0.850000,-0.400000,-0.850000,0.400000,-0.850000,0.400000,$1*%
%AMFreePoly4*
4,1,72,4.979306,2.778678,5.045817,2.722869,5.089229,2.647677,5.104306,2.562172,5.087162,2.271457,5.035967,1.984771,4.951430,1.706091,4.834724,1.439278,4.687466,1.188032,4.511698,0.955835,4.309857,0.745908,4.084741,0.561159,3.839470,0.404151,3.577445,0.277060,3.302298,0.181647,3.017844,0.119236,2.728025,0.090691,2.436861,0.096409,2.148387,0.136309,1.925535,0.194461,
1.896017,0.197263,1.763570,0.181968,1.637203,0.139451,1.522448,0.071572,1.424327,-0.018697,1.347134,-0.127406,1.294249,-0.249796,1.275000,-0.345605,1.275000,-1.000000,1.255970,-1.095671,1.201777,-1.176777,1.120671,-1.230970,1.025000,-1.250000,0.000000,-1.250000,-1.275000,-1.250000,-1.275000,1.250000,1.025000,1.250000,1.080205,1.239018,1.080538,1.239048,1.081915,1.238678,
1.120671,1.230970,1.127356,1.226502,1.164404,1.216576,1.235525,1.166775,1.326985,1.075317,1.532213,0.917839,1.756241,0.788496,1.995235,0.689502,2.008699,0.685894,2.052550,0.683832,2.242125,0.641744,2.290662,0.616551,2.501578,0.588784,2.760263,0.588784,3.016735,0.622550,3.266606,0.689502,3.505600,0.788497,3.729628,0.917840,3.934856,1.075317,4.117774,1.258235,
4.275252,1.463464,4.404594,1.687492,4.503588,1.926486,4.570541,2.176357,4.604306,2.432829,4.604306,2.562172,4.619383,2.647677,4.662795,2.722869,4.729306,2.778678,4.810894,2.808374,4.897718,2.808374,4.979306,2.778678,4.979306,2.778678,$1*%
%AMFreePoly5*
4,1,13,-1.275000,1.250000,1.025000,1.250000,1.120671,1.230970,1.201777,1.176777,1.255970,1.095671,1.275000,1.000000,1.275000,-1.000000,1.255970,-1.095671,1.201777,-1.176777,1.120671,-1.230970,1.025000,-1.250000,-1.275000,-1.250000,-1.275000,1.250000,-1.275000,1.250000,$1*%
%AMFreePoly6*
4,1,72,1.275000,-1.250000,0.000000,-1.250000,-1.025000,-1.250000,-1.086473,-1.237772,-1.127055,-1.241323,-1.210921,-1.218851,-1.282043,-1.169051,-1.376892,-1.074202,-1.589727,-0.910888,-1.822058,-0.776751,-1.886457,-0.750076,-1.911345,-0.744098,-1.941766,-0.727166,-2.069910,-0.674088,-2.329042,-0.604654,-2.595020,-0.569637,-2.863293,-0.569637,-3.129271,-0.604654,-3.388403,-0.674088,-3.636255,-0.776752,
-3.868586,-0.910889,-4.081421,-1.074203,-4.271119,-1.263901,-4.434433,-1.476736,-4.568569,-1.709067,-4.671233,-1.956919,-4.740667,-2.216051,-4.775683,-2.482029,-4.775683,-2.616166,-4.790760,-2.701671,-4.834172,-2.776863,-4.900683,-2.832672,-4.982271,-2.862368,-5.069095,-2.862368,-5.150683,-2.832672,-5.217194,-2.776863,-5.260606,-2.701671,-5.275683,-2.616166,-5.258032,-2.316854,-5.205323,-2.021691,
-5.118286,-1.734769,-4.998129,-1.460067,-4.846517,-1.201391,-4.665551,-0.962328,-4.457741,-0.746193,-4.225968,-0.555981,-3.973444,-0.394330,-3.703671,-0.263480,-3.420387,-0.165246,-3.127521,-0.100989,-2.829133,-0.071600,-2.529358,-0.077487,-2.232354,-0.118568,-1.942236,-0.194273,-1.722358,-0.280331,-1.700655,-0.287780,-1.601231,-0.293214,-1.504149,-0.271084,-1.416903,-0.223097,-1.346227,-0.152957,
-1.297577,-0.066079,-1.275000,0.029594,-1.275000,0.037427,-1.276909,0.080569,-1.275000,0.095455,-1.275000,1.000000,-1.255970,1.095671,-1.201777,1.176777,-1.120671,1.230970,-1.025000,1.250000,1.275000,1.250000,1.275000,-1.250000,1.275000,-1.250000,$1*%
G04 Aperture macros list end*
%ADD10R,1.500000X1.500000*%
%ADD11RoundRect,0.225000X0.225000X0.375000X-0.225000X0.375000X-0.225000X-0.375000X0.225000X-0.375000X0*%
%ADD12C,1.500000*%
%ADD13C,1.900000*%
%ADD14C,3.000000*%
%ADD15C,4.100000*%
%ADD16R,2.300000X2.000000*%
%ADD17Outline5P,-1.150000X0.600000X-0.750000X1.000000X1.150000X1.000000X1.150000X-1.000000X-1.150000X-1.000000X0.000000*%
%ADD18C,0.750000*%
%ADD19C,0.500000*%
%ADD20C,3.750000*%
%ADD21R,1.700000X1.700000*%
%ADD22O,1.700000X1.700000*%
%ADD23Outline5P,-1.150000X0.600000X-0.750000X1.000000X1.150000X1.000000X1.150000X-1.000000X-1.150000X-1.000000X180.000000*%
%ADD24C,4.700000*%
%ADD25RotRect,1.500000X1.500000X172.000000*%
%ADD26RoundRect,0.225000X0.275000X0.340037X-0.170620X0.402664X-0.275000X-0.340037X0.170620X-0.402664X0*%
%ADD27R,2.000000X2.300000*%
%ADD28Outline5P,-1.150000X0.600000X-0.750000X1.000000X1.150000X1.000000X1.150000X-1.000000X-1.150000X-1.000000X90.000000*%
%ADD29RotRect,2.300000X2.000000X352.000000*%
%ADD30Outline5P,-1.150000X0.600000X-0.750000X1.000000X1.150000X1.000000X1.150000X-1.000000X-1.150000X-1.000000X352.000000*%
%ADD31C,1.750000*%
%ADD32C,3.987800*%
%ADD33FreePoly0,180.000000*%
%ADD34FreePoly1,180.000000*%
%ADD35RoundRect,0.225000X0.375000X-0.225000X0.375000X0.225000X-0.375000X0.225000X-0.375000X-0.225000X0*%
%ADD36HorizOval,1.000000X-2.430235X-11.240283X2.430235X11.240283X0*%
%ADD37C,1.700000*%
%ADD38C,1.200000*%
%ADD39FreePoly2,299.400000*%
%ADD40FreePoly3,299.400000*%
%ADD41HorizOval,1.700000X-0.348486X-0.196362X0.348486X0.196362X0*%
%ADD42C,0.001000*%
%ADD43FreePoly4,180.000000*%
%ADD44C,4.000000*%
%ADD45R,2.795000X3.120000*%
%ADD46C,1.524000*%
%ADD47Outline5P,-1.150000X1.000000X1.150000X1.000000X1.150000X-1.000000X-0.550000X-1.000000X-1.150000X-0.400000X0.000000*%
%ADD48C,3.048000*%
%ADD49FreePoly5,180.000000*%
%ADD50FreePoly6,180.000000*%
%ADD51O,2.000000X3.200000*%
%ADD52R,2.000000X2.000000*%
%ADD53C,2.000000*%
%ADD54C,40.600000*%
%ADD55C,2.200000*%
%ADD56O,3.500000X3.500000*%
%ADD57R,2.000000X1.905000*%
%ADD58O,2.000000X1.905000*%
%ADD59Outline5P,-1.150000X1.000000X1.150000X1.000000X1.150000X-0.600000X0.750000X-1.000000X-1.150000X-1.000000X262.000000*%
%ADD60RotRect,2.300000X2.000000X262.000000*%
%ADD61C,1.600000*%
%ADD62O,1.600000X1.600000*%
G04 APERTURE END LIST*
D10*
%TO.C,D58*%
X81526250Y-155643000D03*
D11*
X79176250Y-155643000D03*
X75876250Y-155643000D03*
D12*
X73526250Y-155643000D03*
%TD*%
D13*
%TO.C,SW31*%
X223100000Y-103968000D03*
D14*
X221830000Y-106508000D03*
X220560000Y-109048000D03*
D15*
X218020000Y-103968000D03*
D14*
X215480000Y-109048000D03*
X214210000Y-106508000D03*
D13*
X212940000Y-103968000D03*
D16*
X211020000Y-106548000D03*
D17*
X223720000Y-109088000D03*
%TD*%
D18*
%TO.C,REF\u002A\u002A*%
X88078964Y-26631730D03*
X87810581Y-27873048D03*
X87542199Y-29114366D03*
X87273816Y-30355684D03*
%TD*%
D10*
%TO.C,D17*%
X107720000Y-79443000D03*
D11*
X105370000Y-79443000D03*
X102070000Y-79443000D03*
D12*
X99720000Y-79443000D03*
%TD*%
D10*
%TO.C,D55*%
X140970000Y-127850000D03*
D11*
X138620000Y-127850000D03*
X135320000Y-127850000D03*
D12*
X132970000Y-127850000D03*
%TD*%
D19*
%TO.C,H24*%
X67140000Y-134278679D03*
X67140000Y-136400000D03*
D20*
X68200660Y-135339340D03*
D19*
X69261320Y-134278679D03*
X69261320Y-136400000D03*
%TD*%
D21*
%TO.C,J12*%
X129490000Y-48370000D03*
D22*
X132030000Y-48370000D03*
X134570000Y-48370000D03*
X137110000Y-48370000D03*
X139650000Y-48370000D03*
X142190000Y-48370000D03*
X144730000Y-48370000D03*
X147270000Y-48370000D03*
%TD*%
D13*
%TO.C,SW55*%
X136740000Y-136068000D03*
D14*
X138010000Y-133528000D03*
X139280000Y-130988000D03*
D15*
X141820000Y-136068000D03*
D14*
X144360000Y-130988000D03*
X145630000Y-133528000D03*
D13*
X146900000Y-136068000D03*
D16*
X148820000Y-133488000D03*
D23*
X136120000Y-130948000D03*
%TD*%
D24*
%TO.C,H7*%
X132320000Y-32610000D03*
%TD*%
D10*
%TO.C,D46*%
X126770000Y-131093000D03*
D11*
X124420000Y-131093000D03*
X121120000Y-131093000D03*
D12*
X118770000Y-131093000D03*
%TD*%
D25*
%TO.C,D40*%
X238841072Y-155326692D03*
D26*
X236513942Y-154999636D03*
X233246058Y-154540364D03*
D12*
X230918928Y-154213308D03*
%TD*%
D10*
%TO.C,D15*%
X145820000Y-68443000D03*
D11*
X143470000Y-68443000D03*
X140170000Y-68443000D03*
D12*
X137820000Y-68443000D03*
%TD*%
D24*
%TO.C,H5*%
X225920000Y-153460000D03*
%TD*%
D10*
%TO.C,D54*%
X160490000Y-123830000D03*
D11*
X158140000Y-123830000D03*
X154840000Y-123830000D03*
D12*
X152490000Y-123830000D03*
%TD*%
D13*
%TO.C,SW16*%
X127850000Y-65368000D03*
D14*
X126580000Y-67908000D03*
X125310000Y-70448000D03*
D15*
X122770000Y-65368000D03*
D14*
X120230000Y-70448000D03*
X118960000Y-67908000D03*
D13*
X117690000Y-65368000D03*
D16*
X115770000Y-67948000D03*
D17*
X128470000Y-70488000D03*
%TD*%
D13*
%TO.C,SW6*%
X127850000Y-33818000D03*
D14*
X126580000Y-36358000D03*
X125310000Y-38898000D03*
D15*
X122770000Y-33818000D03*
D14*
X120230000Y-38898000D03*
X118960000Y-36358000D03*
D13*
X117690000Y-33818000D03*
D16*
X115770000Y-36398000D03*
D17*
X128470000Y-38938000D03*
%TD*%
D19*
%TO.C,H18*%
X110158680Y-25298679D03*
X110158680Y-27420000D03*
D20*
X111219340Y-26359340D03*
D19*
X112280000Y-25298679D03*
X112280000Y-27420000D03*
%TD*%
D10*
%TO.C,D56*%
X126770000Y-150143000D03*
D11*
X124420000Y-150143000D03*
X121120000Y-150143000D03*
D12*
X118770000Y-150143000D03*
%TD*%
D19*
%TO.C,H12*%
X133278680Y-153428679D03*
X133278680Y-155550000D03*
D20*
X134339340Y-154489340D03*
D19*
X135400000Y-153428679D03*
X135400000Y-155550000D03*
%TD*%
D10*
%TO.C,D5*%
X146070000Y-42393000D03*
D11*
X143720000Y-42393000D03*
X140420000Y-42393000D03*
D12*
X138070000Y-42393000D03*
%TD*%
D10*
%TO.C,D13*%
X183920000Y-69443000D03*
D11*
X181570000Y-69443000D03*
X178270000Y-69443000D03*
D12*
X175920000Y-69443000D03*
%TD*%
D10*
%TO.C,D32*%
X202970000Y-110043000D03*
D11*
X200620000Y-110043000D03*
X197320000Y-110043000D03*
D12*
X194970000Y-110043000D03*
%TD*%
D10*
%TO.C,D26*%
X126770000Y-92993000D03*
D11*
X124420000Y-92993000D03*
X121120000Y-92993000D03*
D12*
X118770000Y-92993000D03*
%TD*%
D24*
%TO.C,H2*%
X189430000Y-115440000D03*
%TD*%
D13*
%TO.C,SW14*%
X160870000Y-50788000D03*
D14*
X163410000Y-52058000D03*
X165950000Y-53328000D03*
D15*
X160870000Y-55868000D03*
D14*
X165950000Y-58408000D03*
X163410000Y-59678000D03*
D13*
X160870000Y-60948000D03*
D27*
X163450000Y-62868000D03*
D28*
X165990000Y-50168000D03*
%TD*%
D13*
%TO.C,SW43*%
X185000000Y-118018000D03*
D14*
X183730000Y-120558000D03*
X182460000Y-123098000D03*
D15*
X179920000Y-118018000D03*
D14*
X177380000Y-123098000D03*
X176110000Y-120558000D03*
D13*
X174840000Y-118018000D03*
D16*
X172920000Y-120598000D03*
D17*
X185620000Y-123138000D03*
%TD*%
D10*
%TO.C,D7*%
X103720000Y-42393000D03*
D11*
X101370000Y-42393000D03*
X98070000Y-42393000D03*
D12*
X95720000Y-42393000D03*
%TD*%
D10*
%TO.C,D2*%
X206970000Y-42393000D03*
D11*
X204620000Y-42393000D03*
X201320000Y-42393000D03*
D12*
X198970000Y-42393000D03*
%TD*%
D24*
%TO.C,H4*%
X113310000Y-80330000D03*
%TD*%
D13*
%TO.C,SW50*%
X238565140Y-165880287D03*
D14*
X236954000Y-168218818D03*
X235342860Y-170557349D03*
D15*
X233534578Y-165173288D03*
D14*
X230312298Y-169850350D03*
X229408157Y-167158319D03*
D13*
X228504016Y-164466289D03*
D29*
X226243635Y-166753968D03*
D30*
X238466540Y-171036747D03*
%TD*%
D19*
%TO.C,H19*%
X190479340Y-25298679D03*
X190479340Y-27420000D03*
D20*
X191540000Y-26359340D03*
D19*
X192600660Y-25298679D03*
X192600660Y-27420000D03*
%TD*%
D13*
%TO.C,SW22*%
X204050000Y-82418000D03*
D14*
X202780000Y-84958000D03*
X201510000Y-87498000D03*
D15*
X198970000Y-82418000D03*
D14*
X196430000Y-87498000D03*
X195160000Y-84958000D03*
D13*
X193890000Y-82418000D03*
D16*
X191970000Y-84998000D03*
D17*
X204670000Y-87538000D03*
%TD*%
D13*
%TO.C,SW4*%
X160870000Y-28738000D03*
D14*
X163410000Y-30008000D03*
X165950000Y-31278000D03*
D15*
X160870000Y-33818000D03*
D14*
X165950000Y-36358000D03*
X163410000Y-37628000D03*
D13*
X160870000Y-38898000D03*
D27*
X163450000Y-40818000D03*
D28*
X165990000Y-28118000D03*
%TD*%
D13*
%TO.C,SW7*%
X104800000Y-33818000D03*
D14*
X103530000Y-36358000D03*
X102260000Y-38898000D03*
D15*
X99720000Y-33818000D03*
D14*
X97180000Y-38898000D03*
X95910000Y-36358000D03*
D13*
X94640000Y-33818000D03*
D16*
X92720000Y-36398000D03*
D17*
X105420000Y-38938000D03*
%TD*%
D13*
%TO.C,SW52*%
X202162201Y-151146434D03*
D14*
X200551061Y-153484965D03*
X198939921Y-155823496D03*
D15*
X197131639Y-150439435D03*
D14*
X193909359Y-155116497D03*
X193005218Y-152424466D03*
D13*
X192101077Y-149732436D03*
D29*
X189840696Y-152020115D03*
D30*
X202063601Y-156302894D03*
%TD*%
D13*
%TO.C,SW44*%
X165950000Y-113018000D03*
D14*
X164680000Y-115558000D03*
X163410000Y-118098000D03*
D15*
X160870000Y-113018000D03*
D14*
X158330000Y-118098000D03*
X157060000Y-115558000D03*
D13*
X155790000Y-113018000D03*
D16*
X153870000Y-115598000D03*
D17*
X166570000Y-118138000D03*
%TD*%
D19*
%TO.C,H17*%
X121769340Y-48489339D03*
X121769340Y-50610660D03*
D20*
X122830000Y-49550000D03*
D19*
X123890660Y-48489339D03*
X123890660Y-50610660D03*
%TD*%
D13*
%TO.C,SW26*%
X127850000Y-84418000D03*
D14*
X126580000Y-86958000D03*
X125310000Y-89498000D03*
D15*
X122770000Y-84418000D03*
D14*
X120230000Y-89498000D03*
X118960000Y-86958000D03*
D13*
X117690000Y-84418000D03*
D16*
X115770000Y-86998000D03*
D17*
X128470000Y-89538000D03*
%TD*%
D13*
%TO.C,SW56*%
X127850000Y-141568000D03*
D14*
X126580000Y-144108000D03*
X125310000Y-146648000D03*
D15*
X122770000Y-141568000D03*
D14*
X120230000Y-146648000D03*
X118960000Y-144108000D03*
D13*
X117690000Y-141568000D03*
D16*
X115770000Y-144148000D03*
D17*
X128470000Y-146688000D03*
%TD*%
D18*
%TO.C,REF\u002A\u002A*%
X76711023Y-79210538D03*
X76442640Y-80451856D03*
X76174258Y-81693174D03*
X75905875Y-82934492D03*
%TD*%
D13*
%TO.C,SW46*%
X127850000Y-122518000D03*
D14*
X126580000Y-125058000D03*
X125310000Y-127598000D03*
D15*
X122770000Y-122518000D03*
D14*
X120230000Y-127598000D03*
X118960000Y-125058000D03*
D13*
X117690000Y-122518000D03*
D16*
X115770000Y-125098000D03*
D17*
X128470000Y-127638000D03*
%TD*%
D31*
%TO.C,SW27*%
X93877500Y-89918000D03*
X93877500Y-89918000D03*
D14*
X96417500Y-94998000D03*
D31*
X98640000Y-89918000D03*
X98640000Y-89918000D03*
D32*
X98957500Y-89918000D03*
X98957500Y-89918000D03*
D14*
X99910000Y-92458000D03*
X102767500Y-92458000D03*
D32*
X103720000Y-89918000D03*
X103720000Y-89918000D03*
D31*
X104037500Y-89918000D03*
X104037500Y-89918000D03*
D14*
X106260000Y-94998000D03*
D31*
X108800000Y-89918000D03*
X108800000Y-89918000D03*
D19*
X94196397Y-94998000D03*
D33*
X96635000Y-92218000D03*
D19*
X108518046Y-95018557D03*
D34*
X109562000Y-94998000D03*
%TD*%
D10*
%TO.C,D21*%
X222020000Y-93493000D03*
D11*
X219670000Y-93493000D03*
X216370000Y-93493000D03*
D12*
X214020000Y-93493000D03*
%TD*%
D13*
%TO.C,SW5*%
X146900000Y-33818000D03*
D14*
X145630000Y-36358000D03*
X144360000Y-38898000D03*
D15*
X141820000Y-33818000D03*
D14*
X139280000Y-38898000D03*
X138010000Y-36358000D03*
D13*
X136740000Y-33818000D03*
D16*
X134820000Y-36398000D03*
D17*
X147520000Y-38938000D03*
%TD*%
D24*
%TO.C,H10*%
X187910000Y-147140000D03*
%TD*%
D10*
%TO.C,D18*%
X149670000Y-32840000D03*
D35*
X149670000Y-30490000D03*
X149670000Y-27190000D03*
D12*
X149670000Y-24840000D03*
%TD*%
D13*
%TO.C,SW10*%
X245150000Y-84918000D03*
D14*
X243880000Y-87458000D03*
X242610000Y-89998000D03*
D15*
X240070000Y-84918000D03*
D14*
X237530000Y-89998000D03*
X236260000Y-87458000D03*
D13*
X234990000Y-84918000D03*
D16*
X233070000Y-87498000D03*
D17*
X245770000Y-90038000D03*
%TD*%
D36*
%TO.C,REF\u002A\u002A*%
X83663501Y-42322003D03*
%TD*%
D10*
%TO.C,D37*%
X96350000Y-117543000D03*
D11*
X94000000Y-117543000D03*
X90700000Y-117543000D03*
D12*
X88350000Y-117543000D03*
%TD*%
D13*
%TO.C,SW35*%
X146900000Y-97968000D03*
D14*
X145630000Y-100508000D03*
X144360000Y-103048000D03*
D15*
X141820000Y-97968000D03*
D14*
X139280000Y-103048000D03*
X138010000Y-100508000D03*
D13*
X136740000Y-97968000D03*
D16*
X134820000Y-100548000D03*
D17*
X147520000Y-103088000D03*
%TD*%
D13*
%TO.C,SW18_RH10*%
X84670000Y-65788000D03*
D37*
X84670000Y-66368000D03*
D14*
X89750000Y-68328000D03*
D15*
X84670000Y-70868000D03*
D14*
X87210001Y-74678000D03*
D37*
X84670000Y-75368000D03*
D13*
X84670000Y-75948000D03*
D27*
X87250000Y-77868000D03*
X89790000Y-65168000D03*
%TD*%
D13*
%TO.C,SW15*%
X146900000Y-59868000D03*
D14*
X145630000Y-62408000D03*
X144360000Y-64948000D03*
D15*
X141820000Y-59868000D03*
D14*
X139280000Y-64948000D03*
X138010000Y-62408000D03*
D13*
X136740000Y-59868000D03*
D16*
X134820000Y-62448000D03*
D17*
X147520000Y-64988000D03*
%TD*%
D13*
%TO.C,SW21*%
X223100000Y-84918000D03*
D14*
X221830000Y-87458000D03*
X220560000Y-89998000D03*
D15*
X218020000Y-84918000D03*
D14*
X215480000Y-89998000D03*
X214210000Y-87458000D03*
D13*
X212940000Y-84918000D03*
D16*
X211020000Y-87498000D03*
D17*
X223720000Y-90038000D03*
%TD*%
D10*
%TO.C,D42*%
X202970000Y-129093000D03*
D11*
X200620000Y-129093000D03*
X197320000Y-129093000D03*
D12*
X194970000Y-129093000D03*
%TD*%
D24*
%TO.C,H3*%
X113310000Y-118490000D03*
%TD*%
D10*
%TO.C,D33*%
X183920000Y-107543000D03*
D11*
X181570000Y-107543000D03*
X178270000Y-107543000D03*
D12*
X175920000Y-107543000D03*
%TD*%
D38*
%TO.C,J11*%
X241770000Y-41420000D03*
X235671503Y-44856327D03*
X242629081Y-42944625D03*
X236530585Y-46380951D03*
D39*
X233827395Y-48305858D03*
D40*
X233072420Y-43910404D03*
D41*
X236557276Y-41946789D03*
X239170917Y-40474078D03*
%TD*%
D10*
%TO.C,D11*%
X222020000Y-74443000D03*
D11*
X219670000Y-74443000D03*
X216370000Y-74443000D03*
D12*
X214020000Y-74443000D03*
%TD*%
D19*
%TO.C,H25*%
X224748680Y-131498679D03*
X224748680Y-133620000D03*
D20*
X225809340Y-132559340D03*
D19*
X226870000Y-131498679D03*
X226870000Y-133620000D03*
%TD*%
D10*
%TO.C,D27*%
X105380000Y-98493000D03*
D11*
X103030000Y-98493000D03*
X99730000Y-98493000D03*
D12*
X97380000Y-98493000D03*
%TD*%
D13*
%TO.C,SW17*%
X108800000Y-70868000D03*
D14*
X107530000Y-73408000D03*
X106260000Y-75948000D03*
D15*
X103720000Y-70868000D03*
D14*
X101180000Y-75948000D03*
X99910000Y-73408000D03*
D13*
X98640000Y-70868000D03*
D16*
X96720000Y-73448000D03*
D17*
X109420000Y-75988000D03*
%TD*%
D36*
%TO.C,REF\u002A\u002A*%
X78380389Y-66757364D03*
%TD*%
D42*
%TO.C,S1*%
X210842500Y-46000000D03*
X210842500Y-52000000D03*
X214842500Y-50500000D03*
X216842500Y-47500000D03*
X220842500Y-46000000D03*
X220842500Y-51975000D03*
%TD*%
D24*
%TO.C,H6*%
X212510000Y-32610000D03*
%TD*%
D10*
%TO.C,D12*%
X202970000Y-71943000D03*
D11*
X200620000Y-71943000D03*
X197320000Y-71943000D03*
D12*
X194970000Y-71943000D03*
%TD*%
D13*
%TO.C,SW30*%
X243867635Y-128151074D03*
D14*
X242256495Y-130489605D03*
X240645355Y-132828136D03*
D15*
X238837073Y-127444075D03*
D14*
X235614793Y-132121137D03*
X234710652Y-129429106D03*
D13*
X233806511Y-126737076D03*
D29*
X231546130Y-129024755D03*
D30*
X243769035Y-133307534D03*
%TD*%
D10*
%TO.C,D25*%
X145820000Y-87493000D03*
D11*
X143470000Y-87493000D03*
X140170000Y-87493000D03*
D12*
X137820000Y-87493000D03*
%TD*%
D10*
%TO.C,D34*%
X164870000Y-102543000D03*
D11*
X162520000Y-102543000D03*
X159220000Y-102543000D03*
D12*
X156870000Y-102543000D03*
%TD*%
D13*
%TO.C,SW57*%
X106418750Y-147068000D03*
D14*
X105148750Y-149608000D03*
X103878750Y-152148000D03*
D15*
X101338750Y-147068000D03*
D14*
X98798750Y-152148000D03*
X97528750Y-149608000D03*
D13*
X96258750Y-147068000D03*
D16*
X94338750Y-149648000D03*
D17*
X107038750Y-152188000D03*
%TD*%
D24*
%TO.C,H1*%
X189430000Y-72820000D03*
%TD*%
D10*
%TO.C,D4*%
X166950000Y-43330000D03*
D11*
X164600000Y-43330000D03*
X161300000Y-43330000D03*
D12*
X158950000Y-43330000D03*
%TD*%
D25*
%TO.C,D50*%
X236344467Y-174226692D03*
D26*
X234017337Y-173899636D03*
X230749453Y-173440364D03*
D12*
X228422323Y-173113308D03*
%TD*%
D31*
%TO.C,SW37*%
X91496250Y-108968000D03*
X91496250Y-108968000D03*
D14*
X94036250Y-114048000D03*
D32*
X96576250Y-108968000D03*
X96576250Y-108968000D03*
D31*
X98640000Y-108968000D03*
X98640000Y-108968000D03*
D14*
X99910000Y-111508000D03*
X100386250Y-111508000D03*
D31*
X101656250Y-108968000D03*
X101656250Y-108968000D03*
D32*
X103720000Y-108968000D03*
X103720000Y-108968000D03*
D14*
X106260000Y-114048000D03*
D31*
X108800000Y-108968000D03*
X108800000Y-108968000D03*
D19*
X91780694Y-114070172D03*
D43*
X96635000Y-111508000D03*
D19*
X108508782Y-114082141D03*
D34*
X109562000Y-114048000D03*
%TD*%
D14*
%TO.C,REF\u002A\u002A*%
X151345000Y-98710000D03*
X170395000Y-79660000D03*
X170395000Y-117760000D03*
X189445000Y-98710000D03*
%TD*%
D13*
%TO.C,SW24*%
X160870000Y-69838000D03*
D14*
X163410000Y-71108000D03*
X165950000Y-72378000D03*
D15*
X160870000Y-74918000D03*
D14*
X165950000Y-77458000D03*
X163410000Y-78728000D03*
D13*
X160870000Y-79998000D03*
D27*
X163450000Y-81918000D03*
D28*
X165990000Y-69218000D03*
%TD*%
D13*
%TO.C,SW1*%
X227100000Y-33818000D03*
D14*
X225830000Y-36358000D03*
X224560000Y-38898000D03*
D15*
X222020000Y-33818000D03*
D14*
X219480000Y-38898000D03*
X218210000Y-36358000D03*
D13*
X216940000Y-33818000D03*
D16*
X215020000Y-36398000D03*
D17*
X227720000Y-38938000D03*
%TD*%
D13*
%TO.C,SW2*%
X208050000Y-33818000D03*
D14*
X206780000Y-36358000D03*
X205510000Y-38898000D03*
D15*
X202970000Y-33818000D03*
D14*
X200430000Y-38898000D03*
X199160000Y-36358000D03*
D13*
X197890000Y-33818000D03*
D16*
X195970000Y-36398000D03*
D17*
X208670000Y-38938000D03*
%TD*%
D25*
%TO.C,D51*%
X218701072Y-162106692D03*
D26*
X216373942Y-161779636D03*
X213106058Y-161320364D03*
D12*
X210778928Y-160993308D03*
%TD*%
D10*
%TO.C,D0*%
X244070000Y-74443000D03*
D11*
X241720000Y-74443000D03*
X238420000Y-74443000D03*
D12*
X236070000Y-74443000D03*
%TD*%
D19*
%TO.C,H16*%
X67770000Y-49208679D03*
X67770000Y-51330000D03*
D20*
X68830660Y-50269340D03*
D19*
X69891320Y-49208679D03*
X69891320Y-51330000D03*
%TD*%
D10*
%TO.C,D1*%
X226270000Y-42393000D03*
D11*
X223920000Y-42393000D03*
X220620000Y-42393000D03*
D12*
X218270000Y-42393000D03*
%TD*%
D44*
%TO.C,REF\u002A\u002A*%
X205690691Y-139606180D03*
D32*
X190599006Y-137485182D03*
D44*
X202376632Y-163186938D03*
D32*
X187284946Y-161065940D03*
%TD*%
D13*
%TO.C,SW20*%
X245150000Y-103968000D03*
D14*
X243880000Y-106508000D03*
X242610000Y-109048000D03*
D15*
X240070000Y-103968000D03*
D14*
X237530000Y-109048000D03*
X236260000Y-106508000D03*
D13*
X234990000Y-103968000D03*
D16*
X233070000Y-106548000D03*
D17*
X245770000Y-109088000D03*
%TD*%
D10*
%TO.C,D47*%
X93530000Y-136593000D03*
D11*
X91180000Y-136593000D03*
X87880000Y-136593000D03*
D12*
X85530000Y-136593000D03*
%TD*%
D13*
%TO.C,SW42*%
X204050000Y-120518000D03*
D14*
X202780000Y-123058000D03*
X201510000Y-125598000D03*
D15*
X198970000Y-120518000D03*
D14*
X196430000Y-125598000D03*
X195160000Y-123058000D03*
D13*
X193890000Y-120518000D03*
D16*
X191970000Y-123098000D03*
D17*
X204670000Y-125638000D03*
%TD*%
D10*
%TO.C,D6*%
X127020000Y-42393000D03*
D11*
X124670000Y-42393000D03*
X121370000Y-42393000D03*
D12*
X119020000Y-42393000D03*
%TD*%
D10*
%TO.C,D24*%
X167030000Y-84370000D03*
D11*
X164680000Y-84370000D03*
X161380000Y-84370000D03*
D12*
X159030000Y-84370000D03*
%TD*%
D45*
%TO.C,D_SOL_1*%
X109947500Y-47070000D03*
D46*
X108550000Y-47070000D03*
X118710000Y-47070000D03*
D45*
X117312500Y-47070000D03*
%TD*%
D19*
%TO.C,H22*%
X177569340Y-46139339D03*
X177569340Y-48260660D03*
D20*
X178630000Y-47200000D03*
D19*
X179690660Y-46139339D03*
X179690660Y-48260660D03*
%TD*%
D10*
%TO.C,D3*%
X184170000Y-42393000D03*
D11*
X181820000Y-42393000D03*
X178520000Y-42393000D03*
D12*
X176170000Y-42393000D03*
%TD*%
D13*
%TO.C,SW34*%
X165950000Y-93968000D03*
D14*
X164680000Y-96508000D03*
X163410000Y-99048000D03*
D15*
X160870000Y-93968000D03*
D14*
X158330000Y-99048000D03*
X157060000Y-96508000D03*
D13*
X155790000Y-93968000D03*
D47*
X153870000Y-96548000D03*
D17*
X166570000Y-99088000D03*
%TD*%
D10*
%TO.C,D16*%
X126770000Y-73943000D03*
D11*
X124420000Y-73943000D03*
X121120000Y-73943000D03*
D12*
X118770000Y-73943000D03*
%TD*%
D10*
%TO.C,D35*%
X145820000Y-106543000D03*
D11*
X143470000Y-106543000D03*
X140170000Y-106543000D03*
D12*
X137820000Y-106543000D03*
%TD*%
D19*
%TO.C,H23*%
X84759340Y-54439339D03*
X84759340Y-56560660D03*
D20*
X85820000Y-55500000D03*
D19*
X86880660Y-54439339D03*
X86880660Y-56560660D03*
%TD*%
D10*
%TO.C,D43*%
X183920000Y-126593000D03*
D11*
X181570000Y-126593000D03*
X178270000Y-126593000D03*
D12*
X175920000Y-126593000D03*
%TD*%
D13*
%TO.C,SW0*%
X245150000Y-65868000D03*
D14*
X243880000Y-68408000D03*
X242610000Y-70948000D03*
D15*
X240070000Y-65868000D03*
D14*
X237530000Y-70948000D03*
X236260000Y-68408000D03*
D13*
X234990000Y-65868000D03*
D16*
X233070000Y-68448000D03*
D17*
X245770000Y-70988000D03*
%TD*%
D13*
%TO.C,SW58*%
X82606250Y-147068000D03*
D14*
X81336250Y-149608000D03*
X80066250Y-152148000D03*
D15*
X77526250Y-147068000D03*
D14*
X74986250Y-152148000D03*
X73716250Y-149608000D03*
D13*
X72446250Y-147068000D03*
D16*
X70526250Y-149648000D03*
D17*
X83226250Y-152188000D03*
%TD*%
D10*
%TO.C,D45*%
X145820000Y-125593000D03*
D11*
X143470000Y-125593000D03*
X140170000Y-125593000D03*
D12*
X137820000Y-125593000D03*
%TD*%
D13*
%TO.C,SW3*%
X185000000Y-33818000D03*
D14*
X183730000Y-36358000D03*
X182460000Y-38898000D03*
D15*
X179920000Y-33818000D03*
D14*
X177380000Y-38898000D03*
X176110000Y-36358000D03*
D13*
X174840000Y-33818000D03*
D16*
X172920000Y-36398000D03*
D17*
X185620000Y-38938000D03*
%TD*%
D21*
%TO.C,J10*%
X174220000Y-131390000D03*
D22*
X176760000Y-131390000D03*
X179300000Y-131390000D03*
X181840000Y-131390000D03*
X184380000Y-131390000D03*
%TD*%
D10*
%TO.C,D22*%
X202970000Y-90993000D03*
D11*
X200620000Y-90993000D03*
X197320000Y-90993000D03*
D12*
X194970000Y-90993000D03*
%TD*%
D10*
%TO.C,D48_RH10*%
X63840000Y-106940000D03*
D11*
X61490000Y-106940000D03*
X58190000Y-106940000D03*
D12*
X55840000Y-106940000D03*
%TD*%
D13*
%TO.C,SW36*%
X127850000Y-103468000D03*
D14*
X126580000Y-106008000D03*
X125310000Y-108548000D03*
D15*
X122770000Y-103468000D03*
D14*
X120230000Y-108548000D03*
X118960000Y-106008000D03*
D13*
X117690000Y-103468000D03*
D16*
X115770000Y-106048000D03*
D17*
X128470000Y-108588000D03*
%TD*%
D10*
%TO.C,D20*%
X244070000Y-112543000D03*
D11*
X241720000Y-112543000D03*
X238420000Y-112543000D03*
D12*
X236070000Y-112543000D03*
%TD*%
D13*
%TO.C,SW40*%
X241216387Y-147015680D03*
D14*
X239605247Y-149354211D03*
X237994107Y-151692742D03*
D15*
X236185825Y-146308681D03*
D14*
X232963545Y-150985743D03*
X232059404Y-148293712D03*
D13*
X231155263Y-145601682D03*
D29*
X228894882Y-147889361D03*
D30*
X241117787Y-152172140D03*
%TD*%
D13*
%TO.C,SW25*%
X146900000Y-78918000D03*
D14*
X145630000Y-81458000D03*
X144360000Y-83998000D03*
D15*
X141820000Y-78918000D03*
D14*
X139280000Y-83998000D03*
X138010000Y-81458000D03*
D13*
X136740000Y-78918000D03*
D16*
X134820000Y-81498000D03*
D17*
X147520000Y-84038000D03*
%TD*%
D13*
%TO.C,SW38_RH10*%
X89750000Y-89918000D03*
D37*
X89170000Y-89918000D03*
D14*
X87210000Y-94998000D03*
D15*
X84670000Y-89918000D03*
D14*
X80860000Y-92458001D03*
D37*
X80170000Y-89918000D03*
D13*
X79590000Y-89918000D03*
D16*
X77670000Y-92498000D03*
X90370000Y-95038000D03*
%TD*%
D18*
%TO.C,REF\u002A\u002A*%
X65373742Y-131647542D03*
X65105359Y-132888860D03*
X64836977Y-134130178D03*
X64568595Y-135371496D03*
X64300212Y-136612814D03*
%TD*%
D10*
%TO.C,D38_RH10*%
X81980000Y-98540000D03*
D11*
X79630000Y-98540000D03*
X76330000Y-98540000D03*
D12*
X73980000Y-98540000D03*
%TD*%
D19*
%TO.C,H13*%
X76758680Y-102430000D03*
X76758680Y-104551321D03*
D20*
X77819340Y-103490661D03*
D19*
X78880000Y-102430000D03*
X78880000Y-104551321D03*
%TD*%
D10*
%TO.C,D14*%
X167100000Y-65330000D03*
D11*
X164750000Y-65330000D03*
X161450000Y-65330000D03*
D12*
X159100000Y-65330000D03*
%TD*%
D36*
%TO.C,REF\u002A\u002A*%
X66990000Y-119440000D03*
%TD*%
D19*
%TO.C,H21*%
X246008680Y-115088679D03*
X246008680Y-117210000D03*
D20*
X247069340Y-116149340D03*
D19*
X248130000Y-115088679D03*
X248130000Y-117210000D03*
%TD*%
D13*
%TO.C,SW32*%
X204050000Y-101468000D03*
D14*
X202780000Y-104008000D03*
X201510000Y-106548000D03*
D15*
X198970000Y-101468000D03*
D14*
X196430000Y-106548000D03*
X195160000Y-104008000D03*
D13*
X193890000Y-101468000D03*
D16*
X191970000Y-104048000D03*
D17*
X204670000Y-106588000D03*
%TD*%
D10*
%TO.C,D31*%
X222020000Y-112543000D03*
D11*
X219670000Y-112543000D03*
X216370000Y-112543000D03*
D12*
X214020000Y-112543000D03*
%TD*%
D13*
%TO.C,SW11*%
X223100000Y-65868000D03*
D14*
X221830000Y-68408000D03*
X220560000Y-70948000D03*
D15*
X218020000Y-65868000D03*
D14*
X215480000Y-70948000D03*
X214210000Y-68408000D03*
D13*
X212940000Y-65868000D03*
D16*
X211020000Y-68448000D03*
D17*
X223720000Y-70988000D03*
%TD*%
D19*
%TO.C,H20*%
X240208680Y-51150000D03*
X240208680Y-53271321D03*
D20*
X241269340Y-52210661D03*
D19*
X242330000Y-51150000D03*
X242330000Y-53271321D03*
%TD*%
D13*
%TO.C,SW54*%
X155790000Y-132068000D03*
D14*
X157060000Y-129528000D03*
X158330000Y-126988000D03*
D15*
X160870000Y-132068000D03*
D14*
X163410000Y-126988000D03*
X164680000Y-129528000D03*
D13*
X165950000Y-132068000D03*
D16*
X167870000Y-129488000D03*
D23*
X155170000Y-126948000D03*
%TD*%
D10*
%TO.C,D44*%
X164870000Y-121593000D03*
D11*
X162520000Y-121593000D03*
X159220000Y-121593000D03*
D12*
X156870000Y-121593000D03*
%TD*%
D25*
%TO.C,D52*%
X199701072Y-159456692D03*
D26*
X197373942Y-159129636D03*
X194106058Y-158670364D03*
D12*
X191778928Y-158343308D03*
%TD*%
D10*
%TO.C,D36*%
X126770000Y-112043000D03*
D11*
X124420000Y-112043000D03*
X121120000Y-112043000D03*
D12*
X118770000Y-112043000D03*
%TD*%
D32*
%TO.C,SW48_RH10*%
X60825750Y-100713000D03*
D48*
X60825750Y-115953000D03*
D31*
X67683750Y-108968000D03*
X67683750Y-108968000D03*
D14*
X68953750Y-111508000D03*
D32*
X72763750Y-108968000D03*
X72763750Y-108968000D03*
D14*
X75303750Y-114048000D03*
D31*
X77843750Y-108968000D03*
X77843750Y-108968000D03*
D32*
X84701750Y-100713000D03*
D48*
X84701750Y-115953000D03*
D49*
X65678750Y-111508000D03*
D34*
X78605750Y-114048000D03*
%TD*%
D19*
%TO.C,H15*%
X41630000Y-83808679D03*
X41630000Y-85930000D03*
D20*
X42690660Y-84869340D03*
D19*
X43751320Y-83808679D03*
X43751320Y-85930000D03*
%TD*%
D36*
%TO.C,REF\u002A\u002A*%
X72273112Y-95004640D03*
%TD*%
D44*
%TO.C,REF\u002A\u002A*%
X207406543Y-163892992D03*
D32*
X222498228Y-166013990D03*
D44*
X210720602Y-140312234D03*
D32*
X225812288Y-142433232D03*
%TD*%
D10*
%TO.C,D41*%
X222050000Y-133490000D03*
D11*
X219700000Y-133490000D03*
X216400000Y-133490000D03*
D12*
X214050000Y-133490000D03*
%TD*%
D10*
%TO.C,D28_RH10*%
X63680000Y-104120000D03*
D11*
X61330000Y-104120000D03*
X58030000Y-104120000D03*
D12*
X55680000Y-104120000D03*
%TD*%
D19*
%TO.C,H11*%
X178279340Y-134409339D03*
X178279340Y-136530660D03*
D20*
X179340000Y-135470000D03*
D19*
X180400660Y-134409339D03*
X180400660Y-136530660D03*
%TD*%
D32*
%TO.C,SW08_RH10*%
X44157000Y-62613000D03*
D48*
X44157000Y-77853000D03*
D31*
X51015000Y-70868000D03*
X51015000Y-70868000D03*
D14*
X52285000Y-73408000D03*
D32*
X56095000Y-70868000D03*
X56095000Y-70868000D03*
D14*
X58635000Y-75948000D03*
D31*
X61175000Y-70868000D03*
X61175000Y-70868000D03*
D32*
X68033000Y-62613000D03*
D48*
X68033000Y-77853000D03*
D49*
X49010000Y-73408000D03*
D34*
X61937000Y-75948000D03*
%TD*%
D10*
%TO.C,D23*%
X183920000Y-88493000D03*
D11*
X181570000Y-88493000D03*
X178270000Y-88493000D03*
D12*
X175920000Y-88493000D03*
%TD*%
D24*
%TO.C,H8*%
X40680000Y-70420000D03*
%TD*%
D10*
%TO.C,D18_RH10*%
X88670000Y-81230000D03*
D11*
X86320000Y-81230000D03*
X83020000Y-81230000D03*
D12*
X80670000Y-81230000D03*
%TD*%
D24*
%TO.C,H9*%
X89490000Y-140600000D03*
%TD*%
D10*
%TO.C,D08_RH10*%
X60095000Y-79443000D03*
D11*
X57745000Y-79443000D03*
X54445000Y-79443000D03*
D12*
X52095000Y-79443000D03*
%TD*%
D25*
%TO.C,D30*%
X241501072Y-136496692D03*
D26*
X239173942Y-136169636D03*
X235906058Y-135710364D03*
D12*
X233578928Y-135383308D03*
%TD*%
D13*
%TO.C,SW45*%
X146900000Y-117018000D03*
D14*
X145630000Y-119558000D03*
X144360000Y-122098000D03*
D15*
X141820000Y-117018000D03*
D14*
X139280000Y-122098000D03*
X138010000Y-119558000D03*
D13*
X136740000Y-117018000D03*
D16*
X134820000Y-119598000D03*
D17*
X147520000Y-122138000D03*
%TD*%
D13*
%TO.C,SW51*%
X221026157Y-153796736D03*
D14*
X219415017Y-156135267D03*
X217803877Y-158473798D03*
D15*
X215995595Y-153089737D03*
D14*
X212773315Y-157766799D03*
X211869174Y-155074768D03*
D13*
X210965033Y-152382738D03*
D29*
X208704652Y-154670417D03*
D30*
X220927557Y-158953196D03*
%TD*%
D13*
%TO.C,SW23*%
X185000000Y-79918000D03*
D14*
X183730000Y-82458000D03*
X182460000Y-84998000D03*
D15*
X179920000Y-79918000D03*
D14*
X177380000Y-84998000D03*
X176110000Y-82458000D03*
D13*
X174840000Y-79918000D03*
D16*
X172920000Y-82498000D03*
D17*
X185620000Y-85038000D03*
%TD*%
D13*
%TO.C,SW13*%
X185000000Y-60868000D03*
D14*
X183730000Y-63408000D03*
X182460000Y-65948000D03*
D15*
X179920000Y-60868000D03*
D14*
X177380000Y-65948000D03*
X176110000Y-63408000D03*
D13*
X174840000Y-60868000D03*
D16*
X172920000Y-63448000D03*
D17*
X185620000Y-65988000D03*
%TD*%
D31*
%TO.C,SW28_RH10*%
X55777500Y-89918000D03*
X55777500Y-89918000D03*
D14*
X57047500Y-92458000D03*
D32*
X60857500Y-89918000D03*
X60857500Y-89918000D03*
D14*
X63397500Y-94998000D03*
D31*
X65937500Y-89918000D03*
X65937500Y-89918000D03*
D49*
X53772500Y-92458000D03*
D34*
X66699500Y-94998000D03*
%TD*%
D13*
%TO.C,SW33*%
X185000000Y-98968000D03*
D14*
X183730000Y-101508000D03*
X182460000Y-104048000D03*
D15*
X179920000Y-98968000D03*
D14*
X177380000Y-104048000D03*
X176110000Y-101508000D03*
D13*
X174840000Y-98968000D03*
D16*
X172920000Y-101548000D03*
D17*
X185620000Y-104088000D03*
%TD*%
D13*
%TO.C,SW12*%
X204050000Y-63368000D03*
D14*
X202780000Y-65908000D03*
X201510000Y-68448000D03*
D15*
X198970000Y-63368000D03*
D14*
X196430000Y-68448000D03*
X195160000Y-65908000D03*
D13*
X193890000Y-63368000D03*
D16*
X191970000Y-65948000D03*
D17*
X204670000Y-68488000D03*
%TD*%
D10*
%TO.C,D10*%
X244070000Y-93493000D03*
D11*
X241720000Y-93493000D03*
X238420000Y-93493000D03*
D12*
X236070000Y-93493000D03*
%TD*%
D10*
%TO.C,D57*%
X105338750Y-155643000D03*
D11*
X102988750Y-155643000D03*
X99688750Y-155643000D03*
D12*
X97338750Y-155643000D03*
%TD*%
D32*
%TO.C,SW47*%
X75113250Y-119763000D03*
D48*
X75113250Y-135003000D03*
D32*
X79875750Y-119763000D03*
D48*
X79875750Y-135003000D03*
D31*
X81971250Y-128018000D03*
X81971250Y-128018000D03*
D14*
X83241250Y-130558000D03*
D31*
X86733750Y-128018000D03*
X86733750Y-128018000D03*
D32*
X87051250Y-128018000D03*
X87051250Y-128018000D03*
D14*
X89273750Y-133098000D03*
X89591250Y-133098000D03*
D32*
X91813750Y-128018000D03*
X91813750Y-128018000D03*
D31*
X92131250Y-128018000D03*
X92131250Y-128018000D03*
D14*
X95623750Y-130558000D03*
D31*
X96893750Y-128018000D03*
X96893750Y-128018000D03*
D32*
X98989250Y-119763000D03*
D48*
X98989250Y-135003000D03*
D32*
X103751750Y-119763000D03*
D48*
X103751750Y-135003000D03*
D49*
X79966250Y-130558000D03*
D19*
X80944724Y-130558000D03*
D50*
X92893250Y-133098000D03*
D19*
X97921250Y-130473550D03*
%TD*%
%TO.C,H14*%
X56218680Y-121358679D03*
X56218680Y-123480000D03*
D20*
X57279340Y-122419340D03*
D19*
X58340000Y-121358679D03*
X58340000Y-123480000D03*
%TD*%
D25*
%TO.C,D53*%
X199322532Y-161786692D03*
D26*
X196995402Y-161459636D03*
X193727518Y-161000364D03*
D12*
X191400388Y-160673308D03*
%TD*%
D51*
%TO.C,SWLH_ROT1*%
X223620000Y-123018000D03*
X212420000Y-123018000D03*
D52*
X215520000Y-115518000D03*
D53*
X220520000Y-115518000D03*
X218020000Y-115518000D03*
X220520000Y-130018000D03*
X215520000Y-130018000D03*
%TD*%
D54*
%TO.C,SW18*%
X157546125Y-154917097D03*
D55*
X180626090Y-167164186D03*
D19*
X131220000Y-137420001D03*
X132280000Y-136980000D03*
X130780000Y-138480000D03*
X133340000Y-137420000D03*
D20*
X132280000Y-138480000D03*
D19*
X131220000Y-139540000D03*
X133780000Y-138480000D03*
X132280000Y-139980000D03*
X133339999Y-139540000D03*
X127100001Y-160560000D03*
X128160000Y-160120000D03*
X126660000Y-161620000D03*
X129220000Y-160560000D03*
D20*
X128160000Y-161620000D03*
D19*
X127100000Y-162680000D03*
X129660000Y-161620000D03*
X128160000Y-163120000D03*
X129220000Y-162680000D03*
X184130000Y-141700000D03*
X185190000Y-141260001D03*
X183690000Y-142760000D03*
X186250000Y-141700000D03*
D20*
X185190000Y-142760000D03*
D19*
X184130000Y-143820000D03*
X186690000Y-142760000D03*
X185190000Y-144260000D03*
X186250000Y-143820000D03*
%TD*%
D56*
%TO.C,Q1*%
X93110000Y-54900000D03*
D57*
X109770000Y-52360000D03*
D58*
X109770000Y-54900000D03*
X109770000Y-57440000D03*
%TD*%
D12*
%TO.C,U11*%
X169760000Y-24818000D03*
X169760000Y-27358000D03*
D10*
X169760000Y-29898000D03*
D12*
X169760000Y-32438000D03*
X169760000Y-34978000D03*
X169760000Y-37518000D03*
X169760000Y-40058000D03*
D10*
X169760000Y-42598000D03*
D12*
X169760000Y-45138000D03*
X169760000Y-47678000D03*
X169760000Y-50218000D03*
X169760000Y-52758000D03*
D10*
X169760000Y-55298000D03*
D12*
X169760000Y-57838000D03*
X169760000Y-60378000D03*
X169760000Y-62918000D03*
X169760000Y-65458000D03*
D10*
X169760000Y-67998000D03*
D12*
X169760000Y-70538000D03*
X169760000Y-73078000D03*
X151980000Y-73078000D03*
X151980000Y-70538000D03*
D10*
X151980000Y-67998000D03*
D12*
X151980000Y-65458000D03*
X151980000Y-62918000D03*
X151980000Y-60378000D03*
X151980000Y-57838000D03*
D10*
X151980000Y-55298000D03*
D12*
X151980000Y-52758000D03*
X151980000Y-50218000D03*
X151980000Y-47678000D03*
X151980000Y-45138000D03*
D10*
X151980000Y-42598000D03*
D12*
X151980000Y-40058000D03*
X151980000Y-37518000D03*
X151980000Y-34978000D03*
X151980000Y-32438000D03*
D10*
X151980000Y-29898000D03*
D12*
X151980000Y-27358000D03*
X151980000Y-24818000D03*
%TD*%
D21*
%TO.C,J_SOL_1*%
X113785000Y-52640000D03*
D22*
X116325000Y-52640000D03*
%TD*%
D13*
%TO.C,SW53*%
X176565165Y-159892031D03*
D14*
X179257195Y-158987890D03*
X181949226Y-158083749D03*
D15*
X177272164Y-154861469D03*
D14*
X182656225Y-153053187D03*
X180317694Y-151442047D03*
D13*
X177979163Y-149830907D03*
D59*
X183135623Y-149929507D03*
D60*
X178852844Y-162152412D03*
%TD*%
D61*
%TO.C,R2*%
X91110000Y-46830000D03*
D62*
X103810000Y-46830000D03*
%TD*%
M02*
