M48
; DRILL file {KiCad 7.0.5-0} date 2023 July 26, Wednesday 18:11:15
; FORMAT={-:-/ absolute / metric / decimal}
; #@! TF.CreationDate,2023-07-26T18:11:15-07:00
; #@! TF.GenerationSoftware,Kicad,Pcbnew,7.0.5-0
; #@! TF.FileFunction,NonPlated,1,2,NPTH
FMAT,2
METRIC
; #@! TA.AperFunction,NonPlated,NPTH,ComponentDrill
T1C0.750
; #@! TA.AperFunction,NonPlated,NPTH,ComponentDrill
T2C1.000
; #@! TA.AperFunction,NonPlated,NPTH,ComponentDrill
T3C1.200
; #@! TA.AperFunction,NonPlated,NPTH,ComponentDrill
T4C1.500
; #@! TA.AperFunction,NonPlated,NPTH,ComponentDrill
T5C1.700
; #@! TA.AperFunction,NonPlated,NPTH,ComponentDrill
T6C1.750
; #@! TA.AperFunction,NonPlated,NPTH,ComponentDrill
T7C1.900
; #@! TA.AperFunction,NonPlated,NPTH,ComponentDrill
T8C2.200
; #@! TA.AperFunction,NonPlated,NPTH,ComponentDrill
T9C3.000
; #@! TA.AperFunction,NonPlated,NPTH,ComponentDrill
T10C3.048
; #@! TA.AperFunction,NonPlated,NPTH,ComponentDrill
T11C3.500
; #@! TA.AperFunction,NonPlated,NPTH,ComponentDrill
T12C3.988
; #@! TA.AperFunction,NonPlated,NPTH,ComponentDrill
T13C4.100
; #@! TA.AperFunction,NonPlated,NPTH,ComponentDrill
T14C40.600
%
G90
G05
T1
X64.3Y-136.613
X64.569Y-135.371
X64.837Y-134.13
X65.105Y-132.889
X65.374Y-131.648
X75.906Y-82.934
X76.174Y-81.693
X76.443Y-80.452
X76.711Y-79.211
X87.274Y-30.356
X87.542Y-29.114
X87.811Y-27.873
X88.079Y-26.632
T3
X235.672Y-44.856
X236.531Y-46.381
X241.77Y-41.42
X242.629Y-42.945
T5
X80.17Y-89.918
X84.67Y-66.368
X84.67Y-75.368
X89.17Y-89.918
T6
X51.015Y-70.868
X51.015Y-70.868
X55.777Y-89.918
X55.777Y-89.918
X61.175Y-70.868
X61.175Y-70.868
X65.938Y-89.918
X65.938Y-89.918
X67.684Y-108.968
X67.684Y-108.968
X77.844Y-108.968
X77.844Y-108.968
X81.971Y-128.018
X81.971Y-128.018
X86.734Y-128.018
X86.734Y-128.018
X91.496Y-108.968
X91.496Y-108.968
X92.131Y-128.018
X92.131Y-128.018
X93.877Y-89.918
X93.877Y-89.918
X96.894Y-128.018
X96.894Y-128.018
X98.64Y-89.918
X98.64Y-89.918
X98.64Y-108.968
X98.64Y-108.968
X101.656Y-108.968
X101.656Y-108.968
X104.037Y-89.918
X104.037Y-89.918
X108.8Y-89.918
X108.8Y-89.918
X108.8Y-108.968
X108.8Y-108.968
T7
X72.446Y-147.068
X79.59Y-89.918
X82.606Y-147.068
X84.67Y-65.788
X84.67Y-75.948
X89.75Y-89.918
X94.64Y-33.818
X96.259Y-147.068
X98.64Y-70.868
X104.8Y-33.818
X106.419Y-147.068
X108.8Y-70.868
X117.69Y-33.818
X117.69Y-65.368
X117.69Y-84.418
X117.69Y-103.468
X117.69Y-122.518
X117.69Y-141.568
X127.85Y-33.818
X127.85Y-65.368
X127.85Y-84.418
X127.85Y-103.468
X127.85Y-122.518
X127.85Y-141.568
X136.74Y-33.818
X136.74Y-59.868
X136.74Y-78.918
X136.74Y-97.968
X136.74Y-117.018
X136.74Y-136.068
X146.9Y-33.818
X146.9Y-59.868
X146.9Y-78.918
X146.9Y-97.968
X146.9Y-117.018
X146.9Y-136.068
X155.79Y-93.968
X155.79Y-113.018
X155.79Y-132.068
X160.87Y-28.738
X160.87Y-38.898
X160.87Y-50.788
X160.87Y-60.948
X160.87Y-69.838
X160.87Y-79.998
X165.95Y-93.968
X165.95Y-113.018
X165.95Y-132.068
X174.84Y-33.818
X174.84Y-60.868
X174.84Y-79.918
X174.84Y-98.968
X174.84Y-118.018
X176.565Y-159.892
X177.979Y-149.831
X185.0Y-33.818
X185.0Y-60.868
X185.0Y-79.918
X185.0Y-98.968
X185.0Y-118.018
X192.101Y-149.732
X193.89Y-63.368
X193.89Y-82.418
X193.89Y-101.468
X193.89Y-120.518
X197.89Y-33.818
X202.162Y-151.146
X204.05Y-63.368
X204.05Y-82.418
X204.05Y-101.468
X204.05Y-120.518
X208.05Y-33.818
X210.965Y-152.383
X212.94Y-65.868
X212.94Y-84.918
X212.94Y-103.968
X216.94Y-33.818
X221.026Y-153.797
X223.1Y-65.868
X223.1Y-84.918
X223.1Y-103.968
X227.1Y-33.818
X228.504Y-164.466
X231.155Y-145.602
X233.807Y-126.737
X234.99Y-65.868
X234.99Y-84.918
X234.99Y-103.968
X238.565Y-165.88
X241.216Y-147.016
X243.868Y-128.151
X245.15Y-65.868
X245.15Y-84.918
X245.15Y-103.968
T8
X180.626Y-167.164
X210.843Y-46.0
X210.843Y-52.0
X214.843Y-50.5
X216.843Y-47.5
X220.843Y-46.0
X220.843Y-51.975
T9
X52.285Y-73.408
X57.047Y-92.458
X58.635Y-75.948
X63.397Y-94.998
X68.954Y-111.508
X73.716Y-149.608
X74.986Y-152.148
X75.304Y-114.048
X80.066Y-152.148
X80.86Y-92.458
X81.336Y-149.608
X83.241Y-130.558
X87.21Y-94.998
X87.21Y-74.678
X89.274Y-133.098
X89.591Y-133.098
X89.75Y-68.328
X94.036Y-114.048
X95.624Y-130.558
X95.91Y-36.358
X96.417Y-94.998
X97.18Y-38.898
X97.529Y-149.608
X98.799Y-152.148
X99.91Y-73.408
X99.91Y-92.458
X99.91Y-111.508
X100.386Y-111.508
X101.18Y-75.948
X102.26Y-38.898
X102.767Y-92.458
X103.53Y-36.358
X103.879Y-152.148
X105.149Y-149.608
X106.26Y-75.948
X106.26Y-94.998
X106.26Y-114.048
X107.53Y-73.408
X118.96Y-36.358
X118.96Y-67.908
X118.96Y-86.958
X118.96Y-106.008
X118.96Y-125.058
X118.96Y-144.108
X120.23Y-38.898
X120.23Y-70.448
X120.23Y-89.498
X120.23Y-108.548
X120.23Y-127.598
X120.23Y-146.648
X125.31Y-38.898
X125.31Y-70.448
X125.31Y-89.498
X125.31Y-108.548
X125.31Y-127.598
X125.31Y-146.648
X126.58Y-36.358
X126.58Y-67.908
X126.58Y-86.958
X126.58Y-106.008
X126.58Y-125.058
X126.58Y-144.108
X138.01Y-36.358
X138.01Y-62.408
X138.01Y-81.458
X138.01Y-100.508
X138.01Y-119.558
X138.01Y-133.528
X139.28Y-38.898
X139.28Y-64.948
X139.28Y-83.998
X139.28Y-103.048
X139.28Y-122.098
X139.28Y-130.988
X144.36Y-38.898
X144.36Y-64.948
X144.36Y-83.998
X144.36Y-103.048
X144.36Y-122.098
X144.36Y-130.988
X145.63Y-36.358
X145.63Y-62.408
X145.63Y-81.458
X145.63Y-100.508
X145.63Y-119.558
X145.63Y-133.528
X157.06Y-96.508
X157.06Y-115.558
X157.06Y-129.528
X158.33Y-99.048
X158.33Y-118.098
X158.33Y-126.988
X163.41Y-30.008
X163.41Y-37.628
X163.41Y-52.058
X163.41Y-59.678
X163.41Y-71.108
X163.41Y-78.728
X163.41Y-99.048
X163.41Y-118.098
X163.41Y-126.988
X164.68Y-96.508
X164.68Y-115.558
X164.68Y-129.528
X165.95Y-31.278
X165.95Y-36.358
X165.95Y-53.328
X165.95Y-58.408
X165.95Y-72.378
X165.95Y-77.458
X176.11Y-36.358
X176.11Y-63.408
X176.11Y-82.458
X176.11Y-101.508
X176.11Y-120.558
X177.38Y-38.898
X177.38Y-65.948
X177.38Y-84.998
X177.38Y-104.048
X177.38Y-123.098
X179.257Y-158.988
X180.318Y-151.442
X181.949Y-158.084
X182.46Y-38.898
X182.46Y-65.948
X182.46Y-84.998
X182.46Y-104.048
X182.46Y-123.098
X182.656Y-153.053
X183.73Y-36.358
X183.73Y-63.408
X183.73Y-82.458
X183.73Y-101.508
X183.73Y-120.558
X193.005Y-152.424
X193.909Y-155.116
X195.16Y-65.908
X195.16Y-84.958
X195.16Y-104.008
X195.16Y-123.058
X196.43Y-68.448
X196.43Y-87.498
X196.43Y-106.548
X196.43Y-125.598
X198.94Y-155.823
X199.16Y-36.358
X200.43Y-38.898
X200.551Y-153.485
X201.51Y-68.448
X201.51Y-87.498
X201.51Y-106.548
X201.51Y-125.598
X202.78Y-65.908
X202.78Y-84.958
X202.78Y-104.008
X202.78Y-123.058
X205.51Y-38.898
X206.78Y-36.358
X211.869Y-155.075
X212.773Y-157.767
X214.21Y-68.408
X214.21Y-87.458
X214.21Y-106.508
X215.48Y-70.948
X215.48Y-89.998
X215.48Y-109.048
X217.804Y-158.474
X218.21Y-36.358
X219.415Y-156.135
X219.48Y-38.898
X220.56Y-70.948
X220.56Y-89.998
X220.56Y-109.048
X221.83Y-68.408
X221.83Y-87.458
X221.83Y-106.508
X224.56Y-38.898
X225.83Y-36.358
X229.408Y-167.158
X230.312Y-169.85
X232.059Y-148.294
X232.964Y-150.986
X234.711Y-129.429
X235.343Y-170.557
X235.615Y-132.121
X236.26Y-68.408
X236.26Y-87.458
X236.26Y-106.508
X236.954Y-168.219
X237.53Y-70.948
X237.53Y-89.998
X237.53Y-109.048
X237.994Y-151.693
X239.605Y-149.354
X240.645Y-132.828
X242.256Y-130.49
X242.61Y-70.948
X242.61Y-89.998
X242.61Y-109.048
X243.88Y-68.408
X243.88Y-87.458
X243.88Y-106.508
T10
X44.157Y-77.853
X60.826Y-115.953
X68.033Y-77.853
X75.113Y-135.003
X79.876Y-135.003
X84.702Y-115.953
X98.989Y-135.003
X103.752Y-135.003
T11
X93.11Y-54.9
T12
X44.157Y-62.613
X56.095Y-70.868
X56.095Y-70.868
X60.826Y-100.713
X60.857Y-89.918
X60.857Y-89.918
X68.033Y-62.613
X72.764Y-108.968
X72.764Y-108.968
X75.113Y-119.763
X79.876Y-119.763
X84.702Y-100.713
X87.051Y-128.018
X87.051Y-128.018
X91.814Y-128.018
X91.814Y-128.018
X96.576Y-108.968
X96.576Y-108.968
X98.957Y-89.918
X98.957Y-89.918
X98.989Y-119.763
X103.72Y-89.918
X103.72Y-89.918
X103.72Y-108.968
X103.72Y-108.968
X103.752Y-119.763
X187.285Y-161.066
X190.599Y-137.485
X222.498Y-166.014
X225.812Y-142.433
T13
X77.526Y-147.068
X84.67Y-70.868
X84.67Y-89.918
X99.72Y-33.818
X101.339Y-147.068
X103.72Y-70.868
X122.77Y-33.818
X122.77Y-65.368
X122.77Y-84.418
X122.77Y-103.468
X122.77Y-122.518
X122.77Y-141.568
X141.82Y-33.818
X141.82Y-59.868
X141.82Y-78.918
X141.82Y-97.968
X141.82Y-117.018
X141.82Y-136.068
X160.87Y-33.818
X160.87Y-55.868
X160.87Y-74.918
X160.87Y-93.968
X160.87Y-113.018
X160.87Y-132.068
X177.272Y-154.861
X179.92Y-33.818
X179.92Y-60.868
X179.92Y-79.918
X179.92Y-98.968
X179.92Y-118.018
X197.132Y-150.439
X198.97Y-63.368
X198.97Y-82.418
X198.97Y-101.468
X198.97Y-120.518
X202.97Y-33.818
X215.996Y-153.09
X218.02Y-65.868
X218.02Y-84.918
X218.02Y-103.968
X222.02Y-33.818
X233.535Y-165.173
X236.186Y-146.309
X238.837Y-127.444
X240.07Y-65.868
X240.07Y-84.918
X240.07Y-103.968
T14
X157.546Y-154.917
T2
X69.42Y-108.2G85X64.56Y-130.68
G05
X74.703Y-83.764G85X69.843Y-106.245
G05
X80.811Y-55.517G85X75.95Y-77.998
G05
X86.094Y-31.082G85X81.233Y-53.562
G05
T4
X212.42Y-122.368G85X212.42Y-123.668
G05
X223.62Y-122.368G85X223.62Y-123.668
G05
T0
M30
