%TF.GenerationSoftware,KiCad,Pcbnew,7.0.5-0*%
%TF.CreationDate,2023-07-26T18:11:08-07:00*%
%TF.ProjectId,ergodonk_simple,6572676f-646f-46e6-9b5f-73696d706c65,rev?*%
%TF.SameCoordinates,Original*%
%TF.FileFunction,Paste,Bot*%
%TF.FilePolarity,Positive*%
%FSLAX46Y46*%
G04 Gerber Fmt 4.6, Leading zero omitted, Abs format (unit mm)*
G04 Created by KiCad (PCBNEW 7.0.5-0) date 2023-07-26 18:11:08*
%MOMM*%
%LPD*%
G01*
G04 APERTURE LIST*
G04 Aperture macros list*
%AMRoundRect*
0 Rectangle with rounded corners*
0 $1 Rounding radius*
0 $2 $3 $4 $5 $6 $7 $8 $9 X,Y pos of 4 corners*
0 Add a 4 corners polygon primitive as box body*
4,1,4,$2,$3,$4,$5,$6,$7,$8,$9,$2,$3,0*
0 Add four circle primitives for the rounded corners*
1,1,$1+$1,$2,$3*
1,1,$1+$1,$4,$5*
1,1,$1+$1,$6,$7*
1,1,$1+$1,$8,$9*
0 Add four rect primitives between the rounded corners*
20,1,$1+$1,$2,$3,$4,$5,0*
20,1,$1+$1,$4,$5,$6,$7,0*
20,1,$1+$1,$6,$7,$8,$9,0*
20,1,$1+$1,$8,$9,$2,$3,0*%
%AMRotRect*
0 Rectangle, with rotation*
0 The origin of the aperture is its center*
0 $1 length*
0 $2 width*
0 $3 Rotation angle, in degrees counterclockwise*
0 Add horizontal line*
21,1,$1,$2,0,0,$3*%
%AMOutline5P*
0 Free polygon, 5 corners , with rotation*
0 The origin of the aperture is its center*
0 number of corners: always 5*
0 $1 to $10 corner X, Y*
0 $11 Rotation angle, in degrees counterclockwise*
0 create outline with 5 corners*
4,1,5,$1,$2,$3,$4,$5,$6,$7,$8,$9,$10,$1,$2,$11*%
%AMOutline6P*
0 Free polygon, 6 corners , with rotation*
0 The origin of the aperture is its center*
0 number of corners: always 6*
0 $1 to $12 corner X, Y*
0 $13 Rotation angle, in degrees counterclockwise*
0 create outline with 6 corners*
4,1,6,$1,$2,$3,$4,$5,$6,$7,$8,$9,$10,$11,$12,$1,$2,$13*%
%AMOutline7P*
0 Free polygon, 7 corners , with rotation*
0 The origin of the aperture is its center*
0 number of corners: always 7*
0 $1 to $14 corner X, Y*
0 $15 Rotation angle, in degrees counterclockwise*
0 create outline with 7 corners*
4,1,7,$1,$2,$3,$4,$5,$6,$7,$8,$9,$10,$11,$12,$13,$14,$1,$2,$15*%
%AMOutline8P*
0 Free polygon, 8 corners , with rotation*
0 The origin of the aperture is its center*
0 number of corners: always 8*
0 $1 to $16 corner X, Y*
0 $17 Rotation angle, in degrees counterclockwise*
0 create outline with 8 corners*
4,1,8,$1,$2,$3,$4,$5,$6,$7,$8,$9,$10,$11,$12,$13,$14,$15,$16,$1,$2,$17*%
%AMFreePoly0*
4,1,13,-1.275000,1.250000,1.025000,1.250000,1.120671,1.230970,1.201777,1.176777,1.255970,1.095671,1.275000,1.000000,1.275000,-1.000000,1.255970,-1.095671,1.201777,-1.176777,1.120671,-1.230970,1.025000,-1.250000,-1.275000,-1.250000,-1.275000,1.250000,-1.275000,1.250000,$1*%
%AMFreePoly1*
4,1,45,-2.350546,3.017063,-2.284035,2.961254,-2.240623,2.886062,-2.225546,2.800557,-2.225546,2.671364,-2.191820,2.415189,-2.124944,2.165607,-2.026064,1.926890,-1.896872,1.703121,-1.739576,1.498130,-1.556870,1.315424,-1.351879,1.158128,-1.128110,1.028936,-1.079346,1.008737,-1.073000,1.010000,1.073000,1.010000,1.150302,0.994624,1.215836,0.950836,1.259624,0.885302,1.275000,0.808000,
1.275000,-0.303000,0.568000,-1.010000,0.000000,-1.010000,-1.073000,-1.010000,-1.150302,-0.994624,-1.215836,-0.950836,-1.259624,-0.885302,-1.275000,-0.808000,-1.275000,0.554976,-1.402822,0.612504,-1.658189,0.766879,-1.893087,0.950910,-2.104090,1.161913,-2.288121,1.396811,-2.442496,1.652178,-2.564964,1.924292,-2.653740,2.209183,-2.707529,2.502698,-2.725546,2.800557,-2.710469,2.886062,
-2.667057,2.961254,-2.600546,3.017063,-2.518958,3.046759,-2.432134,3.046759,-2.350546,3.017063,-2.350546,3.017063,$1*%
%AMFreePoly2*
4,1,69,-4.722533,2.790647,-4.656022,2.734838,-4.612610,2.659646,-4.597533,2.574141,-4.597533,2.444798,-4.563768,2.188327,-4.496815,1.938456,-4.397821,1.699462,-4.268478,1.475434,-4.111001,1.270206,-3.928083,1.087288,-3.722854,0.929810,-3.498826,0.800468,-3.259832,0.701473,-3.009962,0.634520,-2.753490,0.600755,-2.494805,0.600755,-2.283879,0.628523,-2.235351,0.653711,-2.045776,0.695800,
-2.001940,0.697861,-1.988462,0.701473,-1.749469,0.800467,-1.525441,0.929810,-1.320212,1.087287,-1.228753,1.178746,-1.157630,1.228546,-1.073765,1.251018,-1.036343,1.247743,-1.025000,1.250000,1.275000,1.250000,1.275000,-1.250000,0.000000,-1.250000,-1.025000,-1.250000,-1.120671,-1.230970,-1.201777,-1.176777,-1.255970,-1.095671,-1.275000,-1.000000,-1.275000,-0.299919,-1.287475,-0.237827,
-1.340360,-0.115437,-1.417553,-0.006728,-1.515674,0.083541,-1.630429,0.151419,-1.756796,0.193936,-1.889243,0.209231,-1.918780,0.206427,-2.141614,0.148280,-2.430088,0.108380,-2.721252,0.102662,-3.011070,0.131207,-3.295524,0.193618,-3.570671,0.289030,-3.832696,0.416122,-4.077967,0.573130,-4.303083,0.757878,-4.504925,0.967805,-4.680692,1.200002,-4.827950,1.451247,-4.944656,1.718060,
-5.029193,1.996741,-5.080389,2.283426,-5.097533,2.574141,-5.082456,2.659646,-5.039044,2.734838,-4.972533,2.790647,-4.890945,2.820343,-4.804121,2.820343,-4.722533,2.790647,-4.722533,2.790647,$1*%
%AMFreePoly3*
4,1,71,1.120671,1.230970,1.201777,1.176777,1.255970,1.095671,1.275000,1.000000,1.275000,0.182025,1.278244,0.156737,1.276042,0.106998,1.298912,0.010087,1.347563,-0.076792,1.418240,-0.146932,1.505488,-0.194919,1.602571,-0.217050,1.701996,-0.211614,1.723713,-0.204160,1.943580,-0.118107,2.233697,-0.042402,2.530702,-0.001321,2.830477,0.004566,3.128865,-0.024823,3.421731,-0.089080,
3.705015,-0.187314,3.974788,-0.318164,4.227312,-0.479815,4.459086,-0.670027,4.666896,-0.886162,4.847862,-1.125224,4.999474,-1.383900,5.119631,-1.658603,5.206668,-1.945525,5.259378,-2.240688,5.277029,-2.540000,5.261952,-2.625505,5.218540,-2.700697,5.152029,-2.756506,5.070441,-2.786202,4.983617,-2.786202,4.902029,-2.756506,4.835518,-2.700697,4.792106,-2.625505,4.777029,-2.540000,
4.777029,-2.405863,4.742012,-2.139885,4.672578,-1.880753,4.569914,-1.632901,4.435778,-1.400570,4.272463,-1.187735,4.082766,-0.998037,3.869930,-0.834722,3.637599,-0.700586,3.389747,-0.597922,3.130615,-0.528488,2.864637,-0.493471,2.596364,-0.493471,2.330386,-0.528488,2.071254,-0.597922,1.943092,-0.651008,1.912689,-0.667930,1.887809,-0.673907,1.823402,-0.700586,1.591070,-0.834722,
1.378235,-0.998036,1.283386,-1.092885,1.235364,-1.126509,1.201777,-1.176777,1.120671,-1.230970,1.025000,-1.250000,0.000000,-1.250000,-1.275000,-1.250000,-1.275000,1.250000,1.025000,1.250000,1.120671,1.230970,1.120671,1.230970,$1*%
%AMFreePoly4*
4,1,13,-1.275000,1.000000,-1.255970,1.095671,-1.201777,1.176777,-1.120671,1.230970,-1.025000,1.250000,1.275000,1.250000,1.275000,-1.250000,-1.025000,-1.250000,-1.120671,-1.230970,-1.201777,-1.176777,-1.255970,-1.095671,-1.275000,-1.000000,-1.275000,1.000000,-1.275000,1.000000,$1*%
G04 Aperture macros list end*
%ADD10RoundRect,0.225000X0.225000X0.375000X-0.225000X0.375000X-0.225000X-0.375000X0.225000X-0.375000X0*%
%ADD11Outline5P,-1.150000X1.000000X0.750000X1.000000X1.150000X0.600000X1.150000X-1.000000X-1.150000X-1.000000X0.000000*%
%ADD12R,2.300000X2.000000*%
%ADD13Outline5P,-1.150000X1.000000X0.750000X1.000000X1.150000X0.600000X1.150000X-1.000000X-1.150000X-1.000000X180.000000*%
%ADD14RoundRect,0.225000X0.275000X0.340037X-0.170620X0.402664X-0.275000X-0.340037X0.170620X-0.402664X0*%
%ADD15Outline5P,-1.150000X1.000000X0.750000X1.000000X1.150000X0.600000X1.150000X-1.000000X-1.150000X-1.000000X90.000000*%
%ADD16R,2.000000X2.300000*%
%ADD17Outline5P,-1.150000X1.000000X0.750000X1.000000X1.150000X0.600000X1.150000X-1.000000X-1.150000X-1.000000X352.000000*%
%ADD18RotRect,2.300000X2.000000X352.000000*%
%ADD19Outline5P,-1.150000X1.000000X1.150000X1.000000X1.150000X-0.400000X0.550000X-1.000000X-1.150000X-1.000000X0.000000*%
%ADD20FreePoly0,180.000000*%
%ADD21FreePoly1,180.000000*%
%ADD22RoundRect,0.225000X0.375000X-0.225000X0.375000X0.225000X-0.375000X0.225000X-0.375000X-0.225000X0*%
%ADD23Outline5P,-1.150000X1.000000X0.250000X1.000000X1.150000X0.100000X1.150000X-1.000000X-1.150000X-1.000000X0.000000*%
%ADD24FreePoly2,180.000000*%
%ADD25R,2.795000X3.120000*%
%ADD26FreePoly3,180.000000*%
%ADD27FreePoly4,180.000000*%
%ADD28RotRect,2.300000X2.000000X262.000000*%
%ADD29Outline5P,-1.150000X1.000000X1.150000X1.000000X1.150000X-1.000000X-0.750000X-1.000000X-1.150000X-0.600000X262.000000*%
G04 APERTURE END LIST*
D10*
%TO.C,D58*%
X79176250Y-155643000D03*
X75876250Y-155643000D03*
%TD*%
D11*
%TO.C,SW31*%
X212320000Y-109088000D03*
D12*
X225020000Y-106548000D03*
%TD*%
D10*
%TO.C,D17*%
X105370000Y-79443000D03*
X102070000Y-79443000D03*
%TD*%
%TO.C,D55*%
X138620000Y-127850000D03*
X135320000Y-127850000D03*
%TD*%
D13*
%TO.C,SW55*%
X147520000Y-130948000D03*
D12*
X134820000Y-133488000D03*
%TD*%
D10*
%TO.C,D46*%
X124420000Y-131093000D03*
X121120000Y-131093000D03*
%TD*%
D14*
%TO.C,D40*%
X236513942Y-154999636D03*
X233246058Y-154540364D03*
%TD*%
D10*
%TO.C,D15*%
X143470000Y-68443000D03*
X140170000Y-68443000D03*
%TD*%
%TO.C,D54*%
X158140000Y-123830000D03*
X154840000Y-123830000D03*
%TD*%
D11*
%TO.C,SW16*%
X117070000Y-70488000D03*
D12*
X129770000Y-67948000D03*
%TD*%
D11*
%TO.C,SW6*%
X117070000Y-38938000D03*
D12*
X129770000Y-36398000D03*
%TD*%
D10*
%TO.C,D56*%
X124420000Y-150143000D03*
X121120000Y-150143000D03*
%TD*%
%TO.C,D5*%
X143720000Y-42393000D03*
X140420000Y-42393000D03*
%TD*%
%TO.C,D13*%
X181570000Y-69443000D03*
X178270000Y-69443000D03*
%TD*%
%TO.C,D32*%
X200620000Y-110043000D03*
X197320000Y-110043000D03*
%TD*%
%TO.C,D26*%
X124420000Y-92993000D03*
X121120000Y-92993000D03*
%TD*%
D15*
%TO.C,SW14*%
X165990000Y-61568000D03*
D16*
X163450000Y-48868000D03*
%TD*%
D11*
%TO.C,SW43*%
X174220000Y-123138000D03*
D12*
X186920000Y-120598000D03*
%TD*%
D10*
%TO.C,D7*%
X101370000Y-42393000D03*
X98070000Y-42393000D03*
%TD*%
%TO.C,D2*%
X204620000Y-42393000D03*
X201320000Y-42393000D03*
%TD*%
D17*
%TO.C,SW50*%
X227177484Y-169450174D03*
D18*
X240107388Y-168702391D03*
%TD*%
D11*
%TO.C,SW22*%
X193270000Y-87538000D03*
D12*
X205970000Y-84998000D03*
%TD*%
D15*
%TO.C,SW4*%
X165990000Y-39518000D03*
D16*
X163450000Y-26818000D03*
%TD*%
D11*
%TO.C,SW7*%
X94020000Y-38938000D03*
D12*
X106720000Y-36398000D03*
%TD*%
D17*
%TO.C,SW52*%
X190774545Y-154716321D03*
D18*
X203704449Y-153968538D03*
%TD*%
D11*
%TO.C,SW44*%
X155170000Y-118138000D03*
D19*
X167870000Y-115598000D03*
%TD*%
D11*
%TO.C,SW26*%
X117070000Y-89538000D03*
D12*
X129770000Y-86998000D03*
%TD*%
D11*
%TO.C,SW56*%
X117070000Y-146688000D03*
D12*
X129770000Y-144148000D03*
%TD*%
D11*
%TO.C,SW46*%
X117070000Y-127638000D03*
D12*
X129770000Y-125098000D03*
%TD*%
D20*
%TO.C,SW27*%
X93115500Y-94998000D03*
D21*
X106042500Y-92218000D03*
%TD*%
D10*
%TO.C,D21*%
X219670000Y-93493000D03*
X216370000Y-93493000D03*
%TD*%
D11*
%TO.C,SW5*%
X136120000Y-38938000D03*
D12*
X148820000Y-36398000D03*
%TD*%
D22*
%TO.C,D18*%
X149670000Y-30490000D03*
X149670000Y-27190000D03*
%TD*%
D11*
%TO.C,SW10*%
X234370000Y-90038000D03*
D12*
X247070000Y-87498000D03*
%TD*%
D10*
%TO.C,D37*%
X94000000Y-117543000D03*
X90700000Y-117543000D03*
%TD*%
D11*
%TO.C,SW35*%
X136120000Y-103088000D03*
D23*
X148820000Y-100548000D03*
%TD*%
D11*
%TO.C,SW15*%
X136120000Y-64988000D03*
D12*
X148820000Y-62448000D03*
%TD*%
D11*
%TO.C,SW21*%
X212320000Y-90038000D03*
D12*
X225020000Y-87498000D03*
%TD*%
D10*
%TO.C,D42*%
X200620000Y-129093000D03*
X197320000Y-129093000D03*
%TD*%
%TO.C,D33*%
X181570000Y-107543000D03*
X178270000Y-107543000D03*
%TD*%
%TO.C,D11*%
X219670000Y-74443000D03*
X216370000Y-74443000D03*
%TD*%
%TO.C,D27*%
X103030000Y-98493000D03*
X99730000Y-98493000D03*
%TD*%
D11*
%TO.C,SW17*%
X98020000Y-75988000D03*
D12*
X110720000Y-73448000D03*
%TD*%
D10*
%TO.C,D12*%
X200620000Y-71943000D03*
X197320000Y-71943000D03*
%TD*%
D17*
%TO.C,SW30*%
X232479979Y-131720961D03*
D18*
X245409883Y-130973178D03*
%TD*%
D10*
%TO.C,D25*%
X143470000Y-87493000D03*
X140170000Y-87493000D03*
%TD*%
%TO.C,D34*%
X162520000Y-102543000D03*
X159220000Y-102543000D03*
%TD*%
D11*
%TO.C,SW57*%
X95638750Y-152188000D03*
D12*
X108338750Y-149648000D03*
%TD*%
D10*
%TO.C,D4*%
X164600000Y-43330000D03*
X161300000Y-43330000D03*
%TD*%
D14*
%TO.C,D50*%
X234017337Y-173899636D03*
X230749453Y-173440364D03*
%TD*%
D20*
%TO.C,SW37*%
X90734250Y-114048000D03*
D24*
X103661250Y-111508000D03*
%TD*%
D15*
%TO.C,SW24*%
X165990000Y-80618000D03*
D16*
X163450000Y-67918000D03*
%TD*%
D11*
%TO.C,SW1*%
X216320000Y-38938000D03*
D12*
X229020000Y-36398000D03*
%TD*%
D11*
%TO.C,SW2*%
X197270000Y-38938000D03*
D12*
X209970000Y-36398000D03*
%TD*%
D14*
%TO.C,D51*%
X216373942Y-161779636D03*
X213106058Y-161320364D03*
%TD*%
D10*
%TO.C,D0*%
X241720000Y-74443000D03*
X238420000Y-74443000D03*
%TD*%
%TO.C,D1*%
X223920000Y-42393000D03*
X220620000Y-42393000D03*
%TD*%
D11*
%TO.C,SW20*%
X234370000Y-109088000D03*
D12*
X247070000Y-106548000D03*
%TD*%
D10*
%TO.C,D47*%
X91180000Y-136593000D03*
X87880000Y-136593000D03*
%TD*%
D11*
%TO.C,SW42*%
X193270000Y-125638000D03*
D12*
X205970000Y-123098000D03*
%TD*%
D10*
%TO.C,D6*%
X124670000Y-42393000D03*
X121370000Y-42393000D03*
%TD*%
%TO.C,D24*%
X164680000Y-84370000D03*
X161380000Y-84370000D03*
%TD*%
D25*
%TO.C,D_SOL_1*%
X109947500Y-47070000D03*
X117312500Y-47070000D03*
%TD*%
D10*
%TO.C,D3*%
X181820000Y-42393000D03*
X178520000Y-42393000D03*
%TD*%
D11*
%TO.C,SW34*%
X155170000Y-99088000D03*
D12*
X167870000Y-96548000D03*
%TD*%
D10*
%TO.C,D16*%
X124420000Y-73943000D03*
X121120000Y-73943000D03*
%TD*%
%TO.C,D35*%
X143470000Y-106543000D03*
X140170000Y-106543000D03*
%TD*%
%TO.C,D43*%
X181570000Y-126593000D03*
X178270000Y-126593000D03*
%TD*%
D11*
%TO.C,SW0*%
X234370000Y-70988000D03*
D12*
X247070000Y-68448000D03*
%TD*%
D11*
%TO.C,SW58*%
X71826250Y-152188000D03*
D12*
X84526250Y-149648000D03*
%TD*%
D10*
%TO.C,D45*%
X143470000Y-125593000D03*
X140170000Y-125593000D03*
%TD*%
D11*
%TO.C,SW3*%
X174220000Y-38938000D03*
D12*
X186920000Y-36398000D03*
%TD*%
D10*
%TO.C,D22*%
X200620000Y-90993000D03*
X197320000Y-90993000D03*
%TD*%
%TO.C,D48_RH10*%
X61490000Y-106940000D03*
X58190000Y-106940000D03*
%TD*%
D11*
%TO.C,SW36*%
X117070000Y-108588000D03*
D12*
X129770000Y-106048000D03*
%TD*%
D10*
%TO.C,D20*%
X241720000Y-112543000D03*
X238420000Y-112543000D03*
%TD*%
D17*
%TO.C,SW40*%
X229828731Y-150585567D03*
D18*
X242758635Y-149837784D03*
%TD*%
D11*
%TO.C,SW25*%
X136120000Y-84038000D03*
D12*
X148820000Y-81498000D03*
%TD*%
D10*
%TO.C,D38_RH10*%
X79630000Y-98540000D03*
X76330000Y-98540000D03*
%TD*%
%TO.C,D14*%
X164750000Y-65330000D03*
X161450000Y-65330000D03*
%TD*%
D11*
%TO.C,SW32*%
X193270000Y-106588000D03*
D12*
X205970000Y-104048000D03*
%TD*%
D10*
%TO.C,D31*%
X219670000Y-112543000D03*
X216370000Y-112543000D03*
%TD*%
D11*
%TO.C,SW11*%
X212320000Y-70988000D03*
D12*
X225020000Y-68448000D03*
%TD*%
D13*
%TO.C,SW54*%
X166570000Y-126948000D03*
D12*
X153870000Y-129488000D03*
%TD*%
D10*
%TO.C,D44*%
X162520000Y-121593000D03*
X159220000Y-121593000D03*
%TD*%
D14*
%TO.C,D52*%
X197373942Y-159129636D03*
X194106058Y-158670364D03*
%TD*%
D10*
%TO.C,D36*%
X124420000Y-112043000D03*
X121120000Y-112043000D03*
%TD*%
%TO.C,D41*%
X219700000Y-133490000D03*
X216400000Y-133490000D03*
%TD*%
%TO.C,D28_RH10*%
X61330000Y-104120000D03*
X58030000Y-104120000D03*
%TD*%
%TO.C,D23*%
X181570000Y-88493000D03*
X178270000Y-88493000D03*
%TD*%
%TO.C,D18_RH10*%
X86320000Y-81230000D03*
X83020000Y-81230000D03*
%TD*%
%TO.C,D08_RH10*%
X57745000Y-79443000D03*
X54445000Y-79443000D03*
%TD*%
D14*
%TO.C,D30*%
X239173942Y-136169636D03*
X235906058Y-135710364D03*
%TD*%
D11*
%TO.C,SW45*%
X136120000Y-122138000D03*
D12*
X148820000Y-119598000D03*
%TD*%
D17*
%TO.C,SW51*%
X209638501Y-157366623D03*
D18*
X222568405Y-156618840D03*
%TD*%
D11*
%TO.C,SW23*%
X174220000Y-85038000D03*
D12*
X186920000Y-82498000D03*
%TD*%
D11*
%TO.C,SW13*%
X174220000Y-65988000D03*
D12*
X186920000Y-63448000D03*
%TD*%
D11*
%TO.C,SW33*%
X174220000Y-104088000D03*
D12*
X186920000Y-101548000D03*
%TD*%
D11*
%TO.C,SW12*%
X193270000Y-68488000D03*
D12*
X205970000Y-65948000D03*
%TD*%
D10*
%TO.C,D10*%
X241720000Y-93493000D03*
X238420000Y-93493000D03*
%TD*%
%TO.C,D57*%
X102988750Y-155643000D03*
X99688750Y-155643000D03*
%TD*%
D26*
%TO.C,SW47*%
X85971750Y-133098000D03*
D27*
X98898750Y-130558000D03*
%TD*%
D14*
%TO.C,D53*%
X196995402Y-161459636D03*
X193727518Y-161000364D03*
%TD*%
D28*
%TO.C,SW53*%
X180801267Y-148288659D03*
D29*
X181549050Y-161218563D03*
%TD*%
M02*
