  0
SECTION
  2
HEADER
  9
$ACADVER
  1
AC1009
  9
$FILLMODE
 70
 0
  9
$SPLFRAME
 70
 1
  9
$EXTMIN
 10
0
 20
0
 30
0.0
  9
$EXTMAX
 10
1058.33
 20
1058.33
 30
0.0
  0
ENDSEC
  0
SECTION
  2
TABLES
  0
TABLE
  2
LAYER
 70
1
  0
LAYER
  2
0
 70
     0
 62
     7
  6
CONTINUOUS
  0
ENDTAB
  0
ENDSEC
  0
SECTION
  2
ENTITIES
  0
LINE
  8
0
 62
     0
 10
0.0950846
 20
151.246
 30
0.0
 11
428.72
 21
151.246
 31
0.0
  0
LINE
  8
0
 62
     0
 10
428.72
 20
151.246
 30
0.0
 11
428.72
 21
0.409279
 31
0.0
  0
LINE
  8
0
 62
     0
 10
428.72
 20
0.409279
 30
0.0
 11
0.0950846
 21
0.409279
 31
0.0
  0
LINE
  8
0
 62
     0
 10
0.0950846
 20
0.409279
 30
0.0
 11
0.0950846
 21
151.246
 31
0.0
  0
LINE
  8
0
 62
     0
 10
222.669
 20
17.1263
 30
0.0
 11
224.619
 21
3.26182
 31
0.0
  0
LINE
  8
0
 62
     0
 10
224.619
 20
3.26182
 30
0.0
 11
238.482
 21
5.21173
 31
0.0
  0
LINE
  8
0
 62
     0
 10
238.482
 20
5.21173
 30
0.0
 11
236.533
 21
19.0748
 31
0.0
  0
LINE
  8
0
 62
     0
 10
236.533
 20
19.0748
 30
0.0
 11
222.669
 21
17.1263
 31
0.0
  0
LINE
  8
0
 62
     0
 10
161.794
 20
5.74089
 30
0.0
 11
175.657
 21
3.79236
 31
0.0
  0
LINE
  8
0
 62
     0
 10
175.657
 20
3.79236
 30
0.0
 11
177.606
 21
17.6568
 31
0.0
  0
LINE
  8
0
 62
     0
 10
177.606
 20
17.6568
 30
0.0
 11
163.741
 21
19.6053
 31
0.0
  0
LINE
  8
0
 62
     0
 10
163.741
 20
19.6053
 30
0.0
 11
161.794
 21
5.74089
 31
0.0
  0
LINE
  8
0
 62
     0
 10
245.379
 20
39.1266
 30
0.0
 11
245.493
 21
38.3096
 31
0.0
  0
LINE
  8
0
 62
     0
 10
245.493
 20
38.3096
 30
0.0
 11
239.284
 21
37.4357
 31
0.0
  0
LINE
  8
0
 62
     0
 10
239.284
 20
37.4357
 30
0.0
 11
239.525
 21
35.7283
 31
0.0
  0
LINE
  8
0
 62
     0
 10
239.525
 20
35.7283
 30
0.0
 11
238.336
 21
35.5618
 31
0.0
  0
LINE
  8
0
 62
     0
 10
238.336
 20
35.5618
 30
0.0
 11
238.796
 21
32.293
 31
0.0
  0
LINE
  8
0
 62
     0
 10
238.796
 20
32.293
 30
0.0
 11
239.984
 21
32.4597
 31
0.0
  0
LINE
  8
0
 62
     0
 10
239.984
 20
32.4597
 30
0.0
 11
240.225
 21
30.7523
 31
0.0
  0
LINE
  8
0
 62
     0
 10
240.225
 20
30.7523
 30
0.0
 11
244.65
 21
31.3738
 31
0.0
  0
LINE
  8
0
 62
     0
 10
244.65
 20
31.3738
 30
0.0
 11
244.862
 21
29.8649
 31
0.0
  0
LINE
  8
0
 62
     0
 10
244.862
 20
29.8649
 30
0.0
 11
240.209
 21
29.2103
 31
0.0
  0
LINE
  8
0
 62
     0
 10
240.209
 20
29.2103
 30
0.0
 11
242.157
 21
15.3458
 31
0.0
  0
LINE
  8
0
 62
     0
 10
242.157
 20
15.3458
 30
0.0
 11
246.812
 21
16.0004
 31
0.0
  0
LINE
  8
0
 62
     0
 10
246.812
 20
16.0004
 30
0.0
 11
247.023
 21
14.4901
 31
0.0
  0
LINE
  8
0
 62
     0
 10
247.023
 20
14.4901
 30
0.0
 11
242.598
 21
13.8686
 31
0.0
  0
LINE
  8
0
 62
     0
 10
242.598
 20
13.8686
 30
0.0
 11
242.838
 21
12.1598
 31
0.0
  0
LINE
  8
0
 62
     0
 10
242.838
 20
12.1598
 30
0.0
 11
241.649
 21
11.9917
 31
0.0
  0
LINE
  8
0
 62
     0
 10
241.649
 20
11.9917
 30
0.0
 11
242.109
 21
8.72575
 31
0.0
  0
LINE
  8
0
 62
     0
 10
242.109
 20
8.72575
 30
0.0
 11
243.297
 21
8.89247
 31
0.0
  0
LINE
  8
0
 62
     0
 10
243.297
 20
8.89247
 30
0.0
 11
243.537
 21
7.18372
 31
0.0
  0
LINE
  8
0
 62
     0
 10
243.537
 20
7.18372
 30
0.0
 11
249.746
 21
8.056
 31
0.0
  0
LINE
  8
0
 62
     0
 10
249.746
 20
8.056
 30
0.0
 11
249.861
 21
7.23882
 31
0.0
  0
LINE
  8
0
 62
     0
 10
249.861
 20
7.23882
 30
0.0
 11
252.633
 21
7.62882
 31
0.0
  0
LINE
  8
0
 62
     0
 10
252.633
 20
7.62882
 30
0.0
 11
252.517
 21
8.44599
 31
0.0
  0
LINE
  8
0
 62
     0
 10
252.517
 20
8.44599
 30
0.0
 11
255.717
 21
8.89522
 31
0.0
  0
LINE
  8
0
 62
     0
 10
255.717
 20
8.89522
 30
0.0
 11
254.777
 21
15.5787
 31
0.0
  0
LINE
  8
0
 62
     0
 10
254.777
 20
15.5787
 30
0.0
 11
251.577
 21
15.1309
 31
0.0
  0
LINE
  8
0
 62
     0
 10
251.577
 20
15.1309
 30
0.0
 11
251.367
 21
16.6398
 31
0.0
  0
LINE
  8
0
 62
     0
 10
251.367
 20
16.6398
 30
0.0
 11
256.02
 21
17.2944
 31
0.0
  0
LINE
  8
0
 62
     0
 10
256.02
 20
17.2944
 30
0.0
 11
254.073
 21
31.1588
 31
0.0
  0
LINE
  8
0
 62
     0
 10
254.073
 20
31.1588
 30
0.0
 11
249.418
 21
30.5043
 31
0.0
  0
LINE
  8
0
 62
     0
 10
249.418
 20
30.5043
 30
0.0
 11
249.206
 21
32.0146
 31
0.0
  0
LINE
  8
0
 62
     0
 10
249.206
 20
32.0146
 30
0.0
 11
252.404
 21
32.4638
 31
0.0
  0
LINE
  8
0
 62
     0
 10
252.404
 20
32.4638
 30
0.0
 11
251.465
 21
39.1488
 31
0.0
  0
LINE
  8
0
 62
     0
 10
251.465
 20
39.1488
 30
0.0
 11
248.266
 21
38.698
 31
0.0
  0
LINE
  8
0
 62
     0
 10
248.266
 20
38.698
 30
0.0
 11
248.152
 21
39.5153
 31
0.0
  0
LINE
  8
0
 62
     0
 10
248.152
 20
39.5153
 30
0.0
 11
245.379
 21
39.1266
 31
0.0
  0
LINE
  8
0
 62
     0
 10
152.009
 20
39.2285
 30
0.0
 11
148.809
 21
39.678
 31
0.0
  0
LINE
  8
0
 62
     0
 10
148.809
 20
39.678
 30
0.0
 11
147.87
 21
32.9944
 31
0.0
  0
LINE
  8
0
 62
     0
 10
147.87
 20
32.9944
 30
0.0
 11
151.069
 21
32.5438
 31
0.0
  0
LINE
  8
0
 62
     0
 10
151.069
 20
32.5438
 30
0.0
 11
150.858
 21
31.0348
 31
0.0
  0
LINE
  8
0
 62
     0
 10
150.858
 20
31.0348
 30
0.0
 11
146.203
 21
31.688
 31
0.0
  0
LINE
  8
0
 62
     0
 10
146.203
 20
31.688
 30
0.0
 11
144.254
 21
17.8235
 31
0.0
  0
LINE
  8
0
 62
     0
 10
144.254
 20
17.8235
 30
0.0
 11
148.908
 21
17.1704
 31
0.0
  0
LINE
  8
0
 62
     0
 10
148.908
 20
17.1704
 30
0.0
 11
148.696
 21
15.66
 31
0.0
  0
LINE
  8
0
 62
     0
 10
148.696
 20
15.66
 30
0.0
 11
145.498
 21
16.1107
 31
0.0
  0
LINE
  8
0
 62
     0
 10
145.498
 20
16.1107
 30
0.0
 11
144.559
 21
9.4258
 31
0.0
  0
LINE
  8
0
 62
     0
 10
144.559
 20
9.4258
 30
0.0
 11
147.756
 21
8.97654
 31
0.0
  0
LINE
  8
0
 62
     0
 10
147.756
 20
8.97654
 30
0.0
 11
147.642
 21
8.15936
 31
0.0
  0
LINE
  8
0
 62
     0
 10
147.642
 20
8.15936
 30
0.0
 11
150.414
 21
7.76937
 31
0.0
  0
LINE
  8
0
 62
     0
 10
150.414
 20
7.76937
 30
0.0
 11
150.53
 21
8.58654
 31
0.0
  0
LINE
  8
0
 62
     0
 10
150.53
 20
8.58654
 30
0.0
 11
156.738
 21
7.71426
 31
0.0
  0
LINE
  8
0
 62
     0
 10
156.738
 20
7.71426
 30
0.0
 11
156.978
 21
9.42164
 31
0.0
  0
LINE
  8
0
 62
     0
 10
156.978
 20
9.42164
 30
0.0
 11
158.167
 21
9.25491
 31
0.0
  0
LINE
  8
0
 62
     0
 10
158.167
 20
9.25491
 30
0.0
 11
158.626
 21
12.5236
 31
0.0
  0
LINE
  8
0
 62
     0
 10
158.626
 20
12.5236
 30
0.0
 11
157.438
 21
12.6904
 31
0.0
  0
LINE
  8
0
 62
     0
 10
157.438
 20
12.6904
 30
0.0
 11
157.678
 21
14.3977
 31
0.0
  0
LINE
  8
0
 62
     0
 10
157.678
 20
14.3977
 30
0.0
 11
153.252
 21
15.0206
 31
0.0
  0
LINE
  8
0
 62
     0
 10
153.252
 20
15.0206
 30
0.0
 11
153.464
 21
16.5296
 31
0.0
  0
LINE
  8
0
 62
     0
 10
153.464
 20
16.5296
 30
0.0
 11
158.117
 21
15.8764
 31
0.0
  0
LINE
  8
0
 62
     0
 10
158.117
 20
15.8764
 30
0.0
 11
160.066
 21
29.7408
 31
0.0
  0
LINE
  8
0
 62
     0
 10
160.066
 20
29.7408
 30
0.0
 11
155.412
 21
30.394
 31
0.0
  0
LINE
  8
0
 62
     0
 10
155.412
 20
30.394
 30
0.0
 11
155.625
 21
31.9043
 31
0.0
  0
LINE
  8
0
 62
     0
 10
155.625
 20
31.9043
 30
0.0
 11
160.051
 21
31.2829
 31
0.0
  0
LINE
  8
0
 62
     0
 10
160.051
 20
31.2829
 30
0.0
 11
160.291
 21
32.9902
 31
0.0
  0
LINE
  8
0
 62
     0
 10
160.291
 20
32.9902
 30
0.0
 11
161.48
 21
32.8235
 31
0.0
  0
LINE
  8
0
 62
     0
 10
161.48
 20
32.8235
 30
0.0
 11
161.939
 21
36.0909
 31
0.0
  0
LINE
  8
0
 62
     0
 10
161.939
 20
36.0909
 30
0.0
 11
160.751
 21
36.2574
 31
0.0
  0
LINE
  8
0
 62
     0
 10
160.751
 20
36.2574
 30
0.0
 11
160.991
 21
37.9663
 31
0.0
  0
LINE
  8
0
 62
     0
 10
160.991
 20
37.9663
 30
0.0
 11
154.781
 21
38.8387
 31
0.0
  0
LINE
  8
0
 62
     0
 10
154.781
 20
38.8387
 30
0.0
 11
154.897
 21
39.6558
 31
0.0
  0
LINE
  8
0
 62
     0
 10
154.897
 20
39.6558
 30
0.0
 11
152.123
 21
40.0459
 31
0.0
  0
LINE
  8
0
 62
     0
 10
152.123
 20
40.0459
 30
0.0
 11
152.009
 21
39.2285
 31
0.0
  0
LINE
  8
0
 62
     0
 10
264.243
 20
41.7766
 30
0.0
 11
264.359
 21
40.9607
 31
0.0
  0
LINE
  8
0
 62
     0
 10
264.359
 20
40.9607
 30
0.0
 11
258.149
 21
40.0872
 31
0.0
  0
LINE
  8
0
 62
     0
 10
258.149
 20
40.0872
 30
0.0
 11
258.389
 21
38.3798
 31
0.0
  0
LINE
  8
0
 62
     0
 10
258.389
 20
38.3798
 30
0.0
 11
257.201
 21
38.2115
 31
0.0
  0
LINE
  8
0
 62
     0
 10
257.201
 20
38.2115
 30
0.0
 11
257.66
 21
34.9443
 31
0.0
  0
LINE
  8
0
 62
     0
 10
257.66
 20
34.9443
 30
0.0
 11
258.848
 21
35.111
 31
0.0
  0
LINE
  8
0
 62
     0
 10
258.848
 20
35.111
 30
0.0
 11
259.089
 21
33.4036
 31
0.0
  0
LINE
  8
0
 62
     0
 10
259.089
 20
33.4036
 30
0.0
 11
263.515
 21
34.0251
 31
0.0
  0
LINE
  8
0
 62
     0
 10
263.515
 20
34.0251
 30
0.0
 11
263.727
 21
32.5148
 31
0.0
  0
LINE
  8
0
 62
     0
 10
263.727
 20
32.5148
 30
0.0
 11
259.074
 21
31.8616
 31
0.0
  0
LINE
  8
0
 62
     0
 10
259.074
 20
31.8616
 30
0.0
 11
261.021
 21
17.9972
 31
0.0
  0
LINE
  8
0
 62
     0
 10
261.021
 20
17.9972
 30
0.0
 11
265.676
 21
18.6517
 31
0.0
  0
LINE
  8
0
 62
     0
 10
265.676
 20
18.6517
 30
0.0
 11
265.888
 21
17.1414
 31
0.0
  0
LINE
  8
0
 62
     0
 10
265.888
 20
17.1414
 30
0.0
 11
261.462
 21
16.5185
 31
0.0
  0
LINE
  8
0
 62
     0
 10
261.462
 20
16.5185
 30
0.0
 11
261.702
 21
14.8112
 31
0.0
  0
LINE
  8
0
 62
     0
 10
261.702
 20
14.8112
 30
0.0
 11
260.514
 21
14.6444
 31
0.0
  0
LINE
  8
0
 62
     0
 10
260.514
 20
14.6444
 30
0.0
 11
260.973
 21
11.3757
 31
0.0
  0
LINE
  8
0
 62
     0
 10
260.973
 20
11.3757
 30
0.0
 11
262.162
 21
11.5438
 31
0.0
  0
LINE
  8
0
 62
     0
 10
262.162
 20
11.5438
 30
0.0
 11
262.402
 21
9.83506
 31
0.0
  0
LINE
  8
0
 62
     0
 10
262.402
 20
9.83506
 30
0.0
 11
268.61
 21
10.7074
 31
0.0
  0
LINE
  8
0
 62
     0
 10
268.61
 20
10.7074
 30
0.0
 11
268.726
 21
9.8902
 31
0.0
  0
LINE
  8
0
 62
     0
 10
268.726
 20
9.8902
 30
0.0
 11
271.497
 21
10.2802
 31
0.0
  0
LINE
  8
0
 62
     0
 10
271.497
 20
10.2802
 30
0.0
 11
271.382
 21
11.0973
 31
0.0
  0
LINE
  8
0
 62
     0
 10
271.382
 20
11.0973
 30
0.0
 11
274.581
 21
11.5466
 31
0.0
  0
LINE
  8
0
 62
     0
 10
274.581
 20
11.5466
 30
0.0
 11
273.643
 21
18.2314
 31
0.0
  0
LINE
  8
0
 62
     0
 10
273.643
 20
18.2314
 30
0.0
 11
270.444
 21
17.7808
 31
0.0
  0
LINE
  8
0
 62
     0
 10
270.444
 20
17.7808
 30
0.0
 11
270.232
 21
19.2912
 31
0.0
  0
LINE
  8
0
 62
     0
 10
270.232
 20
19.2912
 30
0.0
 11
274.886
 21
19.9457
 31
0.0
  0
LINE
  8
0
 62
     0
 10
274.886
 20
19.9457
 30
0.0
 11
272.937
 21
33.8088
 31
0.0
  0
LINE
  8
0
 62
     0
 10
272.937
 20
33.8088
 30
0.0
 11
268.282
 21
33.1556
 31
0.0
  0
LINE
  8
0
 62
     0
 10
268.282
 20
33.1556
 30
0.0
 11
268.071
 21
34.6645
 31
0.0
  0
LINE
  8
0
 62
     0
 10
268.071
 20
34.6645
 30
0.0
 11
271.27
 21
35.1152
 31
0.0
  0
LINE
  8
0
 62
     0
 10
271.27
 20
35.1152
 30
0.0
 11
270.33
 21
41.7985
 31
0.0
  0
LINE
  8
0
 62
     0
 10
270.33
 20
41.7985
 30
0.0
 11
267.131
 21
41.3508
 31
0.0
  0
LINE
  8
0
 62
     0
 10
267.131
 20
41.3508
 30
0.0
 11
267.017
 21
42.1665
 31
0.0
  0
LINE
  8
0
 62
     0
 10
267.017
 20
42.1665
 30
0.0
 11
264.243
 21
41.7766
 31
0.0
  0
LINE
  8
0
 62
     0
 10
133.143
 20
41.88
 30
0.0
 11
129.945
 21
42.3291
 31
0.0
  0
LINE
  8
0
 62
     0
 10
129.945
 20
42.3291
 30
0.0
 11
129.005
 21
35.6457
 31
0.0
  0
LINE
  8
0
 62
     0
 10
129.005
 20
35.6457
 30
0.0
 11
132.205
 21
35.1951
 31
0.0
  0
LINE
  8
0
 62
     0
 10
132.205
 20
35.1951
 30
0.0
 11
131.993
 21
33.6848
 31
0.0
  0
LINE
  8
0
 62
     0
 10
131.993
 20
33.6848
 30
0.0
 11
127.338
 21
34.3393
 31
0.0
  0
LINE
  8
0
 62
     0
 10
127.338
 20
34.3393
 30
0.0
 11
125.389
 21
20.4763
 31
0.0
  0
LINE
  8
0
 62
     0
 10
125.389
 20
20.4763
 30
0.0
 11
130.044
 21
19.8217
 31
0.0
  0
LINE
  8
0
 62
     0
 10
130.044
 20
19.8217
 30
0.0
 11
129.832
 21
18.3114
 31
0.0
  0
LINE
  8
0
 62
     0
 10
129.832
 20
18.3114
 30
0.0
 11
126.632
 21
18.7606
 31
0.0
  0
LINE
  8
0
 62
     0
 10
126.632
 20
18.7606
 30
0.0
 11
125.692
 21
12.0771
 31
0.0
  0
LINE
  8
0
 62
     0
 10
125.692
 20
12.0771
 30
0.0
 11
128.892
 21
11.6265
 31
0.0
  0
LINE
  8
0
 62
     0
 10
128.892
 20
11.6265
 30
0.0
 11
128.778
 21
10.8107
 31
0.0
  0
LINE
  8
0
 62
     0
 10
128.778
 20
10.8107
 30
0.0
 11
131.55
 21
10.4207
 31
0.0
  0
LINE
  8
0
 62
     0
 10
131.55
 20
10.4207
 30
0.0
 11
131.665
 21
11.2365
 31
0.0
  0
LINE
  8
0
 62
     0
 10
131.665
 20
11.2365
 30
0.0
 11
137.874
 21
10.3656
 31
0.0
  0
LINE
  8
0
 62
     0
 10
137.874
 20
10.3656
 30
0.0
 11
138.114
 21
12.073
 31
0.0
  0
LINE
  8
0
 62
     0
 10
138.114
 20
12.073
 30
0.0
 11
139.303
 21
11.9063
 31
0.0
  0
LINE
  8
0
 62
     0
 10
139.303
 20
11.9063
 30
0.0
 11
139.762
 21
15.1736
 31
0.0
  0
LINE
  8
0
 62
     0
 10
139.762
 20
15.1736
 30
0.0
 11
138.574
 21
15.3417
 31
0.0
  0
LINE
  8
0
 62
     0
 10
138.574
 20
15.3417
 30
0.0
 11
138.814
 21
17.0491
 31
0.0
  0
LINE
  8
0
 62
     0
 10
138.814
 20
17.0491
 30
0.0
 11
134.386
 21
17.6706
 31
0.0
  0
LINE
  8
0
 62
     0
 10
134.386
 20
17.6706
 30
0.0
 11
134.598
 21
19.1809
 31
0.0
  0
LINE
  8
0
 62
     0
 10
134.598
 20
19.1809
 30
0.0
 11
139.253
 21
18.5277
 31
0.0
  0
LINE
  8
0
 62
     0
 10
139.253
 20
18.5277
 30
0.0
 11
141.202
 21
32.3908
 31
0.0
  0
LINE
  8
0
 62
     0
 10
141.202
 20
32.3908
 30
0.0
 11
136.547
 21
33.0454
 31
0.0
  0
LINE
  8
0
 62
     0
 10
136.547
 20
33.0454
 30
0.0
 11
136.759
 21
34.5557
 31
0.0
  0
LINE
  8
0
 62
     0
 10
136.759
 20
34.5557
 30
0.0
 11
141.187
 21
33.9328
 31
0.0
  0
LINE
  8
0
 62
     0
 10
141.187
 20
33.9328
 30
0.0
 11
141.427
 21
35.6415
 31
0.0
  0
LINE
  8
0
 62
     0
 10
141.427
 20
35.6415
 30
0.0
 11
142.615
 21
35.475
 31
0.0
  0
LINE
  8
0
 62
     0
 10
142.615
 20
35.475
 30
0.0
 11
143.074
 21
38.7421
 31
0.0
  0
LINE
  8
0
 62
     0
 10
143.074
 20
38.7421
 30
0.0
 11
141.885
 21
38.9089
 31
0.0
  0
LINE
  8
0
 62
     0
 10
141.885
 20
38.9089
 30
0.0
 11
142.125
 21
40.6178
 31
0.0
  0
LINE
  8
0
 62
     0
 10
142.125
 20
40.6178
 30
0.0
 11
135.916
 21
41.4898
 31
0.0
  0
LINE
  8
0
 62
     0
 10
135.916
 20
41.4898
 30
0.0
 11
136.032
 21
42.3072
 31
0.0
  0
LINE
  8
0
 62
     0
 10
136.032
 20
42.3072
 30
0.0
 11
133.259
 21
42.697
 31
0.0
  0
LINE
  8
0
 62
     0
 10
133.259
 20
42.697
 30
0.0
 11
133.143
 21
41.88
 31
0.0
  0
LINE
  8
0
 62
     0
 10
278.933
 20
27.4381
 30
0.0
 11
280.88
 21
13.5737
 31
0.0
  0
LINE
  8
0
 62
     0
 10
280.88
 20
13.5737
 30
0.0
 11
294.744
 21
15.5222
 31
0.0
  0
LINE
  8
0
 62
     0
 10
294.744
 20
15.5222
 30
0.0
 11
292.796
 21
29.3867
 31
0.0
  0
LINE
  8
0
 62
     0
 10
292.796
 20
29.3867
 30
0.0
 11
278.933
 21
27.4381
 31
0.0
  0
LINE
  8
0
 62
     0
 10
105.53
 20
16.0528
 30
0.0
 11
119.394
 21
14.1042
 31
0.0
  0
LINE
  8
0
 62
     0
 10
119.394
 20
14.1042
 30
0.0
 11
121.343
 21
27.9687
 31
0.0
  0
LINE
  8
0
 62
     0
 10
121.343
 20
27.9687
 30
0.0
 11
107.48
 21
29.9158
 31
0.0
  0
LINE
  8
0
 62
     0
 10
107.48
 20
29.9158
 30
0.0
 11
105.53
 21
16.0528
 31
0.0
  0
LINE
  8
0
 62
     0
 10
220.019
 20
35.9914
 30
0.0
 11
221.966
 21
22.1272
 31
0.0
  0
LINE
  8
0
 62
     0
 10
221.966
 20
22.1272
 30
0.0
 11
235.831
 21
24.0757
 31
0.0
  0
LINE
  8
0
 62
     0
 10
235.831
 20
24.0757
 30
0.0
 11
233.882
 21
37.9388
 31
0.0
  0
LINE
  8
0
 62
     0
 10
233.882
 20
37.9388
 30
0.0
 11
220.019
 21
35.9914
 31
0.0
  0
LINE
  8
0
 62
     0
 10
164.444
 20
24.6049
 30
0.0
 11
178.308
 21
22.6577
 31
0.0
  0
LINE
  8
0
 62
     0
 10
178.308
 20
22.6577
 30
0.0
 11
180.257
 21
36.5206
 31
0.0
  0
LINE
  8
0
 62
     0
 10
180.257
 20
36.5206
 30
0.0
 11
166.393
 21
38.4694
 31
0.0
  0
LINE
  8
0
 62
     0
 10
166.393
 20
38.4694
 30
0.0
 11
164.444
 21
24.6049
 31
0.0
  0
LINE
  8
0
 62
     0
 10
5.00091
 20
43.9469
 30
0.0
 11
19.0004
 21
43.9469
 31
0.0
  0
LINE
  8
0
 62
     0
 10
19.0004
 20
43.9469
 30
0.0
 11
19.0004
 21
29.9475
 31
0.0
  0
LINE
  8
0
 62
     0
 10
19.0004
 20
29.9475
 30
0.0
 11
5.00091
 21
29.9475
 31
0.0
  0
LINE
  8
0
 62
     0
 10
5.00091
 20
29.9475
 30
0.0
 11
5.00091
 21
43.9469
 31
0.0
  0
LINE
  8
0
 62
     0
 10
28.812
 20
43.9469
 30
0.0
 11
42.8128
 21
43.9469
 31
0.0
  0
LINE
  8
0
 62
     0
 10
42.8128
 20
43.9469
 30
0.0
 11
42.8128
 21
29.9475
 31
0.0
  0
LINE
  8
0
 62
     0
 10
42.8128
 20
29.9475
 30
0.0
 11
28.812
 21
29.9475
 31
0.0
  0
LINE
  8
0
 62
     0
 10
28.812
 20
29.9475
 30
0.0
 11
28.812
 21
43.9469
 31
0.0
  0
LINE
  8
0
 62
     0
 10
50.2447
 20
43.9469
 30
0.0
 11
64.244
 21
43.9469
 31
0.0
  0
LINE
  8
0
 62
     0
 10
64.244
 20
43.9469
 30
0.0
 11
64.244
 21
29.9475
 31
0.0
  0
LINE
  8
0
 62
     0
 10
64.244
 20
29.9475
 30
0.0
 11
50.2447
 21
29.9475
 31
0.0
  0
LINE
  8
0
 62
     0
 10
50.2447
 20
29.9475
 30
0.0
 11
50.2447
 21
43.9469
 31
0.0
  0
LINE
  8
0
 62
     0
 10
69.2947
 20
43.9469
 30
0.0
 11
83.294
 21
43.9469
 31
0.0
  0
LINE
  8
0
 62
     0
 10
83.294
 20
43.9469
 30
0.0
 11
83.294
 21
29.9475
 31
0.0
  0
LINE
  8
0
 62
     0
 10
83.294
 20
29.9475
 30
0.0
 11
69.2947
 21
29.9475
 31
0.0
  0
LINE
  8
0
 62
     0
 10
69.2947
 20
29.9475
 30
0.0
 11
69.2947
 21
43.9469
 31
0.0
  0
LINE
  8
0
 62
     0
 10
88.3447
 20
43.9469
 30
0.0
 11
102.344
 21
43.9469
 31
0.0
  0
LINE
  8
0
 62
     0
 10
102.344
 20
43.9469
 30
0.0
 11
102.344
 21
29.9475
 31
0.0
  0
LINE
  8
0
 62
     0
 10
102.344
 20
29.9475
 30
0.0
 11
88.3447
 21
29.9475
 31
0.0
  0
LINE
  8
0
 62
     0
 10
88.3447
 20
29.9475
 30
0.0
 11
88.3447
 21
43.9469
 31
0.0
  0
LINE
  8
0
 62
     0
 10
297.895
 20
43.9469
 30
0.0
 11
311.894
 21
43.9469
 31
0.0
  0
LINE
  8
0
 62
     0
 10
311.894
 20
43.9469
 30
0.0
 11
311.894
 21
29.9475
 31
0.0
  0
LINE
  8
0
 62
     0
 10
311.894
 20
29.9475
 30
0.0
 11
297.895
 21
29.9475
 31
0.0
  0
LINE
  8
0
 62
     0
 10
297.895
 20
29.9475
 30
0.0
 11
297.895
 21
43.9469
 31
0.0
  0
LINE
  8
0
 62
     0
 10
316.945
 20
43.9469
 30
0.0
 11
330.944
 21
43.9469
 31
0.0
  0
LINE
  8
0
 62
     0
 10
330.944
 20
43.9469
 30
0.0
 11
330.944
 21
29.9475
 31
0.0
  0
LINE
  8
0
 62
     0
 10
330.944
 20
29.9475
 30
0.0
 11
316.945
 21
29.9475
 31
0.0
  0
LINE
  8
0
 62
     0
 10
316.945
 20
29.9475
 30
0.0
 11
316.945
 21
43.9469
 31
0.0
  0
LINE
  8
0
 62
     0
 10
335.995
 20
43.9469
 30
0.0
 11
349.994
 21
43.9469
 31
0.0
  0
LINE
  8
0
 62
     0
 10
349.994
 20
43.9469
 30
0.0
 11
349.994
 21
29.9475
 31
0.0
  0
LINE
  8
0
 62
     0
 10
349.994
 20
29.9475
 30
0.0
 11
335.995
 21
29.9475
 31
0.0
  0
LINE
  8
0
 62
     0
 10
335.995
 20
29.9475
 30
0.0
 11
335.995
 21
43.9469
 31
0.0
  0
LINE
  8
0
 62
     0
 10
357.427
 20
43.9469
 30
0.0
 11
371.426
 21
43.9469
 31
0.0
  0
LINE
  8
0
 62
     0
 10
371.426
 20
43.9469
 30
0.0
 11
371.426
 21
29.9475
 31
0.0
  0
LINE
  8
0
 62
     0
 10
371.426
 20
29.9475
 30
0.0
 11
357.427
 21
29.9475
 31
0.0
  0
LINE
  8
0
 62
     0
 10
357.427
 20
29.9475
 30
0.0
 11
357.427
 21
43.9469
 31
0.0
  0
LINE
  8
0
 62
     0
 10
381.236
 20
43.9469
 30
0.0
 11
395.238
 21
43.9469
 31
0.0
  0
LINE
  8
0
 62
     0
 10
395.238
 20
43.9469
 30
0.0
 11
395.238
 21
29.9475
 31
0.0
  0
LINE
  8
0
 62
     0
 10
395.238
 20
29.9475
 30
0.0
 11
381.236
 21
29.9475
 31
0.0
  0
LINE
  8
0
 62
     0
 10
381.236
 20
29.9475
 30
0.0
 11
381.236
 21
43.9469
 31
0.0
  0
LINE
  8
0
 62
     0
 10
217.368
 20
54.8555
 30
0.0
 11
219.316
 21
40.991
 31
0.0
  0
LINE
  8
0
 62
     0
 10
219.316
 20
40.991
 30
0.0
 11
233.179
 21
42.9398
 31
0.0
  0
LINE
  8
0
 62
     0
 10
233.179
 20
42.9398
 30
0.0
 11
231.232
 21
56.8043
 31
0.0
  0
LINE
  8
0
 62
     0
 10
231.232
 20
56.8043
 30
0.0
 11
217.368
 21
54.8555
 31
0.0
  0
LINE
  8
0
 62
     0
 10
167.095
 20
43.4703
 30
0.0
 11
180.96
 21
41.5216
 31
0.0
  0
LINE
  8
0
 62
     0
 10
180.96
 20
41.5216
 30
0.0
 11
182.907
 21
55.3847
 31
0.0
  0
LINE
  8
0
 62
     0
 10
182.907
 20
55.3847
 30
0.0
 11
169.044
 21
57.3345
 31
0.0
  0
LINE
  8
0
 62
     0
 10
169.044
 20
57.3345
 30
0.0
 11
167.095
 21
43.4703
 31
0.0
  0
LINE
  8
0
 62
     0
 10
19.287
 20
62.9969
 30
0.0
 11
19.287
 21
58.2965
 31
0.0
  0
LINE
  8
0
 62
     0
 10
19.287
 20
58.2965
 30
0.0
 11
17.7629
 21
58.2965
 31
0.0
  0
LINE
  8
0
 62
     0
 10
17.7629
 20
58.2965
 30
0.0
 11
17.7629
 21
61.5266
 31
0.0
  0
LINE
  8
0
 62
     0
 10
17.7629
 20
61.5266
 30
0.0
 11
11.0119
 21
61.5266
 31
0.0
  0
LINE
  8
0
 62
     0
 10
11.0119
 20
61.5266
 30
0.0
 11
11.0119
 21
58.2965
 31
0.0
  0
LINE
  8
0
 62
     0
 10
11.0119
 20
58.2965
 30
0.0
 11
10.1878
 21
58.2965
 31
0.0
  0
LINE
  8
0
 62
     0
 10
10.1878
 20
58.2965
 30
0.0
 11
10.1878
 21
55.4976
 31
0.0
  0
LINE
  8
0
 62
     0
 10
10.1878
 20
55.4976
 30
0.0
 11
11.0119
 21
55.4976
 31
0.0
  0
LINE
  8
0
 62
     0
 10
11.0119
 20
55.4976
 30
0.0
 11
11.0119
 21
49.2277
 31
0.0
  0
LINE
  8
0
 62
     0
 10
11.0119
 20
49.2277
 30
0.0
 11
12.7372
 21
49.2277
 31
0.0
  0
LINE
  8
0
 62
     0
 10
12.7372
 20
49.2277
 30
0.0
 11
12.7372
 21
48.0275
 31
0.0
  0
LINE
  8
0
 62
     0
 10
12.7372
 20
48.0275
 30
0.0
 11
16.0376
 21
48.0275
 31
0.0
  0
LINE
  8
0
 62
     0
 10
16.0376
 20
48.0275
 30
0.0
 11
16.0376
 21
49.2277
 31
0.0
  0
LINE
  8
0
 62
     0
 10
16.0376
 20
49.2277
 30
0.0
 11
17.7629
 21
49.2277
 31
0.0
  0
LINE
  8
0
 62
     0
 10
17.7629
 20
49.2277
 30
0.0
 11
17.7629
 21
53.6967
 31
0.0
  0
LINE
  8
0
 62
     0
 10
17.7629
 20
53.6967
 30
0.0
 11
19.287
 21
53.6967
 31
0.0
  0
LINE
  8
0
 62
     0
 10
19.287
 20
53.6967
 30
0.0
 11
19.287
 21
48.9977
 31
0.0
  0
LINE
  8
0
 62
     0
 10
19.287
 20
48.9977
 30
0.0
 11
33.2879
 21
48.9977
 31
0.0
  0
LINE
  8
0
 62
     0
 10
33.2879
 20
48.9977
 30
0.0
 11
33.2879
 21
53.6967
 31
0.0
  0
LINE
  8
0
 62
     0
 10
33.2879
 20
53.6967
 30
0.0
 11
34.812
 21
53.6967
 31
0.0
  0
LINE
  8
0
 62
     0
 10
34.812
 20
53.6967
 30
0.0
 11
34.812
 21
49.2277
 31
0.0
  0
LINE
  8
0
 62
     0
 10
34.812
 20
49.2277
 30
0.0
 11
36.5372
 21
49.2277
 31
0.0
  0
LINE
  8
0
 62
     0
 10
36.5372
 20
49.2277
 30
0.0
 11
36.5372
 21
48.0275
 31
0.0
  0
LINE
  8
0
 62
     0
 10
36.5372
 20
48.0275
 30
0.0
 11
39.8378
 21
48.0275
 31
0.0
  0
LINE
  8
0
 62
     0
 10
39.8378
 20
48.0275
 30
0.0
 11
39.8378
 21
49.2277
 31
0.0
  0
LINE
  8
0
 62
     0
 10
39.8378
 20
49.2277
 30
0.0
 11
41.5629
 21
49.2277
 31
0.0
  0
LINE
  8
0
 62
     0
 10
41.5629
 20
49.2277
 30
0.0
 11
41.5629
 21
55.4976
 31
0.0
  0
LINE
  8
0
 62
     0
 10
41.5629
 20
55.4976
 30
0.0
 11
42.387
 21
55.4976
 31
0.0
  0
LINE
  8
0
 62
     0
 10
42.387
 20
55.4976
 30
0.0
 11
42.387
 21
58.2965
 31
0.0
  0
LINE
  8
0
 62
     0
 10
42.387
 20
58.2965
 30
0.0
 11
41.5629
 21
58.2965
 31
0.0
  0
LINE
  8
0
 62
     0
 10
41.5629
 20
58.2965
 30
0.0
 11
41.5629
 21
61.5266
 31
0.0
  0
LINE
  8
0
 62
     0
 10
41.5629
 20
61.5266
 30
0.0
 11
34.812
 21
61.5266
 31
0.0
  0
LINE
  8
0
 62
     0
 10
34.812
 20
61.5266
 30
0.0
 11
34.812
 21
58.2965
 31
0.0
  0
LINE
  8
0
 62
     0
 10
34.812
 20
58.2965
 30
0.0
 11
33.2879
 21
58.2965
 31
0.0
  0
LINE
  8
0
 62
     0
 10
33.2879
 20
58.2965
 30
0.0
 11
33.2879
 21
62.9969
 31
0.0
  0
LINE
  8
0
 62
     0
 10
33.2879
 20
62.9969
 30
0.0
 11
19.287
 21
62.9969
 31
0.0
  0
LINE
  8
0
 62
     0
 10
371.711
 20
62.9969
 30
0.0
 11
371.711
 21
58.2965
 31
0.0
  0
LINE
  8
0
 62
     0
 10
371.711
 20
58.2965
 30
0.0
 11
370.187
 21
58.2965
 31
0.0
  0
LINE
  8
0
 62
     0
 10
370.187
 20
58.2965
 30
0.0
 11
370.187
 21
61.5266
 31
0.0
  0
LINE
  8
0
 62
     0
 10
370.187
 20
61.5266
 30
0.0
 11
363.435
 21
61.5266
 31
0.0
  0
LINE
  8
0
 62
     0
 10
363.435
 20
61.5266
 30
0.0
 11
363.435
 21
58.2965
 31
0.0
  0
LINE
  8
0
 62
     0
 10
363.435
 20
58.2965
 30
0.0
 11
362.613
 21
58.2965
 31
0.0
  0
LINE
  8
0
 62
     0
 10
362.613
 20
58.2965
 30
0.0
 11
362.613
 21
55.4976
 31
0.0
  0
LINE
  8
0
 62
     0
 10
362.613
 20
55.4976
 30
0.0
 11
363.435
 21
55.4976
 31
0.0
  0
LINE
  8
0
 62
     0
 10
363.435
 20
55.4976
 30
0.0
 11
363.435
 21
49.2277
 31
0.0
  0
LINE
  8
0
 62
     0
 10
363.435
 20
49.2277
 30
0.0
 11
365.164
 21
49.2277
 31
0.0
  0
LINE
  8
0
 62
     0
 10
365.164
 20
49.2277
 30
0.0
 11
365.164
 21
48.0275
 31
0.0
  0
LINE
  8
0
 62
     0
 10
365.164
 20
48.0275
 30
0.0
 11
368.462
 21
48.0275
 31
0.0
  0
LINE
  8
0
 62
     0
 10
368.462
 20
48.0275
 30
0.0
 11
368.462
 21
49.2277
 31
0.0
  0
LINE
  8
0
 62
     0
 10
368.462
 20
49.2277
 30
0.0
 11
370.187
 21
49.2277
 31
0.0
  0
LINE
  8
0
 62
     0
 10
370.187
 20
49.2277
 30
0.0
 11
370.187
 21
53.6967
 31
0.0
  0
LINE
  8
0
 62
     0
 10
370.187
 20
53.6967
 30
0.0
 11
371.711
 21
53.6967
 31
0.0
  0
LINE
  8
0
 62
     0
 10
371.711
 20
53.6967
 30
0.0
 11
371.711
 21
48.9977
 31
0.0
  0
LINE
  8
0
 62
     0
 10
371.711
 20
48.9977
 30
0.0
 11
385.713
 21
48.9977
 31
0.0
  0
LINE
  8
0
 62
     0
 10
385.713
 20
48.9977
 30
0.0
 11
385.713
 21
53.6967
 31
0.0
  0
LINE
  8
0
 62
     0
 10
385.713
 20
53.6967
 30
0.0
 11
387.237
 21
53.6967
 31
0.0
  0
LINE
  8
0
 62
     0
 10
387.237
 20
53.6967
 30
0.0
 11
387.237
 21
49.2277
 31
0.0
  0
LINE
  8
0
 62
     0
 10
387.237
 20
49.2277
 30
0.0
 11
388.962
 21
49.2277
 31
0.0
  0
LINE
  8
0
 62
     0
 10
388.962
 20
49.2277
 30
0.0
 11
388.962
 21
48.0275
 31
0.0
  0
LINE
  8
0
 62
     0
 10
388.962
 20
48.0275
 30
0.0
 11
392.264
 21
48.0275
 31
0.0
  0
LINE
  8
0
 62
     0
 10
392.264
 20
48.0275
 30
0.0
 11
392.264
 21
49.2277
 31
0.0
  0
LINE
  8
0
 62
     0
 10
392.264
 20
49.2277
 30
0.0
 11
393.989
 21
49.2277
 31
0.0
  0
LINE
  8
0
 62
     0
 10
393.989
 20
49.2277
 30
0.0
 11
393.989
 21
55.4976
 31
0.0
  0
LINE
  8
0
 62
     0
 10
393.989
 20
55.4976
 30
0.0
 11
394.811
 21
55.4976
 31
0.0
  0
LINE
  8
0
 62
     0
 10
394.811
 20
55.4976
 30
0.0
 11
394.811
 21
58.2965
 31
0.0
  0
LINE
  8
0
 62
     0
 10
394.811
 20
58.2965
 30
0.0
 11
393.989
 21
58.2965
 31
0.0
  0
LINE
  8
0
 62
     0
 10
393.989
 20
58.2965
 30
0.0
 11
393.989
 21
61.5266
 31
0.0
  0
LINE
  8
0
 62
     0
 10
393.989
 20
61.5266
 30
0.0
 11
387.237
 21
61.5266
 31
0.0
  0
LINE
  8
0
 62
     0
 10
387.237
 20
61.5266
 30
0.0
 11
387.237
 21
58.2965
 31
0.0
  0
LINE
  8
0
 62
     0
 10
387.237
 20
58.2965
 30
0.0
 11
385.713
 21
58.2965
 31
0.0
  0
LINE
  8
0
 62
     0
 10
385.713
 20
58.2965
 30
0.0
 11
385.713
 21
62.9969
 31
0.0
  0
LINE
  8
0
 62
     0
 10
385.713
 20
62.9969
 30
0.0
 11
371.711
 21
62.9969
 31
0.0
  0
LINE
  8
0
 62
     0
 10
50.2447
 20
62.9969
 30
0.0
 11
64.244
 21
62.9969
 31
0.0
  0
LINE
  8
0
 62
     0
 10
64.244
 20
62.9969
 30
0.0
 11
64.244
 21
48.9977
 31
0.0
  0
LINE
  8
0
 62
     0
 10
64.244
 20
48.9977
 30
0.0
 11
50.2447
 21
48.9977
 31
0.0
  0
LINE
  8
0
 62
     0
 10
50.2447
 20
48.9977
 30
0.0
 11
50.2447
 21
62.9969
 31
0.0
  0
LINE
  8
0
 62
     0
 10
69.2947
 20
62.9969
 30
0.0
 11
83.294
 21
62.9969
 31
0.0
  0
LINE
  8
0
 62
     0
 10
83.294
 20
62.9969
 30
0.0
 11
83.294
 21
48.9977
 31
0.0
  0
LINE
  8
0
 62
     0
 10
83.294
 20
48.9977
 30
0.0
 11
69.2947
 21
48.9977
 31
0.0
  0
LINE
  8
0
 62
     0
 10
69.2947
 20
48.9977
 30
0.0
 11
69.2947
 21
62.9969
 31
0.0
  0
LINE
  8
0
 62
     0
 10
88.3447
 20
62.9969
 30
0.0
 11
102.344
 21
62.9969
 31
0.0
  0
LINE
  8
0
 62
     0
 10
102.344
 20
62.9969
 30
0.0
 11
102.344
 21
48.9977
 31
0.0
  0
LINE
  8
0
 62
     0
 10
102.344
 20
48.9977
 30
0.0
 11
88.3447
 21
48.9977
 31
0.0
  0
LINE
  8
0
 62
     0
 10
88.3447
 20
48.9977
 30
0.0
 11
88.3447
 21
62.9969
 31
0.0
  0
LINE
  8
0
 62
     0
 10
107.395
 20
62.9969
 30
0.0
 11
121.394
 21
62.9969
 31
0.0
  0
LINE
  8
0
 62
     0
 10
121.394
 20
62.9969
 30
0.0
 11
121.394
 21
48.9977
 31
0.0
  0
LINE
  8
0
 62
     0
 10
121.394
 20
48.9977
 30
0.0
 11
107.395
 21
48.9977
 31
0.0
  0
LINE
  8
0
 62
     0
 10
107.395
 20
48.9977
 30
0.0
 11
107.395
 21
62.9969
 31
0.0
  0
LINE
  8
0
 62
     0
 10
126.445
 20
62.9969
 30
0.0
 11
140.444
 21
62.9969
 31
0.0
  0
LINE
  8
0
 62
     0
 10
140.444
 20
62.9969
 30
0.0
 11
140.444
 21
48.9977
 31
0.0
  0
LINE
  8
0
 62
     0
 10
140.444
 20
48.9977
 30
0.0
 11
126.445
 21
48.9977
 31
0.0
  0
LINE
  8
0
 62
     0
 10
126.445
 20
48.9977
 30
0.0
 11
126.445
 21
62.9969
 31
0.0
  0
LINE
  8
0
 62
     0
 10
259.795
 20
62.9969
 30
0.0
 11
273.794
 21
62.9969
 31
0.0
  0
LINE
  8
0
 62
     0
 10
273.794
 20
62.9969
 30
0.0
 11
273.794
 21
48.9977
 31
0.0
  0
LINE
  8
0
 62
     0
 10
273.794
 20
48.9977
 30
0.0
 11
259.795
 21
48.9977
 31
0.0
  0
LINE
  8
0
 62
     0
 10
259.795
 20
48.9977
 30
0.0
 11
259.795
 21
62.9969
 31
0.0
  0
LINE
  8
0
 62
     0
 10
278.845
 20
62.9969
 30
0.0
 11
292.844
 21
62.9969
 31
0.0
  0
LINE
  8
0
 62
     0
 10
292.844
 20
62.9969
 30
0.0
 11
292.844
 21
48.9977
 31
0.0
  0
LINE
  8
0
 62
     0
 10
292.844
 20
48.9977
 30
0.0
 11
278.845
 21
48.9977
 31
0.0
  0
LINE
  8
0
 62
     0
 10
278.845
 20
48.9977
 30
0.0
 11
278.845
 21
62.9969
 31
0.0
  0
LINE
  8
0
 62
     0
 10
297.895
 20
62.9969
 30
0.0
 11
311.894
 21
62.9969
 31
0.0
  0
LINE
  8
0
 62
     0
 10
311.894
 20
62.9969
 30
0.0
 11
311.894
 21
48.9977
 31
0.0
  0
LINE
  8
0
 62
     0
 10
311.894
 20
48.9977
 30
0.0
 11
297.895
 21
48.9977
 31
0.0
  0
LINE
  8
0
 62
     0
 10
297.895
 20
48.9977
 30
0.0
 11
297.895
 21
62.9969
 31
0.0
  0
LINE
  8
0
 62
     0
 10
316.945
 20
62.9969
 30
0.0
 11
330.944
 21
62.9969
 31
0.0
  0
LINE
  8
0
 62
     0
 10
330.944
 20
62.9969
 30
0.0
 11
330.944
 21
48.9977
 31
0.0
  0
LINE
  8
0
 62
     0
 10
330.944
 20
48.9977
 30
0.0
 11
316.945
 21
48.9977
 31
0.0
  0
LINE
  8
0
 62
     0
 10
316.945
 20
48.9977
 30
0.0
 11
316.945
 21
62.9969
 31
0.0
  0
LINE
  8
0
 62
     0
 10
335.995
 20
62.9969
 30
0.0
 11
349.994
 21
62.9969
 31
0.0
  0
LINE
  8
0
 62
     0
 10
349.994
 20
62.9969
 30
0.0
 11
349.994
 21
48.9977
 31
0.0
  0
LINE
  8
0
 62
     0
 10
349.994
 20
48.9977
 30
0.0
 11
335.995
 21
48.9977
 31
0.0
  0
LINE
  8
0
 62
     0
 10
335.995
 20
48.9977
 30
0.0
 11
335.995
 21
62.9969
 31
0.0
  0
LINE
  8
0
 62
     0
 10
386.002
 20
82.0469
 30
0.0
 11
386.002
 21
77.3465
 31
0.0
  0
LINE
  8
0
 62
     0
 10
386.002
 20
77.3465
 30
0.0
 11
384.475
 21
77.3465
 31
0.0
  0
LINE
  8
0
 62
     0
 10
384.475
 20
77.3465
 30
0.0
 11
384.475
 21
80.5766
 31
0.0
  0
LINE
  8
0
 62
     0
 10
384.475
 20
80.5766
 30
0.0
 11
377.726
 21
80.5766
 31
0.0
  0
LINE
  8
0
 62
     0
 10
377.726
 20
80.5766
 30
0.0
 11
377.726
 21
77.3465
 31
0.0
  0
LINE
  8
0
 62
     0
 10
377.726
 20
77.3465
 30
0.0
 11
376.901
 21
77.3465
 31
0.0
  0
LINE
  8
0
 62
     0
 10
376.901
 20
77.3465
 30
0.0
 11
376.901
 21
74.5476
 31
0.0
  0
LINE
  8
0
 62
     0
 10
376.901
 20
74.5476
 30
0.0
 11
377.726
 21
74.5476
 31
0.0
  0
LINE
  8
0
 62
     0
 10
377.726
 20
74.5476
 30
0.0
 11
377.726
 21
68.2777
 31
0.0
  0
LINE
  8
0
 62
     0
 10
377.726
 20
68.2777
 30
0.0
 11
379.451
 21
68.2777
 31
0.0
  0
LINE
  8
0
 62
     0
 10
379.451
 20
68.2777
 30
0.0
 11
379.451
 21
67.0775
 31
0.0
  0
LINE
  8
0
 62
     0
 10
379.451
 20
67.0775
 30
0.0
 11
382.75
 21
67.0775
 31
0.0
  0
LINE
  8
0
 62
     0
 10
382.75
 20
67.0775
 30
0.0
 11
382.75
 21
68.2777
 31
0.0
  0
LINE
  8
0
 62
     0
 10
382.75
 20
68.2777
 30
0.0
 11
384.475
 21
68.2777
 31
0.0
  0
LINE
  8
0
 62
     0
 10
384.475
 20
68.2777
 30
0.0
 11
384.475
 21
72.7467
 31
0.0
  0
LINE
  8
0
 62
     0
 10
384.475
 20
72.7467
 30
0.0
 11
386.002
 21
72.7467
 31
0.0
  0
LINE
  8
0
 62
     0
 10
386.002
 20
72.7467
 30
0.0
 11
386.002
 21
68.0477
 31
0.0
  0
LINE
  8
0
 62
     0
 10
386.002
 20
68.0477
 30
0.0
 11
400.001
 21
68.0477
 31
0.0
  0
LINE
  8
0
 62
     0
 10
400.001
 20
68.0477
 30
0.0
 11
400.001
 21
72.7467
 31
0.0
  0
LINE
  8
0
 62
     0
 10
400.001
 20
72.7467
 30
0.0
 11
401.525
 21
72.7467
 31
0.0
  0
LINE
  8
0
 62
     0
 10
401.525
 20
72.7467
 30
0.0
 11
401.525
 21
68.2777
 31
0.0
  0
LINE
  8
0
 62
     0
 10
401.525
 20
68.2777
 30
0.0
 11
403.25
 21
68.2777
 31
0.0
  0
LINE
  8
0
 62
     0
 10
403.25
 20
68.2777
 30
0.0
 11
403.25
 21
67.0775
 31
0.0
  0
LINE
  8
0
 62
     0
 10
403.25
 20
67.0775
 30
0.0
 11
406.552
 21
67.0775
 31
0.0
  0
LINE
  8
0
 62
     0
 10
406.552
 20
67.0775
 30
0.0
 11
406.552
 21
68.2777
 31
0.0
  0
LINE
  8
0
 62
     0
 10
406.552
 20
68.2777
 30
0.0
 11
408.277
 21
68.2777
 31
0.0
  0
LINE
  8
0
 62
     0
 10
408.277
 20
68.2777
 30
0.0
 11
408.277
 21
74.5476
 31
0.0
  0
LINE
  8
0
 62
     0
 10
408.277
 20
74.5476
 30
0.0
 11
409.102
 21
74.5476
 31
0.0
  0
LINE
  8
0
 62
     0
 10
409.102
 20
74.5476
 30
0.0
 11
409.102
 21
77.3465
 31
0.0
  0
LINE
  8
0
 62
     0
 10
409.102
 20
77.3465
 30
0.0
 11
408.277
 21
77.3465
 31
0.0
  0
LINE
  8
0
 62
     0
 10
408.277
 20
77.3465
 30
0.0
 11
408.277
 21
80.5766
 31
0.0
  0
LINE
  8
0
 62
     0
 10
408.277
 20
80.5766
 30
0.0
 11
401.525
 21
80.5766
 31
0.0
  0
LINE
  8
0
 62
     0
 10
401.525
 20
80.5766
 30
0.0
 11
401.525
 21
77.3465
 31
0.0
  0
LINE
  8
0
 62
     0
 10
401.525
 20
77.3465
 30
0.0
 11
400.001
 21
77.3465
 31
0.0
  0
LINE
  8
0
 62
     0
 10
400.001
 20
77.3465
 30
0.0
 11
400.001
 21
82.0469
 31
0.0
  0
LINE
  8
0
 62
     0
 10
400.001
 20
82.0469
 30
0.0
 11
386.002
 21
82.0469
 31
0.0
  0
LINE
  8
0
 62
     0
 10
24.0509
 20
82.0469
 30
0.0
 11
38.0503
 21
82.0469
 31
0.0
  0
LINE
  8
0
 62
     0
 10
38.0503
 20
82.0469
 30
0.0
 11
38.0503
 21
68.0477
 31
0.0
  0
LINE
  8
0
 62
     0
 10
38.0503
 20
68.0477
 30
0.0
 11
24.0509
 21
68.0477
 31
0.0
  0
LINE
  8
0
 62
     0
 10
24.0509
 20
68.0477
 30
0.0
 11
24.0509
 21
82.0469
 31
0.0
  0
LINE
  8
0
 62
     0
 10
50.2447
 20
82.0469
 30
0.0
 11
64.244
 21
82.0469
 31
0.0
  0
LINE
  8
0
 62
     0
 10
64.244
 20
82.0469
 30
0.0
 11
64.244
 21
68.0477
 31
0.0
  0
LINE
  8
0
 62
     0
 10
64.244
 20
68.0477
 30
0.0
 11
50.2447
 21
68.0477
 31
0.0
  0
LINE
  8
0
 62
     0
 10
50.2447
 20
68.0477
 30
0.0
 11
50.2447
 21
82.0469
 31
0.0
  0
LINE
  8
0
 62
     0
 10
69.2947
 20
82.0469
 30
0.0
 11
83.294
 21
82.0469
 31
0.0
  0
LINE
  8
0
 62
     0
 10
83.294
 20
82.0469
 30
0.0
 11
83.294
 21
68.0477
 31
0.0
  0
LINE
  8
0
 62
     0
 10
83.294
 20
68.0477
 30
0.0
 11
69.2947
 21
68.0477
 31
0.0
  0
LINE
  8
0
 62
     0
 10
69.2947
 20
68.0477
 30
0.0
 11
69.2947
 21
82.0469
 31
0.0
  0
LINE
  8
0
 62
     0
 10
88.3447
 20
82.0469
 30
0.0
 11
102.344
 21
82.0469
 31
0.0
  0
LINE
  8
0
 62
     0
 10
102.344
 20
82.0469
 30
0.0
 11
102.344
 21
68.0477
 31
0.0
  0
LINE
  8
0
 62
     0
 10
102.344
 20
68.0477
 30
0.0
 11
88.3447
 21
68.0477
 31
0.0
  0
LINE
  8
0
 62
     0
 10
88.3447
 20
68.0477
 30
0.0
 11
88.3447
 21
82.0469
 31
0.0
  0
LINE
  8
0
 62
     0
 10
107.395
 20
82.0469
 30
0.0
 11
121.394
 21
82.0469
 31
0.0
  0
LINE
  8
0
 62
     0
 10
121.394
 20
82.0469
 30
0.0
 11
121.394
 21
68.0477
 31
0.0
  0
LINE
  8
0
 62
     0
 10
121.394
 20
68.0477
 30
0.0
 11
107.395
 21
68.0477
 31
0.0
  0
LINE
  8
0
 62
     0
 10
107.395
 20
68.0477
 30
0.0
 11
107.395
 21
82.0469
 31
0.0
  0
LINE
  8
0
 62
     0
 10
126.445
 20
82.0469
 30
0.0
 11
140.444
 21
82.0469
 31
0.0
  0
LINE
  8
0
 62
     0
 10
140.444
 20
82.0469
 30
0.0
 11
140.444
 21
68.0477
 31
0.0
  0
LINE
  8
0
 62
     0
 10
140.444
 20
68.0477
 30
0.0
 11
126.445
 21
68.0477
 31
0.0
  0
LINE
  8
0
 62
     0
 10
126.445
 20
68.0477
 30
0.0
 11
126.445
 21
82.0469
 31
0.0
  0
LINE
  8
0
 62
     0
 10
145.495
 20
82.0469
 30
0.0
 11
159.494
 21
82.0469
 31
0.0
  0
LINE
  8
0
 62
     0
 10
159.494
 20
82.0469
 30
0.0
 11
159.494
 21
68.0477
 31
0.0
  0
LINE
  8
0
 62
     0
 10
159.494
 20
68.0477
 30
0.0
 11
145.495
 21
68.0477
 31
0.0
  0
LINE
  8
0
 62
     0
 10
145.495
 20
68.0477
 30
0.0
 11
145.495
 21
82.0469
 31
0.0
  0
LINE
  8
0
 62
     0
 10
169.307
 20
82.0469
 30
0.0
 11
183.307
 21
82.0469
 31
0.0
  0
LINE
  8
0
 62
     0
 10
183.307
 20
82.0469
 30
0.0
 11
183.307
 21
68.0477
 31
0.0
  0
LINE
  8
0
 62
     0
 10
183.307
 20
68.0477
 30
0.0
 11
169.307
 21
68.0477
 31
0.0
  0
LINE
  8
0
 62
     0
 10
169.307
 20
68.0477
 30
0.0
 11
169.307
 21
82.0469
 31
0.0
  0
LINE
  8
0
 62
     0
 10
216.932
 20
82.0469
 30
0.0
 11
230.932
 21
82.0469
 31
0.0
  0
LINE
  8
0
 62
     0
 10
230.932
 20
82.0469
 30
0.0
 11
230.932
 21
68.0477
 31
0.0
  0
LINE
  8
0
 62
     0
 10
230.932
 20
68.0477
 30
0.0
 11
216.932
 21
68.0477
 31
0.0
  0
LINE
  8
0
 62
     0
 10
216.932
 20
68.0477
 30
0.0
 11
216.932
 21
82.0469
 31
0.0
  0
LINE
  8
0
 62
     0
 10
240.745
 20
82.0469
 30
0.0
 11
254.744
 21
82.0469
 31
0.0
  0
LINE
  8
0
 62
     0
 10
254.744
 20
82.0469
 30
0.0
 11
254.744
 21
68.0477
 31
0.0
  0
LINE
  8
0
 62
     0
 10
254.744
 20
68.0477
 30
0.0
 11
240.745
 21
68.0477
 31
0.0
  0
LINE
  8
0
 62
     0
 10
240.745
 20
68.0477
 30
0.0
 11
240.745
 21
82.0469
 31
0.0
  0
LINE
  8
0
 62
     0
 10
259.795
 20
82.0469
 30
0.0
 11
273.794
 21
82.0469
 31
0.0
  0
LINE
  8
0
 62
     0
 10
273.794
 20
82.0469
 30
0.0
 11
273.794
 21
68.0477
 31
0.0
  0
LINE
  8
0
 62
     0
 10
273.794
 20
68.0477
 30
0.0
 11
259.795
 21
68.0477
 31
0.0
  0
LINE
  8
0
 62
     0
 10
259.795
 20
68.0477
 30
0.0
 11
259.795
 21
82.0469
 31
0.0
  0
LINE
  8
0
 62
     0
 10
278.845
 20
82.0469
 30
0.0
 11
292.844
 21
82.0469
 31
0.0
  0
LINE
  8
0
 62
     0
 10
292.844
 20
82.0469
 30
0.0
 11
292.844
 21
68.0477
 31
0.0
  0
LINE
  8
0
 62
     0
 10
292.844
 20
68.0477
 30
0.0
 11
278.845
 21
68.0477
 31
0.0
  0
LINE
  8
0
 62
     0
 10
278.845
 20
68.0477
 30
0.0
 11
278.845
 21
82.0469
 31
0.0
  0
LINE
  8
0
 62
     0
 10
297.895
 20
82.0469
 30
0.0
 11
311.894
 21
82.0469
 31
0.0
  0
LINE
  8
0
 62
     0
 10
311.894
 20
82.0469
 30
0.0
 11
311.894
 21
68.0477
 31
0.0
  0
LINE
  8
0
 62
     0
 10
311.894
 20
68.0477
 30
0.0
 11
297.895
 21
68.0477
 31
0.0
  0
LINE
  8
0
 62
     0
 10
297.895
 20
68.0477
 30
0.0
 11
297.895
 21
82.0469
 31
0.0
  0
LINE
  8
0
 62
     0
 10
316.945
 20
82.0469
 30
0.0
 11
330.944
 21
82.0469
 31
0.0
  0
LINE
  8
0
 62
     0
 10
330.944
 20
82.0469
 30
0.0
 11
330.944
 21
68.0477
 31
0.0
  0
LINE
  8
0
 62
     0
 10
330.944
 20
68.0477
 30
0.0
 11
316.945
 21
68.0477
 31
0.0
  0
LINE
  8
0
 62
     0
 10
316.945
 20
68.0477
 30
0.0
 11
316.945
 21
82.0469
 31
0.0
  0
LINE
  8
0
 62
     0
 10
335.995
 20
82.0469
 30
0.0
 11
349.994
 21
82.0469
 31
0.0
  0
LINE
  8
0
 62
     0
 10
349.994
 20
82.0469
 30
0.0
 11
349.994
 21
68.0477
 31
0.0
  0
LINE
  8
0
 62
     0
 10
349.994
 20
68.0477
 30
0.0
 11
335.995
 21
68.0477
 31
0.0
  0
LINE
  8
0
 62
     0
 10
335.995
 20
68.0477
 30
0.0
 11
335.995
 21
82.0469
 31
0.0
  0
LINE
  8
0
 62
     0
 10
355.046
 20
82.0469
 30
0.0
 11
369.044
 21
82.0469
 31
0.0
  0
LINE
  8
0
 62
     0
 10
369.044
 20
82.0469
 30
0.0
 11
369.044
 21
68.0477
 31
0.0
  0
LINE
  8
0
 62
     0
 10
369.044
 20
68.0477
 30
0.0
 11
355.046
 21
68.0477
 31
0.0
  0
LINE
  8
0
 62
     0
 10
355.046
 20
68.0477
 30
0.0
 11
355.046
 21
82.0469
 31
0.0
  0
LINE
  8
0
 62
     0
 10
26.4322
 20
101.097
 30
0.0
 11
40.4315
 21
101.097
 31
0.0
  0
LINE
  8
0
 62
     0
 10
40.4315
 20
101.097
 30
0.0
 11
40.4315
 21
87.0977
 31
0.0
  0
LINE
  8
0
 62
     0
 10
40.4315
 20
87.0977
 30
0.0
 11
26.4322
 21
87.0977
 31
0.0
  0
LINE
  8
0
 62
     0
 10
26.4322
 20
87.0977
 30
0.0
 11
26.4322
 21
101.097
 31
0.0
  0
LINE
  8
0
 62
     0
 10
50.2447
 20
101.097
 30
0.0
 11
64.244
 21
101.097
 31
0.0
  0
LINE
  8
0
 62
     0
 10
64.244
 20
101.097
 30
0.0
 11
64.244
 21
87.0977
 31
0.0
  0
LINE
  8
0
 62
     0
 10
64.244
 20
87.0977
 30
0.0
 11
50.2447
 21
87.0977
 31
0.0
  0
LINE
  8
0
 62
     0
 10
50.2447
 20
87.0977
 30
0.0
 11
50.2447
 21
101.097
 31
0.0
  0
LINE
  8
0
 62
     0
 10
69.2947
 20
101.097
 30
0.0
 11
83.294
 21
101.097
 31
0.0
  0
LINE
  8
0
 62
     0
 10
83.294
 20
101.097
 30
0.0
 11
83.294
 21
87.0977
 31
0.0
  0
LINE
  8
0
 62
     0
 10
83.294
 20
87.0977
 30
0.0
 11
69.2947
 21
87.0977
 31
0.0
  0
LINE
  8
0
 62
     0
 10
69.2947
 20
87.0977
 30
0.0
 11
69.2947
 21
101.097
 31
0.0
  0
LINE
  8
0
 62
     0
 10
88.3447
 20
101.097
 30
0.0
 11
102.344
 21
101.097
 31
0.0
  0
LINE
  8
0
 62
     0
 10
102.344
 20
101.097
 30
0.0
 11
102.344
 21
87.0977
 31
0.0
  0
LINE
  8
0
 62
     0
 10
102.344
 20
87.0977
 30
0.0
 11
88.3447
 21
87.0977
 31
0.0
  0
LINE
  8
0
 62
     0
 10
88.3447
 20
87.0977
 30
0.0
 11
88.3447
 21
101.097
 31
0.0
  0
LINE
  8
0
 62
     0
 10
107.395
 20
101.097
 30
0.0
 11
121.394
 21
101.097
 31
0.0
  0
LINE
  8
0
 62
     0
 10
121.394
 20
101.097
 30
0.0
 11
121.394
 21
87.0977
 31
0.0
  0
LINE
  8
0
 62
     0
 10
121.394
 20
87.0977
 30
0.0
 11
107.395
 21
87.0977
 31
0.0
  0
LINE
  8
0
 62
     0
 10
107.395
 20
87.0977
 30
0.0
 11
107.395
 21
101.097
 31
0.0
  0
LINE
  8
0
 62
     0
 10
126.445
 20
101.097
 30
0.0
 11
140.444
 21
101.097
 31
0.0
  0
LINE
  8
0
 62
     0
 10
140.444
 20
101.097
 30
0.0
 11
140.444
 21
87.0977
 31
0.0
  0
LINE
  8
0
 62
     0
 10
140.444
 20
87.0977
 30
0.0
 11
126.445
 21
87.0977
 31
0.0
  0
LINE
  8
0
 62
     0
 10
126.445
 20
87.0977
 30
0.0
 11
126.445
 21
101.097
 31
0.0
  0
LINE
  8
0
 62
     0
 10
145.495
 20
101.097
 30
0.0
 11
159.494
 21
101.097
 31
0.0
  0
LINE
  8
0
 62
     0
 10
159.494
 20
101.097
 30
0.0
 11
159.494
 21
87.0977
 31
0.0
  0
LINE
  8
0
 62
     0
 10
159.494
 20
87.0977
 30
0.0
 11
145.495
 21
87.0977
 31
0.0
  0
LINE
  8
0
 62
     0
 10
145.495
 20
87.0977
 30
0.0
 11
145.495
 21
101.097
 31
0.0
  0
LINE
  8
0
 62
     0
 10
169.307
 20
101.097
 30
0.0
 11
183.307
 21
101.097
 31
0.0
  0
LINE
  8
0
 62
     0
 10
183.307
 20
101.097
 30
0.0
 11
183.307
 21
87.0977
 31
0.0
  0
LINE
  8
0
 62
     0
 10
183.307
 20
87.0977
 30
0.0
 11
169.307
 21
87.0977
 31
0.0
  0
LINE
  8
0
 62
     0
 10
169.307
 20
87.0977
 30
0.0
 11
169.307
 21
101.097
 31
0.0
  0
LINE
  8
0
 62
     0
 10
216.932
 20
101.097
 30
0.0
 11
230.932
 21
101.097
 31
0.0
  0
LINE
  8
0
 62
     0
 10
230.932
 20
101.097
 30
0.0
 11
230.932
 21
87.0977
 31
0.0
  0
LINE
  8
0
 62
     0
 10
230.932
 20
87.0977
 30
0.0
 11
216.932
 21
87.0977
 31
0.0
  0
LINE
  8
0
 62
     0
 10
216.932
 20
87.0977
 30
0.0
 11
216.932
 21
101.097
 31
0.0
  0
LINE
  8
0
 62
     0
 10
240.745
 20
101.097
 30
0.0
 11
254.744
 21
101.097
 31
0.0
  0
LINE
  8
0
 62
     0
 10
254.744
 20
101.097
 30
0.0
 11
254.744
 21
87.0977
 31
0.0
  0
LINE
  8
0
 62
     0
 10
254.744
 20
87.0977
 30
0.0
 11
240.745
 21
87.0977
 31
0.0
  0
LINE
  8
0
 62
     0
 10
240.745
 20
87.0977
 30
0.0
 11
240.745
 21
101.097
 31
0.0
  0
LINE
  8
0
 62
     0
 10
259.795
 20
101.097
 30
0.0
 11
273.794
 21
101.097
 31
0.0
  0
LINE
  8
0
 62
     0
 10
273.794
 20
101.097
 30
0.0
 11
273.794
 21
87.0977
 31
0.0
  0
LINE
  8
0
 62
     0
 10
273.794
 20
87.0977
 30
0.0
 11
259.795
 21
87.0977
 31
0.0
  0
LINE
  8
0
 62
     0
 10
259.795
 20
87.0977
 30
0.0
 11
259.795
 21
101.097
 31
0.0
  0
LINE
  8
0
 62
     0
 10
278.845
 20
101.097
 30
0.0
 11
292.844
 21
101.097
 31
0.0
  0
LINE
  8
0
 62
     0
 10
292.844
 20
101.097
 30
0.0
 11
292.844
 21
87.0977
 31
0.0
  0
LINE
  8
0
 62
     0
 10
292.844
 20
87.0977
 30
0.0
 11
278.845
 21
87.0977
 31
0.0
  0
LINE
  8
0
 62
     0
 10
278.845
 20
87.0977
 30
0.0
 11
278.845
 21
101.097
 31
0.0
  0
LINE
  8
0
 62
     0
 10
297.895
 20
101.097
 30
0.0
 11
311.894
 21
101.097
 31
0.0
  0
LINE
  8
0
 62
     0
 10
311.894
 20
101.097
 30
0.0
 11
311.894
 21
87.0977
 31
0.0
  0
LINE
  8
0
 62
     0
 10
311.894
 20
87.0977
 30
0.0
 11
297.895
 21
87.0977
 31
0.0
  0
LINE
  8
0
 62
     0
 10
297.895
 20
87.0977
 30
0.0
 11
297.895
 21
101.097
 31
0.0
  0
LINE
  8
0
 62
     0
 10
316.945
 20
101.097
 30
0.0
 11
330.944
 21
101.097
 31
0.0
  0
LINE
  8
0
 62
     0
 10
330.944
 20
101.097
 30
0.0
 11
330.944
 21
87.0977
 31
0.0
  0
LINE
  8
0
 62
     0
 10
330.944
 20
87.0977
 30
0.0
 11
316.945
 21
87.0977
 31
0.0
  0
LINE
  8
0
 62
     0
 10
316.945
 20
87.0977
 30
0.0
 11
316.945
 21
101.097
 31
0.0
  0
LINE
  8
0
 62
     0
 10
335.995
 20
101.097
 30
0.0
 11
349.994
 21
101.097
 31
0.0
  0
LINE
  8
0
 62
     0
 10
349.994
 20
101.097
 30
0.0
 11
349.994
 21
87.0977
 31
0.0
  0
LINE
  8
0
 62
     0
 10
349.994
 20
87.0977
 30
0.0
 11
335.995
 21
87.0977
 31
0.0
  0
LINE
  8
0
 62
     0
 10
335.995
 20
87.0977
 30
0.0
 11
335.995
 21
101.097
 31
0.0
  0
LINE
  8
0
 62
     0
 10
355.046
 20
101.097
 30
0.0
 11
369.044
 21
101.097
 31
0.0
  0
LINE
  8
0
 62
     0
 10
369.044
 20
101.097
 30
0.0
 11
369.044
 21
87.0977
 31
0.0
  0
LINE
  8
0
 62
     0
 10
369.044
 20
87.0977
 30
0.0
 11
355.046
 21
87.0977
 31
0.0
  0
LINE
  8
0
 62
     0
 10
355.046
 20
87.0977
 30
0.0
 11
355.046
 21
101.097
 31
0.0
  0
LINE
  8
0
 62
     0
 10
374.096
 20
101.097
 30
0.0
 11
388.094
 21
101.097
 31
0.0
  0
LINE
  8
0
 62
     0
 10
388.094
 20
101.097
 30
0.0
 11
388.094
 21
87.0977
 31
0.0
  0
LINE
  8
0
 62
     0
 10
388.094
 20
87.0977
 30
0.0
 11
374.096
 21
87.0977
 31
0.0
  0
LINE
  8
0
 62
     0
 10
374.096
 20
87.0977
 30
0.0
 11
374.096
 21
101.097
 31
0.0
  0
LINE
  8
0
 62
     0
 10
397.909
 20
101.097
 30
0.0
 11
411.907
 21
101.097
 31
0.0
  0
LINE
  8
0
 62
     0
 10
411.907
 20
101.097
 30
0.0
 11
411.907
 21
87.0977
 31
0.0
  0
LINE
  8
0
 62
     0
 10
411.907
 20
87.0977
 30
0.0
 11
397.909
 21
87.0977
 31
0.0
  0
LINE
  8
0
 62
     0
 10
397.909
 20
87.0977
 30
0.0
 11
397.909
 21
101.097
 31
0.0
  0
LINE
  8
0
 62
     0
 10
402.671
 20
120.147
 30
0.0
 11
402.671
 21
115.447
 31
0.0
  0
LINE
  8
0
 62
     0
 10
402.671
 20
115.447
 30
0.0
 11
401.144
 21
115.447
 31
0.0
  0
LINE
  8
0
 62
     0
 10
401.144
 20
115.447
 30
0.0
 11
401.144
 21
118.677
 31
0.0
  0
LINE
  8
0
 62
     0
 10
401.144
 20
118.677
 30
0.0
 11
394.395
 21
118.677
 31
0.0
  0
LINE
  8
0
 62
     0
 10
394.395
 20
118.677
 30
0.0
 11
394.395
 21
115.447
 31
0.0
  0
LINE
  8
0
 62
     0
 10
394.395
 20
115.447
 30
0.0
 11
393.569
 21
115.447
 31
0.0
  0
LINE
  8
0
 62
     0
 10
393.569
 20
115.447
 30
0.0
 11
393.569
 21
112.648
 31
0.0
  0
LINE
  8
0
 62
     0
 10
393.569
 20
112.648
 30
0.0
 11
394.395
 21
112.648
 31
0.0
  0
LINE
  8
0
 62
     0
 10
394.395
 20
112.648
 30
0.0
 11
394.395
 21
106.378
 31
0.0
  0
LINE
  8
0
 62
     0
 10
394.395
 20
106.378
 30
0.0
 11
396.12
 21
106.378
 31
0.0
  0
LINE
  8
0
 62
     0
 10
396.12
 20
106.378
 30
0.0
 11
396.12
 21
105.178
 31
0.0
  0
LINE
  8
0
 62
     0
 10
396.12
 20
105.178
 30
0.0
 11
399.419
 21
105.178
 31
0.0
  0
LINE
  8
0
 62
     0
 10
399.419
 20
105.178
 30
0.0
 11
399.419
 21
106.378
 31
0.0
  0
LINE
  8
0
 62
     0
 10
399.419
 20
106.378
 30
0.0
 11
401.144
 21
106.378
 31
0.0
  0
LINE
  8
0
 62
     0
 10
401.144
 20
106.378
 30
0.0
 11
401.144
 21
110.847
 31
0.0
  0
LINE
  8
0
 62
     0
 10
401.144
 20
110.847
 30
0.0
 11
402.671
 21
110.847
 31
0.0
  0
LINE
  8
0
 62
     0
 10
402.671
 20
110.847
 30
0.0
 11
402.671
 21
106.148
 31
0.0
  0
LINE
  8
0
 62
     0
 10
402.671
 20
106.148
 30
0.0
 11
416.669
 21
106.148
 31
0.0
  0
LINE
  8
0
 62
     0
 10
416.669
 20
106.148
 30
0.0
 11
416.669
 21
110.847
 31
0.0
  0
LINE
  8
0
 62
     0
 10
416.669
 20
110.847
 30
0.0
 11
418.193
 21
110.847
 31
0.0
  0
LINE
  8
0
 62
     0
 10
418.193
 20
110.847
 30
0.0
 11
418.193
 21
106.378
 31
0.0
  0
LINE
  8
0
 62
     0
 10
418.193
 20
106.378
 30
0.0
 11
419.918
 21
106.378
 31
0.0
  0
LINE
  8
0
 62
     0
 10
419.918
 20
106.378
 30
0.0
 11
419.918
 21
105.178
 31
0.0
  0
LINE
  8
0
 62
     0
 10
419.918
 20
105.178
 30
0.0
 11
423.22
 21
105.178
 31
0.0
  0
LINE
  8
0
 62
     0
 10
423.22
 20
105.178
 30
0.0
 11
423.22
 21
106.378
 31
0.0
  0
LINE
  8
0
 62
     0
 10
423.22
 20
106.378
 30
0.0
 11
424.946
 21
106.378
 31
0.0
  0
LINE
  8
0
 62
     0
 10
424.946
 20
106.378
 30
0.0
 11
424.946
 21
112.648
 31
0.0
  0
LINE
  8
0
 62
     0
 10
424.946
 20
112.648
 30
0.0
 11
425.771
 21
112.648
 31
0.0
  0
LINE
  8
0
 62
     0
 10
425.771
 20
112.648
 30
0.0
 11
425.771
 21
115.447
 31
0.0
  0
LINE
  8
0
 62
     0
 10
425.771
 20
115.447
 30
0.0
 11
424.946
 21
115.447
 31
0.0
  0
LINE
  8
0
 62
     0
 10
424.946
 20
115.447
 30
0.0
 11
424.946
 21
118.677
 31
0.0
  0
LINE
  8
0
 62
     0
 10
424.946
 20
118.677
 30
0.0
 11
418.193
 21
118.677
 31
0.0
  0
LINE
  8
0
 62
     0
 10
418.193
 20
118.677
 30
0.0
 11
418.193
 21
115.447
 31
0.0
  0
LINE
  8
0
 62
     0
 10
418.193
 20
115.447
 30
0.0
 11
416.669
 21
115.447
 31
0.0
  0
LINE
  8
0
 62
     0
 10
416.669
 20
115.447
 30
0.0
 11
416.669
 21
120.147
 31
0.0
  0
LINE
  8
0
 62
     0
 10
416.669
 20
120.147
 30
0.0
 11
402.671
 21
120.147
 31
0.0
  0
LINE
  8
0
 62
     0
 10
31.1947
 20
120.147
 30
0.0
 11
45.194
 21
120.147
 31
0.0
  0
LINE
  8
0
 62
     0
 10
45.194
 20
120.147
 30
0.0
 11
45.194
 21
106.148
 31
0.0
  0
LINE
  8
0
 62
     0
 10
45.194
 20
106.148
 30
0.0
 11
31.1947
 21
106.148
 31
0.0
  0
LINE
  8
0
 62
     0
 10
31.1947
 20
106.148
 30
0.0
 11
31.1947
 21
120.147
 31
0.0
  0
LINE
  8
0
 62
     0
 10
50.2447
 20
120.147
 30
0.0
 11
64.244
 21
120.147
 31
0.0
  0
LINE
  8
0
 62
     0
 10
64.244
 20
120.147
 30
0.0
 11
64.244
 21
106.148
 31
0.0
  0
LINE
  8
0
 62
     0
 10
64.244
 20
106.148
 30
0.0
 11
50.2447
 21
106.148
 31
0.0
  0
LINE
  8
0
 62
     0
 10
50.2447
 20
106.148
 30
0.0
 11
50.2447
 21
120.147
 31
0.0
  0
LINE
  8
0
 62
     0
 10
69.2947
 20
120.147
 30
0.0
 11
83.294
 21
120.147
 31
0.0
  0
LINE
  8
0
 62
     0
 10
83.294
 20
120.147
 30
0.0
 11
83.294
 21
106.148
 31
0.0
  0
LINE
  8
0
 62
     0
 10
83.294
 20
106.148
 30
0.0
 11
69.2947
 21
106.148
 31
0.0
  0
LINE
  8
0
 62
     0
 10
69.2947
 20
106.148
 30
0.0
 11
69.2947
 21
120.147
 31
0.0
  0
LINE
  8
0
 62
     0
 10
88.3447
 20
120.147
 30
0.0
 11
102.344
 21
120.147
 31
0.0
  0
LINE
  8
0
 62
     0
 10
102.344
 20
120.147
 30
0.0
 11
102.344
 21
106.148
 31
0.0
  0
LINE
  8
0
 62
     0
 10
102.344
 20
106.148
 30
0.0
 11
88.3447
 21
106.148
 31
0.0
  0
LINE
  8
0
 62
     0
 10
88.3447
 20
106.148
 30
0.0
 11
88.3447
 21
120.147
 31
0.0
  0
LINE
  8
0
 62
     0
 10
107.395
 20
120.147
 30
0.0
 11
121.394
 21
120.147
 31
0.0
  0
LINE
  8
0
 62
     0
 10
121.394
 20
120.147
 30
0.0
 11
121.394
 21
106.148
 31
0.0
  0
LINE
  8
0
 62
     0
 10
121.394
 20
106.148
 30
0.0
 11
107.395
 21
106.148
 31
0.0
  0
LINE
  8
0
 62
     0
 10
107.395
 20
106.148
 30
0.0
 11
107.395
 21
120.147
 31
0.0
  0
LINE
  8
0
 62
     0
 10
126.445
 20
120.147
 30
0.0
 11
140.444
 21
120.147
 31
0.0
  0
LINE
  8
0
 62
     0
 10
140.444
 20
120.147
 30
0.0
 11
140.444
 21
106.148
 31
0.0
  0
LINE
  8
0
 62
     0
 10
140.444
 20
106.148
 30
0.0
 11
126.445
 21
106.148
 31
0.0
  0
LINE
  8
0
 62
     0
 10
126.445
 20
106.148
 30
0.0
 11
126.445
 21
120.147
 31
0.0
  0
LINE
  8
0
 62
     0
 10
145.495
 20
120.147
 30
0.0
 11
159.494
 21
120.147
 31
0.0
  0
LINE
  8
0
 62
     0
 10
159.494
 20
120.147
 30
0.0
 11
159.494
 21
106.148
 31
0.0
  0
LINE
  8
0
 62
     0
 10
159.494
 20
106.148
 30
0.0
 11
145.495
 21
106.148
 31
0.0
  0
LINE
  8
0
 62
     0
 10
145.495
 20
106.148
 30
0.0
 11
145.495
 21
120.147
 31
0.0
  0
LINE
  8
0
 62
     0
 10
169.307
 20
120.147
 30
0.0
 11
183.307
 21
120.147
 31
0.0
  0
LINE
  8
0
 62
     0
 10
183.307
 20
120.147
 30
0.0
 11
183.307
 21
106.148
 31
0.0
  0
LINE
  8
0
 62
     0
 10
183.307
 20
106.148
 30
0.0
 11
169.307
 21
106.148
 31
0.0
  0
LINE
  8
0
 62
     0
 10
169.307
 20
106.148
 30
0.0
 11
169.307
 21
120.147
 31
0.0
  0
LINE
  8
0
 62
     0
 10
216.932
 20
120.147
 30
0.0
 11
230.932
 21
120.147
 31
0.0
  0
LINE
  8
0
 62
     0
 10
230.932
 20
120.147
 30
0.0
 11
230.932
 21
106.148
 31
0.0
  0
LINE
  8
0
 62
     0
 10
230.932
 20
106.148
 30
0.0
 11
216.932
 21
106.148
 31
0.0
  0
LINE
  8
0
 62
     0
 10
216.932
 20
106.148
 30
0.0
 11
216.932
 21
120.147
 31
0.0
  0
LINE
  8
0
 62
     0
 10
240.745
 20
120.147
 30
0.0
 11
254.744
 21
120.147
 31
0.0
  0
LINE
  8
0
 62
     0
 10
254.744
 20
120.147
 30
0.0
 11
254.744
 21
106.148
 31
0.0
  0
LINE
  8
0
 62
     0
 10
254.744
 20
106.148
 30
0.0
 11
240.745
 21
106.148
 31
0.0
  0
LINE
  8
0
 62
     0
 10
240.745
 20
106.148
 30
0.0
 11
240.745
 21
120.147
 31
0.0
  0
LINE
  8
0
 62
     0
 10
259.795
 20
120.147
 30
0.0
 11
273.794
 21
120.147
 31
0.0
  0
LINE
  8
0
 62
     0
 10
273.794
 20
120.147
 30
0.0
 11
273.794
 21
106.148
 31
0.0
  0
LINE
  8
0
 62
     0
 10
273.794
 20
106.148
 30
0.0
 11
259.795
 21
106.148
 31
0.0
  0
LINE
  8
0
 62
     0
 10
259.795
 20
106.148
 30
0.0
 11
259.795
 21
120.147
 31
0.0
  0
LINE
  8
0
 62
     0
 10
278.845
 20
120.147
 30
0.0
 11
292.844
 21
120.147
 31
0.0
  0
LINE
  8
0
 62
     0
 10
292.844
 20
120.147
 30
0.0
 11
292.844
 21
106.148
 31
0.0
  0
LINE
  8
0
 62
     0
 10
292.844
 20
106.148
 30
0.0
 11
278.845
 21
106.148
 31
0.0
  0
LINE
  8
0
 62
     0
 10
278.845
 20
106.148
 30
0.0
 11
278.845
 21
120.147
 31
0.0
  0
LINE
  8
0
 62
     0
 10
297.895
 20
120.147
 30
0.0
 11
311.894
 21
120.147
 31
0.0
  0
LINE
  8
0
 62
     0
 10
311.894
 20
120.147
 30
0.0
 11
311.894
 21
106.148
 31
0.0
  0
LINE
  8
0
 62
     0
 10
311.894
 20
106.148
 30
0.0
 11
297.895
 21
106.148
 31
0.0
  0
LINE
  8
0
 62
     0
 10
297.895
 20
106.148
 30
0.0
 11
297.895
 21
120.147
 31
0.0
  0
LINE
  8
0
 62
     0
 10
316.945
 20
120.147
 30
0.0
 11
330.944
 21
120.147
 31
0.0
  0
LINE
  8
0
 62
     0
 10
330.944
 20
120.147
 30
0.0
 11
330.944
 21
106.148
 31
0.0
  0
LINE
  8
0
 62
     0
 10
330.944
 20
106.148
 30
0.0
 11
316.945
 21
106.148
 31
0.0
  0
LINE
  8
0
 62
     0
 10
316.945
 20
106.148
 30
0.0
 11
316.945
 21
120.147
 31
0.0
  0
LINE
  8
0
 62
     0
 10
335.995
 20
120.147
 30
0.0
 11
349.994
 21
120.147
 31
0.0
  0
LINE
  8
0
 62
     0
 10
349.994
 20
120.147
 30
0.0
 11
349.994
 21
106.148
 31
0.0
  0
LINE
  8
0
 62
     0
 10
349.994
 20
106.148
 30
0.0
 11
335.995
 21
106.148
 31
0.0
  0
LINE
  8
0
 62
     0
 10
335.995
 20
106.148
 30
0.0
 11
335.995
 21
120.147
 31
0.0
  0
LINE
  8
0
 62
     0
 10
355.046
 20
120.147
 30
0.0
 11
369.044
 21
120.147
 31
0.0
  0
LINE
  8
0
 62
     0
 10
369.044
 20
120.147
 30
0.0
 11
369.044
 21
106.148
 31
0.0
  0
LINE
  8
0
 62
     0
 10
369.044
 20
106.148
 30
0.0
 11
355.046
 21
106.148
 31
0.0
  0
LINE
  8
0
 62
     0
 10
355.046
 20
106.148
 30
0.0
 11
355.046
 21
120.147
 31
0.0
  0
LINE
  8
0
 62
     0
 10
374.096
 20
120.147
 30
0.0
 11
388.094
 21
120.147
 31
0.0
  0
LINE
  8
0
 62
     0
 10
388.094
 20
120.147
 30
0.0
 11
388.094
 21
106.148
 31
0.0
  0
LINE
  8
0
 62
     0
 10
388.094
 20
106.148
 30
0.0
 11
374.096
 21
106.148
 31
0.0
  0
LINE
  8
0
 62
     0
 10
374.096
 20
106.148
 30
0.0
 11
374.096
 21
120.147
 31
0.0
  0
LINE
  8
0
 62
     0
 10
21.6697
 20
143.959
 30
0.0
 11
35.669
 21
143.959
 31
0.0
  0
LINE
  8
0
 62
     0
 10
35.669
 20
143.959
 30
0.0
 11
35.669
 21
129.96
 31
0.0
  0
LINE
  8
0
 62
     0
 10
35.669
 20
129.96
 30
0.0
 11
21.6697
 21
129.96
 31
0.0
  0
LINE
  8
0
 62
     0
 10
21.6697
 20
129.96
 30
0.0
 11
21.6697
 21
143.959
 31
0.0
  0
LINE
  8
0
 62
     0
 10
45.4822
 20
143.959
 30
0.0
 11
59.4815
 21
143.959
 31
0.0
  0
LINE
  8
0
 62
     0
 10
59.4815
 20
143.959
 30
0.0
 11
59.4815
 21
129.96
 31
0.0
  0
LINE
  8
0
 62
     0
 10
59.4815
 20
129.96
 30
0.0
 11
45.4822
 21
129.96
 31
0.0
  0
LINE
  8
0
 62
     0
 10
45.4822
 20
129.96
 30
0.0
 11
45.4822
 21
143.959
 31
0.0
  0
LINE
  8
0
 62
     0
 10
64.5322
 20
143.959
 30
0.0
 11
78.5315
 21
143.959
 31
0.0
  0
LINE
  8
0
 62
     0
 10
78.5315
 20
143.959
 30
0.0
 11
78.5315
 21
129.96
 31
0.0
  0
LINE
  8
0
 62
     0
 10
78.5315
 20
129.96
 30
0.0
 11
64.5322
 21
129.96
 31
0.0
  0
LINE
  8
0
 62
     0
 10
64.5322
 20
129.96
 30
0.0
 11
64.5322
 21
143.959
 31
0.0
  0
LINE
  8
0
 62
     0
 10
83.5822
 20
143.959
 30
0.0
 11
97.5815
 21
143.959
 31
0.0
  0
LINE
  8
0
 62
     0
 10
97.5815
 20
143.959
 30
0.0
 11
97.5815
 21
129.96
 31
0.0
  0
LINE
  8
0
 62
     0
 10
97.5815
 20
129.96
 30
0.0
 11
83.5822
 21
129.96
 31
0.0
  0
LINE
  8
0
 62
     0
 10
83.5822
 20
129.96
 30
0.0
 11
83.5822
 21
143.959
 31
0.0
  0
LINE
  8
0
 62
     0
 10
102.632
 20
143.959
 30
0.0
 11
116.632
 21
143.959
 31
0.0
  0
LINE
  8
0
 62
     0
 10
116.632
 20
143.959
 30
0.0
 11
116.632
 21
129.96
 31
0.0
  0
LINE
  8
0
 62
     0
 10
116.632
 20
129.96
 30
0.0
 11
102.632
 21
129.96
 31
0.0
  0
LINE
  8
0
 62
     0
 10
102.632
 20
129.96
 30
0.0
 11
102.632
 21
143.959
 31
0.0
  0
LINE
  8
0
 62
     0
 10
126.445
 20
143.959
 30
0.0
 11
140.444
 21
143.959
 31
0.0
  0
LINE
  8
0
 62
     0
 10
140.444
 20
143.959
 30
0.0
 11
140.444
 21
129.96
 31
0.0
  0
LINE
  8
0
 62
     0
 10
140.444
 20
129.96
 30
0.0
 11
126.445
 21
129.96
 31
0.0
  0
LINE
  8
0
 62
     0
 10
126.445
 20
129.96
 30
0.0
 11
126.445
 21
143.959
 31
0.0
  0
LINE
  8
0
 62
     0
 10
145.495
 20
143.959
 30
0.0
 11
159.494
 21
143.959
 31
0.0
  0
LINE
  8
0
 62
     0
 10
159.494
 20
143.959
 30
0.0
 11
159.494
 21
129.96
 31
0.0
  0
LINE
  8
0
 62
     0
 10
159.494
 20
129.96
 30
0.0
 11
145.495
 21
129.96
 31
0.0
  0
LINE
  8
0
 62
     0
 10
145.495
 20
129.96
 30
0.0
 11
145.495
 21
143.959
 31
0.0
  0
LINE
  8
0
 62
     0
 10
240.745
 20
143.959
 30
0.0
 11
254.744
 21
143.959
 31
0.0
  0
LINE
  8
0
 62
     0
 10
254.744
 20
143.959
 30
0.0
 11
254.744
 21
129.96
 31
0.0
  0
LINE
  8
0
 62
     0
 10
254.744
 20
129.96
 30
0.0
 11
240.745
 21
129.96
 31
0.0
  0
LINE
  8
0
 62
     0
 10
240.745
 20
129.96
 30
0.0
 11
240.745
 21
143.959
 31
0.0
  0
LINE
  8
0
 62
     0
 10
259.795
 20
143.959
 30
0.0
 11
273.794
 21
143.959
 31
0.0
  0
LINE
  8
0
 62
     0
 10
273.794
 20
143.959
 30
0.0
 11
273.794
 21
129.96
 31
0.0
  0
LINE
  8
0
 62
     0
 10
273.794
 20
129.96
 30
0.0
 11
259.795
 21
129.96
 31
0.0
  0
LINE
  8
0
 62
     0
 10
259.795
 20
129.96
 30
0.0
 11
259.795
 21
143.959
 31
0.0
  0
LINE
  8
0
 62
     0
 10
283.607
 20
143.959
 30
0.0
 11
297.607
 21
143.959
 31
0.0
  0
LINE
  8
0
 62
     0
 10
297.607
 20
143.959
 30
0.0
 11
297.607
 21
129.96
 31
0.0
  0
LINE
  8
0
 62
     0
 10
297.607
 20
129.96
 30
0.0
 11
283.607
 21
129.96
 31
0.0
  0
LINE
  8
0
 62
     0
 10
283.607
 20
129.96
 30
0.0
 11
283.607
 21
143.959
 31
0.0
  0
LINE
  8
0
 62
     0
 10
302.657
 20
143.959
 30
0.0
 11
316.657
 21
143.959
 31
0.0
  0
LINE
  8
0
 62
     0
 10
316.657
 20
143.959
 30
0.0
 11
316.657
 21
129.96
 31
0.0
  0
LINE
  8
0
 62
     0
 10
316.657
 20
129.96
 30
0.0
 11
302.657
 21
129.96
 31
0.0
  0
LINE
  8
0
 62
     0
 10
302.657
 20
129.96
 30
0.0
 11
302.657
 21
143.959
 31
0.0
  0
LINE
  8
0
 62
     0
 10
321.707
 20
143.959
 30
0.0
 11
335.707
 21
143.959
 31
0.0
  0
LINE
  8
0
 62
     0
 10
335.707
 20
143.959
 30
0.0
 11
335.707
 21
129.96
 31
0.0
  0
LINE
  8
0
 62
     0
 10
335.707
 20
129.96
 30
0.0
 11
321.707
 21
129.96
 31
0.0
  0
LINE
  8
0
 62
     0
 10
321.707
 20
129.96
 30
0.0
 11
321.707
 21
143.959
 31
0.0
  0
LINE
  8
0
 62
     0
 10
340.757
 20
143.959
 30
0.0
 11
354.757
 21
143.959
 31
0.0
  0
LINE
  8
0
 62
     0
 10
354.757
 20
143.959
 30
0.0
 11
354.757
 21
129.96
 31
0.0
  0
LINE
  8
0
 62
     0
 10
354.757
 20
129.96
 30
0.0
 11
340.757
 21
129.96
 31
0.0
  0
LINE
  8
0
 62
     0
 10
340.757
 20
129.96
 30
0.0
 11
340.757
 21
143.959
 31
0.0
  0
LINE
  8
0
 62
     0
 10
364.571
 20
143.959
 30
0.0
 11
378.569
 21
143.959
 31
0.0
  0
LINE
  8
0
 62
     0
 10
378.569
 20
143.959
 30
0.0
 11
378.569
 21
129.96
 31
0.0
  0
LINE
  8
0
 62
     0
 10
378.569
 20
129.96
 30
0.0
 11
364.571
 21
129.96
 31
0.0
  0
LINE
  8
0
 62
     0
 10
364.571
 20
129.96
 30
0.0
 11
364.571
 21
143.959
 31
0.0
  0
ENDSEC
  0
EOF
