<?xml version="1.0"?>
<!-- Generated by SVGo -->
<svg width="443.676mm" height="165.888mm"
     viewBox="0.000 0.000 443.676 165.888"
     xmlns="http://www.w3.org/2000/svg" 
     xmlns:xlink="http://www.w3.org/1999/xlink">
<polygon points="438.676,160.888 5.000,160.888 5.000,5.000 438.676,5.000" style="fill:none;stroke-width:0.050000mm;stroke:black"/>
<polygon points="230.100,141.646 232.049,155.510 245.912,153.561 243.964,139.698" style="fill:none;stroke-width:0.050000mm;stroke:black"/>
<polygon points="169.224,153.031 183.087,154.980 185.036,141.116 171.172,139.167" style="fill:none;stroke-width:0.050000mm;stroke:black"/>
<polygon points="252.810,119.646 252.924,120.463 246.715,121.336 246.955,123.044 245.767,123.211 246.226,126.479 247.415,126.312 247.655,128.020 252.081,127.398 252.293,128.907 247.639,129.562 249.588,143.426 254.242,142.772 254.454,144.282 250.028,144.904 250.268,146.613 249.079,146.780 249.539,150.047 250.727,149.880 250.967,151.589 257.176,150.716 257.291,151.533 260.064,151.143 259.949,150.326 263.147,149.877 262.208,143.193 259.009,143.642 258.797,142.132 263.451,141.478 261.503,127.614 256.849,128.268 256.637,126.758 259.834,126.308 258.896,119.624 255.697,120.074 255.582,119.257" style="fill:none;stroke-width:0.050000mm;stroke:black"/>
<polygon points="159.439,119.543 156.240,119.094 155.301,125.778 158.500,126.228 158.288,127.738 153.633,127.084 151.685,140.948 156.339,141.602 156.127,143.112 152.928,142.662 151.989,149.347 155.187,149.796 155.072,150.613 157.845,151.003 157.960,150.186 164.169,151.058 164.409,149.350 165.597,149.517 166.057,146.249 164.868,146.082 165.108,144.374 160.682,143.752 160.894,142.242 165.548,142.896 167.497,129.032 162.843,128.377 163.055,126.868 167.481,127.490 167.721,125.782 168.910,125.949 169.369,122.681 168.181,122.514 168.421,120.806 162.212,119.933 162.327,119.116 159.554,118.726" style="fill:none;stroke-width:0.050000mm;stroke:black"/>
<polygon points="271.674,116.995 271.789,117.812 265.580,118.685 265.820,120.393 264.632,120.560 265.091,123.828 266.279,123.661 266.519,125.369 270.946,124.747 271.158,126.257 266.504,126.911 268.452,140.775 273.107,140.121 273.319,141.631 268.892,142.253 269.132,143.961 267.944,144.128 268.403,147.396 269.592,147.229 269.832,148.937 276.041,148.065 276.156,148.882 278.928,148.492 278.813,147.675 282.012,147.226 281.073,140.541 277.874,140.991 277.662,139.481 282.316,138.827 280.368,124.963 275.713,125.617 275.501,124.107 278.700,123.657 277.760,116.973 274.562,117.422 274.447,116.605" style="fill:none;stroke-width:0.050000mm;stroke:black"/>
<polygon points="140.574,116.892 137.376,116.443 136.436,123.127 139.635,123.577 139.423,125.087 134.768,124.433 132.820,138.296 137.474,138.950 137.262,140.461 134.063,140.011 133.124,146.695 136.323,147.145 136.208,147.962 138.981,148.352 139.095,147.535 145.304,148.407 145.544,146.699 146.733,146.866 147.192,143.598 146.004,143.431 146.244,141.723 141.817,141.101 142.029,139.591 146.684,140.245 148.632,126.381 143.978,125.727 144.190,124.217 148.617,124.839 148.857,123.131 150.045,123.298 150.504,120.030 149.316,119.863 149.556,118.155 143.347,117.282 143.462,116.465 140.689,116.075" style="fill:none;stroke-width:0.050000mm;stroke:black"/>
<polygon points="286.363,131.334 288.311,145.198 302.175,143.250 300.226,129.386" style="fill:none;stroke-width:0.050000mm;stroke:black"/>
<polygon points="112.961,142.719 126.825,144.668 128.773,130.804 114.910,128.856" style="fill:none;stroke-width:0.050000mm;stroke:black"/>
<polygon points="227.449,122.781 229.397,136.645 243.261,134.697 241.313,120.833" style="fill:none;stroke-width:0.050000mm;stroke:black"/>
<polygon points="171.875,134.167 185.739,136.115 187.687,122.251 173.823,120.303" style="fill:none;stroke-width:0.050000mm;stroke:black"/>
<polygon points="12.431,114.824 12.431,128.824 26.431,128.824 26.431,114.824" style="fill:none;stroke-width:0.050000mm;stroke:black"/>
<polygon points="36.243,114.824 36.243,128.824 50.243,128.824 50.243,114.824" style="fill:none;stroke-width:0.050000mm;stroke:black"/>
<polygon points="57.675,114.824 57.675,128.824 71.675,128.824 71.675,114.824" style="fill:none;stroke-width:0.050000mm;stroke:black"/>
<polygon points="76.725,114.824 76.725,128.824 90.725,128.824 90.725,114.824" style="fill:none;stroke-width:0.050000mm;stroke:black"/>
<polygon points="95.774,114.824 95.774,128.824 109.774,128.824 109.774,114.824" style="fill:none;stroke-width:0.050000mm;stroke:black"/>
<polygon points="305.325,114.824 305.325,128.824 319.325,128.824 319.325,114.824" style="fill:none;stroke-width:0.050000mm;stroke:black"/>
<polygon points="324.375,114.824 324.375,128.824 338.375,128.824 338.375,114.824" style="fill:none;stroke-width:0.050000mm;stroke:black"/>
<polygon points="343.425,114.824 343.425,128.824 357.425,128.824 357.425,114.824" style="fill:none;stroke-width:0.050000mm;stroke:black"/>
<polygon points="364.856,114.824 364.856,128.824 378.856,128.824 378.856,114.824" style="fill:none;stroke-width:0.050000mm;stroke:black"/>
<polygon points="388.668,114.824 388.668,128.824 402.668,128.824 402.668,114.824" style="fill:none;stroke-width:0.050000mm;stroke:black"/>
<polygon points="224.798,103.917 226.746,117.781 240.610,115.832 238.662,101.968" style="fill:none;stroke-width:0.050000mm;stroke:black"/>
<polygon points="174.526,115.302 188.390,117.250 190.338,103.387 176.475,101.438" style="fill:none;stroke-width:0.050000mm;stroke:black"/>
<polygon points="26.718,95.774 26.718,100.475 25.193,100.475 25.193,97.244 18.443,97.244 18.443,100.475 17.618,100.475 17.618,103.274 18.443,103.274 18.443,109.544 20.168,109.544 20.168,110.744 23.468,110.744 23.468,109.544 25.193,109.544 25.193,105.074 26.718,105.074 26.718,109.774 40.718,109.774 40.718,105.074 42.243,105.074 42.243,109.544 43.968,109.544 43.968,110.744 47.268,110.744 47.268,109.544 48.993,109.544 48.993,103.274 49.818,103.274 49.818,100.475 48.993,100.475 48.993,97.244 42.243,97.244 42.243,100.475 40.718,100.475 40.718,95.774" style="fill:none;stroke-width:0.050000mm;stroke:black"/>
<polygon points="379.143,95.774 379.143,100.475 377.618,100.475 377.618,97.244 370.868,97.244 370.868,100.475 370.043,100.475 370.043,103.274 370.868,103.274 370.868,109.544 372.593,109.544 372.593,110.744 375.893,110.744 375.893,109.544 377.618,109.544 377.618,105.074 379.143,105.074 379.143,109.774 393.143,109.774 393.143,105.074 394.668,105.074 394.668,109.544 396.393,109.544 396.393,110.744 399.693,110.744 399.693,109.544 401.418,109.544 401.418,103.274 402.243,103.274 402.243,100.475 401.418,100.475 401.418,97.244 394.668,97.244 394.668,100.475 393.143,100.475 393.143,95.774" style="fill:none;stroke-width:0.050000mm;stroke:black"/>
<polygon points="57.675,95.774 57.675,109.774 71.675,109.774 71.675,95.774" style="fill:none;stroke-width:0.050000mm;stroke:black"/>
<polygon points="76.725,95.774 76.725,109.774 90.725,109.774 90.725,95.774" style="fill:none;stroke-width:0.050000mm;stroke:black"/>
<polygon points="95.775,95.774 95.775,109.774 109.775,109.774 109.775,95.774" style="fill:none;stroke-width:0.050000mm;stroke:black"/>
<polygon points="114.825,95.774 114.825,109.774 128.824,109.774 128.824,95.774" style="fill:none;stroke-width:0.050000mm;stroke:black"/>
<polygon points="133.875,95.774 133.875,109.774 147.875,109.774 147.875,95.774" style="fill:none;stroke-width:0.050000mm;stroke:black"/>
<polygon points="267.225,95.774 267.225,109.774 281.225,109.774 281.225,95.774" style="fill:none;stroke-width:0.050000mm;stroke:black"/>
<polygon points="286.275,95.774 286.275,109.774 300.275,109.774 300.275,95.774" style="fill:none;stroke-width:0.050000mm;stroke:black"/>
<polygon points="305.325,95.774 305.325,109.774 319.325,109.774 319.325,95.774" style="fill:none;stroke-width:0.050000mm;stroke:black"/>
<polygon points="324.375,95.774 324.375,109.774 338.375,109.774 338.375,95.774" style="fill:none;stroke-width:0.050000mm;stroke:black"/>
<polygon points="343.425,95.774 343.425,109.774 357.425,109.774 357.425,95.774" style="fill:none;stroke-width:0.050000mm;stroke:black"/>
<polygon points="393.431,76.725 393.431,81.425 391.906,81.425 391.906,78.195 385.156,78.195 385.156,81.425 384.331,81.425 384.331,84.225 385.156,84.225 385.156,90.494 386.881,90.494 386.881,91.695 390.181,91.695 390.181,90.494 391.906,90.494 391.906,86.024 393.431,86.024 393.431,90.725 407.431,90.725 407.431,86.024 408.956,86.024 408.956,90.494 410.681,90.494 410.681,91.695 413.981,91.695 413.981,90.494 415.706,90.494 415.706,84.225 416.531,84.225 416.531,81.425 415.706,81.425 415.706,78.195 408.956,78.195 408.956,81.425 407.431,81.425 407.431,76.725" style="fill:none;stroke-width:0.050000mm;stroke:black"/>
<polygon points="31.481,76.725 31.481,90.725 45.481,90.725 45.481,76.725" style="fill:none;stroke-width:0.050000mm;stroke:black"/>
<polygon points="57.675,76.725 57.675,90.725 71.675,90.725 71.675,76.725" style="fill:none;stroke-width:0.050000mm;stroke:black"/>
<polygon points="76.725,76.725 76.725,90.725 90.725,90.725 90.725,76.725" style="fill:none;stroke-width:0.050000mm;stroke:black"/>
<polygon points="95.775,76.725 95.775,90.725 109.775,90.725 109.775,76.725" style="fill:none;stroke-width:0.050000mm;stroke:black"/>
<polygon points="114.825,76.725 114.825,90.725 128.824,90.725 128.824,76.725" style="fill:none;stroke-width:0.050000mm;stroke:black"/>
<polygon points="133.875,76.725 133.875,90.725 147.875,90.725 147.875,76.725" style="fill:none;stroke-width:0.050000mm;stroke:black"/>
<polygon points="152.925,76.725 152.925,90.725 166.925,90.725 166.925,76.725" style="fill:none;stroke-width:0.050000mm;stroke:black"/>
<polygon points="176.737,76.725 176.737,90.725 190.737,90.725 190.737,76.725" style="fill:none;stroke-width:0.050000mm;stroke:black"/>
<polygon points="224.362,76.725 224.362,90.725 238.362,90.725 238.362,76.725" style="fill:none;stroke-width:0.050000mm;stroke:black"/>
<polygon points="248.175,76.725 248.175,90.725 262.175,90.725 262.175,76.725" style="fill:none;stroke-width:0.050000mm;stroke:black"/>
<polygon points="267.225,76.725 267.225,90.725 281.225,90.725 281.225,76.725" style="fill:none;stroke-width:0.050000mm;stroke:black"/>
<polygon points="286.275,76.725 286.275,90.725 300.275,90.725 300.275,76.725" style="fill:none;stroke-width:0.050000mm;stroke:black"/>
<polygon points="305.325,76.725 305.325,90.725 319.325,90.725 319.325,76.725" style="fill:none;stroke-width:0.050000mm;stroke:black"/>
<polygon points="324.375,76.725 324.375,90.725 338.375,90.725 338.375,76.725" style="fill:none;stroke-width:0.050000mm;stroke:black"/>
<polygon points="343.425,76.725 343.425,90.725 357.425,90.725 357.425,76.725" style="fill:none;stroke-width:0.050000mm;stroke:black"/>
<polygon points="362.475,76.725 362.475,90.725 376.475,90.725 376.475,76.725" style="fill:none;stroke-width:0.050000mm;stroke:black"/>
<polygon points="33.862,57.675 33.862,71.675 47.862,71.675 47.862,57.675" style="fill:none;stroke-width:0.050000mm;stroke:black"/>
<polygon points="57.675,57.675 57.675,71.675 71.675,71.675 71.675,57.675" style="fill:none;stroke-width:0.050000mm;stroke:black"/>
<polygon points="76.725,57.675 76.725,71.675 90.725,71.675 90.725,57.675" style="fill:none;stroke-width:0.050000mm;stroke:black"/>
<polygon points="95.775,57.675 95.775,71.675 109.775,71.675 109.775,57.675" style="fill:none;stroke-width:0.050000mm;stroke:black"/>
<polygon points="114.825,57.675 114.825,71.675 128.824,71.675 128.824,57.675" style="fill:none;stroke-width:0.050000mm;stroke:black"/>
<polygon points="133.875,57.675 133.875,71.675 147.875,71.675 147.875,57.675" style="fill:none;stroke-width:0.050000mm;stroke:black"/>
<polygon points="152.925,57.675 152.925,71.675 166.925,71.675 166.925,57.675" style="fill:none;stroke-width:0.050000mm;stroke:black"/>
<polygon points="176.737,57.675 176.737,71.675 190.737,71.675 190.737,57.675" style="fill:none;stroke-width:0.050000mm;stroke:black"/>
<polygon points="224.362,57.675 224.362,71.675 238.362,71.675 238.362,57.675" style="fill:none;stroke-width:0.050000mm;stroke:black"/>
<polygon points="248.175,57.675 248.175,71.675 262.175,71.675 262.175,57.675" style="fill:none;stroke-width:0.050000mm;stroke:black"/>
<polygon points="267.225,57.675 267.225,71.675 281.225,71.675 281.225,57.675" style="fill:none;stroke-width:0.050000mm;stroke:black"/>
<polygon points="286.275,57.675 286.275,71.675 300.275,71.675 300.275,57.675" style="fill:none;stroke-width:0.050000mm;stroke:black"/>
<polygon points="305.325,57.675 305.325,71.675 319.325,71.675 319.325,57.675" style="fill:none;stroke-width:0.050000mm;stroke:black"/>
<polygon points="324.375,57.675 324.375,71.675 338.375,71.675 338.375,57.675" style="fill:none;stroke-width:0.050000mm;stroke:black"/>
<polygon points="343.425,57.675 343.425,71.675 357.425,71.675 357.425,57.675" style="fill:none;stroke-width:0.050000mm;stroke:black"/>
<polygon points="362.475,57.675 362.475,71.675 376.475,71.675 376.475,57.675" style="fill:none;stroke-width:0.050000mm;stroke:black"/>
<polygon points="381.525,57.675 381.525,71.675 395.525,71.675 395.525,57.675" style="fill:none;stroke-width:0.050000mm;stroke:black"/>
<polygon points="405.337,57.675 405.337,71.675 419.337,71.675 419.337,57.675" style="fill:none;stroke-width:0.050000mm;stroke:black"/>
<polygon points="410.100,38.625 410.100,43.325 408.575,43.325 408.575,40.095 401.825,40.095 401.825,43.325 401.000,43.325 401.000,46.125 401.825,46.125 401.825,52.394 403.550,52.394 403.550,53.595 406.850,53.595 406.850,52.394 408.575,52.394 408.575,47.925 410.100,47.925 410.100,52.625 424.100,52.625 424.100,47.925 425.625,47.925 425.625,52.394 427.350,52.394 427.350,53.595 430.650,53.595 430.650,52.394 432.375,52.394 432.375,46.125 433.200,46.125 433.200,43.325 432.375,43.325 432.375,40.095 425.625,40.095 425.625,43.325 424.100,43.325 424.100,38.625" style="fill:none;stroke-width:0.050000mm;stroke:black"/>
<polygon points="38.625,38.625 38.625,52.625 52.625,52.625 52.625,38.625" style="fill:none;stroke-width:0.050000mm;stroke:black"/>
<polygon points="57.675,38.625 57.675,52.625 71.675,52.625 71.675,38.625" style="fill:none;stroke-width:0.050000mm;stroke:black"/>
<polygon points="76.725,38.625 76.725,52.625 90.725,52.625 90.725,38.625" style="fill:none;stroke-width:0.050000mm;stroke:black"/>
<polygon points="95.774,38.625 95.774,52.625 109.774,52.625 109.774,38.625" style="fill:none;stroke-width:0.050000mm;stroke:black"/>
<polygon points="114.824,38.625 114.824,52.625 128.824,52.625 128.824,38.625" style="fill:none;stroke-width:0.050000mm;stroke:black"/>
<polygon points="133.875,38.625 133.875,52.625 147.875,52.625 147.875,38.625" style="fill:none;stroke-width:0.050000mm;stroke:black"/>
<polygon points="152.925,38.625 152.925,52.625 166.925,52.625 166.925,38.625" style="fill:none;stroke-width:0.050000mm;stroke:black"/>
<polygon points="176.737,38.625 176.737,52.625 190.737,52.625 190.737,38.625" style="fill:none;stroke-width:0.050000mm;stroke:black"/>
<polygon points="224.362,38.625 224.362,52.625 238.362,52.625 238.362,38.625" style="fill:none;stroke-width:0.050000mm;stroke:black"/>
<polygon points="248.175,38.625 248.175,52.625 262.175,52.625 262.175,38.625" style="fill:none;stroke-width:0.050000mm;stroke:black"/>
<polygon points="267.225,38.625 267.225,52.625 281.225,52.625 281.225,38.625" style="fill:none;stroke-width:0.050000mm;stroke:black"/>
<polygon points="286.275,38.625 286.275,52.625 300.275,52.625 300.275,38.625" style="fill:none;stroke-width:0.050000mm;stroke:black"/>
<polygon points="305.325,38.625 305.325,52.625 319.325,52.625 319.325,38.625" style="fill:none;stroke-width:0.050000mm;stroke:black"/>
<polygon points="324.375,38.625 324.375,52.625 338.375,52.625 338.375,38.625" style="fill:none;stroke-width:0.050000mm;stroke:black"/>
<polygon points="343.425,38.625 343.425,52.625 357.425,52.625 357.425,38.625" style="fill:none;stroke-width:0.050000mm;stroke:black"/>
<polygon points="362.475,38.625 362.475,52.625 376.475,52.625 376.475,38.625" style="fill:none;stroke-width:0.050000mm;stroke:black"/>
<polygon points="381.525,38.625 381.525,52.625 395.525,52.625 395.525,38.625" style="fill:none;stroke-width:0.050000mm;stroke:black"/>
<polygon points="29.100,14.812 29.100,28.812 43.100,28.812 43.100,14.812" style="fill:none;stroke-width:0.050000mm;stroke:black"/>
<polygon points="52.912,14.812 52.912,28.812 66.912,28.812 66.912,14.812" style="fill:none;stroke-width:0.050000mm;stroke:black"/>
<polygon points="71.962,14.812 71.962,28.812 85.962,28.812 85.962,14.812" style="fill:none;stroke-width:0.050000mm;stroke:black"/>
<polygon points="91.012,14.812 91.012,28.812 105.012,28.812 105.012,14.812" style="fill:none;stroke-width:0.050000mm;stroke:black"/>
<polygon points="110.062,14.812 110.062,28.812 124.062,28.812 124.062,14.812" style="fill:none;stroke-width:0.050000mm;stroke:black"/>
<polygon points="133.875,14.812 133.875,28.812 147.875,28.812 147.875,14.812" style="fill:none;stroke-width:0.050000mm;stroke:black"/>
<polygon points="152.925,14.812 152.925,28.812 166.925,28.812 166.925,14.812" style="fill:none;stroke-width:0.050000mm;stroke:black"/>
<polygon points="248.175,14.812 248.175,28.812 262.175,28.812 262.175,14.812" style="fill:none;stroke-width:0.050000mm;stroke:black"/>
<polygon points="267.225,14.812 267.225,28.812 281.225,28.812 281.225,14.812" style="fill:none;stroke-width:0.050000mm;stroke:black"/>
<polygon points="291.037,14.812 291.037,28.812 305.037,28.812 305.037,14.812" style="fill:none;stroke-width:0.050000mm;stroke:black"/>
<polygon points="310.087,14.812 310.087,28.812 324.087,28.812 324.087,14.812" style="fill:none;stroke-width:0.050000mm;stroke:black"/>
<polygon points="329.137,14.812 329.137,28.812 343.137,28.812 343.137,14.812" style="fill:none;stroke-width:0.050000mm;stroke:black"/>
<polygon points="348.187,14.812 348.187,28.812 362.187,28.812 362.187,14.812" style="fill:none;stroke-width:0.050000mm;stroke:black"/>
<polygon points="372.000,14.812 372.000,28.812 386.000,28.812 386.000,14.812" style="fill:none;stroke-width:0.050000mm;stroke:black"/>
</svg>
