%TF.GenerationSoftware,KiCad,Pcbnew,7.0.5-0*%
%TF.CreationDate,2023-07-29T12:44:27-07:00*%
%TF.ProjectId,ergodonk_simple,6572676f-646f-46e6-9b5f-73696d706c65,rev?*%
%TF.SameCoordinates,Original*%
%TF.FileFunction,Soldermask,Bot*%
%TF.FilePolarity,Negative*%
%FSLAX46Y46*%
G04 Gerber Fmt 4.6, Leading zero omitted, Abs format (unit mm)*
G04 Created by KiCad (PCBNEW 7.0.5-0) date 2023-07-29 12:44:27*
%MOMM*%
%LPD*%
G01*
G04 APERTURE LIST*
G04 Aperture macros list*
%AMHorizOval*
0 Thick line with rounded ends*
0 $1 width*
0 $2 $3 position (X,Y) of the first rounded end (center of the circle)*
0 $4 $5 position (X,Y) of the second rounded end (center of the circle)*
0 Add line between two ends*
20,1,$1,$2,$3,$4,$5,0*
0 Add two circle primitives to create the rounded ends*
1,1,$1,$2,$3*
1,1,$1,$4,$5*%
G04 Aperture macros list end*
%ADD10HorizOval,2.800000X-0.062717X0.596713X0.062717X-0.596713X0*%
%ADD11C,2.400000*%
%ADD12C,4.200000*%
%ADD13HorizOval,1.600000X0.657785X0.239414X-0.657785X-0.239414X0*%
%ADD14C,40.600000*%
%ADD15HorizOval,1.600000X0.657785X-0.239414X-0.657785X0.239414X0*%
%ADD16C,2.200000*%
%ADD17HorizOval,2.800000X0.062717X0.596713X-0.062717X-0.596713X0*%
%ADD18C,0.500000*%
%ADD19C,3.750000*%
%ADD20R,1.800000X1.800000*%
%ADD21C,1.800000*%
G04 APERTURE END LIST*
D10*
%TO.C,REF\u002A\u002A*%
X132258865Y-96921325D03*
D11*
X137812903Y-88083875D03*
D12*
X140754032Y-105636750D03*
D13*
X150839396Y-65699221D03*
D12*
X161100000Y-70396500D03*
D14*
X161100000Y-93890000D03*
D15*
X171360604Y-65699221D03*
D12*
X181445968Y-105636750D03*
D11*
X184659052Y-89310584D03*
D16*
X186080000Y-101550000D03*
D17*
X189941135Y-96921325D03*
D18*
X130112303Y-87646934D03*
X130550709Y-86586274D03*
X130550709Y-88707595D03*
X131611369Y-86147868D03*
D19*
X131611369Y-87646934D03*
D18*
X131611369Y-89146001D03*
X132672029Y-86586274D03*
X132672029Y-88707595D03*
X133110435Y-87646934D03*
X143561474Y-68371204D03*
X143999880Y-67310543D03*
X143999880Y-69431864D03*
X145060540Y-66872137D03*
D19*
X145060540Y-68371204D03*
D18*
X145060540Y-69870270D03*
X146121200Y-67310543D03*
X146121200Y-69431864D03*
X146559606Y-68371204D03*
X170551739Y-122033537D03*
X170990146Y-120972877D03*
X170990146Y-123094197D03*
X172050806Y-120534471D03*
D19*
X172050806Y-122033537D03*
D18*
X172050806Y-123532604D03*
X173111466Y-120972877D03*
X173111466Y-123094197D03*
X173549872Y-122033537D03*
D20*
X158600000Y-123890000D03*
D21*
X163600000Y-123890000D03*
X161100000Y-123890000D03*
%TD*%
M02*
